<svg class="generator__canvas" viewBox="0 0 200 200" xmlns="http://www.w3.org/2000/svg" version="1.1" xmlns:xlink="http://www.w3.org/1999/xlink" xmlns:svgjs="http://svgjs.dev/svgjs"><circle r="5" cx="5" cy="5" fill="#1a1a1a" transform="matrix(0.5771290440517695,0,0,0.5771290440517695,2.1143547797411526,2.1143547797411526)"></circle><circle r="5" cx="5" cy="15" fill="#1a1a1a" transform="matrix(0.5955996301871911,0,0,0.5955996301871911,2.0220018490640443,6.066005547192134)"></circle><circle r="5" cx="5" cy="25" fill="#1a1a1a" transform="matrix(0.6134019343696604,0,0,0.6134019343696604,1.932990328151698,9.66495164075849)"></circle><circle r="5" cx="5" cy="35" fill="#1a1a1a" transform="matrix(0.6238094701711497,0,0,0.6238094701711497,1.8809526491442514,13.16666854400976)"></circle><circle r="5" cx="5" cy="45" fill="#1a1a1a" transform="matrix(0.6250583128145322,0,0,0.6250583128145322,1.8747084359273392,16.872375923346052)"></circle><circle r="5" cx="5" cy="55" fill="#1a1a1a" transform="matrix(0.6176228509911952,0,0,0.6176228509911952,1.911885745044024,21.030743195484263)"></circle><circle r="5" cx="5" cy="65" fill="#1a1a1a" transform="matrix(0.6040337508296924,0,0,0.6040337508296924,1.9798312458515381,25.737806196069997)"></circle><circle r="5" cx="5" cy="75" fill="#1a1a1a" transform="matrix(0.5878496505699242,0,0,0.5878496505699242,2.0607517471503787,30.911276207255682)"></circle><circle r="5" cx="5" cy="85" fill="#1a1a1a" transform="matrix(0.5726653079118833,0,0,0.5726653079118833,2.1366734604405835,36.32344882748992)"></circle><circle r="5" cx="5" cy="95" fill="#1a1a1a" transform="matrix(0.5618930528543132,0,0,0.5618930528543132,2.1905347357284337,41.62015997884024)"></circle><circle r="5" cx="5" cy="105" fill="#1a1a1a" transform="matrix(0.5588460451503933,0,0,0.5588460451503933,2.2057697742480338,46.321165259208705)"></circle><circle r="5" cx="5" cy="115" fill="#1a1a1a" transform="matrix(0.5653069393281811,0,0,0.5653069393281811,2.1734653033590945,49.98970197725917)"></circle><circle r="5" cx="5" cy="125" fill="#1a1a1a" transform="matrix(0.5806617313888647,0,0,0.5806617313888647,2.0966913430556766,52.41728357639191)"></circle><circle r="5" cx="5" cy="135" fill="#1a1a1a" transform="matrix(0.6018881070773527,0,0,0.6018881070773527,1.990559464613236,53.745105544557376)"></circle><circle r="5" cx="5" cy="145" fill="#1a1a1a" transform="matrix(0.6241618651126812,0,0,0.6241618651126812,1.879190674436594,54.49652955866122)"></circle><circle r="5" cx="5" cy="155" fill="#1a1a1a" transform="matrix(0.6419143239703065,0,0,0.6419143239703065,1.7904283801484677,55.5032797846025)"></circle><circle r="5" cx="5" cy="165" fill="#1a1a1a" transform="matrix(0.6502450143840073,0,0,0.6502450143840073,1.7487749280799636,57.7095726266388)"></circle><circle r="5" cx="5" cy="175" fill="#1a1a1a" transform="matrix(0.6464174611187401,0,0,0.6464174611187401,1.7679126944062995,61.87694430422049)"></circle><circle r="5" cx="5" cy="185" fill="#1a1a1a" transform="matrix(0.6280589906162125,0,0,0.6280589906162125,1.8597050469189376,68.80908673600068)"></circle><circle r="5" cx="5" cy="195" fill="#1a1a1a" transform="matrix(0.5924534968812971,0,0,0.5924534968812971,2.0377325155935146,79.47156810814707)"></circle><circle r="5" cx="15" cy="5" fill="#1a1a1a" transform="matrix(0.5976918376764513,0,0,0.5976918376764513,6.034622434853231,2.011540811617744)"></circle><circle r="5" cx="15" cy="15" fill="#1a1a1a" transform="matrix(0.6186672331303356,0,0,0.6186672331303356,5.719991503044966,5.719991503044966)"></circle><circle r="5" cx="15" cy="25" fill="#1a1a1a" transform="matrix(0.6374875167875179,0,0,0.6374875167875179,5.437687248187231,9.062812080312051)"></circle><circle r="5" cx="15" cy="35" fill="#1a1a1a" transform="matrix(0.6466953322941164,0,0,0.6466953322941164,5.299570015588255,12.365663369705928)"></circle><circle r="5" cx="15" cy="45" fill="#1a1a1a" transform="matrix(0.644964942221214,0,0,0.644964942221214,5.32552586668179,15.976577600045367)"></circle><circle r="5" cx="15" cy="55" fill="#1a1a1a" transform="matrix(0.6346418951806301,0,0,0.6346418951806301,5.480371572290549,20.094695765065346)"></circle><circle r="5" cx="15" cy="65" fill="#1a1a1a" transform="matrix(0.6200030941782856,0,0,0.6200030941782856,5.699953587325716,24.699798878411436)"></circle><circle r="5" cx="15" cy="75" fill="#1a1a1a" transform="matrix(0.6051092119075949,0,0,0.6051092119075949,5.9233618213860755,29.616809106930383)"></circle><circle r="5" cx="15" cy="85" fill="#1a1a1a" transform="matrix(0.59273334679284,0,0,0.59273334679284,6.108999798107401,34.617665522608604)"></circle><circle r="5" cx="15" cy="95" fill="#1a1a1a" transform="matrix(0.5848321983229512,0,0,0.5848321983229512,6.227517025155732,39.440941159319635)"></circle><circle r="5" cx="15" cy="105" fill="#1a1a1a" transform="matrix(0.5833586339973535,0,0,0.5833586339973535,6.249620490039696,43.74734343027788)"></circle><circle r="5" cx="15" cy="115" fill="#1a1a1a" transform="matrix(0.5895750815392353,0,0,0.5895750815392353,6.156373776911471,47.19886562298794)"></circle><circle r="5" cx="15" cy="125" fill="#1a1a1a" transform="matrix(0.6028642158351364,0,0,0.6028642158351364,5.9570367624729545,49.64197302060795)"></circle><circle r="5" cx="15" cy="135" fill="#1a1a1a" transform="matrix(0.6203833891829017,0,0,0.6203833891829017,5.694249162256474,51.248242460308276)"></circle><circle r="5" cx="15" cy="145" fill="#1a1a1a" transform="matrix(0.6375003450139851,0,0,0.6375003450139851,5.437494824790223,52.56244997297216)"></circle><circle r="5" cx="15" cy="155" fill="#1a1a1a" transform="matrix(0.6488590856841203,0,0,0.6488590856841203,5.267113714738196,54.426841718961356)"></circle><circle r="5" cx="15" cy="165" fill="#1a1a1a" transform="matrix(0.6500001631807496,0,0,0.6500001631807496,5.249997552288756,57.749973075176314)"></circle><circle r="5" cx="15" cy="175" fill="#1a1a1a" transform="matrix(0.6387358456540125,0,0,0.6387358456540125,5.4189623151898125,63.22122701054781)"></circle><circle r="5" cx="15" cy="185" fill="#1a1a1a" transform="matrix(0.6120937953274546,0,0,0.6120937953274546,5.818593070088182,71.76264786442091)"></circle><circle r="5" cx="15" cy="195" fill="#1a1a1a" transform="matrix(0.5674556503802887,0,0,0.5674556503802887,6.48816524429567,84.34614817584371)"></circle><circle r="5" cx="25" cy="5" fill="#1a1a1a" transform="matrix(0.6129363476367018,0,0,0.6129363476367018,9.676591309082456,1.9353182618164908)"></circle><circle r="5" cx="25" cy="15" fill="#1a1a1a" transform="matrix(0.6357182099033186,0,0,0.6357182099033186,9.107044752417034,5.464226851450221)"></circle><circle r="5" cx="25" cy="25" fill="#1a1a1a" transform="matrix(0.6538358633111703,0,0,0.6538358633111703,8.654103417220743,8.654103417220743)"></circle><circle r="5" cx="25" cy="35" fill="#1a1a1a" transform="matrix(0.6596226226318294,0,0,0.6596226226318294,8.509434434204266,11.913208207885972)"></circle><circle r="5" cx="25" cy="45" fill="#1a1a1a" transform="matrix(0.652832373563655,0,0,0.652832373563655,8.679190660908624,15.622543189635525)"></circle><circle r="5" cx="25" cy="55" fill="#1a1a1a" transform="matrix(0.6377027764043182,0,0,0.6377027764043182,9.057430589892046,19.926347297762504)"></circle><circle r="5" cx="25" cy="65" fill="#1a1a1a" transform="matrix(0.6201283175558341,0,0,0.6201283175558341,9.496792061104149,24.691659358870787)"></circle><circle r="5" cx="25" cy="75" fill="#1a1a1a" transform="matrix(0.6053213207841628,0,0,0.6053213207841628,9.86696698039593,29.60090094118779)"></circle><circle r="5" cx="25" cy="85" fill="#1a1a1a" transform="matrix(0.5962610493646143,0,0,0.5962610493646143,10.093473765884642,34.317810804007784)"></circle><circle r="5" cx="25" cy="95" fill="#1a1a1a" transform="matrix(0.5934189234506482,0,0,0.5934189234506482,10.164526913733795,38.625202272188425)"></circle><circle r="5" cx="25" cy="105" fill="#1a1a1a" transform="matrix(0.5963311554193558,0,0,0.5963311554193558,10.091721114516105,42.38522868096764)"></circle><circle r="5" cx="25" cy="115" fill="#1a1a1a" transform="matrix(0.6048783304471199,0,0,0.6048783304471199,9.878041738822002,45.438991998581216)"></circle><circle r="5" cx="25" cy="125" fill="#1a1a1a" transform="matrix(0.6180224329879032,0,0,0.6180224329879032,9.549439175302421,47.74719587651211)"></circle><circle r="5" cx="25" cy="135" fill="#1a1a1a" transform="matrix(0.6330059471203933,0,0,0.6330059471203933,9.174851321990168,49.54419713874691)"></circle><circle r="5" cx="25" cy="145" fill="#1a1a1a" transform="matrix(0.6455520898545555,0,0,0.6455520898545555,8.861197753636112,51.39494697108945)"></circle><circle r="5" cx="25" cy="155" fill="#1a1a1a" transform="matrix(0.6509067070983119,0,0,0.6509067070983119,8.727332322542203,54.10946039976166)"></circle><circle r="5" cx="25" cy="165" fill="#1a1a1a" transform="matrix(0.6456513124762667,0,0,0.6456513124762667,8.858717188093333,58.467533441415995)"></circle><circle r="5" cx="25" cy="175" fill="#1a1a1a" transform="matrix(0.6284004740748842,0,0,0.6284004740748842,9.289988148127895,65.02991703689527)"></circle><circle r="5" cx="25" cy="185" fill="#1a1a1a" transform="matrix(0.5958136245694035,0,0,0.5958136245694035,10.104659385764913,74.77447945466037)"></circle><circle r="5" cx="25" cy="195" fill="#1a1a1a" transform="matrix(0.5453876681558905,0,0,0.5453876681558905,11.36530829610274,88.64940470960136)"></circle><circle r="5" cx="35" cy="5" fill="#1a1a1a" transform="matrix(0.6260020501370426,0,0,0.6260020501370426,13.08992824520351,1.869989749314787)"></circle><circle r="5" cx="35" cy="15" fill="#1a1a1a" transform="matrix(0.6508220745525638,0,0,0.6508220745525638,12.221227390660268,5.237668881711542)"></circle><circle r="5" cx="35" cy="25" fill="#1a1a1a" transform="matrix(0.6676283085290275,0,0,0.6676283085290275,11.633009201484036,8.309292286774312)"></circle><circle r="5" cx="35" cy="35" fill="#1a1a1a" transform="matrix(0.6691892889279633,0,0,0.6691892889279633,11.578374887521285,11.578374887521285)"></circle><circle r="5" cx="35" cy="45" fill="#1a1a1a" transform="matrix(0.6564822731996358,0,0,0.6564822731996358,12.023120438012747,15.458297706016388)"></circle><circle r="5" cx="35" cy="55" fill="#1a1a1a" transform="matrix(0.6349755136371286,0,0,0.6349755136371286,12.7758570227005,20.076346749957928)"></circle><circle r="5" cx="35" cy="65" fill="#1a1a1a" transform="matrix(0.6118633167550453,0,0,0.6118633167550453,13.584783913573414,25.22888441092205)"></circle><circle r="5" cx="35" cy="75" fill="#1a1a1a" transform="matrix(0.5937617978535661,0,0,0.5937617978535661,14.218337075125188,30.46786516098254)"></circle><circle r="5" cx="35" cy="85" fill="#1a1a1a" transform="matrix(0.5847926934447621,0,0,0.5847926934447621,14.532255729433324,35.29262105719522)"></circle><circle r="5" cx="35" cy="95" fill="#1a1a1a" transform="matrix(0.5855181650337771,0,0,0.5855181650337771,14.506864223817804,39.37577432179118)"></circle><circle r="5" cx="35" cy="105" fill="#1a1a1a" transform="matrix(0.593488471658941,0,0,0.593488471658941,14.227903491937063,42.68371047581119)"></circle><circle r="5" cx="35" cy="115" fill="#1a1a1a" transform="matrix(0.60590768301101,0,0,0.60590768301101,13.79323109461465,45.32061645373386)"></circle><circle r="5" cx="35" cy="125" fill="#1a1a1a" transform="matrix(0.6205397939424986,0,0,0.6205397939424986,13.28110721201255,47.432525757187676)"></circle><circle r="5" cx="35" cy="135" fill="#1a1a1a" transform="matrix(0.6343761046453159,0,0,0.6343761046453159,12.796836337413943,49.35922587288235)"></circle><circle r="5" cx="35" cy="145" fill="#1a1a1a" transform="matrix(0.6435307775238988,0,0,0.6435307775238988,12.476422786663544,51.68803725903469)"></circle><circle r="5" cx="35" cy="155" fill="#1a1a1a" transform="matrix(0.6442349127508921,0,0,0.6442349127508921,12.451778053718776,55.143588523611726)"></circle><circle r="5" cx="35" cy="165" fill="#1a1a1a" transform="matrix(0.6346636226758592,0,0,0.6346636226758592,12.786773206344929,60.28050225848324)"></circle><circle r="5" cx="35" cy="175" fill="#1a1a1a" transform="matrix(0.6142047628297591,0,0,0.6142047628297591,13.502833300958432,67.51416650479216)"></circle><circle r="5" cx="35" cy="185" fill="#1a1a1a" transform="matrix(0.579382843956122,0,0,0.579382843956122,14.72160046153573,77.81417386811742)"></circle><circle r="5" cx="35" cy="195" fill="#1a1a1a" transform="matrix(0.5276436328187768,0,0,0.5276436328187768,16.532472851342813,92.10949160033853)"></circle><circle r="5" cx="45" cy="5" fill="#1a1a1a" transform="matrix(0.6380169751801619,0,0,0.6380169751801619,16.289236116892717,1.8099151240991906)"></circle><circle r="5" cx="45" cy="15" fill="#1a1a1a" transform="matrix(0.6657640437875781,0,0,0.6657640437875781,15.040618029558985,5.013539343186327)"></circle><circle r="5" cx="45" cy="25" fill="#1a1a1a" transform="matrix(0.6817574158221609,0,0,0.6817574158221609,14.32091628800276,7.956064604445977)"></circle><circle r="5" cx="45" cy="35" fill="#1a1a1a" transform="matrix(0.679830455079743,0,0,0.679830455079743,14.407629521411565,11.205934072208994)"></circle><circle r="5" cx="45" cy="45" fill="#1a1a1a" transform="matrix(0.6616630339816423,0,0,0.6616630339816423,15.225163470826097,15.225163470826097)"></circle><circle r="5" cx="45" cy="55" fill="#1a1a1a" transform="matrix(0.6332185647217276,0,0,0.6332185647217276,16.50516458752226,20.172978940304986)"></circle><circle r="5" cx="45" cy="65" fill="#1a1a1a" transform="matrix(0.6025616937769839,0,0,0.6025616937769839,17.884723780035724,25.833489904496048)"></circle><circle r="5" cx="45" cy="75" fill="#1a1a1a" transform="matrix(0.5776534956101091,0,0,0.5776534956101091,19.00559269754509,31.675987829241812)"></circle><circle r="5" cx="45" cy="85" fill="#1a1a1a" transform="matrix(0.5641778700866926,0,0,0.5641778700866926,19.611995846098832,37.044881042631125)"></circle><circle r="5" cx="45" cy="95" fill="#1a1a1a" transform="matrix(0.5638510195994242,0,0,0.5638510195994242,19.626704118025913,41.434153138054704)"></circle><circle r="5" cx="45" cy="105" fill="#1a1a1a" transform="matrix(0.5739608671333756,0,0,0.5739608671333756,19.171760978998098,44.73410895099556)"></circle><circle r="5" cx="45" cy="115" fill="#1a1a1a" transform="matrix(0.5892044420483314,0,0,0.5892044420483314,18.485800107825085,47.24148916444189)"></circle><circle r="5" cx="45" cy="125" fill="#1a1a1a" transform="matrix(0.6053392181797599,0,0,0.6053392181797599,17.759735181910806,49.332597727530015)"></circle><circle r="5" cx="45" cy="135" fill="#1a1a1a" transform="matrix(0.6187047368056153,0,0,0.6187047368056153,17.15828684374731,51.47486053124193)"></circle><circle r="5" cx="45" cy="145" fill="#1a1a1a" transform="matrix(0.6256930426184198,0,0,0.6256930426184198,16.843813082171106,54.27450882032912)"></circle><circle r="5" cx="45" cy="155" fill="#1a1a1a" transform="matrix(0.6238793832514005,0,0,0.6238793832514005,16.92542775368698,58.29869559603293)"></circle><circle r="5" cx="45" cy="165" fill="#1a1a1a" transform="matrix(0.6129842709907929,0,0,0.6129842709907929,17.41570780541432,63.85759528651917)"></circle><circle r="5" cx="45" cy="175" fill="#1a1a1a" transform="matrix(0.5929054573408142,0,0,0.5929054573408142,18.31925441966336,71.2415449653575)"></circle><circle r="5" cx="45" cy="185" fill="#1a1a1a" transform="matrix(0.560243193153537,0,0,0.560243193153537,19.789056308090835,81.35500926659566)"></circle><circle r="5" cx="45" cy="195" fill="#1a1a1a" transform="matrix(0.5121423109080733,0,0,0.5121423109080733,21.953596009136703,95.13224937292571)"></circle><circle r="5" cx="55" cy="5" fill="#1a1a1a" transform="matrix(0.6480733435632889,0,0,0.6480733435632889,19.35596610401911,1.7596332821835552)"></circle><circle r="5" cx="55" cy="15" fill="#1a1a1a" transform="matrix(0.6799297339798994,0,0,0.6799297339798994,17.60386463110553,4.801053990301508)"></circle><circle r="5" cx="55" cy="25" fill="#1a1a1a" transform="matrix(0.6966001948986251,0,0,0.6966001948986251,16.686989280575617,7.584995127534373)"></circle><circle r="5" cx="55" cy="35" fill="#1a1a1a" transform="matrix(0.6931726198860557,0,0,0.6931726198860557,16.875505906266937,10.73895830398805)"></circle><circle r="5" cx="55" cy="45" fill="#1a1a1a" transform="matrix(0.6712116895845761,0,0,0.6712116895845761,18.083357072848315,14.795473968694075)"></circle><circle r="5" cx="55" cy="55" fill="#1a1a1a" transform="matrix(0.6365225716687031,0,0,0.6365225716687031,19.991258558221332,19.991258558221332)"></circle><circle r="5" cx="55" cy="65" fill="#1a1a1a" transform="matrix(0.5975477770051482,0,0,0.5975477770051482,22.134872264716854,26.15939449466537)"></circle><circle r="5" cx="55" cy="75" fill="#1a1a1a" transform="matrix(0.5633135368537644,0,0,0.5633135368537644,24.017755473042957,32.75148473596767)"></circle><circle r="5" cx="55" cy="85" fill="#1a1a1a" transform="matrix(0.541101926511635,0,0,0.541101926511635,25.239394041860074,39.006336246511026)"></circle><circle r="5" cx="55" cy="95" fill="#1a1a1a" transform="matrix(0.5342936285536453,0,0,0.5342936285536453,25.61385042954951,44.2421052874037)"></circle><circle r="5" cx="55" cy="105" fill="#1a1a1a" transform="matrix(0.5411171521311247,0,0,0.5411171521311247,25.238556632788143,48.18269902623191)"></circle><circle r="5" cx="55" cy="115" fill="#1a1a1a" transform="matrix(0.5553678054983668,0,0,0.5553678054983668,24.454770697589822,51.13270236768781)"></circle><circle r="5" cx="55" cy="125" fill="#1a1a1a" transform="matrix(0.5702996836688354,0,0,0.5702996836688354,23.63351739821405,53.71253954139557)"></circle><circle r="5" cx="55" cy="135" fill="#1a1a1a" transform="matrix(0.5818837523906667,0,0,0.5818837523906667,22.99639361851333,56.44569342726)"></circle><circle r="5" cx="55" cy="145" fill="#1a1a1a" transform="matrix(0.5872268211683276,0,0,0.5872268211683276,22.702524835741983,59.8521109305925)"></circle><circle r="5" cx="55" cy="155" fill="#1a1a1a" transform="matrix(0.5851997998057638,0,0,0.5851997998057638,22.814011010682997,64.29403103010662)"></circle><circle r="5" cx="55" cy="165" fill="#1a1a1a" transform="matrix(0.576041640241608,0,0,0.576041640241608,23.31770978671156,69.95312936013468)"></circle><circle r="5" cx="55" cy="175" fill="#1a1a1a" transform="matrix(0.5599279402024069,0,0,0.5599279402024069,24.203963288867623,77.0126104645788)"></circle><circle r="5" cx="55" cy="185" fill="#1a1a1a" transform="matrix(0.5336777922400957,0,0,0.5336777922400957,25.647721426794735,86.2696084355823)"></circle><circle r="5" cx="55" cy="195" fill="#1a1a1a" transform="matrix(0.49389468152128757,0,0,0.49389468152128757,27.835792516329185,98.69053710334893)"></circle><circle r="5" cx="65" cy="5" fill="#1a1a1a" transform="matrix(0.6532474580722908,0,0,0.6532474580722908,22.538915225301096,1.7337627096385462)"></circle><circle r="5" cx="65" cy="15" fill="#1a1a1a" transform="matrix(0.6904396080978394,0,0,0.6904396080978394,20.121425473640436,4.643405878532409)"></circle><circle r="5" cx="65" cy="25" fill="#1a1a1a" transform="matrix(0.7101135299621919,0,0,0.7101135299621919,18.842620552457525,7.247161750945203)"></circle><circle r="5" cx="65" cy="35" fill="#1a1a1a" transform="matrix(0.7080151371275214,0,0,0.7080151371275214,18.979016086711113,10.219470200536751)"></circle><circle r="5" cx="65" cy="45" fill="#1a1a1a" transform="matrix(0.6848924021799011,0,0,0.6848924021799011,20.48199385830643,14.17984190190445)"></circle><circle r="5" cx="65" cy="55" fill="#1a1a1a" transform="matrix(0.6458387466906699,0,0,0.6458387466906699,23.020481465106457,19.478868932013157)"></circle><circle r="5" cx="65" cy="65" fill="#1a1a1a" transform="matrix(0.5991648037200856,0,0,0.5991648037200856,26.054287758194434,26.054287758194434)"></circle><circle r="5" cx="65" cy="75" fill="#1a1a1a" transform="matrix(0.5545464583319415,0,0,0.5545464583319415,28.954480208423803,33.40901562510439)"></circle><circle r="5" cx="65" cy="85" fill="#1a1a1a" transform="matrix(0.520642846055283,0,0,0.520642846055283,31.158215006406607,40.74535808530094)"></circle><circle r="5" cx="65" cy="95" fill="#1a1a1a" transform="matrix(0.5026262815407647,0,0,0.5026262815407647,32.329291699850295,47.25050325362735)"></circle><circle r="5" cx="65" cy="105" fill="#1a1a1a" transform="matrix(0.5003529510341274,0,0,0.5003529510341274,32.47705818278172,52.462940141416624)"></circle><circle r="5" cx="65" cy="115" fill="#1a1a1a" transform="matrix(0.5082266210641471,0,0,0.5082266210641471,31.96526963083044,56.553938577623086)"></circle><circle r="5" cx="65" cy="125" fill="#1a1a1a" transform="matrix(0.5181621411285928,0,0,0.5181621411285928,31.319460826641468,60.2297323589259)"></circle><circle r="5" cx="65" cy="135" fill="#1a1a1a" transform="matrix(0.5253924841123805,0,0,0.5253924841123805,30.84948853269527,64.07201464482864)"></circle><circle r="5" cx="65" cy="145" fill="#1a1a1a" transform="matrix(0.5285823611708714,0,0,0.5285823611708714,30.64214652389336,68.35555763022364)"></circle><circle r="5" cx="65" cy="155" fill="#1a1a1a" transform="matrix(0.5273685541217438,0,0,0.5273685541217438,30.721043982086655,73.25787411112971)"></circle><circle r="5" cx="65" cy="165" fill="#1a1a1a" transform="matrix(0.5218830832464951,0,0,0.5218830832464951,31.07759958897782,78.8892912643283)"></circle><circle r="5" cx="65" cy="175" fill="#1a1a1a" transform="matrix(0.5122753551354656,0,0,0.5122753551354656,31.702101916194735,85.35181285129352)"></circle><circle r="5" cx="65" cy="185" fill="#1a1a1a" transform="matrix(0.49567396535614017,0,0,0.49567396535614017,32.78119225185089,93.30031640911407)"></circle><circle r="5" cx="65" cy="195" fill="#1a1a1a" transform="matrix(0.46800250261293697,0,0,0.46800250261293697,34.579837330159094,103.7395119904773)"></circle><circle r="5" cx="75" cy="5" fill="#1a1a1a" transform="matrix(0.6486430499108866,0,0,0.6486430499108866,26.351771256683506,1.7567847504455667)"></circle><circle r="5" cx="75" cy="15" fill="#1a1a1a" transform="matrix(0.6925014677214075,0,0,0.6925014677214075,23.062389920894432,4.612477984178888)"></circle><circle r="5" cx="75" cy="25" fill="#1a1a1a" transform="matrix(0.7179772311822961,0,0,0.7179772311822961,21.151707661327798,7.050569220442597)"></circle><circle r="5" cx="75" cy="35" fill="#1a1a1a" transform="matrix(0.720431721137112,0,0,0.720431721137112,20.967620914716605,9.784889760201082)"></circle><circle r="5" cx="75" cy="45" fill="#1a1a1a" transform="matrix(0.6993774086916488,0,0,0.6993774086916488,22.546694348126344,13.528016608875806)"></circle><circle r="5" cx="75" cy="55" fill="#1a1a1a" transform="matrix(0.658750801366667,0,0,0.658750801366667,25.593689897499978,18.76870592483332)"></circle><circle r="5" cx="75" cy="65" fill="#1a1a1a" transform="matrix(0.6062481225784113,0,0,0.6062481225784113,29.53139080661915,25.59387203240326)"></circle><circle r="5" cx="75" cy="75" fill="#1a1a1a" transform="matrix(0.5517259842940256,0,0,0.5517259842940256,33.62055117794808,33.62055117794808)"></circle><circle r="5" cx="75" cy="85" fill="#1a1a1a" transform="matrix(0.504864157084841,0,0,0.504864157084841,37.13518821863693,42.086546647788516)"></circle><circle r="5" cx="75" cy="95" fill="#1a1a1a" transform="matrix(0.4725335508526116,0,0,0.4725335508526116,39.55998368605413,50.109312669001895)"></circle><circle r="5" cx="75" cy="105" fill="#1a1a1a" transform="matrix(0.45659531894538624,0,0,0.45659531894538624,40.75535107909603,57.057491510734444)"></circle><circle r="5" cx="75" cy="115" fill="#1a1a1a" transform="matrix(0.4531763552212538,0,0,0.4531763552212538,41.01177335840596,62.88471914955581)"></circle><circle r="5" cx="75" cy="125" fill="#1a1a1a" transform="matrix(0.454818321196358,0,0,0.454818321196358,40.88862591027315,68.14770985045524)"></circle><circle r="5" cx="75" cy="135" fill="#1a1a1a" transform="matrix(0.45635931500772264,0,0,0.45635931500772264,40.7730513744208,73.39149247395744)"></circle><circle r="5" cx="75" cy="145" fill="#1a1a1a" transform="matrix(0.45703733114605205,0,0,0.45703733114605205,40.72220016404609,78.72958698382246)"></circle><circle r="5" cx="75" cy="155" fill="#1a1a1a" transform="matrix(0.45677935322941765,0,0,0.45677935322941765,40.741548507793674,84.19920024944027)"></circle><circle r="5" cx="75" cy="165" fill="#1a1a1a" transform="matrix(0.45561318489048,0,0,0.45561318489048,40.829011133213996,89.8238244930708)"></circle><circle r="5" cx="75" cy="175" fill="#1a1a1a" transform="matrix(0.4535216501685071,0,0,0.4535216501685071,40.98587623736197,95.63371122051126)"></circle><circle r="5" cx="75" cy="185" fill="#1a1a1a" transform="matrix(0.4481812976874923,0,0,0.4481812976874923,41.38640267343808,102.08645992781392)"></circle><circle r="5" cx="75" cy="195" fill="#1a1a1a" transform="matrix(0.4349544643770042,0,0,0.4349544643770042,42.37841517172468,110.18387944648418)"></circle><circle r="5" cx="85" cy="5" fill="#1a1a1a" transform="matrix(0.6281291235628297,0,0,0.6281291235628297,31.609024497159474,1.8593543821858516)"></circle><circle r="5" cx="85" cy="15" fill="#1a1a1a" transform="matrix(0.6801631276257178,0,0,0.6801631276257178,27.18613415181398,4.797553085614233)"></circle><circle r="5" cx="85" cy="25" fill="#1a1a1a" transform="matrix(0.7140213332454881,0,0,0.7140213332454881,24.30818667413351,7.149466668862797)"></circle><circle r="5" cx="85" cy="35" fill="#1a1a1a" transform="matrix(0.7241168455217134,0,0,0.7241168455217134,23.45006813065436,9.65591040674003)"></circle><circle r="5" cx="85" cy="45" fill="#1a1a1a" transform="matrix(0.7084964343222215,0,0,0.7084964343222215,24.77780308261117,13.11766045550003)"></circle><circle r="5" cx="85" cy="55" fill="#1a1a1a" transform="matrix(0.669613506718985,0,0,0.669613506718985,28.08285192888627,18.171257130455828)"></circle><circle r="5" cx="85" cy="65" fill="#1a1a1a" transform="matrix(0.6141395209992523,0,0,0.6141395209992523,32.79814071506355,25.0809311350486)"></circle><circle r="5" cx="85" cy="75" fill="#1a1a1a" transform="matrix(0.551670490129259,0,0,0.551670490129259,38.10800833901299,33.62471324030558)"></circle><circle r="5" cx="85" cy="85" fill="#1a1a1a" transform="matrix(0.4925339091848322,0,0,0.4925339091848322,43.13461771928927,43.13461771928927)"></circle><circle r="5" cx="85" cy="95" fill="#1a1a1a" transform="matrix(0.44514442298483,0,0,0.44514442298483,47.162724046289455,52.71127981644115)"></circle><circle r="5" cx="85" cy="105" fill="#1a1a1a" transform="matrix(0.41363528766209157,0,0,0.41363528766209157,49.841000548722214,61.568294795480384)"></circle><circle r="5" cx="85" cy="115" fill="#1a1a1a" transform="matrix(0.39676637517579183,0,0,0.39676637517579183,51.27485811005769,69.37186685478395)"></circle><circle r="5" cx="85" cy="125" fill="#1a1a1a" transform="matrix(0.3889497460036256,0,0,0.3889497460036256,51.93927158969183,76.3812817495468)"></circle><circle r="5" cx="85" cy="135" fill="#1a1a1a" transform="matrix(0.38460571930110454,0,0,0.38460571930110454,52.30851385940611,83.07822789435089)"></circle><circle r="5" cx="85" cy="145" fill="#1a1a1a" transform="matrix(0.382698450595012,0,0,0.382698450595012,52.47063169942398,89.50872466372326)"></circle><circle r="5" cx="85" cy="155" fill="#1a1a1a" transform="matrix(0.383424163375493,0,0,0.383424163375493,52.4089461130831,95.56925467679858)"></circle><circle r="5" cx="85" cy="165" fill="#1a1a1a" transform="matrix(0.3867044188982577,0,0,0.3867044188982577,52.130124393648096,101.19377088178749)"></circle><circle r="5" cx="85" cy="175" fill="#1a1a1a" transform="matrix(0.3921691232748276,0,0,0.3921691232748276,51.66562452163965,106.37040342690517)"></circle><circle r="5" cx="85" cy="185" fill="#1a1a1a" transform="matrix(0.39795463822009436,0,0,0.39795463822009436,51.17385575129198,111.37839192928254)"></circle><circle r="5" cx="85" cy="195" fill="#1a1a1a" transform="matrix(0.39897757914398835,0,0,0.39897757914398835,51.08690577276099,117.19937206692227)"></circle><circle r="5" cx="95" cy="5" fill="#1a1a1a" transform="matrix(0.5869812284916428,0,0,0.5869812284916428,39.23678329329393,2.065093857541786)"></circle><circle r="5" cx="95" cy="15" fill="#1a1a1a" transform="matrix(0.6478869014863015,0,0,0.6478869014863015,33.45074435880136,5.281696477705479)"></circle><circle r="5" cx="95" cy="25" fill="#1a1a1a" transform="matrix(0.69168265579192,0,0,0.69168265579192,29.2901476997676,7.707933605202001)"></circle><circle r="5" cx="95" cy="35" fill="#1a1a1a" transform="matrix(0.7117214068142528,0,0,0.7117214068142528,27.386466352645982,10.089750761501154)"></circle><circle r="5" cx="95" cy="45" fill="#1a1a1a" transform="matrix(0.704504148088472,0,0,0.704504148088472,28.07210593159516,13.297313336018764)"></circle><circle r="5" cx="95" cy="55" fill="#1a1a1a" transform="matrix(0.670808599970449,0,0,0.670808599970449,31.27318300280735,18.105527001625305)"></circle><circle r="5" cx="95" cy="65" fill="#1a1a1a" transform="matrix(0.6159904723203513,0,0,0.6159904723203513,36.48090512956662,24.960619299177168)"></circle><circle r="5" cx="95" cy="75" fill="#1a1a1a" transform="matrix(0.5490529681110847,0,0,0.5490529681110847,42.83996802944695,33.82102739166864)"></circle><circle r="5" cx="95" cy="85" fill="#1a1a1a" transform="matrix(0.4806994193016507,0,0,0.4806994193016507,49.33355516634318,44.14054935935969)"></circle><circle r="5" cx="95" cy="95" fill="#1a1a1a" transform="matrix(0.4207995364915103,0,0,0.4207995364915103,55.024044033306524,55.024044033306524)"></circle><circle r="5" cx="95" cy="105" fill="#1a1a1a" transform="matrix(0.3757991277239957,0,0,0.3757991277239957,59.29908286622041,65.54109158898045)"></circle><circle r="5" cx="95" cy="115" fill="#1a1a1a" transform="matrix(0.34690662713652365,0,0,0.34690662713652365,62.04387042203025,75.10573787929978)"></circle><circle r="5" cx="95" cy="125" fill="#1a1a1a" transform="matrix(0.33025015057325985,0,0,0.33025015057325985,63.626235695540316,83.71873117834252)"></circle><circle r="5" cx="95" cy="135" fill="#1a1a1a" transform="matrix(0.320459361715558,0,0,0.320459361715558,64.55636063702198,91.73798616839967)"></circle><circle r="5" cx="95" cy="145" fill="#1a1a1a" transform="matrix(0.3161731403560521,0,0,0.3161731403560521,64.96355166617505,99.15489464837245)"></circle><circle r="5" cx="95" cy="155" fill="#1a1a1a" transform="matrix(0.31780424657149975,0,0,0.31780424657149975,64.80859657570753,105.74034178141754)"></circle><circle r="5" cx="95" cy="165" fill="#1a1a1a" transform="matrix(0.3251736337391267,0,0,0.3251736337391267,64.10850479478296,111.3463504330441)"></circle><circle r="5" cx="95" cy="175" fill="#1a1a1a" transform="matrix(0.3374027254279406,0,0,0.3374027254279406,62.946741084345646,115.9545230501104)"></circle><circle r="5" cx="95" cy="185" fill="#1a1a1a" transform="matrix(0.3523789149897268,0,0,0.3523789149897268,61.524003075975955,119.80990072690055)"></circle><circle r="5" cx="95" cy="195" fill="#1a1a1a" transform="matrix(0.36503580518103784,0,0,0.36503580518103784,60.321598507801404,123.81801798969762)"></circle><circle r="5" cx="105" cy="5" fill="#1a1a1a" transform="matrix(0.5262748602349969,0,0,0.5262748602349969,49.74113967532532,2.3686256988250154)"></circle><circle r="5" cx="105" cy="15" fill="#1a1a1a" transform="matrix(0.5944729403595989,0,0,0.5944729403595989,42.58034126224212,6.082905894606018)"></circle><circle r="5" cx="105" cy="25" fill="#1a1a1a" transform="matrix(0.6477675913172191,0,0,0.6477675913172191,36.984402911692,8.805810217069524)"></circle><circle r="5" cx="105" cy="35" fill="#1a1a1a" transform="matrix(0.6784890558304099,0,0,0.6784890558304099,33.75864913780697,11.252883045935654)"></circle><circle r="5" cx="105" cy="45" fill="#1a1a1a" transform="matrix(0.681688936830302,0,0,0.681688936830302,33.42266163281829,14.323997842636413)"></circle><circle r="5" cx="105" cy="55" fill="#1a1a1a" transform="matrix(0.6564362026669461,0,0,0.6564362026669461,36.07419871997065,18.896008853317966)"></circle><circle r="5" cx="105" cy="65" fill="#1a1a1a" transform="matrix(0.6066360232111674,0,0,0.6066360232111674,41.30321756282743,25.56865849127412)"></circle><circle r="5" cx="105" cy="75" fill="#1a1a1a" transform="matrix(0.5404913926609847,0,0,0.5404913926609847,48.24840377059661,34.46314555042615)"></circle><circle r="5" cx="105" cy="85" fill="#1a1a1a" transform="matrix(0.4687066245876359,0,0,0.4687066245876359,55.78580441829823,45.159936910050945)"></circle><circle r="5" cx="105" cy="95" fill="#1a1a1a" transform="matrix(0.4019605798791418,0,0,0.4019605798791418,62.79413911269011,56.81374491148153)"></circle><circle r="5" cx="105" cy="105" fill="#1a1a1a" transform="matrix(0.3482110980798939,0,0,0.3482110980798939,68.43783470161114,68.43783470161114)"></circle><circle r="5" cx="105" cy="115" fill="#1a1a1a" transform="matrix(0.31058279069823114,0,0,0.31058279069823114,72.38880697668573,79.28297906970343)"></circle><circle r="5" cx="105" cy="125" fill="#1a1a1a" transform="matrix(0.28696096291437057,0,0,0.28696096291437057,74.8690988939911,89.12987963570367)"></circle><circle r="5" cx="105" cy="135" fill="#1a1a1a" transform="matrix(0.2727859807319523,0,0,0.2727859807319523,76.35747202314501,98.17389260118644)"></circle><circle r="5" cx="105" cy="145" fill="#1a1a1a" transform="matrix(0.2666322188245796,0,0,0.2666322188245796,77.00361702341914,106.33832827043597)"></circle><circle r="5" cx="105" cy="155" fill="#1a1a1a" transform="matrix(0.2690279032498926,0,0,0.2690279032498926,76.75207015876127,113.30067499626665)"></circle><circle r="5" cx="105" cy="165" fill="#1a1a1a" transform="matrix(0.27975880323508284,0,0,0.27975880323508284,75.6253256603163,118.83979746621134)"></circle><circle r="5" cx="105" cy="175" fill="#1a1a1a" transform="matrix(0.2974370415267015,0,0,0.2974370415267015,73.76911063969635,122.94851773282724)"></circle><circle r="5" cx="105" cy="185" fill="#1a1a1a" transform="matrix(0.31898394891677595,0,0,0.31898394891677595,71.50668536373853,125.98796945039645)"></circle><circle r="5" cx="105" cy="195" fill="#1a1a1a" transform="matrix(0.339404324808146,0,0,0.339404324808146,69.36254589514468,128.81615666241152)"></circle><circle r="5" cx="115" cy="5" fill="#1a1a1a" transform="matrix(0.4537607818419458,0,0,0.4537607818419458,62.817510088176235,2.731196090790271)"></circle><circle r="5" cx="115" cy="15" fill="#1a1a1a" transform="matrix(0.5262286004527867,0,0,0.5262286004527867,54.483710947929524,7.106570993208199)"></circle><circle r="5" cx="115" cy="25" fill="#1a1a1a" transform="matrix(0.5868223561174767,0,0,0.5868223561174767,47.51542904649018,10.329441097063082)"></circle><circle r="5" cx="115" cy="35" fill="#1a1a1a" transform="matrix(0.6272110708685874,0,0,0.6272110708685874,42.87072685011245,13.04761251959944)"></circle><circle r="5" cx="115" cy="45" fill="#1a1a1a" transform="matrix(0.6414906665350821,0,0,0.6414906665350821,41.22857334846556,16.132920005921303)"></circle><circle r="5" cx="115" cy="55" fill="#1a1a1a" transform="matrix(0.6273599519036125,0,0,0.6273599519036125,42.85360553108457,20.495202645301312)"></circle><circle r="5" cx="115" cy="65" fill="#1a1a1a" transform="matrix(0.5872367921744195,0,0,0.5872367921744195,47.46776889994176,26.82960850866273)"></circle><circle r="5" cx="115" cy="75" fill="#1a1a1a" transform="matrix(0.5279153256702015,0,0,0.5279153256702015,54.289737547926826,35.40635057473489)"></circle><circle r="5" cx="115" cy="85" fill="#1a1a1a" transform="matrix(0.4592272290833664,0,0,0.4592272290833664,62.18886865541287,45.965685527913855)"></circle><circle r="5" cx="115" cy="95" fill="#1a1a1a" transform="matrix(0.39183044799255395,0,0,0.39183044799255395,69.93949848085629,57.77610744070738)"></circle><circle r="5" cx="115" cy="105" fill="#1a1a1a" transform="matrix(0.3345411110448727,0,0,0.3345411110448727,76.52777222983963,69.87318334028836)"></circle><circle r="5" cx="115" cy="115" fill="#1a1a1a" transform="matrix(0.29199332300634523,0,0,0.29199332300634523,81.42076785427031,81.42076785427031)"></circle><circle r="5" cx="115" cy="125" fill="#1a1a1a" transform="matrix(0.2637805134792496,0,0,0.2637805134792496,84.6652409498863,92.02743581509381)"></circle><circle r="5" cx="115" cy="135" fill="#1a1a1a" transform="matrix(0.2465983390665853,0,0,0.2465983390665853,86.64119100734268,101.70922422601099)"></circle><circle r="5" cx="115" cy="145" fill="#1a1a1a" transform="matrix(0.23940520645284757,0,0,0.23940520645284757,87.46840125792252,110.2862450643371)"></circle><circle r="5" cx="115" cy="155" fill="#1a1a1a" transform="matrix(0.24281896530598,0,0,0.24281896530598,87.0758189898123,117.3630603775731)"></circle><circle r="5" cx="115" cy="165" fill="#1a1a1a" transform="matrix(0.25657049369918944,0,0,0.25657049369918944,85.49439322459321,122.66586853963375)"></circle><circle r="5" cx="115" cy="175" fill="#1a1a1a" transform="matrix(0.2785145762585945,0,0,0.2785145762585945,82.97082373026163,126.25994915474595)"></circle><circle r="5" cx="115" cy="185" fill="#1a1a1a" transform="matrix(0.3044401646591369,0,0,0.3044401646591369,79.98938106419925,128.67856953805966)"></circle><circle r="5" cx="115" cy="195" fill="#1a1a1a" transform="matrix(0.32873584633672304,0,0,0.32873584633672304,77.19537767127684,130.896509964339)"></circle><circle r="5" cx="125" cy="5" fill="#1a1a1a" transform="matrix(0.3797322330995855,0,0,0.3797322330995855,77.53347086255181,3.1013388345020725)"></circle><circle r="5" cx="125" cy="15" fill="#1a1a1a" transform="matrix(0.452979712009061,0,0,0.452979712009061,68.37753599886737,8.205304319864084)"></circle><circle r="5" cx="125" cy="25" fill="#1a1a1a" transform="matrix(0.5178427451754828,0,0,0.5178427451754828,60.269656853064646,12.053931370612931)"></circle><circle r="5" cx="125" cy="35" fill="#1a1a1a" transform="matrix(0.5657338256776354,0,0,0.5657338256776354,54.28327179029557,15.199316101282761)"></circle><circle r="5" cx="125" cy="45" fill="#1a1a1a" transform="matrix(0.5908191671361631,0,0,0.5908191671361631,51.14760410797962,18.41313747887266)"></circle><circle r="5" cx="125" cy="55" fill="#1a1a1a" transform="matrix(0.5898228361255327,0,0,0.5898228361255327,51.272145484308425,22.559744013095703)"></circle><circle r="5" cx="125" cy="65" fill="#1a1a1a" transform="matrix(0.5631728735935853,0,0,0.5631728735935853,54.60339080080185,28.393763216416957)"></circle><circle r="5" cx="125" cy="75" fill="#1a1a1a" transform="matrix(0.5155807835484688,0,0,0.5155807835484688,60.552402056441395,36.33144123386484)"></circle><circle r="5" cx="125" cy="85" fill="#1a1a1a" transform="matrix(0.4553420438378777,0,0,0.4553420438378777,68.08224452026529,46.295926273780395)"></circle><circle r="5" cx="125" cy="95" fill="#1a1a1a" transform="matrix(0.3924587201199395,0,0,0.3924587201199395,75.94265998500757,57.71642158860575)"></circle><circle r="5" cx="125" cy="105" fill="#1a1a1a" transform="matrix(0.3360470547316763,0,0,0.3360470547316763,82.99411815854046,69.71505925317399)"></circle><circle r="5" cx="125" cy="115" fill="#1a1a1a" transform="matrix(0.29185375989051093,0,0,0.29185375989051093,88.51828001368614,81.43681761259124)"></circle><circle r="5" cx="125" cy="125" fill="#1a1a1a" transform="matrix(0.2610656023938216,0,0,0.2610656023938216,92.3667997007723,92.3667997007723)"></circle><circle r="5" cx="125" cy="135" fill="#1a1a1a" transform="matrix(0.2419538714571895,0,0,0.2419538714571895,94.75576606785131,102.33622735327941)"></circle><circle r="5" cx="125" cy="145" fill="#1a1a1a" transform="matrix(0.23439823926243614,0,0,0.23439823926243614,95.70022009219548,111.01225530694677)"></circle><circle r="5" cx="125" cy="155" fill="#1a1a1a" transform="matrix(0.23956574518631998,0,0,0.23956574518631998,95.05428185171,117.86730949612041)"></circle><circle r="5" cx="125" cy="165" fill="#1a1a1a" transform="matrix(0.25700393786355163,0,0,0.25700393786355163,92.87450776705604,122.59435025251398)"></circle><circle r="5" cx="125" cy="175" fill="#1a1a1a" transform="matrix(0.28326112214840465,0,0,0.28326112214840465,89.59235973144942,125.42930362402919)"></circle><circle r="5" cx="125" cy="185" fill="#1a1a1a" transform="matrix(0.312491805109674,0,0,0.312491805109674,85.93852436129075,127.18901605471031)"></circle><circle r="5" cx="125" cy="195" fill="#1a1a1a" transform="matrix(0.33803464076911227,0,0,0.33803464076911227,82.74566990386097,129.0832450500231)"></circle><circle r="5" cx="135" cy="5" fill="#1a1a1a" transform="matrix(0.3147245216651281,0,0,0.3147245216651281,92.51218957520771,3.4263773916743596)"></circle><circle r="5" cx="135" cy="15" fill="#1a1a1a" transform="matrix(0.3851782477940741,0,0,0.3851782477940741,83.0009365478,9.222326283088888)"></circle><circle r="5" cx="135" cy="25" fill="#1a1a1a" transform="matrix(0.4509845947410128,0,0,0.4509845947410128,74.11707970996326,13.72538513147468)"></circle><circle r="5" cx="135" cy="35" fill="#1a1a1a" transform="matrix(0.5042687074313736,0,0,0.5042687074313736,66.92372449676456,17.35059523990192)"></circle><circle r="5" cx="135" cy="45" fill="#1a1a1a" transform="matrix(0.5394378213535628,0,0,0.5394378213535628,62.175894117269024,20.725298039089676)"></circle><circle r="5" cx="135" cy="55" fill="#1a1a1a" transform="matrix(0.5521794426168798,0,0,0.5521794426168798,60.45577524672123,24.63013065607161)"></circle><circle r="5" cx="135" cy="65" fill="#1a1a1a" transform="matrix(0.5407686372666284,0,0,0.5407686372666284,61.996233969005175,29.850038577669153)"></circle><circle r="5" cx="135" cy="75" fill="#1a1a1a" transform="matrix(0.5075650367962654,0,0,0.5075650367962654,66.47872003250417,36.9326222402801)"></circle><circle r="5" cx="135" cy="85" fill="#1a1a1a" transform="matrix(0.45895186623438705,0,0,0.45895186623438705,73.04149805835775,45.9890913700771)"></circle><circle r="5" cx="135" cy="95" fill="#1a1a1a" transform="matrix(0.4038245354630697,0,0,0.4038245354630697,80.48368771248559,56.63666913100838)"></circle><circle r="5" cx="135" cy="105" fill="#1a1a1a" transform="matrix(0.3511388235731244,0,0,0.3511388235731244,87.59625881762821,68.13042352482194)"></circle><circle r="5" cx="135" cy="115" fill="#1a1a1a" transform="matrix(0.30738141992470513,0,0,0.30738141992470513,93.5035083101648,79.65113670865891)"></circle><circle r="5" cx="135" cy="125" fill="#1a1a1a" transform="matrix(0.27517831944459104,0,0,0.27517831944459104,97.85092687498022,90.60271006942612)"></circle><circle r="5" cx="135" cy="135" fill="#1a1a1a" transform="matrix(0.25459723026343245,0,0,0.25459723026343245,100.62937391443663,100.62937391443663)"></circle><circle r="5" cx="135" cy="145" fill="#1a1a1a" transform="matrix(0.24706719957665574,0,0,0.24706719957665574,101.64592805715148,109.17525606138491)"></circle><circle r="5" cx="135" cy="155" fill="#1a1a1a" transform="matrix(0.25479302116077857,0,0,0.25479302116077857,100.6029421432949,115.50708172007933)"></circle><circle r="5" cx="135" cy="165" fill="#1a1a1a" transform="matrix(0.27699171477570445,0,0,0.27699171477570445,97.60611850527991,119.29636706200877)"></circle><circle r="5" cx="135" cy="175" fill="#1a1a1a" transform="matrix(0.3086686721541043,0,0,0.3086686721541043,93.32972925919591,120.98298237303175)"></circle><circle r="5" cx="135" cy="185" fill="#1a1a1a" transform="matrix(0.34190909499086286,0,0,0.34190909499086286,88.84227217623351,121.74681742669037)"></circle><circle r="5" cx="135" cy="195" fill="#1a1a1a" transform="matrix(0.3683120251743595,0,0,0.3683120251743595,85.27787660146146,123.1791550909999)"></circle><circle r="5" cx="145" cy="5" fill="#1a1a1a" transform="matrix(0.267485216627101,0,0,0.267485216627101,106.21464358907036,3.662573916864495)"></circle><circle r="5" cx="145" cy="15" fill="#1a1a1a" transform="matrix(0.33214337554470075,0,0,0.33214337554470075,96.83921054601839,10.017849366829488)"></circle><circle r="5" cx="145" cy="25" fill="#1a1a1a" transform="matrix(0.3965066798347825,0,0,0.3965066798347825,87.50653142395655,15.087333004130437)"></circle><circle r="5" cx="145" cy="35" fill="#1a1a1a" transform="matrix(0.45360715683871233,0,0,0.45360715683871233,79.2269622583867,19.12374951064507)"></circle><circle r="5" cx="145" cy="45" fill="#1a1a1a" transform="matrix(0.4972900706210896,0,0,0.4972900706210896,72.89293975994201,22.62194682205097)"></circle><circle r="5" cx="145" cy="55" fill="#1a1a1a" transform="matrix(0.5224017095214527,0,0,0.5224017095214527,69.25175211938935,26.2679059763201)"></circle><circle r="5" cx="145" cy="65" fill="#1a1a1a" transform="matrix(0.5254402100229014,0,0,0.5254402100229014,68.8111695466793,30.84638634851141)"></circle><circle r="5" cx="145" cy="75" fill="#1a1a1a" transform="matrix(0.506545507073211,0,0,0.506545507073211,71.5509014743844,37.00908696950918)"></circle><circle r="5" cx="145" cy="85" fill="#1a1a1a" transform="matrix(0.4700988648530503,0,0,0.4700988648530503,76.83566459630771,45.04159648749072)"></circle><circle r="5" cx="145" cy="95" fill="#1a1a1a" transform="matrix(0.42362974994899727,0,0,0.42362974994899727,83.5736862573954,54.75517375484526)"></circle><circle r="5" cx="145" cy="105" fill="#1a1a1a" transform="matrix(0.37558626095314074,0,0,0.37558626095314074,90.5399921617946,65.56344259992022)"></circle><circle r="5" cx="145" cy="115" fill="#1a1a1a" transform="matrix(0.33287091239068134,0,0,0.33287091239068134,96.7337177033512,76.71984507507165)"></circle><circle r="5" cx="145" cy="125" fill="#1a1a1a" transform="matrix(0.29938818087317165,0,0,0.29938818087317165,101.58871377339011,87.57647739085354)"></circle><circle r="5" cx="145" cy="135" fill="#1a1a1a" transform="matrix(0.2771702977221682,0,0,0.2771702977221682,104.81030683028561,97.58200980750729)"></circle><circle r="5" cx="145" cy="145" fill="#1a1a1a" transform="matrix(0.2697745763888676,0,0,0.2697745763888676,105.88268642361419,105.88268642361419)"></circle><circle r="5" cx="145" cy="155" fill="#1a1a1a" transform="matrix(0.28058843958117113,0,0,0.28058843958117113,104.31467626073018,111.50879186491846)"></circle><circle r="5" cx="145" cy="165" fill="#1a1a1a" transform="matrix(0.3085035900287602,0,0,0.3085035900287602,100.26697944582978,114.09690764525456)"></circle><circle r="5" cx="145" cy="175" fill="#1a1a1a" transform="matrix(0.34701351825621346,0,0,0.34701351825621346,94.68303985284905,114.27263430516265)"></circle><circle r="5" cx="145" cy="185" fill="#1a1a1a" transform="matrix(0.3860389847163686,0,0,0.3860389847163686,89.02434721612656,113.5827878274718)"></circle><circle r="5" cx="145" cy="195" fill="#1a1a1a" transform="matrix(0.4150600617185587,0,0,0.4150600617185587,84.81629105080899,114.06328796488106)"></circle><circle r="5" cx="155" cy="5" fill="#1a1a1a" transform="matrix(0.24125728976338506,0,0,0.24125728976338506,117.60512008667531,3.7937135511830746)"></circle><circle r="5" cx="155" cy="15" fill="#1a1a1a" transform="matrix(0.29994898346680865,0,0,0.29994898346680865,108.50790756264466,10.50076524799787)"></circle><circle r="5" cx="155" cy="25" fill="#1a1a1a" transform="matrix(0.3623878469761826,0,0,0.3623878469761826,98.82988371869169,15.940303825595436)"></circle><circle r="5" cx="155" cy="35" fill="#1a1a1a" transform="matrix(0.42199056557707704,0,0,0.42199056557707704,89.59146233555306,20.230330204802303)"></circle><circle r="5" cx="155" cy="45" fill="#1a1a1a" transform="matrix(0.472007958658182,0,0,0.472007958658182,81.8387664079818,23.75964186038181)"></circle><circle r="5" cx="155" cy="55" fill="#1a1a1a" transform="matrix(0.5064212534418646,0,0,0.5064212534418646,76.50470571651098,27.146831060697448)"></circle><circle r="5" cx="155" cy="65" fill="#1a1a1a" transform="matrix(0.520742598194256,0,0,0.520742598194256,74.28489727989033,31.151731117373366)"></circle><circle r="5" cx="155" cy="75" fill="#1a1a1a" transform="matrix(0.5134398900544929,0,0,0.5134398900544929,75.4168170415536,36.492008245913034)"></circle><circle r="5" cx="155" cy="85" fill="#1a1a1a" transform="matrix(0.4871081188402314,0,0,0.4871081188402314,79.49824157976413,43.59580989858033)"></circle><circle r="5" cx="155" cy="95" fill="#1a1a1a" transform="matrix(0.44786703719667975,0,0,0.44786703719667975,85.58060923451464,52.452631466315424)"></circle><circle r="5" cx="155" cy="105" fill="#1a1a1a" transform="matrix(0.403452214155091,0,0,0.403452214155091,92.4649068059609,62.637517513715444)"></circle><circle r="5" cx="155" cy="115" fill="#1a1a1a" transform="matrix(0.3609403042350989,0,0,0.3609403042350989,99.05425284355968,73.49186501296363)"></circle><circle r="5" cx="155" cy="125" fill="#1a1a1a" transform="matrix(0.3253858503548561,0,0,0.3253858503548561,104.5651931949973,84.32676870564299)"></circle><circle r="5" cx="155" cy="135" fill="#1a1a1a" transform="matrix(0.3009230910466203,0,0,0.3009230910466203,108.35692088777385,94.37538270870627)"></circle><circle r="5" cx="155" cy="145" fill="#1a1a1a" transform="matrix(0.2933945780409329,0,0,0.2933945780409329,109.52384040365541,102.45778618406473)"></circle><circle r="5" cx="155" cy="155" fill="#1a1a1a" transform="matrix(0.3073449936507363,0,0,0.3073449936507363,107.36152598413588,107.36152598413588)"></circle><circle r="5" cx="155" cy="165" fill="#1a1a1a" transform="matrix(0.34149550608387547,0,0,0.34149550608387547,102.06819655699931,108.65324149616055)"></circle><circle r="5" cx="155" cy="175" fill="#1a1a1a" transform="matrix(0.3880654477290809,0,0,0.3880654477290809,94.84985560199246,107.08854664741084)"></circle><circle r="5" cx="155" cy="185" fill="#1a1a1a" transform="matrix(0.4349826587999325,0,0,0.4349826587999325,87.57768788601047,104.52820812201249)"></circle><circle r="5" cx="155" cy="195" fill="#1a1a1a" transform="matrix(0.46955870497418506,0,0,0.46955870497418506,82.21840072900132,103.43605253003392)"></circle><circle r="5" cx="165" cy="5" fill="#1a1a1a" transform="matrix(0.2331831795810442,0,0,0.2331831795810442,126.52477536912771,3.8340841020947787)"></circle><circle r="5" cx="165" cy="15" fill="#1a1a1a" transform="matrix(0.2882458683525479,0,0,0.2882458683525479,117.4394317218296,10.676311974711782)"></circle><circle r="5" cx="165" cy="25" fill="#1a1a1a" transform="matrix(0.35042681916032303,0,0,0.35042681916032303,107.1795748385467,16.239329520991923)"></circle><circle r="5" cx="165" cy="35" fill="#1a1a1a" transform="matrix(0.41259750867024436,0,0,0.41259750867024436,96.92141106940969,20.559087196541448)"></circle><circle r="5" cx="165" cy="45" fill="#1a1a1a" transform="matrix(0.4670493200110376,0,0,0.4670493200110376,87.9368621981788,23.982780599503307)"></circle><circle r="5" cx="165" cy="55" fill="#1a1a1a" transform="matrix(0.5071163956026817,0,0,0.5071163956026817,81.32579472555751,27.108598241852505)"></circle><circle r="5" cx="165" cy="65" fill="#1a1a1a" transform="matrix(0.5280854447228389,0,0,0.5280854447228389,77.86590162073158,30.67444609301547)"></circle><circle r="5" cx="165" cy="75" fill="#1a1a1a" transform="matrix(0.5277261036440485,0,0,0.5277261036440485,77.925192898732,35.42054222669636)"></circle><circle r="5" cx="165" cy="85" fill="#1a1a1a" transform="matrix(0.5074074280019218,0,0,0.5074074280019218,81.2777743796829,41.87036861983664)"></circle><circle r="5" cx="165" cy="95" fill="#1a1a1a" transform="matrix(0.4720519602224763,0,0,0.4720519602224763,87.1114265632914,50.15506377886475)"></circle><circle r="5" cx="165" cy="105" fill="#1a1a1a" transform="matrix(0.4286625147110488,0,0,0.4286625147110488,94.27068507267694,59.990435955339876)"></circle><circle r="5" cx="165" cy="115" fill="#1a1a1a" transform="matrix(0.3843744217369603,0,0,0.3843744217369603,101.57822041340155,70.79694150024957)"></circle><circle r="5" cx="165" cy="125" fill="#1a1a1a" transform="matrix(0.3453408264021979,0,0,0.3453408264021979,108.01876364363736,81.83239669972527)"></circle><circle r="5" cx="165" cy="135" fill="#1a1a1a" transform="matrix(0.31773838645581043,0,0,0.31773838645581043,112.57316623479127,92.10531782846559)"></circle><circle r="5" cx="165" cy="145" fill="#1a1a1a" transform="matrix(0.30938366746812807,0,0,0.30938366746812807,113.95169486775887,100.13936821712143)"></circle><circle r="5" cx="165" cy="155" fill="#1a1a1a" transform="matrix(0.3259547925164319,0,0,0.3259547925164319,111.21745923478875,104.47700715995305)"></circle><circle r="5" cx="165" cy="165" fill="#1a1a1a" transform="matrix(0.3662591308901291,0,0,0.3662591308901291,104.56724340312869,104.56724340312869)"></circle><circle r="5" cx="165" cy="175" fill="#1a1a1a" transform="matrix(0.4216288561092775,0,0,0.4216288561092775,95.43123874196921,101.21495018087644)"></circle><circle r="5" cx="165" cy="185" fill="#1a1a1a" transform="matrix(0.4783667259294303,0,0,0.4783667259294303,86.069490221644,96.5021557030554)"></circle><circle r="5" cx="165" cy="195" fill="#1a1a1a" transform="matrix(0.521809397189779,0,0,0.521809397189779,78.90144946368646,93.24716754799309)"></circle><circle r="5" cx="175" cy="5" fill="#1a1a1a" transform="matrix(0.23825233454905387,0,0,0.23825233454905387,133.30584145391558,3.808738327254731)"></circle><circle r="5" cx="175" cy="15" fill="#1a1a1a" transform="matrix(0.29246763817615556,0,0,0.29246763817615556,123.81816331917278,10.612985427357668)"></circle><circle r="5" cx="175" cy="25" fill="#1a1a1a" transform="matrix(0.35640571075393435,0,0,0.35640571075393435,112.6290006180615,16.08985723115164)"></circle><circle r="5" cx="175" cy="35" fill="#1a1a1a" transform="matrix(0.42201972969977886,0,0,0.42201972969977886,101.1465473025387,20.22930946050774)"></circle><circle r="5" cx="175" cy="45" fill="#1a1a1a" transform="matrix(0.4802721143224341,0,0,0.4802721143224341,90.95237999357403,23.387754855490464)"></circle><circle r="5" cx="175" cy="55" fill="#1a1a1a" transform="matrix(0.5234387174402675,0,0,0.5234387174402675,83.39822444795318,26.210870540785287)"></circle><circle r="5" cx="175" cy="65" fill="#1a1a1a" transform="matrix(0.5466528102113838,0,0,0.5466528102113838,79.33575821300784,29.467567336260053)"></circle><circle r="5" cx="175" cy="75" fill="#1a1a1a" transform="matrix(0.5480246089499357,0,0,0.5480246089499357,79.09569343376126,33.89815432875483)"></circle><circle r="5" cx="175" cy="85" fill="#1a1a1a" transform="matrix(0.5286469752597175,0,0,0.5286469752597175,82.48677932954944,40.065007102924014)"></circle><circle r="5" cx="175" cy="95" fill="#1a1a1a" transform="matrix(0.49277150588924545,0,0,0.49277150588924545,88.76498646938205,48.18670694052168)"></circle><circle r="5" cx="175" cy="105" fill="#1a1a1a" transform="matrix(0.44688816265637976,0,0,0.44688816265637976,96.79457153513354,58.076742921080125)"></circle><circle r="5" cx="175" cy="115" fill="#1a1a1a" transform="matrix(0.39825522802276064,0,0,0.39825522802276064,105.30533509601689,69.20064877738253)"></circle><circle r="5" cx="175" cy="125" fill="#1a1a1a" transform="matrix(0.35416068150089,0,0,0.35416068150089,113.02188073734425,80.72991481238876)"></circle><circle r="5" cx="175" cy="135" fill="#1a1a1a" transform="matrix(0.32234297150826324,0,0,0.32234297150826324,118.58997998605393,91.48369884638447)"></circle><circle r="5" cx="175" cy="145" fill="#1a1a1a" transform="matrix(0.31210610948436135,0,0,0.31210610948436135,120.38143084023676,99.7446141247676)"></circle><circle r="5" cx="175" cy="155" fill="#1a1a1a" transform="matrix(0.33024841687316353,0,0,0.33024841687316353,117.20652704719637,103.81149538465965)"></circle><circle r="5" cx="175" cy="165" fill="#1a1a1a" transform="matrix(0.3759738187353847,0,0,0.3759738187353847,109.20458172130768,102.96431990866152)"></circle><circle r="5" cx="175" cy="175" fill="#1a1a1a" transform="matrix(0.44020586770430764,0,0,0.44020586770430764,97.96397315174616,97.96397315174616)"></circle><circle r="5" cx="175" cy="185" fill="#1a1a1a" transform="matrix(0.5081158110282412,0,0,0.5081158110282412,86.07973307005778,90.99857495977537)"></circle><circle r="5" cx="175" cy="195" fill="#1a1a1a" transform="matrix(0.5634151999516669,0,0,0.5634151999516669,76.4023400084583,85.13403600942496)"></circle><circle r="5" cx="185" cy="5" fill="#1a1a1a" transform="matrix(0.2512585754982417,0,0,0.2512585754982417,138.5171635328253,3.7437071225087912)"></circle><circle r="5" cx="185" cy="15" fill="#1a1a1a" transform="matrix(0.30661513951517494,0,0,0.30661513951517494,128.27619918969265,10.400772907272376)"></circle><circle r="5" cx="185" cy="25" fill="#1a1a1a" transform="matrix(0.37347810004062104,0,0,0.37347810004062104,115.90655149248511,15.663047498984474)"></circle><circle r="5" cx="185" cy="35" fill="#1a1a1a" transform="matrix(0.4429342932129682,0,0,0.4429342932129682,103.05715575560089,19.497299737546115)"></circle><circle r="5" cx="185" cy="45" fill="#1a1a1a" transform="matrix(0.5046867578733099,0,0,0.5046867578733099,91.63294979343767,22.289095895701056)"></circle><circle r="5" cx="185" cy="55" fill="#1a1a1a" transform="matrix(0.5498181287375673,0,0,0.5498181287375673,83.28364618355005,24.7600029194338)"></circle><circle r="5" cx="185" cy="65" fill="#1a1a1a" transform="matrix(0.5728490989629251,0,0,0.5728490989629251,79.02291669185885,27.764808567409865)"></circle><circle r="5" cx="185" cy="75" fill="#1a1a1a" transform="matrix(0.5722160303444508,0,0,0.5722160303444508,79.14003438627661,32.08379772416619)"></circle><circle r="5" cx="185" cy="85" fill="#1a1a1a" transform="matrix(0.5494307737286481,0,0,0.5494307737286481,83.3553068602001,38.29838423306491)"></circle><circle r="5" cx="185" cy="95" fill="#1a1a1a" transform="matrix(0.5088919247246562,0,0,0.5088919247246562,90.85499392593862,46.655267151157666)"></circle><circle r="5" cx="185" cy="105" fill="#1a1a1a" transform="matrix(0.45710534381491935,0,0,0.45710534381491935,100.43551139423992,57.00393889943347)"></circle><circle r="5" cx="185" cy="115" fill="#1a1a1a" transform="matrix(0.40175909012012506,0,0,0.40175909012012506,110.67456832777687,68.79770463618561)"></circle><circle r="5" cx="185" cy="125" fill="#1a1a1a" transform="matrix(0.35125614752825324,0,0,0.35125614752825324,120.01761270727314,81.09298155896835)"></circle><circle r="5" cx="185" cy="135" fill="#1a1a1a" transform="matrix(0.3141850132163604,0,0,0.3141850132163604,126.87577255497334,92.58502321579135)"></circle><circle r="5" cx="185" cy="145" fill="#1a1a1a" transform="matrix(0.3008463834669702,0,0,0.3008463834669702,129.34341905861052,101.37727439728933)"></circle><circle r="5" cx="185" cy="155" fill="#1a1a1a" transform="matrix(0.3191111485676109,0,0,0.3191111485676109,125.96443751499197,105.53777197202031)"></circle><circle r="5" cx="185" cy="165" fill="#1a1a1a" transform="matrix(0.3688917049441882,0,0,0.3688917049441882,116.75503458532518,104.13286868420894)"></circle><circle r="5" cx="185" cy="175" fill="#1a1a1a" transform="matrix(0.4412116193860734,0,0,0.4412116193860734,103.37585041357642,97.78796660743716)"></circle><circle r="5" cx="185" cy="185" fill="#1a1a1a" transform="matrix(0.5206556279722325,0,0,0.5206556279722325,88.67870882513698,88.67870882513698)"></circle><circle r="5" cx="185" cy="195" fill="#1a1a1a" transform="matrix(0.589725531478875,0,0,0.589725531478875,75.90077667640813,80.00352136161938)"></circle><circle r="5" cx="195" cy="5" fill="#1a1a1a" transform="matrix(0.26771736171096283,0,0,0.26771736171096283,142.79511446636224,3.661413191445186)"></circle><circle r="5" cx="195" cy="15" fill="#1a1a1a" transform="matrix(0.3248438573544024,0,0,0.3248438573544024,131.65544781589153,10.127342139683964)"></circle><circle r="5" cx="195" cy="25" fill="#1a1a1a" transform="matrix(0.3944772565132578,0,0,0.3944772565132578,118.07693497991472,15.138068587168554)"></circle><circle r="5" cx="195" cy="35" fill="#1a1a1a" transform="matrix(0.4671637368701814,0,0,0.4671637368701814,103.90307131031462,18.64926920954365)"></circle><circle r="5" cx="195" cy="45" fill="#1a1a1a" transform="matrix(0.531700235495,0,0,0.531700235495,91.318454078475,21.073489402725)"></circle><circle r="5" cx="195" cy="55" fill="#1a1a1a" transform="matrix(0.5781597886018588,0,0,0.5781597886018588,82.25884122263753,23.201211626897766)"></circle><circle r="5" cx="195" cy="65" fill="#1a1a1a" transform="matrix(0.6002854126153351,0,0,0.6002854126153351,77.94434454000967,25.98144818000322)"></circle><circle r="5" cx="195" cy="75" fill="#1a1a1a" transform="matrix(0.5964269576348985,0,0,0.5964269576348985,78.6967432611948,30.26797817738261)"></circle><circle r="5" cx="195" cy="85" fill="#1a1a1a" transform="matrix(0.5686082693820054,0,0,0.5686082693820054,84.12138747050895,36.66829710252954)"></circle><circle r="5" cx="195" cy="95" fill="#1a1a1a" transform="matrix(0.5213859545553232,0,0,0.5213859545553232,93.32973886171197,45.46833431724429)"></circle><circle r="5" cx="195" cy="105" fill="#1a1a1a" transform="matrix(0.46181614506101976,0,0,0.46181614506101976,104.94585171310115,56.509304768592926)"></circle><circle r="5" cx="195" cy="115" fill="#1a1a1a" transform="matrix(0.3985636127122292,0,0,0.3985636127122292,117.28009552111531,69.16518453809365)"></circle><circle r="5" cx="195" cy="125" fill="#1a1a1a" transform="matrix(0.3409707991477514,0,0,0.3409707991477514,128.51069416618847,82.37865010653107)"></circle><circle r="5" cx="195" cy="135" fill="#1a1a1a" transform="matrix(0.2980636741275625,0,0,0.2980636741275625,136.8775835451253,94.76140399277907)"></circle><circle r="5" cx="195" cy="145" fill="#1a1a1a" transform="matrix(0.28058542996557667,0,0,0.28058542996557667,140.28584115671254,104.31511265499138)"></circle><circle r="5" cx="195" cy="155" fill="#1a1a1a" transform="matrix(0.2973443529878594,0,0,0.2973443529878594,137.0178511673674,108.91162528688179)"></circle><circle r="5" cx="195" cy="165" fill="#1a1a1a" transform="matrix(0.3492155234706339,0,0,0.3492155234706339,126.90297292322639,107.37943862734541)"></circle><circle r="5" cx="195" cy="175" fill="#1a1a1a" transform="matrix(0.4277926069787581,0,0,0.4277926069787581,111.58044163914217,100.13629377871733)"></circle><circle r="5" cx="195" cy="185" fill="#1a1a1a" transform="matrix(0.517588742533756,0,0,0.517588742533756,94.07019520591759,89.24608263125515)"></circle><circle r="5" cx="195" cy="195" fill="#1a1a1a" transform="matrix(0.6002790280536552,0,0,0.6002790280536552,77.94558952953724,77.94558952953724)"></circle></svg>