<svg xmlns="http://www.w3.org/2000/svg" viewBox="0 0 341 683"><defs><style>.e8f7a602-0b13-4478-95ce-08848e3cf474,.ebbd3eec-496e-4e3b-8033-d87b53a981d8{font-size:12px;}.ae57a508-2c1c-4ffa-a9e4-b28ab324adfb,.b86af2c5-f3b2-4945-848b-9385862ae592,.e8f7a602-0b13-4478-95ce-08848e3cf474{font-family:Georgia;}.fb827eab-76a1-4093-8a36-f72c8a9f577e{fill:none;stroke:#000;stroke-miterlimit:10;stroke-width:1.5px;}.ae57a508-2c1c-4ffa-a9e4-b28ab324adfb,.b86af2c5-f3b2-4945-848b-9385862ae592{font-size:17px;}.ae57a508-2c1c-4ffa-a9e4-b28ab324adfb{fill:#666;}</style></defs><g id="b184a212-70fb-4ea6-9491-437c01dd3e2c" data-name="timeline-1"><text class="e8f7a602-0b13-4478-95ce-08848e3cf474" transform="translate(283.2966 610.8274)">Données <tspan x="3.5547" y="14.3994">visibles </tspan><tspan x="-1.5762" y="28.7998">«fluides»</tspan></text><path class="fb827eab-76a1-4093-8a36-f72c8a9f577e" d="M313.4438,584.39c29.6446-146.0661,34.0542-302.6755-.3237-467.45q-4.5194-21.6613-9.8056-42.9609"/><polygon points="320.391 580.661 319.506 579.449 313.538 583.817 309.616 577.545 308.344 578.342 313.121 585.98 320.391 580.661"/><circle class="fb827eab-76a1-4093-8a36-f72c8a9f577e" cx="171.3399" cy="68.9489" r="67.5"/><circle class="fb827eab-76a1-4093-8a36-f72c8a9f577e" cx="171.3399" cy="338.2817" r="67.5"/><circle class="fb827eab-76a1-4093-8a36-f72c8a9f577e" cx="171.3399" cy="613.7374" r="67.5"/><polygon points="171.34 157.874 178.41 151.645 164.269 151.645 171.34 157.874"/><polygon points="171.34 254.541 178.41 248.311 164.269 248.311 171.34 254.541"/><polygon points="171.34 431.127 178.41 424.897 164.269 424.897 171.34 431.127"/><polygon points="171.34 531.204 178.41 524.975 164.269 524.975 171.34 531.204"/><text class="b86af2c5-f3b2-4945-848b-9385862ae592" transform="translate(125.7859 608.6688)">Expériences <tspan x="0.6475" y="20.4004">numériques</tspan><tspan class="ebbd3eec-496e-4e3b-8033-d87b53a981d8"><tspan x="36.7539" y="40.4004">UX</tspan></tspan></text><text class="e8f7a602-0b13-4478-95ce-08848e3cf474" transform="translate(153.8669 572.7523)">Forme</text><text class="b86af2c5-f3b2-4945-848b-9385862ae592" transform="translate(1.3396 593.7188)">Consulter <tspan x="0" y="20.4004">via une </tspan><tspan x="0" y="40.8008">interface</tspan></text><text class="b86af2c5-f3b2-4945-848b-9385862ae592" transform="translate(141.8176 503.4335)">Lier / Connecter</text><text class="b86af2c5-f3b2-4945-848b-9385862ae592" transform="translate(141.8179 477.4911)">Extraire entités</text><text class="e8f7a602-0b13-4478-95ce-08848e3cf474" transform="translate(142.146 449.102)">Opérations</text><text class="ae57a508-2c1c-4ffa-a9e4-b28ab324adfb" transform="translate(1.3396 482.5417)">Sémantisation</text><text class="b86af2c5-f3b2-4945-848b-9385862ae592" transform="translate(138.4568 333.2131)">Données <tspan x="-12.0234" y="20.4004">numériques</tspan><tspan class="ebbd3eec-496e-4e3b-8033-d87b53a981d8"><tspan x="24.4668" y="40.4004">BD</tspan></tspan></text><text class="e8f7a602-0b13-4478-95ce-08848e3cf474" transform="translate(153.8669 297.2965)">Forme</text><text class="b86af2c5-f3b2-4945-848b-9385862ae592" transform="translate(1.3396 321.6082)">Normer et <tspan x="0" y="20.4004">structurer </tspan><tspan x="0" y="40.8008">les données</tspan></text><text class="b86af2c5-f3b2-4945-848b-9385862ae592" transform="translate(141.8181 227.9168)">Créer métadonnées</text><text class="b86af2c5-f3b2-4945-848b-9385862ae592" transform="translate(141.8181 201.793)">Scanner</text><text class="e8f7a602-0b13-4478-95ce-08848e3cf474" transform="translate(142.1462 174.6973)">Opérations</text><text class="ae57a508-2c1c-4ffa-a9e4-b28ab324adfb" transform="translate(1.3403 208.137)">Numérisation</text><text class="b86af2c5-f3b2-4945-848b-9385862ae592" transform="translate(147.0554 63.8813)">Objets <tspan x="-13.2939" y="20.4004">physiques</tspan><tspan class="ebbd3eec-496e-4e3b-8033-d87b53a981d8"><tspan x="-10.6641" y="40.4004">2D / 3D / 4D</tspan></tspan></text><text class="e8f7a602-0b13-4478-95ce-08848e3cf474" transform="translate(153.8672 27.9638)">Forme</text><text class="b86af2c5-f3b2-4945-848b-9385862ae592" transform="translate(1.3403 62.4401)">Identifier <tspan x="0" y="20.4004">le corpus</tspan></text><text class="e8f7a602-0b13-4478-95ce-08848e3cf474" transform="translate(272.6309 27.9942)">Données <tspan x="-2.3301" y="14.3994">Invisibles</tspan><tspan x="-2.002" y="28.7998">«solides»</tspan></text></g></svg>