<svg xmlns="http://www.w3.org/2000/svg" viewBox="0 0 750 340"><defs><style>.b4980f6f-f8c9-4711-899b-0bd6cfd97d77,.b5ddba2e-bb02-43c2-94f9-1a8e6b3c98d5{font-size:12px;}.b483b4ab-090c-483b-a618-ffb1389f83db,.b5ddba2e-bb02-43c2-94f9-1a8e6b3c98d5,.f22db32e-9003-4aa6-9ff8-ee72e8fa7dbd{font-family:Georgia;}.b483b4ab-090c-483b-a618-ffb1389f83db,.f22db32e-9003-4aa6-9ff8-ee72e8fa7dbd{font-size:17px;}.bd7f3c04-18e8-42af-b39b-597a58adb662{fill:none;stroke:#000;stroke-miterlimit:10;stroke-width:1.5px;}.b483b4ab-090c-483b-a618-ffb1389f83db{fill:#666;}</style></defs><g id="ad897ce8-4cd7-461f-b2fb-55be35c2010e" data-name="timeline-1"><text class="b5ddba2e-bb02-43c2-94f9-1a8e6b3c98d5" transform="translate(184.0745 128.3892)">Opérations</text><text class="b5ddba2e-bb02-43c2-94f9-1a8e6b3c98d5" transform="translate(512.2668 128.281)">Opérations</text><text class="f22db32e-9003-4aa6-9ff8-ee72e8fa7dbd" transform="translate(299.1038 26.8447)">Normer et structurer <tspan x="34.8799" y="20.4004">les données</tspan></text><text class="f22db32e-9003-4aa6-9ff8-ee72e8fa7dbd" transform="translate(631.2126 26.8447)">Consulter via <tspan x="0.5029" y="20.4004">une interface</tspan></text><text class="b5ddba2e-bb02-43c2-94f9-1a8e6b3c98d5" transform="translate(607.2339 323.2874)">Données visibles «fluides»</text><text class="f22db32e-9003-4aa6-9ff8-ee72e8fa7dbd" transform="translate(33.8596 26.8447)">Identifier <tspan x="1.6602" y="20.4004">le corpus</tspan></text><text class="b5ddba2e-bb02-43c2-94f9-1a8e6b3c98d5" transform="translate(1.9534 323.2874)">Données Invisibles «solides»</text><circle class="bd7f3c04-18e8-42af-b39b-597a58adb662" cx="69.4531" cy="169.9263" r="67.5"/><text class="b5ddba2e-bb02-43c2-94f9-1a8e6b3c98d5" transform="translate(51.9802 128.9412)">Forme</text><text class="f22db32e-9003-4aa6-9ff8-ee72e8fa7dbd" transform="translate(45.1694 164.8589)">Objets <tspan x="-13.293" y="20.4004">physiques</tspan><tspan class="b4980f6f-f8c9-4711-899b-0bd6cfd97d77"><tspan x="-10.6641" y="40.4004">2D / 3D / 4D</tspan></tspan></text><circle class="bd7f3c04-18e8-42af-b39b-597a58adb662" cx="377.6462" cy="169.9263" r="67.5"/><text class="b5ddba2e-bb02-43c2-94f9-1a8e6b3c98d5" transform="translate(360.1733 128.9412)">Forme</text><text class="f22db32e-9003-4aa6-9ff8-ee72e8fa7dbd" transform="translate(344.7622 164.8589)">Données <tspan x="-12.0234" y="20.4004">numériques</tspan><tspan class="b4980f6f-f8c9-4711-899b-0bd6cfd97d77"><tspan x="24.4668" y="40.4004">BD</tspan></tspan></text><circle class="bd7f3c04-18e8-42af-b39b-597a58adb662" cx="680.8393" cy="169.9263" r="67.5"/><text class="b5ddba2e-bb02-43c2-94f9-1a8e6b3c98d5" transform="translate(663.3665 128.9414)">Forme</text><text class="f22db32e-9003-4aa6-9ff8-ee72e8fa7dbd" transform="translate(635.2854 164.8579)">Expériences <tspan x="0.6475" y="20.4004">numériques</tspan><tspan class="b4980f6f-f8c9-4711-899b-0bd6cfd97d77"><tspan x="36.7539" y="40.4004">UX</tspan></tspan></text><line class="bd7f3c04-18e8-42af-b39b-597a58adb662" x1="686.3733" y1="299.2153" x2="65.959" y2="299.2153"/><polygon points="681.403 293.081 680.38 294.179 685.798 299.214 680.38 304.25 681.403 305.349 688 299.214 681.403 293.081"/><polygon points="153.122 169.926 146.892 162.856 146.892 176.997 153.122 169.926"/><polygon points="301.23 169.926 295 162.856 295 176.997 301.23 169.926"/><polygon points="462.23 169.926 456 162.856 456 176.997 462.23 169.926"/><polygon points="603.494 169.926 597.264 162.856 597.264 176.997 603.494 169.926"/><text class="f22db32e-9003-4aa6-9ff8-ee72e8fa7dbd" transform="translate(469.8176 228.5249)">Lier / Connecter</text><text class="f22db32e-9003-4aa6-9ff8-ee72e8fa7dbd" transform="translate(469.8179 202.5825)">Extraire entités</text><text class="b483b4ab-090c-483b-a618-ffb1389f83db" transform="translate(470.1462 174.677)">Sémantisation</text><text class="f22db32e-9003-4aa6-9ff8-ee72e8fa7dbd" transform="translate(161.8181 228.4114)">Créer <tspan x="0" y="20.4004">métadonnées</tspan></text><text class="f22db32e-9003-4aa6-9ff8-ee72e8fa7dbd" transform="translate(161.8181 202.2876)">Scanner</text><text class="b483b4ab-090c-483b-a618-ffb1389f83db" transform="translate(162.147 174.6765)">Numérisation</text></g></svg>