<svg width="107" height="71" viewBox="0 0 107 71" fill="none" xmlns="http://www.w3.org/2000/svg">
<g clip-path="url(#clip0_382_393)">
<path d="M27.183 19.052C29.4 19.052 30.767 18.005 31.463 16.617V18.765H35.176V5.07001H31.463V13.109C31.463 15.125 30.225 16.12 28.653 16.12C27.054 16.12 26.307 15.23 26.307 13.371V5.07001H22.594V13.894C22.594 17.481 24.553 19.052 27.183 19.052Z" fill="black"/>
<path d="M43.349 16.408C41.725 16.408 41.132 15.701 40.977 14.47H37.496C37.626 17.429 39.74 19.052 43.375 19.052C46.933 19.052 49.047 17.507 49.047 14.549C49.047 11.616 47.19 10.752 43.813 10.255C41.854 9.96699 41.209 9.62599 41.209 8.76199C41.209 7.92399 41.905 7.34799 43.117 7.34799C44.406 7.34799 45.025 7.87199 45.231 8.99799H48.66C48.326 5.85599 46.082 4.75699 43.091 4.75699C40.333 4.75699 37.755 6.16999 37.755 9.02399C37.755 11.695 39.147 12.742 42.73 13.292C44.664 13.58 45.464 13.973 45.464 14.915C45.464 15.858 44.792 16.408 43.349 16.408Z" fill="black"/>
<path d="M57.632 19.052C61.319 19.052 63.639 17.403 64.076 14.444H60.545C60.313 15.596 59.462 16.355 57.734 16.355C55.697 16.355 54.486 15.046 54.383 12.768H64.103V11.721C64.103 6.82401 61.008 4.75601 57.529 4.75601C53.609 4.75601 50.592 7.55801 50.592 11.878V12.087C50.593 16.461 53.559 19.052 57.632 19.052ZM57.53 7.37501C59.309 7.37501 60.34 8.37101 60.468 10.439H54.436C54.718 8.50101 55.854 7.37501 57.53 7.37501Z" fill="black"/>
<path d="M25.662 46.803H19.291V65.532H23.444V58.722H25.791C29.995 58.722 32.703 56.836 32.703 52.881V52.776C32.703 48.821 30.149 46.803 25.662 46.803ZM28.68 52.907C28.68 54.767 27.596 55.762 25.559 55.762H23.444V50.026H25.559C27.544 50.026 28.68 50.811 28.68 52.801V52.907V52.907Z" fill="black"/>
<path d="M6.549 37.827H3.017C2.785 38.98 1.934 39.739 0.207 39.739C0.137 39.739 0.068 39.738 0 39.735V42.434C0.035 42.434 0.068 42.436 0.103 42.436C3.791 42.436 6.111 40.786 6.549 37.827Z" fill="black"/>
<path d="M0 28.14V30.758C1.779 30.758 2.81 31.752 2.939 33.821H0V36.153H6.575V35.104C6.575 30.209 3.48 28.14 0 28.14Z" fill="black"/>
<path d="M72.782 19.05V16.351C70.87 16.264 69.736 14.968 69.636 12.768H72.782V10.438H69.688C69.972 8.50001 71.106 7.37401 72.782 7.37401V4.75601C68.864 4.75601 65.846 7.55801 65.846 11.878V12.087C65.846 16.423 68.762 19.007 72.782 19.05Z" fill="black"/>
<path d="M106.385 30.759V28.14C102.466 28.14 99.449 30.942 99.449 35.262V35.471C99.449 39.807 102.365 42.39 106.385 42.434V39.734C104.473 39.649 103.339 38.352 103.239 36.152H106.385V33.821H103.291C103.575 31.885 104.709 30.759 106.385 30.759Z" fill="black"/>
<path d="M0.207007 63.124C0.137007 63.124 0.0690071 63.122 0.00100708 63.119V65.819C0.0350071 65.819 0.0690071 65.819 0.104007 65.819C3.79101 65.819 6.11101 64.171 6.54901 61.212H3.01701C2.78501 62.364 1.93401 63.124 0.207007 63.124Z" fill="black"/>
<path d="M0 51.524V54.143C1.779 54.143 2.81 55.137 2.939 57.206H0V59.537H6.575V58.489C6.575 53.593 3.48 51.524 0 51.524Z" fill="black"/>
<path d="M60.731 0H57.135L55.957 3.212H58.664L60.731 0Z" fill="black"/>
<path d="M40.135 23.151H36.708L35.875 29.653H38.573L40.135 23.151Z" fill="black"/>
<path d="M54.619 46.536H50.907V65.532H54.619V46.536Z" fill="black"/>
<path d="M61.839 46.536H58.125V65.532H61.839V46.536Z" fill="black"/>
<path d="M71.249 60.06L67.975 51.839H63.952L69.316 64.145L66.944 70.192H70.551L77.85 51.839H74.267L71.249 60.06Z" fill="black"/>
<path d="M19.5 18.764V0.0360107H14.083L9.828 11.693L5.521 0.0360107H0V18.764H3.74V5.61501L8.874 18.764H10.24L15.348 5.61501V18.764H19.5Z" fill="black"/>
<path d="M29.407 30.497C28.66 29.11 27.319 28.142 25.153 28.142C21.775 28.142 19.223 30.786 19.223 35.288V35.498C19.223 40.054 21.802 42.436 25.075 42.436C27.061 42.436 28.711 41.257 29.407 39.871V42.147H33.12V23.152H29.407V30.497V30.497ZM29.51 35.367C29.51 38.143 28.144 39.477 26.184 39.477C24.328 39.477 23.038 38.143 23.038 35.419V35.209C23.038 32.486 24.199 31.046 26.287 31.046C28.324 31.046 29.51 32.434 29.51 35.157V35.367V35.367Z" fill="black"/>
<path d="M52.444 42.148V33.219C52.444 29.502 50.098 28.141 46.798 28.141C43.497 28.141 40.971 29.58 40.738 32.827H44.271C44.426 31.649 45.096 30.889 46.565 30.889C48.267 30.889 48.757 31.78 48.757 33.403V33.953H47.236C43.111 33.953 40.223 35.158 40.223 38.351C40.223 41.232 42.285 42.437 44.735 42.437C46.849 42.437 48.035 41.598 48.809 40.499V42.148H52.444V42.148ZM48.757 37.357C48.757 38.876 47.493 39.792 45.844 39.792C44.477 39.792 43.884 39.138 43.884 38.143C43.884 36.677 45.148 36.205 47.313 36.205H48.757V37.357V37.357Z" fill="black"/>
<path d="M59.379 31.073V28.454H55.641V42.148H59.379V35.288C59.379 32.671 60.979 31.753 63.735 31.78V28.245C61.545 28.271 60.23 29.24 59.379 31.073Z" fill="black"/>
<path d="M65.936 25.496V28.454V31.151V38.09C65.936 40.944 67.457 42.409 70.292 42.409C71.297 42.409 72.046 42.226 72.561 42.043V39.11C72.123 39.293 71.71 39.373 71.143 39.373C70.19 39.373 69.649 38.849 69.649 37.75V31.15H72.483V28.453H69.649V25.495H65.936V25.496Z" fill="black"/>
<path d="M93.123 30.497C92.376 29.11 91.035 28.142 88.869 28.142C85.492 28.142 82.938 30.786 82.938 35.288V35.498C82.938 40.054 85.518 42.436 88.792 42.436C90.777 42.436 92.429 41.257 93.123 39.871V42.147H96.836V23.152H93.123V30.497ZM93.227 35.367C93.227 38.143 91.86 39.477 89.901 39.477C88.045 39.477 86.756 38.143 86.756 35.419V35.209C86.756 32.486 87.914 31.046 90.003 31.046C92.04 31.046 93.227 32.434 93.227 35.157V35.367V35.367Z" fill="black"/>
<path d="M43.97 59.877C43.97 61.894 42.732 62.888 41.16 62.888C39.561 62.888 38.813 61.997 38.813 60.139V51.838H35.101V60.662C35.101 64.25 37.06 65.821 39.69 65.821C41.908 65.821 43.274 64.772 43.97 63.384V65.531H47.683V51.838H43.97V59.877Z" fill="black"/>
</g>
<defs>
<clipPath id="clip0_382_393">
<rect width="106.385" height="70.192" fill="white"/>
</clipPath>
</defs>
</svg>
