<svg width="122" height="41" viewBox="0 0 122 41" fill="none" xmlns="http://www.w3.org/2000/svg">
<g clip-path="url(#clip0_382_419)">
<path d="M38.9769 12.3075C38.2703 12.35 37.5701 12.1528 36.9895 11.7478C36.4089 11.3429 35.9819 10.7539 35.7777 10.0761C35.5781 9.36269 35.4885 8.62302 35.512 7.88259C35.4895 7.13612 35.5791 6.39051 35.7777 5.6706C35.9819 4.99274 36.4088 4.4036 36.9894 3.9985C37.5699 3.5934 38.2702 3.39604 38.9769 3.43837C39.5253 3.4133 40.0705 3.53375 40.5573 3.78749C41.044 4.04123 41.455 4.41922 41.7485 4.88311C41.8066 4.98246 41.8353 5.09628 41.8312 5.2113C41.8319 5.27914 41.8191 5.34642 41.7935 5.40924C41.7679 5.47206 41.73 5.52914 41.6821 5.57714C41.6341 5.62515 41.5771 5.66313 41.5143 5.68885C41.4516 5.71456 41.3843 5.7275 41.3165 5.72691C41.2112 5.72502 41.1082 5.69591 41.0176 5.64241C40.9269 5.5889 40.8516 5.51283 40.7991 5.42159C40.5973 5.12976 40.3235 4.89512 40.0042 4.74048C39.6849 4.58583 39.331 4.51644 38.9769 4.53908C38.5102 4.50575 38.0465 4.63581 37.6652 4.90696C37.284 5.1781 37.0089 5.57344 36.8872 6.02519C36.712 6.62799 36.6371 7.25548 36.6655 7.88259C36.6377 8.50266 36.7124 9.12307 36.8863 9.71888C37.0075 10.1713 37.2825 10.5673 37.664 10.8388C38.0455 11.1104 38.5098 11.2405 38.9769 11.2067C39.3314 11.2294 39.6858 11.16 40.0056 11.0052C40.3254 10.8504 40.5996 10.6155 40.8017 10.3233C40.8535 10.2322 40.9283 10.1562 41.0186 10.1029C41.1089 10.0497 41.2116 10.021 41.3165 10.0198C41.3843 10.0192 41.4516 10.0322 41.5143 10.0579C41.5771 10.0836 41.6341 10.1215 41.6821 10.1696C41.73 10.2176 41.7679 10.2746 41.7935 10.3375C41.8191 10.4003 41.8319 10.4676 41.8312 10.5354C41.8357 10.6509 41.8067 10.7652 41.7476 10.8645C41.4541 11.328 41.0432 11.7057 40.5566 11.9591C40.07 12.2126 39.525 12.3328 38.9769 12.3075" fill="black"/>
<path d="M45.5935 12.3079C43.8056 12.3079 42.6512 11.3031 42.6512 9.75009C42.6512 8.08889 43.8074 7.17472 45.9068 7.17472H48.0369L48.0449 6.57288C48.0449 5.11669 47.4457 4.52189 45.9763 4.52189C45.3253 4.53272 44.6877 4.70862 44.1233 5.03311C44.01 5.10681 43.8783 5.14734 43.7432 5.15013C43.6723 5.1535 43.6015 5.14206 43.5353 5.11652C43.4691 5.09099 43.4089 5.05192 43.3587 5.00183C43.3084 4.95173 43.2691 4.89171 43.2434 4.82559C43.2176 4.75946 43.2059 4.6887 43.2091 4.61781C43.2114 4.52984 43.2328 4.44342 43.2718 4.36456C43.3109 4.2857 43.3666 4.21629 43.4352 4.16116C44.2043 3.6586 45.1101 3.40655 46.0282 3.43966C48.1557 3.43966 49.1447 4.4128 49.1447 6.50338V9.87239C49.1192 10.1647 49.1762 10.4582 49.3092 10.7197L49.6392 11.3462C49.689 11.4409 49.7173 11.5454 49.7219 11.6524C49.723 11.7279 49.7082 11.8029 49.6787 11.8725C49.6491 11.942 49.6053 12.0047 49.5502 12.0563C49.495 12.108 49.4297 12.1476 49.3583 12.1726C49.287 12.1976 49.2112 12.2074 49.1359 12.2014C49.0231 12.2013 48.9127 12.1691 48.8177 12.1085C48.7226 12.0478 48.6468 11.9613 48.5992 11.8591L48.2507 11.2828C47.9112 11.6396 47.4968 11.9166 47.0373 12.0938C46.5778 12.2711 46.0847 12.3442 45.5935 12.3079M46.0458 8.22264C44.462 8.22264 43.7863 8.68016 43.7863 9.75009C43.7863 10.9678 44.8536 11.2239 45.7502 11.2239C47.165 11.2239 48.0449 10.5525 48.0449 9.47117V8.23143L46.0458 8.22264Z" fill="black"/>
<path d="M57.1825 12.2018C57.104 12.2057 57.0255 12.1926 56.9525 12.1632C56.8795 12.1339 56.8138 12.0891 56.7598 12.0318C56.7059 11.9746 56.665 11.9064 56.64 11.8318C56.615 11.7572 56.6064 11.6781 56.615 11.5999V6.94013C56.615 5.32469 55.934 4.53896 54.5288 4.53896C54.2363 4.52899 53.9448 4.58016 53.6732 4.68923C53.4015 4.79829 53.1556 4.96283 52.9511 5.17234C52.7467 5.38185 52.5882 5.63172 52.4858 5.90596C52.3834 6.18021 52.3393 6.4728 52.3564 6.76504V11.5999C52.3609 11.6772 52.3496 11.7547 52.3231 11.8274C52.2967 11.9002 52.2556 11.9668 52.2024 12.0232C52.1493 12.0795 52.0852 12.1244 52.0141 12.1551C51.943 12.1857 51.8664 12.2016 51.7889 12.2016C51.7115 12.2016 51.6348 12.1857 51.5637 12.1551C51.4926 12.1244 51.4285 12.0795 51.3754 12.0232C51.3222 11.9668 51.2812 11.9002 51.2547 11.8274C51.2282 11.7547 51.2169 11.6772 51.2214 11.5999V4.14654C51.2167 4.0691 51.2278 3.99152 51.2542 3.91856C51.2806 3.8456 51.3216 3.77881 51.3748 3.7223C51.428 3.6658 51.4921 3.62077 51.5633 3.58999C51.6346 3.55921 51.7113 3.54334 51.7889 3.54334C51.8665 3.54334 51.9433 3.55921 52.0145 3.58999C52.0857 3.62077 52.1499 3.6658 52.203 3.7223C52.2562 3.77881 52.2972 3.8456 52.3236 3.91856C52.35 3.99152 52.3612 4.0691 52.3564 4.14654V4.44482C52.6482 4.1039 53.0153 3.83554 53.4287 3.66099C53.8421 3.48644 54.2904 3.41048 54.7382 3.43913C56.6238 3.43913 57.75 4.66303 57.75 6.71225V11.5999C57.7587 11.6781 57.7502 11.7573 57.7252 11.8319C57.7002 11.9065 57.6594 11.9748 57.6054 12.032C57.5514 12.0893 57.4856 12.1341 57.4126 12.1634C57.3396 12.1927 57.2611 12.2058 57.1825 12.2018" fill="black"/>
<path d="M62.488 12.1852H62.2619C60.6605 12.1852 60.0367 11.5315 60.0367 9.85533V4.65265L59.346 4.64472C59.2755 4.64924 59.2049 4.63926 59.1384 4.61539C59.0719 4.59152 59.011 4.55428 58.9595 4.50596C58.908 4.45764 58.8669 4.39925 58.8389 4.33444C58.8108 4.26963 58.7963 4.19975 58.7963 4.12912C58.7963 4.05849 58.8108 3.98861 58.8389 3.9238C58.8669 3.85899 58.908 3.80062 58.9595 3.7523C59.011 3.70398 59.0719 3.66674 59.1384 3.64287C59.2049 3.619 59.2755 3.60901 59.346 3.61352H60.027L60.0367 1.47631C60.032 1.39887 60.0431 1.32129 60.0695 1.24833C60.0959 1.17537 60.1369 1.10858 60.1901 1.05207C60.2433 0.995568 60.3074 0.950541 60.3787 0.919762C60.4499 0.888984 60.5266 0.873108 60.6042 0.873108C60.6818 0.873108 60.7586 0.888984 60.8298 0.919762C60.901 0.950541 60.9652 0.995568 61.0183 1.05207C61.0715 1.10858 61.1125 1.17537 61.1389 1.24833C61.1653 1.32129 61.1765 1.39887 61.1717 1.47631V3.60473L62.5056 3.61352C62.5761 3.60901 62.6468 3.619 62.7132 3.64287C62.7797 3.66674 62.8406 3.70398 62.8921 3.7523C62.9436 3.80062 62.9847 3.85899 63.0127 3.9238C63.0408 3.98861 63.0553 4.05849 63.0553 4.12912C63.0553 4.19975 63.0408 4.26963 63.0127 4.33444C62.9847 4.39925 62.9436 4.45764 62.8921 4.50596C62.8406 4.55428 62.7797 4.59152 62.7132 4.61539C62.6468 4.63926 62.5761 4.64924 62.5056 4.64472H61.1797L61.1717 9.82012C61.1717 10.8249 61.4419 11.0845 62.488 11.0845C62.5632 11.0798 62.6385 11.0906 62.7093 11.1162C62.7801 11.1417 62.8449 11.1815 62.8998 11.2331C62.9546 11.2846 62.9984 11.3469 63.0282 11.416C63.0581 11.4851 63.0735 11.5596 63.0735 11.6349C63.0735 11.7101 63.0581 11.7846 63.0282 11.8537C62.9984 11.9228 62.9546 11.9851 62.8998 12.0366C62.8449 12.0882 62.7801 12.128 62.7093 12.1535C62.6385 12.1791 62.5632 12.1899 62.488 12.1852" fill="black"/>
<path d="M67.2702 12.3076C66.5645 12.3465 65.866 12.148 65.2862 11.7437C64.7064 11.3395 64.2786 10.7528 64.071 10.0771C63.86 9.35951 63.7643 8.61289 63.7877 7.86523C63.7649 7.12333 63.8606 6.38255 64.071 5.67075C64.3139 5.01561 64.7516 4.45053 65.3252 4.05147C65.8987 3.65242 66.5807 3.43851 67.2794 3.43851C67.9782 3.43851 68.6602 3.65242 69.2337 4.05147C69.8073 4.45053 70.245 5.01561 70.4879 5.67075C70.8657 7.11466 70.8657 8.63147 70.4879 10.0754C70.2779 10.7533 69.8469 11.3415 69.2638 11.746C68.6806 12.1506 67.9788 12.3483 67.2702 12.3076M67.2702 4.53924C66.8036 4.51726 66.3429 4.65156 65.9612 4.9209C65.5796 5.19023 65.2986 5.5792 65.1629 6.02621C64.8673 7.2394 64.8673 8.50585 65.1629 9.71903C65.3198 10.1545 65.6071 10.531 65.9858 10.7972C66.3645 11.0633 66.8161 11.2061 67.279 11.2061C67.7419 11.2061 68.1935 11.0633 68.5722 10.7972C68.9509 10.531 69.2383 10.1545 69.3951 9.71903C69.6919 8.50599 69.6919 7.23926 69.3951 6.02621C69.2608 5.57484 68.9778 5.18221 68.5919 4.91221C68.2061 4.64221 67.7403 4.51076 67.2702 4.53924" fill="black"/>
<path d="M78.3193 12.2018C78.2407 12.2057 78.1622 12.1926 78.0892 12.1633C78.0163 12.1339 77.9505 12.0891 77.8966 12.0319C77.8426 11.9747 77.8017 11.9064 77.7767 11.8318C77.7517 11.7573 77.7432 11.6781 77.7517 11.6V6.94017C77.7517 5.32473 77.069 4.539 75.6647 4.539C75.3721 4.5291 75.0807 4.58033 74.8091 4.68941C74.5375 4.7985 74.2916 4.96303 74.0871 5.17252C73.8827 5.38202 73.7242 5.63185 73.6218 5.90607C73.5193 6.18028 73.4752 6.47285 73.4923 6.76507V11.6C73.4968 11.6772 73.4855 11.7546 73.459 11.8273C73.4326 11.9 73.3915 11.9666 73.3384 12.0229C73.2853 12.0792 73.2213 12.124 73.1502 12.1547C73.0792 12.1853 73.0026 12.2011 72.9252 12.2011C72.8478 12.2011 72.7712 12.1853 72.7002 12.1547C72.6291 12.124 72.5651 12.0792 72.512 12.0229C72.4589 11.9666 72.4179 11.9 72.3914 11.8273C72.3649 11.7546 72.3536 11.6772 72.3581 11.6V4.14658C72.3532 4.06908 72.3642 3.99139 72.3905 3.91832C72.4168 3.84524 72.4577 3.77832 72.5109 3.7217C72.564 3.66507 72.6282 3.61994 72.6995 3.58909C72.7707 3.55824 72.8476 3.54233 72.9252 3.54233C73.0029 3.54233 73.0797 3.55824 73.151 3.58909C73.2222 3.61994 73.2864 3.66507 73.3395 3.7217C73.3927 3.77832 73.4337 3.84524 73.4599 3.91832C73.4862 3.99139 73.4972 4.06908 73.4923 4.14658V4.44486C73.7842 4.1041 74.1513 3.83587 74.5647 3.66133C74.978 3.4868 75.4263 3.41074 75.8741 3.43917C77.7605 3.43917 78.8859 4.66307 78.8859 6.71228V11.6C78.8945 11.6781 78.8861 11.7572 78.8612 11.8317C78.8363 11.9063 78.7955 11.9745 78.7416 12.0318C78.6877 12.089 78.622 12.1338 78.5491 12.1632C78.4762 12.1926 78.3978 12.2057 78.3193 12.2018" fill="black"/>
<path d="M86.7198 12.3076C86.0596 12.3389 85.4082 12.1459 84.8716 11.7599C84.3349 11.3739 83.9447 10.8178 83.7644 10.1819C83.3634 8.66974 83.3631 7.07928 83.7635 5.56702C83.9434 4.93045 84.3335 4.37357 84.8704 3.98706C85.4072 3.60055 86.0591 3.40721 86.7198 3.43852C87.1755 3.39531 87.6347 3.46567 88.0565 3.64332C88.4782 3.82097 88.8494 4.10037 89.1368 4.45653V0.603582C89.1319 0.526083 89.1429 0.448393 89.1692 0.375317C89.1955 0.30224 89.2364 0.235322 89.2896 0.178697C89.3427 0.122072 89.4069 0.0769423 89.4782 0.0460905C89.5494 0.0152387 89.6263 -0.000671387 89.7039 -0.000671387C89.7816 -0.000671387 89.8584 0.0152387 89.9297 0.0460905C90.0009 0.0769423 90.0651 0.122072 90.1183 0.178697C90.1714 0.235322 90.2124 0.30224 90.2386 0.375317C90.2649 0.448393 90.2759 0.526083 90.271 0.603582V11.6002C90.2757 11.6776 90.2646 11.7551 90.2382 11.828C90.2118 11.9009 90.1708 11.9677 90.1177 12.0241C90.0646 12.0806 90.0005 12.1256 89.9293 12.1563C89.8581 12.1871 89.7814 12.203 89.7039 12.203C89.6264 12.203 89.5497 12.1871 89.4785 12.1563C89.4074 12.1256 89.3433 12.0806 89.2901 12.0241C89.237 11.9677 89.196 11.9009 89.1696 11.828C89.1433 11.7551 89.1321 11.6776 89.1368 11.6002V11.2896C88.8494 11.6457 88.4782 11.925 88.0564 12.1027C87.6346 12.2803 87.1754 12.3507 86.7198 12.3076M86.8764 4.53925C86.4244 4.51332 85.977 4.6411 85.6068 4.90182C85.2366 5.16254 84.9656 5.54085 84.8378 5.97519C84.5421 7.22347 84.5421 8.52355 84.8378 9.77183C84.9657 10.206 85.2368 10.584 85.607 10.8445C85.9772 11.1049 86.4246 11.2323 86.8764 11.206C87.3252 11.2437 87.7734 11.1273 88.147 10.876C88.5207 10.6247 88.7975 10.2536 88.9318 9.82375C89.2055 8.53707 89.2052 7.20719 88.9309 5.92064C88.7964 5.49124 88.5196 5.12046 88.1461 4.86937C87.7727 4.61829 87.3249 4.50186 86.8764 4.53925" fill="black"/>
<path d="M95.3937 12.3085C94.6735 12.3655 93.9555 12.1731 93.3603 11.7637C92.765 11.3542 92.3286 10.7526 92.1241 10.0596C91.9141 9.34802 91.824 8.60642 91.8575 7.86523C91.8266 7.12412 91.9167 6.38292 92.1241 5.67075C92.3586 5.01722 92.7891 4.45205 93.357 4.05249C93.9248 3.65294 94.6022 3.43851 95.2965 3.43851C95.9908 3.43851 96.6682 3.65294 97.236 4.05249C97.8038 4.45205 98.2344 5.01722 98.4689 5.67075C98.6665 6.325 98.7568 7.00693 98.7364 7.69005C98.7395 7.76095 98.7278 7.83173 98.7021 7.89786C98.6763 7.96399 98.6371 8.02404 98.5868 8.07414C98.5366 8.12424 98.4764 8.16331 98.4102 8.18885C98.344 8.21439 98.2731 8.22584 98.2023 8.22247H93.019C92.9843 8.7043 93.0388 9.18839 93.18 9.6504C93.323 10.1294 93.6257 10.545 94.0377 10.8281C94.4498 11.1111 94.9463 11.2445 95.4447 11.206C95.8534 11.2228 96.2608 11.1497 96.6381 10.9919C97.0154 10.8341 97.3535 10.5954 97.6286 10.2927C97.6815 10.233 97.7456 10.1844 97.8173 10.1495C97.889 10.1147 97.9669 10.0943 98.0465 10.0895C98.1134 10.0869 98.1802 10.0979 98.2428 10.1218C98.3054 10.1456 98.3624 10.1819 98.4106 10.2284C98.4588 10.275 98.497 10.3308 98.5231 10.3925C98.5491 10.4542 98.5624 10.5205 98.5621 10.5875C98.5643 10.7233 98.5195 10.8557 98.4354 10.9624C98.0654 11.4048 97.5987 11.7563 97.0713 11.9897C96.5439 12.2231 95.97 12.3322 95.3937 12.3086M95.2881 4.50414C94.8154 4.47509 94.3469 4.60854 93.9604 4.88237C93.5739 5.15619 93.2926 5.55394 93.1633 6.00959C93.0521 6.38488 93.0007 6.77535 93.011 7.16662L97.5749 7.17453C97.5922 6.78094 97.5438 6.38723 97.4315 6.00959C97.2995 5.55186 97.0149 5.15301 96.6251 4.8792C96.2352 4.60538 95.7635 4.47305 95.2881 4.50414" fill="black"/>
<path d="M43.7671 39.0087L35.8509 18.4153C35.7569 18.1759 35.7057 17.9219 35.6995 17.6648C35.6953 17.4882 35.7278 17.3126 35.795 17.1492C35.8621 16.9858 35.9625 16.8382 36.0897 16.7156C36.2169 16.593 36.3682 16.4982 36.534 16.4371C36.6998 16.376 36.8764 16.3501 37.0528 16.3608C37.3498 16.3617 37.6384 16.4603 37.8739 16.6414C38.1094 16.8225 38.2787 17.0761 38.3558 17.363L45.5708 36.2019H45.6201L52.6854 17.363C52.7621 17.076 52.9312 16.8223 53.1666 16.6411C53.402 16.46 53.6906 16.3615 53.9876 16.3608C54.164 16.3501 54.3406 16.376 54.5064 16.4371C54.6722 16.4982 54.8235 16.593 54.9507 16.7156C55.0779 16.8382 55.1783 16.9858 55.2454 17.1492C55.3126 17.3126 55.3451 17.4882 55.3409 17.6648C55.3349 17.9218 55.2843 18.1757 55.1913 18.4153L47.2751 39.0087C46.8237 40.2607 46.3723 40.662 45.5198 40.662C44.6672 40.662 44.2167 40.2607 43.7671 39.0087" fill="black"/>
<path d="M76.3137 39.3596C76.3159 39.54 76.2802 39.7187 76.2091 39.8845C76.138 40.0502 76.0329 40.1992 75.9007 40.3219C75.7685 40.4446 75.6121 40.5382 75.4415 40.5967C75.2709 40.6553 75.09 40.6775 74.9103 40.6618C74.634 40.6615 74.3638 40.5808 74.1326 40.4296C73.9013 40.2783 73.7191 40.063 73.6081 39.81L72.4564 37.906H72.3552C70.6016 39.8611 68.4969 40.9627 64.739 40.9627C60.1311 40.9627 56.5729 38.4577 56.5729 33.8973C56.5729 29.1882 59.8795 26.7827 65.6409 26.7827H71.7542C71.795 26.7886 71.8367 26.7849 71.8758 26.772C71.915 26.759 71.9506 26.7371 71.9798 26.708C72.009 26.6789 72.031 26.6433 72.0441 26.6042C72.0572 26.5651 72.061 26.5235 72.0551 26.4826V24.7784C72.0551 20.8207 70.5514 18.6157 65.8424 18.6157C63.9236 18.6441 62.0439 19.1617 60.381 20.1194C60.0989 20.3083 59.7685 20.4124 59.429 20.4194C59.2618 20.4297 59.0944 20.4043 58.9378 20.345C58.7812 20.2856 58.639 20.1937 58.5206 20.0752C58.4022 19.9568 58.3103 19.8145 58.2511 19.6578C58.1919 19.5012 58.1666 19.3337 58.1769 19.1666C58.1842 18.9543 58.2371 18.746 58.3319 18.5559C58.4268 18.3658 58.5615 18.1984 58.7269 18.065C60.8795 16.6546 63.4198 15.9536 65.9911 16.0606C71.9047 16.0606 74.6604 18.716 74.6604 24.5777V34.2485C74.5876 35.1301 74.7609 36.0146 75.1611 36.8036L76.1131 38.6073C76.2323 38.8411 76.3007 39.0975 76.3137 39.3596M72.0551 33.0967V29.5385C72.0609 29.4977 72.057 29.4561 72.0439 29.417C72.0308 29.3779 72.0088 29.3424 71.9796 29.3133C71.9504 29.2842 71.9149 29.2623 71.8757 29.2493C71.8366 29.2363 71.795 29.2326 71.7542 29.2385H66.043C61.2829 29.2385 59.2785 30.6911 59.2785 33.8974C59.2785 36.8546 61.3339 38.4067 65.1904 38.4067C69.2994 38.4067 72.0551 36.4033 72.0551 33.0967" fill="black"/>
<path d="M95.9522 39.2092V37.555H95.9012C94.5497 39.7098 92.2946 40.9628 88.9379 40.9628C83.6754 40.9628 80.6706 37.6553 80.6706 31.8439V17.8151C80.6572 17.6293 80.6822 17.4426 80.7442 17.2669C80.8061 17.0911 80.9035 16.93 81.0305 16.7936C81.1574 16.6572 81.3111 16.5484 81.4819 16.474C81.6528 16.3996 81.8371 16.3612 82.0234 16.3612C82.2098 16.3612 82.3941 16.3996 82.565 16.474C82.7358 16.5484 82.8895 16.6572 83.0164 16.7936C83.1434 16.93 83.2408 17.0911 83.3027 17.2669C83.3646 17.4426 83.3897 17.6293 83.3762 17.8151V31.1918C83.3762 35.9528 85.3797 38.3566 89.5389 38.3566C93.1472 38.3566 95.9522 35.8023 95.9522 31.6933V17.8151C95.9388 17.6292 95.9639 17.4425 96.0258 17.2667C96.0877 17.0909 96.1852 16.9297 96.3122 16.7933C96.4391 16.6568 96.5929 16.548 96.7638 16.4735C96.9347 16.3991 97.1191 16.3607 97.3055 16.3607C97.4919 16.3607 97.6763 16.3991 97.8472 16.4735C98.0181 16.548 98.1718 16.6568 98.2988 16.7933C98.4257 16.9297 98.5232 17.0909 98.5852 17.2667C98.6471 17.4425 98.6721 17.6292 98.6587 17.8151V39.2092C98.6719 39.395 98.6468 39.5816 98.5848 39.7572C98.5228 39.9329 98.4252 40.0939 98.2983 40.2302C98.1713 40.3665 98.0177 40.4752 97.8468 40.5496C97.676 40.6239 97.4918 40.6623 97.3055 40.6623C97.1192 40.6623 96.9349 40.6239 96.7641 40.5496C96.5933 40.4752 96.4396 40.3665 96.3126 40.2302C96.1857 40.0939 96.0882 39.9329 96.0262 39.7572C95.9642 39.5816 95.939 39.395 95.9522 39.2092" fill="black"/>
<path d="M119.294 39.2094V37.4549H119.245C118.093 39.5085 115.988 40.963 112.08 40.963C110.245 41.0455 108.436 40.5068 106.945 39.4341C105.454 38.3614 104.368 36.8172 103.862 35.0511C102.728 30.7655 102.728 26.2584 103.862 21.9728C104.367 20.2065 105.453 18.6621 106.944 17.5893C108.436 16.5165 110.245 15.978 112.08 16.0609C115.988 16.0609 118.093 17.5136 119.245 19.5689H119.294V7.64317C119.281 7.45742 119.306 7.27093 119.368 7.09532C119.43 6.91972 119.528 6.75875 119.655 6.62247C119.782 6.48619 119.935 6.3775 120.106 6.30319C120.277 6.22888 120.461 6.19052 120.647 6.19052C120.833 6.19052 121.018 6.22888 121.188 6.30319C121.359 6.3775 121.513 6.48619 121.64 6.62247C121.767 6.75875 121.864 6.91972 121.926 7.09532C121.988 7.27093 122.013 7.45742 122 7.64317V39.2094C122.013 39.3952 121.988 39.5816 121.926 39.7573C121.864 39.9329 121.767 40.0938 121.64 40.2301C121.513 40.3664 121.359 40.4751 121.188 40.5494C121.018 40.6237 120.833 40.662 120.647 40.662C120.461 40.662 120.277 40.6237 120.106 40.5494C119.935 40.4751 119.782 40.3664 119.655 40.2301C119.528 40.0938 119.43 39.9329 119.368 39.7573C119.306 39.5816 119.281 39.3952 119.294 39.2094ZM118.693 34.1985C119.495 30.4495 119.495 26.5735 118.693 22.8245C117.742 20.0194 115.537 18.6662 112.532 18.6662C111.177 18.5942 109.838 18.98 108.729 19.7615C107.62 20.5431 106.806 21.6749 106.418 22.9749C105.55 26.6149 105.55 30.4081 106.418 34.0481C106.806 35.3481 107.62 36.4799 108.729 37.2614C109.838 38.043 111.177 38.4288 112.532 38.3568C115.537 38.3568 117.742 37.0044 118.693 34.1985" fill="black"/>
<path d="M32.3039 3.54041C32.3004 3.4011 32.2426 3.26869 32.1428 3.17139C32.043 3.07409 31.9092 3.0196 31.7699 3.01953H0.549412C0.410223 3.01971 0.276583 3.07412 0.176864 3.17123C0.0771452 3.26834 0.019201 3.40048 0.0153322 3.53962C0.0144524 3.55449 -0.0251414 5.05466 0.026771 7.23331C0.0796833 9.90692 0.269102 12.5761 0.594288 15.2304C0.741052 16.3939 0.952547 17.5483 1.22779 18.6883H1.21724L1.39145 19.357C2.10455 22.0845 3.15315 24.7131 4.51323 27.1825C6.67341 31.0059 9.33416 34.5239 12.425 37.6434L13.033 38.2838C13.6111 38.8936 14.11 39.4216 14.5341 39.8148C14.9472 40.3022 15.5148 40.6333 16.1425 40.7528L16.1777 40.7554L16.2137 40.7528C16.8373 40.635 17.4 40.3029 17.8045 39.814C18.1609 39.4796 18.5692 39.0529 19.0434 38.5592C19.3118 38.2786 19.6039 37.9741 19.9268 37.6434C23.0065 34.518 25.6618 31.0012 27.8245 27.1835C29.1888 24.7145 30.2426 22.0863 30.9621 19.3588L30.963 19.3552L31.1372 18.6883H31.126C31.4026 17.548 31.6165 16.3933 31.7665 15.2296C32.0542 12.8635 32.2337 10.173 32.2997 7.23155C32.3437 5.05396 32.305 3.55555 32.3041 3.5405M13.8092 37.5484L13.1968 36.9043C10.1714 33.852 7.56659 30.4098 5.45135 26.6688C4.67382 25.2531 3.99956 23.7831 3.4338 22.2703L16.0494 39.6346C15.7595 39.4734 15.4948 39.2706 15.2637 39.0327C14.8624 38.6614 14.375 38.1458 13.8092 37.5484M17.0709 39.0371C16.9222 39.1789 16.7964 39.287 16.6873 39.376L2.72727 20.1613C2.68767 20.0266 2.64544 19.893 2.6076 19.7575H4.39462L17.8417 38.2663C17.5575 38.5611 17.2979 38.8234 17.0709 39.0371M18.3124 37.7771L5.21994 19.7574H7.18029L19.4262 36.6126C19.3355 36.7086 19.2502 36.8036 19.1578 36.9003C18.8516 37.2136 18.5718 37.5058 18.3122 37.7767M26.6833 19.7569L28.773 22.6331C28.5495 23.2068 28.3096 23.7758 28.0533 24.3401L24.723 19.7569H26.6833ZM23.8977 19.7569L27.7304 25.0326C27.4743 25.564 27.2033 26.0908 26.9174 26.6129L21.9373 19.7569H23.8977ZM21.1111 19.7569L26.554 27.2489C26.2724 27.7408 25.9765 28.2326 25.6662 28.7245L19.1509 19.7574L21.1111 19.7569ZM18.3254 19.7569L25.2808 29.3316C24.9773 29.7927 24.6579 30.2555 24.3279 30.7183L16.3642 19.7569H18.3254ZM15.5389 19.7569L23.9135 31.2849C23.5915 31.7231 23.2568 32.1619 22.9096 32.6012L13.5785 19.7569H15.5389ZM12.7532 19.7569L22.4793 33.1441C22.1406 33.5611 21.791 33.9794 21.4305 34.3989L10.7922 19.7574L12.7532 19.7569ZM9.96666 19.7569L20.9774 34.9126C20.6254 35.3115 20.2632 35.7122 19.8907 36.1146L8.00631 19.7569H9.96666ZM29.0546 21.8836L27.5104 19.7569H29.7453C29.542 20.4704 29.3089 21.1797 29.0546 21.8836M31.2305 7.20815C31.1654 10.1135 30.9894 12.7681 30.7052 15.0971C30.5518 16.3064 30.3261 17.5055 30.0295 18.6878H2.32411C2.02939 17.5048 1.8058 16.3051 1.65453 15.0953C1.33439 12.4772 1.14762 9.84446 1.09493 7.20736C1.06238 5.81189 1.06678 4.7006 1.07469 4.08909H31.2446C31.2525 4.7006 31.2586 5.81092 31.2305 7.20815" fill="black"/>
<path d="M6.63501 6.50937C6.63169 6.47935 6.63483 6.44898 6.64422 6.42027C6.6536 6.39157 6.66903 6.36521 6.68944 6.34296C6.70986 6.3207 6.73481 6.30307 6.7626 6.29125C6.79039 6.27944 6.82039 6.27371 6.85058 6.27444C6.88108 6.27342 6.91145 6.2789 6.93965 6.29054C6.96786 6.30218 6.99326 6.3197 7.01416 6.34194C7.03506 6.36417 7.05098 6.39061 7.06086 6.41948C7.07073 6.44836 7.07434 6.47899 7.07143 6.50937V9.19473C7.0708 9.19869 7.07111 9.20275 7.07234 9.20656C7.07358 9.21037 7.0757 9.21384 7.07853 9.21667C7.08136 9.21951 7.08483 9.22163 7.08864 9.22286C7.09246 9.2241 7.09651 9.22441 7.10046 9.22377H8.54609C8.57385 9.22214 8.60165 9.2262 8.62778 9.2357C8.65391 9.24519 8.67782 9.25993 8.69805 9.27901C8.71828 9.29808 8.7344 9.32109 8.74541 9.34662C8.75643 9.37215 8.76211 9.39965 8.76211 9.42746C8.76211 9.45526 8.75643 9.48278 8.74541 9.50831C8.7344 9.53383 8.71828 9.55684 8.69805 9.57592C8.67782 9.59499 8.65391 9.60973 8.62778 9.61923C8.60165 9.62873 8.57385 9.63278 8.54609 9.63115H6.84618C6.81752 9.63332 6.78872 9.6292 6.76181 9.61907C6.73491 9.60894 6.71054 9.59306 6.69042 9.57252C6.67031 9.55198 6.65492 9.52729 6.64535 9.50018C6.63578 9.47307 6.63225 9.4442 6.63501 9.41559V6.50937Z" fill="black"/>
<path d="M9.56513 6.50937C9.56287 6.47934 9.56684 6.44917 9.57678 6.42074C9.58672 6.3923 9.60243 6.36624 9.62291 6.34415C9.64339 6.32207 9.66821 6.30446 9.69582 6.29241C9.72342 6.28037 9.75322 6.27414 9.78334 6.27414C9.81346 6.27414 9.84325 6.28037 9.87086 6.29241C9.89846 6.30446 9.92328 6.32207 9.94377 6.34415C9.96425 6.36624 9.97996 6.3923 9.9899 6.42074C9.99984 6.44917 10.0038 6.47934 10.0015 6.50937V9.42087C10.0038 9.4509 9.99984 9.48107 9.9899 9.5095C9.97996 9.53794 9.96425 9.564 9.94377 9.58609C9.92328 9.60817 9.89846 9.62578 9.87086 9.63783C9.84325 9.64987 9.81346 9.6561 9.78334 9.6561C9.75322 9.6561 9.72342 9.64987 9.69582 9.63783C9.66821 9.62578 9.64339 9.60817 9.62291 9.58609C9.60243 9.564 9.58672 9.53794 9.57678 9.5095C9.56684 9.48107 9.56287 9.4509 9.56513 9.42087V6.50937Z" fill="black"/>
<path d="M11.1186 6.49469C11.1167 6.46848 11.1205 6.44216 11.1297 6.41755C11.1389 6.39293 11.1533 6.3706 11.172 6.35206C11.1906 6.33352 11.213 6.31921 11.2377 6.31011C11.2623 6.30102 11.2886 6.29736 11.3148 6.29936H12.3487C13.0147 6.29936 13.3535 6.64163 13.3535 7.17131C13.3684 7.32563 13.3323 7.48056 13.2508 7.61244C13.1692 7.74432 13.0468 7.84589 12.9021 7.9016V7.91128C13.0593 7.96656 13.1942 8.07169 13.2861 8.21066C13.3781 8.34964 13.4222 8.51486 13.4116 8.68117C13.4116 9.30852 13.0103 9.63143 12.3337 9.63143H11.3148C11.2885 9.63388 11.262 9.63051 11.2372 9.62158C11.2123 9.61264 11.1897 9.59835 11.171 9.57972C11.1523 9.56108 11.1379 9.53855 11.1288 9.51373C11.1198 9.48891 11.1163 9.46241 11.1186 9.4361V6.49469ZM12.339 7.74059C12.4123 7.74857 12.4865 7.741 12.5568 7.7184C12.627 7.69579 12.6917 7.65864 12.7466 7.60938C12.8015 7.56011 12.8454 7.49984 12.8755 7.43247C12.9055 7.3651 12.9211 7.29215 12.9211 7.21838C12.9211 7.14461 12.9055 7.07166 12.8755 7.00429C12.8454 6.93693 12.8015 6.87665 12.7466 6.82738C12.6917 6.77812 12.627 6.74097 12.5568 6.71837C12.4865 6.69576 12.4123 6.68821 12.339 6.69619H11.5841C11.5801 6.69563 11.5761 6.69598 11.5723 6.69725C11.5686 6.69851 11.5651 6.70063 11.5623 6.70345C11.5595 6.70627 11.5574 6.7097 11.5561 6.71348C11.5548 6.71726 11.5545 6.72127 11.555 6.72521V7.71068C11.5545 7.71466 11.5548 7.71871 11.5561 7.72253C11.5573 7.72635 11.5594 7.72985 11.5622 7.73273C11.565 7.73562 11.5685 7.73783 11.5722 7.73919C11.576 7.74055 11.5801 7.74103 11.5841 7.74059H12.339ZM11.5841 9.23461H12.3628C12.7596 9.23461 12.976 9.01903 12.976 8.68556C12.9785 8.60717 12.9638 8.52918 12.9329 8.45708C12.902 8.38498 12.8557 8.32052 12.7973 8.26821C12.7388 8.21589 12.6697 8.17698 12.5946 8.15424C12.5195 8.13149 12.4404 8.12545 12.3628 8.13653H11.5841C11.5801 8.13609 11.576 8.13656 11.5722 8.13792C11.5685 8.13928 11.565 8.1415 11.5622 8.14438C11.5594 8.14727 11.5573 8.15075 11.5561 8.15457C11.5548 8.1584 11.5545 8.16246 11.555 8.16644V9.20557C11.5545 9.20951 11.5548 9.21354 11.5561 9.21731C11.5574 9.22109 11.5595 9.22451 11.5623 9.22733C11.5651 9.23015 11.5686 9.23227 11.5723 9.23353C11.5761 9.23479 11.5801 9.23516 11.5841 9.23461" fill="black"/>
<path d="M14.3719 6.49468C14.37 6.46854 14.3738 6.44229 14.3829 6.41772C14.392 6.39315 14.4064 6.37083 14.4249 6.3523C14.4434 6.33376 14.4657 6.31944 14.4903 6.3103C14.5149 6.30116 14.5411 6.29743 14.5673 6.29935H16.283C16.3108 6.29752 16.3387 6.30141 16.365 6.3108C16.3912 6.32018 16.4153 6.33486 16.4356 6.35391C16.456 6.37296 16.4722 6.39599 16.4833 6.42156C16.4944 6.44714 16.5001 6.47472 16.5001 6.5026C16.5001 6.53048 16.4944 6.55805 16.4833 6.58362C16.4722 6.6092 16.456 6.63222 16.4356 6.65128C16.4153 6.67033 16.3912 6.685 16.365 6.69439C16.3387 6.70377 16.3108 6.70767 16.283 6.70584H14.8374C14.8334 6.70528 14.8293 6.70564 14.8255 6.70689C14.8217 6.70813 14.8182 6.71023 14.8153 6.71303C14.8124 6.71584 14.8102 6.71927 14.8089 6.72305C14.8075 6.72684 14.807 6.73088 14.8075 6.73488V7.71505C14.8075 7.73529 14.818 7.74409 14.8374 7.74409H16.0428C16.0706 7.74246 16.0984 7.74652 16.1245 7.75601C16.1506 7.76551 16.1745 7.78025 16.1948 7.79933C16.215 7.8184 16.2311 7.84141 16.2421 7.86694C16.2531 7.89247 16.2588 7.91997 16.2588 7.94777C16.2588 7.97558 16.2531 8.0031 16.2421 8.02862C16.2311 8.05415 16.215 8.07716 16.1948 8.09624C16.1745 8.11531 16.1506 8.13005 16.1245 8.13955C16.0984 8.14905 16.0706 8.1531 16.0428 8.15147H14.8374C14.8333 8.15088 14.8292 8.15125 14.8253 8.15254C14.8214 8.15384 14.8178 8.15602 14.8149 8.15892C14.812 8.16183 14.8098 8.16537 14.8085 8.16927C14.8072 8.17317 14.8069 8.17732 14.8075 8.18138V9.195C14.807 9.199 14.8075 9.20304 14.8089 9.20683C14.8102 9.21061 14.8124 9.21403 14.8153 9.21683C14.8182 9.21963 14.8217 9.22175 14.8255 9.22299C14.8293 9.22424 14.8334 9.22459 14.8374 9.22403H16.283C16.3108 9.22239 16.3386 9.22646 16.3647 9.23596C16.3908 9.24546 16.4147 9.2602 16.435 9.27927C16.4552 9.29835 16.4713 9.32136 16.4823 9.34689C16.4933 9.37241 16.499 9.39992 16.499 9.42772C16.499 9.45553 16.4933 9.48304 16.4823 9.50857C16.4713 9.5341 16.4552 9.5571 16.435 9.57617C16.4147 9.59525 16.3908 9.60998 16.3647 9.61948C16.3386 9.62898 16.3108 9.63305 16.283 9.63142H14.5673C14.5411 9.6333 14.5147 9.62951 14.4901 9.6203C14.4655 9.6111 14.4432 9.59669 14.4246 9.57806C14.4061 9.55944 14.3918 9.53704 14.3827 9.51239C14.3736 9.48773 14.3699 9.4614 14.3719 9.4352V6.49468Z" fill="black"/>
<path d="M17.4247 9.42024V6.49467C17.4226 6.46845 17.4263 6.44209 17.4353 6.41741C17.4444 6.39272 17.4587 6.37027 17.4773 6.35163C17.4958 6.33299 17.5182 6.31859 17.5428 6.30941C17.5675 6.30023 17.5938 6.29649 17.62 6.29845H18.6645C18.7987 6.28261 18.9349 6.29584 19.0636 6.33723C19.1923 6.37861 19.3106 6.44719 19.4105 6.53832C19.5104 6.62945 19.5895 6.74099 19.6425 6.86538C19.6955 6.98978 19.7211 7.12411 19.7177 7.25928C19.7287 7.45804 19.6723 7.65469 19.5577 7.81742C19.443 7.98014 19.2768 8.0994 19.0859 8.15587L19.6833 9.33224C19.703 9.36839 19.713 9.409 19.7124 9.45015C19.7129 9.4777 19.7077 9.50506 19.6973 9.53056C19.6869 9.55605 19.6713 9.57915 19.6516 9.59842C19.6319 9.6177 19.6085 9.63276 19.5828 9.64266C19.5571 9.65257 19.5296 9.65713 19.5021 9.65605C19.4576 9.65528 19.4142 9.64189 19.3769 9.61743C19.3397 9.59298 19.3102 9.55846 19.2918 9.5179L18.6345 8.2201H17.8902C17.8699 8.2201 17.8603 8.22978 17.8603 8.24914V9.42024C17.8627 9.45031 17.8588 9.48055 17.849 9.50906C17.8391 9.53758 17.8235 9.56375 17.803 9.58592C17.7826 9.60809 17.7578 9.62578 17.7301 9.63788C17.7025 9.64998 17.6727 9.65624 17.6425 9.65624C17.6123 9.65624 17.5825 9.64998 17.5548 9.63788C17.5272 9.62578 17.5024 9.60809 17.4819 9.58592C17.4615 9.56375 17.4458 9.53758 17.436 9.50906C17.4261 9.48055 17.4223 9.45031 17.4247 9.42024M19.2865 7.25928C19.2865 6.91085 19.056 6.70583 18.6689 6.70583H17.8902C17.8699 6.70583 17.8603 6.71551 17.8603 6.73487V7.78368C17.8603 7.80304 17.8699 7.81272 17.8902 7.81272H18.6689C19.056 7.81272 19.2865 7.60771 19.2865 7.25928Z" fill="black"/>
<path d="M22.6381 6.29878C22.6658 6.29715 22.6935 6.3012 22.7196 6.31068C22.7457 6.32016 22.7696 6.33486 22.7898 6.3539C22.8099 6.37293 22.826 6.3959 22.837 6.42137C22.848 6.44685 22.8537 6.47429 22.8537 6.50204C22.8537 6.52978 22.848 6.55724 22.837 6.58271C22.826 6.60819 22.8099 6.63114 22.7898 6.65018C22.7696 6.66921 22.7457 6.68392 22.7196 6.69339C22.6935 6.70287 22.6658 6.70692 22.6381 6.70529H21.8682C21.8643 6.70487 21.8603 6.70535 21.8566 6.70666C21.8529 6.70797 21.8496 6.71009 21.8468 6.71287C21.844 6.71566 21.8419 6.71903 21.8406 6.72274C21.8392 6.72645 21.8388 6.73041 21.8392 6.73433V9.42057C21.8414 9.4506 21.8375 9.48077 21.8275 9.5092C21.8176 9.53763 21.8019 9.56372 21.7814 9.5858C21.7609 9.60788 21.7361 9.62549 21.7085 9.63754C21.6809 9.64959 21.6511 9.6558 21.621 9.6558C21.5909 9.6558 21.5611 9.64959 21.5335 9.63754C21.5059 9.62549 21.481 9.60788 21.4605 9.5858C21.4401 9.56372 21.4244 9.53763 21.4144 9.5092C21.4045 9.48077 21.4005 9.4506 21.4028 9.42057V6.73433C21.4034 6.73037 21.4031 6.72631 21.4019 6.7225C21.4006 6.71869 21.3985 6.71522 21.3957 6.71239C21.3928 6.70956 21.3894 6.70744 21.3856 6.7062C21.3817 6.70497 21.3777 6.70465 21.3737 6.70529H20.6047C20.577 6.70692 20.5493 6.70287 20.5232 6.69339C20.4971 6.68392 20.4733 6.66921 20.4531 6.65018C20.4329 6.63114 20.4168 6.60819 20.4058 6.58271C20.3948 6.55724 20.3892 6.52978 20.3892 6.50204C20.3892 6.47429 20.3948 6.44685 20.4058 6.42137C20.4168 6.3959 20.4329 6.37293 20.4531 6.3539C20.4733 6.33486 20.4971 6.32016 20.5232 6.31068C20.5493 6.3012 20.577 6.29715 20.6047 6.29878H22.6381Z" fill="black"/>
<path d="M23.6426 6.49468C23.6406 6.46852 23.6443 6.44223 23.6534 6.41763C23.6625 6.39302 23.6768 6.37069 23.6954 6.35213C23.7139 6.33358 23.7363 6.31927 23.7609 6.31015C23.7855 6.30104 23.8118 6.29735 23.8379 6.29934H25.5537C25.5814 6.29771 25.6091 6.30176 25.6352 6.31124C25.6613 6.32072 25.6851 6.33542 25.7053 6.35446C25.7255 6.37349 25.7416 6.39645 25.7526 6.42192C25.7636 6.4474 25.7692 6.47485 25.7692 6.5026C25.7692 6.53034 25.7636 6.55779 25.7526 6.58326C25.7416 6.60873 25.7255 6.63169 25.7053 6.65072C25.6851 6.66976 25.6613 6.68446 25.6352 6.69394C25.6091 6.70342 25.5814 6.70747 25.5537 6.70584H24.1081C24.0878 6.70584 24.0781 6.71552 24.0781 6.73488V7.71505C24.0775 7.71912 24.0779 7.72326 24.0792 7.72716C24.0805 7.73106 24.0827 7.73461 24.0856 7.73751C24.0885 7.74042 24.092 7.74261 24.0959 7.7439C24.0998 7.7452 24.104 7.74555 24.1081 7.74496H25.3135C25.3412 7.74333 25.3689 7.74738 25.395 7.75686C25.4211 7.76634 25.4449 7.78104 25.4651 7.80008C25.4853 7.81911 25.5014 7.84207 25.5124 7.86754C25.5234 7.89301 25.529 7.92047 25.529 7.94822C25.529 7.97596 25.5234 8.00342 25.5124 8.02889C25.5014 8.05437 25.4853 8.07732 25.4651 8.09636C25.4449 8.11539 25.4211 8.1301 25.395 8.13957C25.3689 8.14905 25.3412 8.1531 25.3135 8.15147H24.1081C24.104 8.15088 24.0998 8.15125 24.0959 8.15254C24.092 8.15384 24.0885 8.15601 24.0856 8.15892C24.0827 8.16182 24.0805 8.16537 24.0792 8.16927C24.0779 8.17317 24.0775 8.17732 24.0781 8.18138V9.195C24.0781 9.21524 24.0878 9.22402 24.1081 9.22402H25.5537C25.5814 9.22239 25.6092 9.22646 25.6354 9.23596C25.6615 9.24546 25.6854 9.2602 25.7056 9.27927C25.7259 9.29835 25.742 9.32136 25.753 9.34688C25.764 9.37241 25.7697 9.39992 25.7697 9.42772C25.7697 9.45552 25.764 9.48304 25.753 9.50857C25.742 9.5341 25.7259 9.55709 25.7056 9.57617C25.6854 9.59524 25.6615 9.60998 25.6354 9.61948C25.6092 9.62898 25.5814 9.63305 25.5537 9.63142H23.8379C23.8117 9.63338 23.7854 9.62964 23.7607 9.62046C23.7361 9.61128 23.7137 9.59688 23.6951 9.57824C23.6766 9.5596 23.6623 9.53715 23.6532 9.51246C23.6441 9.48777 23.6405 9.46142 23.6426 9.4352V6.49468ZM24.8771 5.2699C24.8928 5.24998 24.9128 5.23391 24.9357 5.22294C24.9586 5.21196 24.9837 5.20635 25.009 5.20654C25.0307 5.2057 25.0523 5.20925 25.0726 5.21696C25.0928 5.22468 25.1113 5.2364 25.1269 5.25144C25.1425 5.26648 25.155 5.28452 25.1634 5.30447C25.1719 5.32442 25.1762 5.34588 25.1762 5.36756C25.1755 5.41459 25.158 5.45981 25.1269 5.49514L24.7891 5.86733C24.7718 5.88996 24.7496 5.90837 24.7241 5.92117C24.6986 5.93397 24.6706 5.94084 24.6421 5.94124C24.6007 5.94101 24.561 5.92443 24.5316 5.89511C24.5023 5.86579 24.4857 5.82608 24.4855 5.78461C24.4862 5.73544 24.5054 5.68834 24.5392 5.65264L24.8771 5.2699Z" fill="black"/>
<path d="M14.3719 10.7202C14.3704 10.7023 14.3729 10.6844 14.379 10.6676C14.3852 10.6507 14.3949 10.6354 14.4075 10.6227C14.4201 10.61 14.4354 10.6002 14.4521 10.5939C14.4689 10.5877 14.4869 10.5851 14.5047 10.5864H15.6996C15.7388 10.5878 15.776 10.6043 15.8033 10.6325C15.8306 10.6608 15.8459 10.6985 15.8459 10.7378C15.8459 10.777 15.8306 10.8148 15.8033 10.843C15.776 10.8712 15.7388 10.8878 15.6996 10.8891H14.7141C14.7114 10.8887 14.7085 10.8889 14.7059 10.8897C14.7032 10.8906 14.7008 10.8921 14.6988 10.894C14.6968 10.896 14.6954 10.8984 14.6945 10.9011C14.6936 10.9038 14.6934 10.9066 14.6939 10.9093V11.4892C14.6939 11.5024 14.7009 11.5085 14.7141 11.5085H15.5359C15.5752 11.5099 15.6124 11.5264 15.6397 11.5546C15.6669 11.5829 15.6822 11.6206 15.6822 11.6599C15.6822 11.6991 15.6669 11.7369 15.6397 11.7651C15.6124 11.7933 15.5752 11.8099 15.5359 11.8112H14.7141C14.7114 11.8109 14.7086 11.8112 14.706 11.8121C14.7034 11.813 14.701 11.8144 14.6991 11.8164C14.6971 11.8183 14.6956 11.8207 14.6947 11.8233C14.6938 11.8259 14.6936 11.8287 14.6939 11.8315V12.4351C14.6939 12.4482 14.7009 12.4544 14.7141 12.4544H15.6996C15.7388 12.4557 15.776 12.4723 15.8033 12.5005C15.8306 12.5287 15.8459 12.5665 15.8459 12.6057C15.8459 12.645 15.8306 12.6827 15.8033 12.711C15.776 12.7392 15.7388 12.7557 15.6996 12.7571H14.5052C14.4873 12.7584 14.4694 12.7559 14.4526 12.7496C14.4358 12.7433 14.4206 12.7335 14.4079 12.7208C14.3953 12.7081 14.3856 12.6928 14.3794 12.676C14.3733 12.6592 14.3709 12.6412 14.3723 12.6233L14.3719 10.7202Z" fill="black"/>
<path d="M17.917 10.5868C17.9376 10.5855 17.9582 10.5885 17.9776 10.5956C17.9969 10.6026 18.0147 10.6135 18.0297 10.6276C18.0447 10.6418 18.0566 10.6588 18.0648 10.6777C18.0729 10.6967 18.0771 10.717 18.0771 10.7376C18.0771 10.7582 18.0729 10.7786 18.0648 10.7975C18.0566 10.8165 18.0447 10.8335 18.0297 10.8476C18.0147 10.8618 17.9969 10.8727 17.9776 10.8797C17.9582 10.8868 17.9376 10.8898 17.917 10.8885H17.3926C17.3794 10.8885 17.3733 10.8956 17.3733 10.9088V12.6008C17.3749 12.623 17.372 12.6453 17.3646 12.6663C17.3572 12.6873 17.3456 12.7066 17.3304 12.7229C17.3153 12.7392 17.2969 12.7522 17.2765 12.7611C17.2561 12.77 17.2341 12.7746 17.2118 12.7746C17.1896 12.7746 17.1675 12.77 17.1471 12.7611C17.1267 12.7522 17.1084 12.7392 17.0932 12.7229C17.0781 12.7066 17.0664 12.6873 17.0591 12.6663C17.0517 12.6453 17.0487 12.623 17.0504 12.6008V10.9088C17.0507 10.906 17.0504 10.9033 17.0495 10.9006C17.0486 10.898 17.0472 10.8957 17.0452 10.8937C17.0433 10.8918 17.0409 10.8903 17.0383 10.8894C17.0357 10.8885 17.0329 10.8882 17.0301 10.8885H16.5057C16.4852 10.8898 16.4646 10.8868 16.4452 10.8797C16.4258 10.8727 16.4081 10.8618 16.3931 10.8476C16.3781 10.8335 16.3662 10.8165 16.358 10.7975C16.3499 10.7786 16.3456 10.7582 16.3456 10.7376C16.3456 10.717 16.3499 10.6967 16.358 10.6777C16.3662 10.6588 16.3781 10.6418 16.3931 10.6276C16.4081 10.6135 16.4258 10.6026 16.4452 10.5956C16.4646 10.5885 16.4852 10.5855 16.5057 10.5868H17.917Z" fill="black"/>
<path d="M8.36026 13.8949C8.35818 13.8687 8.3618 13.8423 8.37087 13.8176C8.37994 13.7929 8.39425 13.7705 8.4128 13.7519C8.43136 13.7332 8.45373 13.7189 8.47838 13.7097C8.50303 13.7005 8.52937 13.6968 8.55559 13.6988H9.58504C9.72166 13.6891 9.85881 13.7076 9.98796 13.7532C10.1171 13.7988 10.2355 13.8705 10.3357 13.9639C10.4359 14.0572 10.5158 14.1702 10.5705 14.2958C10.6251 14.4214 10.6533 14.5569 10.6533 14.6939C10.6533 14.8308 10.6251 14.9663 10.5705 15.0919C10.5158 15.2175 10.4359 15.3305 10.3357 15.4238C10.2355 15.5172 10.1171 15.5889 9.98796 15.6345C9.85881 15.6801 9.72166 15.6987 9.58504 15.6889H8.82571C8.82173 15.6884 8.81767 15.6887 8.81385 15.69C8.81002 15.6912 8.80654 15.6933 8.80365 15.6961C8.80076 15.6989 8.79856 15.7024 8.7972 15.7061C8.79584 15.7099 8.79536 15.714 8.7958 15.718V16.8205C8.79822 16.8505 8.79439 16.8808 8.78454 16.9093C8.77469 16.9378 8.75905 16.964 8.73859 16.9861C8.71813 17.0083 8.6933 17.026 8.66567 17.0381C8.63804 17.0502 8.6082 17.0565 8.57803 17.0565C8.54786 17.0565 8.51802 17.0502 8.49039 17.0381C8.46276 17.026 8.43793 17.0083 8.41747 16.9861C8.39701 16.964 8.38137 16.9378 8.37152 16.9093C8.36168 16.8808 8.35784 16.8505 8.36026 16.8205V13.8949ZM10.2221 14.6938C10.2251 14.6102 10.2098 14.5269 10.1771 14.4498C10.1445 14.3728 10.0954 14.3038 10.0332 14.2478C9.97108 14.1918 9.8974 14.15 9.81738 14.1255C9.73736 14.1011 9.65295 14.0944 9.57008 14.106H8.82571C8.80548 14.106 8.7958 14.1149 8.7958 14.1351V15.2525C8.79534 15.2565 8.79581 15.2606 8.79716 15.2644C8.79852 15.2682 8.80072 15.2716 8.80361 15.2744C8.8065 15.2772 8.80999 15.2793 8.81382 15.2806C8.81766 15.2819 8.82172 15.2822 8.82571 15.2816H9.57008C9.65295 15.2933 9.73737 15.2866 9.81739 15.2621C9.89741 15.2376 9.97108 15.1959 10.0332 15.1399C10.0954 15.0838 10.1445 15.0148 10.1771 14.9378C10.2098 14.8607 10.2251 14.7774 10.2221 14.6938" fill="black"/>
<path d="M11.006 16.7563L12.0302 13.9196C12.0839 13.763 12.1675 13.6741 12.3144 13.6741C12.3841 13.6752 12.4512 13.7002 12.5047 13.7449C12.5582 13.7896 12.5947 13.8512 12.6083 13.9196L13.6175 16.7563C13.6293 16.7879 13.6361 16.8211 13.6377 16.8548C13.6383 16.8818 13.6333 16.9086 13.6231 16.9336C13.6129 16.9586 13.5977 16.9812 13.5784 17.0001C13.5591 17.019 13.5361 17.0337 13.5109 17.0434C13.4857 17.053 13.4588 17.0575 13.4318 17.0563C13.3841 17.0574 13.3374 17.0425 13.2991 17.0139C13.2608 16.9854 13.2332 16.9449 13.2207 16.8988L12.9954 16.2565H11.628L11.4028 16.8988C11.3902 16.9449 11.3626 16.9854 11.3243 17.0139C11.286 17.0425 11.2393 17.0574 11.1916 17.0563C11.1646 17.0575 11.1377 17.053 11.1125 17.0434C11.0873 17.0337 11.0643 17.019 11.045 17.0001C11.0257 16.9812 11.0105 16.9586 11.0003 16.9336C10.9901 16.9086 10.9851 16.8818 10.9857 16.8548C10.9869 16.8211 10.9937 16.7878 11.0059 16.7563M12.8528 15.8553L12.324 14.341H12.309L11.7697 15.8553H12.8528Z" fill="black"/>
<path d="M16.0431 13.699C16.0709 13.6973 16.0987 13.7014 16.1248 13.7109C16.151 13.7204 16.1749 13.7351 16.1951 13.7542C16.2153 13.7733 16.2315 13.7963 16.2425 13.8218C16.2535 13.8473 16.2592 13.8749 16.2592 13.9027C16.2592 13.9305 16.2535 13.958 16.2425 13.9835C16.2315 14.009 16.2153 14.032 16.1951 14.0511C16.1749 14.0702 16.151 14.0849 16.1248 14.0944C16.0987 14.1039 16.0709 14.108 16.0431 14.1063H15.2741C15.2539 14.1063 15.2442 14.1151 15.2442 14.1345V16.8207C15.2465 16.8508 15.2425 16.881 15.2326 16.9094C15.2226 16.9378 15.2069 16.9639 15.1864 16.986C15.166 17.008 15.1411 17.0257 15.1135 17.0377C15.0859 17.0498 15.0561 17.056 15.026 17.056C14.9959 17.056 14.9661 17.0498 14.9385 17.0377C14.9109 17.0257 14.8861 17.008 14.8656 16.986C14.8451 16.9639 14.8294 16.9378 14.8195 16.9094C14.8095 16.881 14.8055 16.8508 14.8078 16.8207V14.1345C14.8078 14.1151 14.7981 14.1063 14.7788 14.1063H14.0089C13.9813 14.1077 13.9536 14.1035 13.9277 14.0939C13.9018 14.0843 13.8781 14.0695 13.858 14.0505C13.838 14.0314 13.822 14.0085 13.8111 13.9831C13.8002 13.9577 13.7946 13.9303 13.7946 13.9027C13.7946 13.875 13.8002 13.8476 13.8111 13.8222C13.822 13.7968 13.838 13.7739 13.858 13.7548C13.8781 13.7358 13.9018 13.721 13.9277 13.7114C13.9536 13.7018 13.9813 13.6976 14.0089 13.699H16.0431Z" fill="black"/>
<path d="M17.0475 16.8204V13.8949C17.0454 13.8687 17.0491 13.8423 17.0581 13.8176C17.0672 13.7929 17.0815 13.7705 17.1001 13.7519C17.1186 13.7332 17.141 13.7188 17.1656 13.7097C17.1903 13.7005 17.2166 13.6968 17.2428 13.6988H18.2873C18.4215 13.6829 18.5576 13.6961 18.6864 13.7375C18.8151 13.7789 18.9334 13.8475 19.0333 13.9386C19.1332 14.0297 19.2123 14.1412 19.2653 14.2656C19.3183 14.39 19.3439 14.5243 19.3405 14.6595C19.3515 14.8582 19.2952 15.0549 19.1805 15.2176C19.0658 15.3804 18.8996 15.4996 18.7087 15.5561L19.3061 16.7325C19.3255 16.7688 19.3355 16.8093 19.3352 16.8504C19.3357 16.8779 19.3306 16.9053 19.3201 16.9308C19.3097 16.9563 19.2941 16.9794 19.2744 16.9986C19.2547 17.0179 19.2313 17.033 19.2056 17.0429C19.1799 17.0528 19.1524 17.0573 19.1249 17.0563C19.0804 17.0554 19.037 17.0421 18.9997 17.0178C18.9623 16.9936 18.9326 16.9593 18.9137 16.919L18.2573 15.6203H17.513C17.4936 15.6203 17.483 15.6291 17.483 15.6493V16.8204C17.4855 16.8505 17.4816 16.8808 17.4718 16.9093C17.4619 16.9378 17.4463 16.964 17.4258 16.9861C17.4054 17.0083 17.3806 17.026 17.3529 17.0381C17.3253 17.0502 17.2955 17.0564 17.2653 17.0564C17.2351 17.0564 17.2053 17.0502 17.1776 17.0381C17.15 17.026 17.1252 17.0083 17.1047 16.9861C17.0843 16.964 17.0686 16.9378 17.0588 16.9093C17.0489 16.8808 17.0451 16.8505 17.0475 16.8204M18.9093 14.6595C18.9093 14.3111 18.6788 14.106 18.2917 14.106H17.513C17.4936 14.106 17.483 14.1148 17.483 14.1351V15.1839C17.4826 15.1879 17.4831 15.1919 17.4844 15.1957C17.4858 15.1995 17.488 15.203 17.4909 15.2058C17.4938 15.2086 17.4972 15.2107 17.5011 15.212C17.5049 15.2132 17.509 15.2136 17.513 15.213H18.2917C18.6788 15.213 18.9093 15.0079 18.9093 14.6595Z" fill="black"/>
<path d="M20.3644 13.9095C20.3621 13.8795 20.3661 13.8494 20.376 13.821C20.3859 13.7927 20.4016 13.7666 20.422 13.7446C20.4425 13.7226 20.4672 13.705 20.4948 13.693C20.5223 13.681 20.5521 13.6747 20.5821 13.6747C20.6122 13.6747 20.6419 13.681 20.6695 13.693C20.697 13.705 20.7218 13.7226 20.7422 13.7446C20.7627 13.7666 20.7783 13.7927 20.7883 13.821C20.7982 13.8494 20.8021 13.8795 20.7999 13.9095V16.8201C20.8023 16.8502 20.7985 16.8804 20.7886 16.909C20.7788 16.9375 20.7631 16.9636 20.7427 16.9858C20.7222 17.008 20.6974 17.0257 20.6698 17.0378C20.6421 17.0499 20.6123 17.0561 20.5821 17.0561C20.552 17.0561 20.5221 17.0499 20.4945 17.0378C20.4668 17.0257 20.442 17.008 20.4216 16.9858C20.4011 16.9636 20.3855 16.9375 20.3756 16.909C20.3658 16.8804 20.3619 16.8502 20.3644 16.8201V13.9095Z" fill="black"/>
<path d="M21.9173 13.8944C21.9154 13.8681 21.9192 13.8417 21.9284 13.8171C21.9375 13.7924 21.9519 13.77 21.9706 13.7514C21.9892 13.7328 22.0116 13.7184 22.0362 13.7092C22.0609 13.7 22.0873 13.6962 22.1135 13.6981H23.8284C23.8562 13.6965 23.884 13.7006 23.9101 13.7101C23.9362 13.7196 23.9601 13.7343 23.9804 13.7534C24.0006 13.7725 24.0167 13.7955 24.0277 13.821C24.0387 13.8465 24.0444 13.874 24.0444 13.9018C24.0444 13.9296 24.0387 13.9572 24.0277 13.9827C24.0167 14.0082 24.0006 14.0312 23.9804 14.0503C23.9601 14.0694 23.9362 14.0841 23.9101 14.0936C23.884 14.1031 23.8562 14.1072 23.8284 14.1055H22.3828C22.3788 14.105 22.3748 14.1053 22.371 14.1066C22.3673 14.1079 22.3638 14.11 22.361 14.1128C22.3582 14.1156 22.3561 14.1191 22.3548 14.1228C22.3536 14.1266 22.3532 14.1306 22.3537 14.1346V15.1148C22.3532 15.1188 22.3535 15.1229 22.3548 15.1267C22.356 15.1305 22.3581 15.134 22.3609 15.1369C22.3637 15.1398 22.3672 15.142 22.371 15.1433C22.3747 15.1447 22.3788 15.1452 22.3828 15.1447H23.5882C23.616 15.143 23.6438 15.147 23.6699 15.1564C23.6961 15.1658 23.72 15.1805 23.7403 15.1996C23.7606 15.2186 23.7767 15.2416 23.7878 15.2671C23.7988 15.2926 23.8045 15.3201 23.8045 15.3479C23.8045 15.3758 23.7988 15.4033 23.7878 15.4288C23.7767 15.4543 23.7606 15.4773 23.7403 15.4963C23.72 15.5154 23.6961 15.5301 23.6699 15.5395C23.6438 15.5489 23.616 15.5529 23.5882 15.5512H22.3828C22.3788 15.5506 22.3748 15.551 22.371 15.5522C22.3672 15.5535 22.3638 15.5556 22.361 15.5584C22.3582 15.5613 22.356 15.5647 22.3548 15.5685C22.3535 15.5723 22.3532 15.5763 22.3537 15.5803V16.5947C22.3531 16.5986 22.3534 16.6027 22.3547 16.6065C22.3559 16.6103 22.358 16.6138 22.3609 16.6166C22.3637 16.6194 22.3671 16.6216 22.371 16.6228C22.3748 16.624 22.3788 16.6243 22.3828 16.6237H23.8284C23.8562 16.6221 23.884 16.6261 23.9101 16.6356C23.9362 16.6451 23.9601 16.6599 23.9804 16.6789C24.0006 16.698 24.0167 16.721 24.0277 16.7466C24.0387 16.7721 24.0444 16.7996 24.0444 16.8274C24.0444 16.8552 24.0387 16.8827 24.0277 16.9082C24.0167 16.9338 24.0006 16.9568 23.9804 16.9759C23.9601 16.9949 23.9362 17.0097 23.9101 17.0192C23.884 17.0287 23.8562 17.0327 23.8284 17.0311H22.1135C22.0873 17.0331 22.0609 17.0294 22.0362 17.0202C22.0115 17.0111 21.989 16.9967 21.9704 16.978C21.9518 16.9594 21.9374 16.937 21.9282 16.9123C21.9191 16.8876 21.9153 16.8612 21.9173 16.8349V13.8944Z" fill="black"/>
</g>
<defs>
<clipPath id="clip0_382_419">
<rect width="122" height="40.963" fill="white"/>
</clipPath>
</defs>
</svg>
