<svg width="128" height="54" viewBox="0 0 128 54" fill="none" xmlns="http://www.w3.org/2000/svg">
<path d="M49.5709 40.4956H37.8908V44.0693H45.9971L46.0076 44.2576C44.9163 47.3676 42.4129 49.1631 38.4626 49.1631C33.9021 49.1631 30.4608 45.5057 30.4608 40.8826C30.4608 36.0747 34.0415 32.2813 38.7938 32.2813C42.4338 32.2813 45.0279 34.0664 46.4992 37.2601L49.8498 35.7156C47.7788 31.2319 43.8529 28.7634 38.7938 28.7634C32.0542 28.7634 26.7755 34.0873 26.7755 40.8861C26.7755 47.5035 31.9112 52.688 38.4661 52.688C41.8864 52.688 44.47 51.3073 46.3353 49.1527L46.67 51.8443H49.5744V40.4956H49.5709Z" fill="black"/>
<path d="M49.5709 21.1488H31.0989V15.2531H47.4441V11.8328H31.0989V5.93703H49.5709V2.42609H27.3333V24.6597H49.5709V21.1488Z" fill="black"/>
<path d="M18.5958 11.6131H3.9172V2.42261H0.155151V24.6597H3.9172V15.1589H18.5958V24.6597H22.3928V2.42261H18.5958V11.6131Z" fill="black"/>
<path d="M13.1567 48.295V33.146H22.3928V29.6036H0.155151V33.146H9.39118V48.295H0.155151V51.8408H22.3928V48.295H13.1567Z" fill="black"/>
<path fill-rule="evenodd" clip-rule="evenodd" d="M76.9655 52.681L76.9655 2.40518L77.5086 2.40518L77.5086 52.681L76.9655 52.681Z" fill="black"/>
<path d="M88.6748 8.61208H87.5142V4.37044L85.7731 8.61208H84.7917L83.0506 4.40458V8.61208H81.9241V2.56113H83.4773L85.2952 6.93078L87.0704 2.56113H88.6748V8.61208Z" fill="black"/>
<path d="M93.8478 8.61208H90.0585V2.56113H93.8478V3.67061H91.2363V5.0532H93.6003V6.10294H91.2363V7.50259H93.8478V8.61208Z" fill="black"/>
<path d="M96.2207 8.61208H95.0258V2.56113H96.2207V8.61208Z" fill="black"/>
<path d="M88.5383 30.181H87.7105V25.47L85.6451 30.181H84.877L82.8287 25.47V30.181H82.0009V24.1301H83.136L85.2696 29.0545L87.4203 24.1301H88.5383V30.181Z" fill="black"/>
<path d="M90.5122 27.706H92.7568C92.7454 27.3988 92.643 27.1485 92.4496 26.955C92.2561 26.7559 91.983 26.6563 91.6302 26.6563C91.3116 26.6563 91.0499 26.7616 90.8451 26.9721C90.6402 27.1769 90.5293 27.4216 90.5122 27.706ZM92.8763 28.7729L93.5676 29.0118C93.4481 29.393 93.2262 29.706 92.9019 29.9506C92.5776 30.1896 92.185 30.3091 91.7241 30.3091C91.1495 30.3091 90.6602 30.1128 90.2562 29.7202C89.8579 29.3219 89.6588 28.7871 89.6588 28.1157C89.6588 27.4898 89.8522 26.9721 90.2391 26.5624C90.626 26.1528 91.0869 25.9479 91.6217 25.9479C92.2419 25.9479 92.7255 26.1442 93.0726 26.5368C93.4196 26.9237 93.5932 27.4443 93.5932 28.0986C93.5932 28.201 93.5875 28.2864 93.5761 28.3547H90.4866C90.4923 28.7188 90.6118 29.0175 90.8451 29.2508C91.084 29.4841 91.3771 29.6007 91.7241 29.6007C92.3102 29.6007 92.6942 29.3247 92.8763 28.7729Z" fill="black"/>
<path d="M95.0952 28.1157C95.0952 28.5481 95.2004 28.9009 95.411 29.174C95.6272 29.4471 95.923 29.5836 96.2985 29.5836C96.657 29.5836 96.9443 29.4442 97.1605 29.1654C97.3767 28.8866 97.4848 28.531 97.4848 28.0986C97.4848 27.6719 97.3796 27.3277 97.1691 27.066C96.9585 26.8042 96.6712 26.6734 96.3071 26.6734C95.9429 26.6734 95.6499 26.8071 95.428 27.0745C95.2061 27.3419 95.0952 27.689 95.0952 28.1157ZM97.4934 29.6263V29.558C97.3853 29.7685 97.2203 29.9449 96.9984 30.0872C96.7822 30.2237 96.5233 30.292 96.2217 30.292C95.6357 30.292 95.1635 30.0872 94.805 29.6775C94.4522 29.2622 94.2759 28.7416 94.2759 28.1157C94.2759 27.5183 94.4579 27.0119 94.8221 26.5966C95.1862 26.1755 95.6528 25.965 96.2217 25.965C96.5574 25.965 96.8305 26.0333 97.041 26.1698C97.2516 26.3007 97.3966 26.4628 97.4763 26.6563V24.0021H98.27V29.4215C98.27 29.7003 98.2842 29.9535 98.3127 30.181H97.536C97.5076 30.0217 97.4934 29.8368 97.4934 29.6263Z" fill="black"/>
<path d="M100.428 30.181H99.6346V26.076H100.428V30.181ZM99.6175 24.9323C99.5094 24.8185 99.4554 24.682 99.4554 24.5227C99.4554 24.3634 99.5094 24.2268 99.6175 24.113C99.7313 23.9992 99.8679 23.9423 100.027 23.9423C100.186 23.9423 100.323 23.9992 100.437 24.113C100.551 24.2211 100.608 24.3577 100.608 24.5227C100.608 24.682 100.551 24.8185 100.437 24.9323C100.323 25.0404 100.186 25.0945 100.027 25.0945C99.8679 25.0945 99.7313 25.0404 99.6175 24.9323Z" fill="black"/>
<path d="M101.537 29.0801C101.537 28.7273 101.651 28.4457 101.879 28.2352C102.106 28.019 102.408 27.8853 102.783 27.8341L103.893 27.6719C104.103 27.6435 104.208 27.541 104.208 27.3647C104.208 27.1485 104.135 26.9721 103.987 26.8355C103.839 26.699 103.617 26.6307 103.321 26.6307C103.048 26.6307 102.832 26.7075 102.672 26.8611C102.513 27.0091 102.419 27.2082 102.391 27.4585L101.623 27.2793C101.662 26.8867 101.842 26.5681 102.16 26.3235C102.479 26.0731 102.86 25.9479 103.304 25.9479C103.884 25.9479 104.314 26.0902 104.593 26.3747C104.871 26.6535 105.011 27.0119 105.011 27.45V29.5068C105.011 29.7515 105.028 29.9762 105.062 30.181H104.277C104.248 30.0103 104.234 29.8254 104.234 29.6263C104.12 29.8084 103.952 29.9677 103.731 30.1042C103.514 30.2408 103.241 30.3091 102.911 30.3091C102.507 30.3091 102.177 30.1896 101.921 29.9506C101.665 29.706 101.537 29.4158 101.537 29.0801ZM103.022 29.6348C103.381 29.6348 103.668 29.5381 103.884 29.3447C104.1 29.1512 104.208 28.844 104.208 28.4229V28.2352L102.954 28.4229C102.772 28.4514 102.627 28.5168 102.519 28.6192C102.411 28.7216 102.356 28.861 102.356 29.0374C102.356 29.1967 102.416 29.3361 102.536 29.4556C102.661 29.5751 102.823 29.6348 103.022 29.6348Z" fill="black"/>
<path d="M85.6792 40.9655H82.0009V34.9146H85.6792V35.6912H82.8373V37.5517H85.4147V38.3369H82.8373V40.1889H85.6792V40.9655Z" fill="black"/>
<path d="M87.5518 38.5929V40.9655H86.7495V36.8604H87.5347V37.4493C87.8078 36.9771 88.2288 36.741 88.7978 36.741C89.27 36.741 89.6313 36.8917 89.8817 37.1933C90.1377 37.4948 90.2657 37.8846 90.2657 38.3625V40.9655H89.4635V38.4991C89.4635 37.8106 89.1449 37.4664 88.5076 37.4664C88.2061 37.4664 87.97 37.5745 87.7993 37.7907C87.6343 38.0012 87.5518 38.2686 87.5518 38.5929Z" fill="black"/>
<path d="M91.2431 41.1874L92.0198 41.0082C92.0482 41.2984 92.1649 41.5373 92.3697 41.7251C92.5745 41.9185 92.8305 42.0153 93.1378 42.0153C93.9742 42.0153 94.3924 41.5715 94.3924 40.6839V40.095C94.2899 40.2941 94.1278 40.4563 93.9059 40.5815C93.6897 40.7066 93.4336 40.7692 93.1378 40.7692C92.5916 40.7692 92.1392 40.5843 91.7808 40.2145C91.428 39.839 91.2517 39.361 91.2517 38.7807C91.2517 38.2174 91.428 37.7452 91.7808 37.364C92.1336 36.9771 92.5859 36.7836 93.1378 36.7836C93.7636 36.7836 94.1847 36.9998 94.4009 37.4322V36.8604H95.1946V40.6583C95.1946 40.9314 95.1576 41.1846 95.0836 41.4178C95.0154 41.6568 94.9044 41.8759 94.7508 42.075C94.5972 42.2741 94.381 42.4306 94.1022 42.5444C93.8291 42.6582 93.5076 42.7151 93.1378 42.7151C92.6314 42.7151 92.2018 42.57 91.8491 42.2798C91.4963 41.9953 91.2943 41.6312 91.2431 41.1874ZM93.2573 40.095C93.6043 40.095 93.886 39.9755 94.1022 39.7366C94.3184 39.4919 94.4265 39.1733 94.4265 38.7807C94.4265 38.3881 94.3184 38.0723 94.1022 37.8334C93.886 37.5887 93.6043 37.4664 93.2573 37.4664C92.9045 37.4664 92.6172 37.5859 92.3953 37.8248C92.1791 38.0638 92.071 38.3824 92.071 38.7807C92.071 39.1847 92.1762 39.5061 92.3867 39.7451C92.603 39.9784 92.8931 40.095 93.2573 40.095Z" fill="black"/>
<path d="M97.2695 40.9655H96.4758V36.8604H97.2695V40.9655ZM96.4588 35.7168C96.3507 35.603 96.2966 35.4665 96.2966 35.3072C96.2966 35.1478 96.3507 35.0113 96.4588 34.8975C96.5726 34.7837 96.7091 34.7268 96.8684 34.7268C97.0277 34.7268 97.1643 34.7837 97.2781 34.8975C97.3919 35.0056 97.4488 35.1422 97.4488 35.3072C97.4488 35.4665 97.3919 35.603 97.2781 35.7168C97.1643 35.8249 97.0277 35.879 96.8684 35.879C96.7091 35.879 96.5726 35.8249 96.4588 35.7168Z" fill="black"/>
<path d="M99.4367 38.5929V40.9655H98.6345V36.8604H99.4196V37.4493C99.6927 36.9771 100.114 36.741 100.683 36.741C101.155 36.741 101.516 36.8917 101.767 37.1933C102.023 37.4948 102.151 37.8846 102.151 38.3625V40.9655H101.348V38.4991C101.348 37.8106 101.03 37.4664 100.393 37.4664C100.091 37.4664 99.8549 37.5745 99.6842 37.7907C99.5192 38.0012 99.4367 38.2686 99.4367 38.5929Z" fill="black"/>
<path d="M103.947 38.4905H106.192C106.181 38.1833 106.078 37.9329 105.885 37.7395C105.691 37.5403 105.418 37.4408 105.065 37.4408C104.747 37.4408 104.485 37.546 104.28 37.7566C104.075 37.9614 103.964 38.206 103.947 38.4905ZM106.311 39.5573L107.003 39.7963C106.883 40.1775 106.661 40.4904 106.337 40.7351C106.013 40.9741 105.62 41.0935 105.159 41.0935C104.585 41.0935 104.095 40.8972 103.691 40.5047C103.293 40.1064 103.094 39.5716 103.094 38.9002C103.094 38.2743 103.287 37.7566 103.674 37.3469C104.061 36.9372 104.522 36.7324 105.057 36.7324C105.677 36.7324 106.161 36.9287 106.508 37.3213C106.855 37.7082 107.028 38.2288 107.028 38.8831C107.028 38.9855 107.023 39.0709 107.011 39.1391H103.922C103.927 39.5033 104.047 39.802 104.28 40.0353C104.519 40.2685 104.812 40.3852 105.159 40.3852C105.745 40.3852 106.129 40.1092 106.311 39.5573Z" fill="black"/>
<path d="M108.573 38.4905H110.818C110.806 38.1833 110.704 37.9329 110.51 37.7395C110.317 37.5403 110.044 37.4408 109.691 37.4408C109.372 37.4408 109.111 37.546 108.906 37.7566C108.701 37.9614 108.59 38.206 108.573 38.4905ZM110.937 39.5573L111.628 39.7963C111.509 40.1775 111.287 40.4904 110.963 40.7351C110.638 40.9741 110.246 41.0935 109.785 41.0935C109.21 41.0935 108.721 40.8972 108.317 40.5047C107.919 40.1064 107.72 39.5716 107.72 38.9002C107.72 38.2743 107.913 37.7566 108.3 37.3469C108.687 36.9372 109.148 36.7324 109.682 36.7324C110.303 36.7324 110.786 36.9287 111.133 37.3213C111.48 37.7082 111.654 38.2288 111.654 38.8831C111.654 38.9855 111.648 39.0709 111.637 39.1391H108.547C108.553 39.5033 108.673 39.802 108.906 40.0353C109.145 40.2685 109.438 40.3852 109.785 40.3852C110.371 40.3852 110.755 40.1092 110.937 39.5573Z" fill="black"/>
<path d="M114.957 36.8178V37.6712C114.837 37.6541 114.721 37.6456 114.607 37.6456C113.856 37.6456 113.48 38.0666 113.48 38.9087V40.9655H112.678V36.8604H113.463V37.5773C113.714 37.0539 114.123 36.7922 114.692 36.7922C114.783 36.7922 114.871 36.8007 114.957 36.8178Z" fill="black"/>
<path d="M116.605 40.9655H115.812V36.8604H116.605V40.9655ZM115.795 35.7168C115.687 35.603 115.633 35.4665 115.633 35.3072C115.633 35.1478 115.687 35.0113 115.795 34.8975C115.908 34.7837 116.045 34.7268 116.204 34.7268C116.364 34.7268 116.5 34.7837 116.614 34.8975C116.728 35.0056 116.785 35.1422 116.785 35.3072C116.785 35.4665 116.728 35.603 116.614 35.7168C116.5 35.8249 116.364 35.879 116.204 35.879C116.045 35.879 115.908 35.8249 115.795 35.7168Z" fill="black"/>
<path d="M118.773 38.5929V40.9655H117.97V36.8604H118.756V37.4493C119.029 36.9771 119.45 36.741 120.019 36.741C120.491 36.741 120.852 36.8917 121.103 37.1933C121.359 37.4948 121.487 37.8846 121.487 38.3625V40.9655H120.684V38.4991C120.684 37.8106 120.366 37.4664 119.728 37.4664C119.427 37.4664 119.191 37.5745 119.02 37.7907C118.855 38.0012 118.773 38.2686 118.773 38.5929Z" fill="black"/>
<path d="M122.464 41.1874L123.241 41.0082C123.269 41.2984 123.386 41.5373 123.591 41.7251C123.795 41.9185 124.051 42.0153 124.359 42.0153C125.195 42.0153 125.613 41.5715 125.613 40.6839V40.095C125.511 40.2941 125.349 40.4563 125.127 40.5815C124.911 40.7066 124.655 40.7692 124.359 40.7692C123.812 40.7692 123.36 40.5843 123.002 40.2145C122.649 39.839 122.473 39.361 122.473 38.7807C122.473 38.2174 122.649 37.7452 123.002 37.364C123.354 36.9771 123.807 36.7836 124.359 36.7836C124.985 36.7836 125.406 36.9998 125.622 37.4322V36.8604H126.415V40.6583C126.415 40.9314 126.378 41.1846 126.305 41.4178C126.236 41.6568 126.125 41.8759 125.972 42.075C125.818 42.2741 125.602 42.4306 125.323 42.5444C125.05 42.6582 124.728 42.7151 124.359 42.7151C123.852 42.7151 123.423 42.57 123.07 42.2798C122.717 41.9953 122.515 41.6312 122.464 41.1874ZM124.478 40.095C124.825 40.095 125.107 39.9755 125.323 39.7366C125.539 39.4919 125.647 39.1733 125.647 38.7807C125.647 38.3881 125.539 38.0723 125.323 37.8334C125.107 37.5887 124.825 37.4664 124.478 37.4664C124.125 37.4664 123.838 37.5859 123.616 37.8248C123.4 38.0638 123.292 38.3824 123.292 38.7807C123.292 39.1847 123.397 39.5061 123.608 39.7451C123.824 39.9784 124.114 40.095 124.478 40.095Z" fill="black"/>
<path d="M82.8543 51.75H82.0009V45.6991H82.8543V51.75Z" fill="black"/>
<path d="M85.1098 49.3774V51.75H84.3075V47.6449H85.0927V48.2338C85.3658 47.7616 85.7868 47.5254 86.3558 47.5254C86.828 47.5254 87.1893 47.6762 87.4397 47.9778C87.6957 48.2793 87.8237 48.6691 87.8237 49.147V51.75H87.0215V49.2835C87.0215 48.5951 86.7029 48.2509 86.0656 48.2509C85.7641 48.2509 85.528 48.359 85.3573 48.5752C85.1923 48.7857 85.1098 49.0531 85.1098 49.3774Z" fill="black"/>
<path d="M88.7158 50.6832L89.4412 50.4272C89.4697 50.6491 89.5664 50.834 89.7314 50.9819C89.8964 51.1241 90.1183 51.1953 90.3971 51.1953C90.6133 51.1953 90.784 51.1441 90.9091 51.0416C91.0343 50.9335 91.0969 50.8027 91.0969 50.6491C91.0969 50.376 90.9205 50.1996 90.5678 50.1199L89.8679 49.9663C89.5493 49.898 89.299 49.7615 89.1169 49.5566C88.9348 49.3518 88.8438 49.1043 88.8438 48.8141C88.8438 48.4614 88.986 48.157 89.2705 47.901C89.5607 47.6449 89.9049 47.5169 90.3032 47.5169C90.5649 47.5169 90.7982 47.5567 91.003 47.6364C91.2079 47.7103 91.3672 47.8099 91.481 47.9351C91.5948 48.0603 91.6801 48.1769 91.737 48.285C91.7939 48.3931 91.8366 48.5041 91.865 48.6178L91.1566 48.8824C91.1453 48.8141 91.1254 48.7487 91.0969 48.6861C91.0685 48.6178 91.0229 48.5439 90.9604 48.4642C90.9035 48.3846 90.8181 48.322 90.7043 48.2765C90.5905 48.2253 90.4568 48.1997 90.3032 48.1997C90.1041 48.1997 89.9391 48.2537 89.8082 48.3618C89.683 48.4699 89.6204 48.5979 89.6204 48.7459C89.6204 49.0076 89.7769 49.1726 90.0898 49.2409L90.7555 49.386C91.1197 49.4656 91.3985 49.6135 91.5919 49.8297C91.791 50.0403 91.8906 50.2991 91.8906 50.6064C91.8906 50.9307 91.7569 51.2237 91.4895 51.4854C91.2278 51.7472 90.8608 51.878 90.3885 51.878C89.8822 51.878 89.4867 51.7528 89.2023 51.5025C88.9178 51.2465 88.7556 50.9734 88.7158 50.6832Z" fill="black"/>
<path d="M94.034 46.3477V47.6449H94.9216V48.3703H94.034V50.504C94.034 50.6974 94.0767 50.8397 94.1621 50.9307C94.2531 51.0217 94.401 51.0672 94.6058 51.0672C94.7253 51.0672 94.8306 51.0559 94.9216 51.0331V51.7159C94.7851 51.7671 94.603 51.7927 94.3754 51.7927C94.0227 51.7927 93.7439 51.6903 93.539 51.4854C93.3342 51.2806 93.2318 50.9933 93.2318 50.6235V48.3703H92.4466V47.6449H92.6685C92.879 47.6449 93.0355 47.588 93.1379 47.4742C93.246 47.3547 93.3001 47.2011 93.3001 47.0134V46.3477H94.034Z" fill="black"/>
<path d="M96.7861 51.75H95.9924V47.6449H96.7861V51.75ZM95.9754 46.5013C95.8673 46.3875 95.8132 46.251 95.8132 46.0916C95.8132 45.9323 95.8673 45.7958 95.9754 45.682C96.0892 45.5682 96.2257 45.5113 96.385 45.5113C96.5443 45.5113 96.6809 45.5682 96.7947 45.682C96.9085 45.7901 96.9654 45.9266 96.9654 46.0916C96.9654 46.251 96.9085 46.3875 96.7947 46.5013C96.6809 46.6094 96.5443 46.6635 96.385 46.6635C96.2257 46.6635 96.0892 46.6094 95.9754 46.5013Z" fill="black"/>
<path d="M99.2264 46.3477V47.6449H100.114V48.3703H99.2264V50.504C99.2264 50.6974 99.2691 50.8397 99.3544 50.9307C99.4455 51.0217 99.5934 51.0672 99.7982 51.0672C99.9177 51.0672 100.023 51.0559 100.114 51.0331V51.7159C99.9774 51.7671 99.7954 51.7927 99.5678 51.7927C99.215 51.7927 98.9362 51.6903 98.7314 51.4854C98.5266 51.2806 98.4242 50.9933 98.4242 50.6235V48.3703H97.639V47.6449H97.8609C98.0714 47.6449 98.2279 47.588 98.3303 47.4742C98.4384 47.3547 98.4924 47.2011 98.4924 47.0134V46.3477H99.2264Z" fill="black"/>
<path d="M103.89 51.255C103.782 51.4598 103.617 51.6163 103.395 51.7244C103.173 51.8268 102.934 51.878 102.678 51.878C102.212 51.878 101.839 51.7244 101.56 51.4172C101.282 51.1042 101.142 50.7088 101.142 50.2309V47.6449H101.944V50.1114C101.944 50.4186 102.018 50.6718 102.166 50.871C102.32 51.0701 102.556 51.1697 102.875 51.1697C103.193 51.1697 103.435 51.0758 103.6 50.888C103.765 50.6946 103.848 50.4385 103.848 50.1199V47.6449H104.65V50.9904C104.65 51.2578 104.664 51.511 104.692 51.75H103.924C103.902 51.6248 103.89 51.4598 103.89 51.255Z" fill="black"/>
<path d="M107.094 46.3477V47.6449H107.982V48.3703H107.094V50.504C107.094 50.6974 107.137 50.8397 107.222 50.9307C107.313 51.0217 107.461 51.0672 107.666 51.0672C107.785 51.0672 107.891 51.0559 107.982 51.0331V51.7159C107.845 51.7671 107.663 51.7927 107.436 51.7927C107.083 51.7927 106.804 51.6903 106.599 51.4854C106.394 51.2806 106.292 50.9933 106.292 50.6235V48.3703H105.507V47.6449H105.729C105.939 47.6449 106.096 47.588 106.198 47.4742C106.306 47.3547 106.36 47.2011 106.36 47.0134V46.3477H107.094Z" fill="black"/>
<path d="M109.531 49.275H111.776C111.765 48.9678 111.662 48.7174 111.469 48.524C111.275 48.3248 111.002 48.2253 110.649 48.2253C110.331 48.2253 110.069 48.3305 109.864 48.541C109.659 48.7459 109.549 48.9905 109.531 49.275ZM111.896 50.3418L112.587 50.5808C112.467 50.962 112.245 51.2749 111.921 51.5196C111.597 51.7585 111.204 51.878 110.743 51.878C110.169 51.878 109.679 51.6817 109.275 51.2891C108.877 50.8909 108.678 50.356 108.678 49.6847C108.678 49.0588 108.871 48.541 109.258 48.1314C109.645 47.7217 110.106 47.5169 110.641 47.5169C111.261 47.5169 111.745 47.7132 112.092 48.1058C112.439 48.4927 112.612 49.0133 112.612 49.6676C112.612 49.77 112.607 49.8553 112.595 49.9236H109.506C109.512 50.2878 109.631 50.5865 109.864 50.8197C110.103 51.053 110.396 51.1697 110.743 51.1697C111.329 51.1697 111.713 50.8937 111.896 50.3418Z" fill="black"/>
<path d="M57.496 6.98119L59.0749 2.48352H60.3209L58.0763 8.53447H56.8645L54.6284 2.48352H55.9171L57.496 6.98119Z" fill="black"/>
<path d="M62.2712 7.44206H63.21C63.7392 7.44206 64.1744 7.27706 64.5158 6.94706C64.8572 6.61706 65.0279 6.13912 65.0279 5.51326C65.0279 4.8874 64.8572 4.40947 64.5158 4.07947C64.1744 3.74378 63.742 3.57593 63.2186 3.57593H62.2712V7.44206ZM63.2527 8.53447H61.0935V2.48352H63.2612C64.1431 2.48352 64.86 2.75378 65.4119 3.2943C65.9695 3.83481 66.2483 4.57447 66.2483 5.51326C66.2483 6.44637 65.9695 7.18318 65.4119 7.72369C64.8544 8.26421 64.1346 8.53447 63.2527 8.53447Z" fill="black"/>
</svg>
