<svg width="90" height="60" viewBox="0 0 90 60" fill="none" xmlns="http://www.w3.org/2000/svg">
<g clip-path="url(#clip0_380_347)">
<path d="M19.1854 12.4134V5.03522H22.3382V11.9755C22.3382 13.5301 22.9727 14.2742 24.3302 14.2742C25.6657 14.2742 26.7165 13.4421 26.7165 11.7563V5.03522H29.8691V16.4856H26.7165V14.6905C26.1255 15.8507 24.9651 16.7259 23.0823 16.7259C20.849 16.7259 19.1855 15.4128 19.1855 12.4134" fill="#9D9D9C"/>
<path d="M31.8397 12.895H34.7953C34.9266 13.924 35.4304 14.5153 36.8094 14.5153C38.0357 14.5153 38.6052 14.0554 38.6052 13.2671C38.6052 12.4788 37.9263 12.1506 36.2838 11.9097C33.2409 11.4503 32.0589 10.5742 32.0589 8.34112C32.0589 5.95481 34.2482 4.77292 36.5906 4.77292C39.13 4.77292 41.0352 5.6923 41.3195 8.31934H38.4078C38.2326 7.37781 37.7068 6.94011 36.6128 6.94011C35.5832 6.94011 34.9925 7.42168 34.9925 8.12234C34.9925 8.8447 35.5397 9.12958 37.2036 9.37034C40.0713 9.78626 41.6479 10.5086 41.6479 12.9609C41.6479 15.4347 39.8524 16.726 36.8314 16.726C33.7445 16.726 31.9495 15.3688 31.8397 12.895" fill="#9D9D9C"/>
<path d="M42.9614 10.9027V10.7277C42.9614 7.11539 45.5231 4.77265 48.8509 4.77265C51.806 4.77265 54.4332 6.50212 54.4332 10.5963V11.4721H46.1801C46.2675 13.3766 47.296 14.4713 49.0258 14.4713C50.4923 14.4713 51.2151 13.8364 51.4122 12.8733H54.4114C54.0395 15.3473 52.0691 16.7264 48.9386 16.7264C45.4794 16.7264 42.9614 14.559 42.9614 10.9027M51.3465 9.52365C51.2369 7.79402 50.3613 6.96179 48.8509 6.96179C47.4276 6.96179 46.4641 7.90329 46.2235 9.52365H51.3465ZM48.7632 6.10352e-05H52.0907L49.8139 3.48091H47.5154L48.7632 6.10352e-05Z" fill="#9D9D9C"/>
<path d="M16.3229 30.477V30.3015C16.3229 26.5363 18.4904 24.3252 21.3584 24.3252C23.1975 24.3252 24.336 25.1351 24.9709 26.2954V20.1537H28.1235V36.0376H24.9709V34.1331C24.6073 34.7884 24.0738 35.3336 23.4265 35.7112C22.7792 36.0888 22.042 36.2848 21.2927 36.2787C18.5126 36.2787 16.3229 34.286 16.3229 30.477M25.0586 30.3674V30.1927C25.0586 27.9152 24.0512 26.7549 22.3217 26.7549C20.5485 26.7549 19.5629 27.9593 19.5629 30.2359V30.4115C19.5629 32.6883 20.6582 33.8049 22.2339 33.8049C23.898 33.8049 25.0585 32.6882 25.0585 30.3673" fill="#9D9D9C"/>
<path d="M31.3549 20.1536H34.2653L32.9385 25.5897H30.6482L31.3549 20.1536Z" fill="#9D9D9C"/>
<path d="M34.3407 32.863C34.3407 30.1926 36.7925 29.1852 40.2957 29.1852H41.5873V28.7255C41.5873 27.368 41.171 26.6237 39.726 26.6237C38.4782 26.6237 37.9092 27.2587 37.7778 28.244H34.7782C34.9756 25.5293 37.1208 24.3252 39.9234 24.3252C42.726 24.3252 44.7179 25.4636 44.7179 28.5722V36.0376H41.631V34.6585C40.9742 35.5779 39.9669 36.2789 38.1718 36.2789C36.0917 36.2789 34.3407 35.2717 34.3407 32.8631M41.5873 32.0315V31.068H40.3613C38.5222 31.068 37.4492 31.4623 37.4492 32.6884C37.4492 33.5204 37.953 34.0674 39.1135 34.0674C40.5141 34.0674 41.5873 33.3015 41.5873 32.0315Z" fill="#9D9D9C"/>
<path d="M47.4326 24.5876H50.6076V26.7772C51.3296 25.2446 52.4463 24.4347 54.3068 24.4124V27.368C51.9649 27.3462 50.6076 28.1125 50.6076 30.3017V36.0376H47.4326V24.5876Z" fill="#9D9D9C"/>
<path d="M56.174 24.5876V22.1141H59.3267V24.5876H61.8005V26.8424H59.3267V32.3601C59.3267 33.2791 59.7864 33.7174 60.5963 33.7174C61.0086 33.7291 61.4188 33.6545 61.8005 33.4984V35.9502C61.1805 36.1609 60.5291 36.2646 59.8743 36.2567C57.466 36.2567 56.1741 35.0307 56.1741 32.6446V24.5876H56.174Z" fill="#9D9D9C"/>
<path d="M70.186 30.477V30.3015C70.186 26.5363 72.3539 24.3252 75.2217 24.3252C77.061 24.3252 78.1999 25.1351 78.834 26.2954V20.1537H81.987V36.0376H78.834V34.1331C78.4705 34.7884 77.9371 35.3336 77.2898 35.7112C76.6426 36.0888 75.9055 36.2848 75.1562 36.2787C72.3757 36.2787 70.186 34.286 70.186 30.477M78.9221 30.3674V30.1927C78.9221 27.9152 77.9154 26.7549 76.185 26.7549C74.4116 26.7549 73.4272 27.9593 73.4272 30.2359V30.4115C73.4272 32.6883 74.5215 33.8049 76.0976 33.8049C77.7617 33.8049 78.9221 32.6882 78.9221 30.3673" fill="#9D9D9C"/>
<path d="M29.8057 51.5177V44.1395H32.958V51.0802C32.958 52.6342 33.5932 53.3788 34.9507 53.3788C36.2858 53.3788 37.337 52.5473 37.337 50.8613V44.1395H40.4896V55.5901H37.337V53.7947C36.7458 54.9552 35.5857 55.8308 33.703 55.8308C31.4698 55.8308 29.8057 54.5178 29.8057 51.5177" fill="#9D9D9C"/>
<path d="M46.3803 39.7061H43.2275V55.59H46.3803V39.7061Z" fill="#9D9D9C"/>
<path d="M52.5102 39.7061H49.3577V55.59H52.5102V39.7061Z" fill="#9D9D9C"/>
<path d="M63.0635 44.1398L60.501 51.0146L57.7208 44.1398H54.305L58.8592 54.4304L56.8453 59.4872H59.9094L66.1066 44.1398H63.0635Z" fill="#9D9D9C"/>
<path d="M59.1317 11.472H61.8027V9.52375H59.1755C59.4163 7.9034 60.3801 6.9617 61.8027 6.9617V4.77275C58.4749 4.77275 55.9131 7.11546 55.9131 10.7278V10.9026C55.9131 14.5282 58.3891 16.6883 61.8027 16.7246V14.4676C60.1788 14.3951 59.2162 13.3112 59.1317 11.4721" fill="#9D9D9C"/>
<path d="M87.3285 31.0245H90V29.0755H87.3728C87.6136 27.4555 88.5767 26.514 90 26.514V24.325C86.6722 24.325 84.1105 26.6678 84.1105 30.2799V30.4549C84.1105 34.0807 86.5863 36.2404 90 36.2769V34.0196C88.3761 33.9481 87.4137 32.8637 87.3285 31.0246" fill="#9D9D9C"/>
<path d="M5.56084 51.9772H2.56145C2.36445 52.9411 1.64206 53.5761 0.175142 53.5761C0.115954 53.5761 0.0576122 53.5748 0.00012207 53.5721V55.8295C0.0293524 55.8295 0.0578562 55.8308 0.0874506 55.8308C3.21846 55.8308 5.18877 54.4518 5.56084 51.9772" fill="#9D9D9C"/>
<path d="M2.49578 48.6284H0V50.5771H5.58306V49.7011C5.58306 45.6069 2.95546 43.878 0 43.878V46.0672C1.51068 46.0672 2.38648 46.8985 2.49578 48.6284" fill="#9D9D9C"/>
<path d="M11.9584 0.825684L8.34462 10.5722L4.6869 0.825684H0.000244141V16.4855H3.17611V5.49078L7.53434 16.4855H8.69516L13.0318 5.49078V16.4855H16.5577V0.825684H11.9584Z" fill="#9D9D9C"/>
<path d="M16.3805 39.9305H21.7903C25.6011 39.9305 27.7695 41.6168 27.7695 44.9241V45.0118C27.7695 48.3187 25.4696 49.8962 21.8998 49.8962H19.9067V55.59H16.3805V39.9305ZM21.7026 47.4206C23.4329 47.4206 24.3527 46.5885 24.3527 45.0336V44.9462C24.3527 43.2816 23.3889 42.6244 21.7026 42.6244H19.9067V47.4205L21.7026 47.4206Z" fill="#9D9D9C"/>
<path d="M5.56084 32.4245H2.56145C2.36445 33.3884 1.64206 34.0234 0.175142 34.0234C0.115954 34.0234 0.0576122 34.0221 0.00012207 34.0194V36.2768C0.0293524 36.2768 0.0578562 36.2781 0.0874506 36.2781C3.21846 36.2781 5.18877 34.8991 5.56084 32.4245Z" fill="#9D9D9C"/>
<path d="M2.49578 29.0757H0V31.0244H5.58306V30.1483C5.58306 26.0543 2.95546 24.3254 0 24.3254V26.5145C1.51068 26.5145 2.38648 27.3458 2.49578 29.0758" fill="#9D9D9C"/>
</g>
<defs>
<clipPath id="clip0_380_347">
<rect width="90" height="59.4871" fill="white"/>
</clipPath>
</defs>
</svg>
