<svg width="130" height="27" viewBox="0 0 130 27" fill="none" xmlns="http://www.w3.org/2000/svg">
<g clip-path="url(#clip0_374_96)">
<path d="M19.4847 8.46816C19.1647 6.97311 18.3571 5.62302 17.1858 4.62488C16.059 3.6999 14.4749 3.23742 12.4335 3.23742C11.2899 3.22781 10.156 3.44647 9.09992 3.88028C8.0858 4.29681 7.19387 4.95839 6.50608 5.80423C5.72989 6.77892 5.15844 7.89684 4.82523 9.09251C4.39803 10.6286 4.1962 12.2172 4.22592 13.8098C4.19798 15.3301 4.41771 16.8448 4.87673 18.296C5.22783 19.4319 5.81824 20.4815 6.60908 21.3762C7.32066 22.162 8.21137 22.7692 9.20762 23.1475C10.2275 23.5356 11.3125 23.7302 12.4054 23.721C14.1864 23.8194 15.9315 23.2003 17.242 22.0051C18.5403 20.6141 19.3882 18.8715 19.6766 17.0011H23.3989C23.2717 18.3878 22.8993 19.7419 22.2986 21.0016C21.7316 22.1936 20.9367 23.2663 19.9576 24.1603C18.9516 25.062 17.7803 25.7652 16.5069 26.2323C15.0914 26.7355 13.5961 26.9846 12.0917 26.9676C10.4917 26.9865 8.90267 26.704 7.40972 26.1352C5.99522 25.5797 4.73067 24.7073 3.71559 23.5868C2.61056 22.3341 1.7786 20.8701 1.27156 19.2857C0.650537 17.3466 0.351697 15.3209 0.386659 13.2873C0.371124 11.5017 0.636482 9.72464 1.17324 8.01954C1.65413 6.47197 2.45085 5.03806 3.51426 3.80628C4.55867 2.61549 5.85701 1.66784 7.31607 1.03136C8.93783 0.325941 10.6945 -0.0258323 12.4663 1.56658e-05C13.8315 -0.00864511 15.1903 0.184659 16.4976 0.573501C17.6814 0.929709 18.7913 1.49199 19.775 2.23383C20.7305 2.9536 21.527 3.85852 22.116 4.89313C22.7194 5.99833 23.0814 7.21619 23.1787 8.46816H19.4847Z" fill="#0E0E11"/>
<path d="M25.9553 17.3155C25.9472 15.9552 26.1412 14.6012 26.5311 13.2965C26.8846 12.1076 27.47 10.9985 28.2541 10.0314C29.0201 9.09592 29.99 8.34341 31.0914 7.82991C32.3133 7.27974 33.6443 7.00635 34.9869 7.0298C36.128 7.02763 37.2608 7.22169 38.3346 7.6033C39.3901 7.97406 40.3495 8.5711 41.1438 9.35149C41.994 10.2028 42.6572 11.2183 43.0915 12.3345C43.6296 13.6974 43.8966 15.1498 43.878 16.6126C43.8888 17.9433 43.7315 19.27 43.4099 20.5621C43.1105 21.7544 42.5758 22.8766 41.8367 23.8644C41.0848 24.833 40.1107 25.6113 38.9947 26.1352C36.6037 27.1392 33.9224 27.2396 31.4613 26.4172C30.4218 26.0483 29.4738 25.4649 28.6802 24.7061C27.8199 23.8557 27.1554 22.8319 26.7325 21.7045C26.204 20.3008 25.9405 18.8132 25.9553 17.3155ZM29.4621 17.2646C29.4282 18.3484 29.5705 19.4304 29.8834 20.4696C30.1222 21.24 30.5244 21.951 31.0633 22.5555C31.5303 23.0702 32.1214 23.4599 32.7816 23.6886C33.448 23.9196 34.1497 24.0354 34.8558 24.0308C35.7311 24.0485 36.597 23.8498 37.3748 23.4527C38.0555 23.0924 38.6312 22.5653 39.0462 21.9218C39.4923 21.2109 39.8093 20.4283 39.9827 19.6094C40.1806 18.6523 40.2763 17.6773 40.2682 16.7004C40.2868 15.6507 40.1512 14.6038 39.8656 13.5925C39.6544 12.8245 39.2846 12.1081 38.7793 11.4882C38.3241 10.9697 37.7446 10.5722 37.0938 10.332C36.3934 10.0874 35.6548 9.96688 34.912 9.97585C34.1721 9.96665 33.438 10.1051 32.7536 10.3828C32.0802 10.6638 31.4882 11.1056 31.0306 11.6686C30.5024 12.3343 30.1126 13.0966 29.8834 13.9116C29.5874 14.9967 29.4487 16.1179 29.4715 17.2415L29.4621 17.2646Z" fill="#0E0E11"/>
<path d="M50.7606 7.54319V10.2025C51.4765 9.24704 52.3956 8.4578 53.4528 7.89006C54.5353 7.35408 55.7348 7.08885 56.9455 7.1177C57.853 7.10448 58.7565 7.23245 59.6237 7.49694C60.3855 7.73614 61.0738 8.16265 61.6229 8.7364C62.1984 9.37006 62.6211 10.1243 62.8591 10.9425C63.1586 12.0128 63.2991 13.1205 63.2758 14.2308V26.3617H59.7501V14.5267C59.8269 13.361 59.5146 12.2026 58.8605 11.2292C58.2051 10.4467 57.2082 10.0234 56.1824 10.0915C55.5134 10.0917 54.8495 10.2075 54.2206 10.4337C53.5984 10.6647 53.0253 11.0081 52.5305 11.4466C52.0238 11.9053 51.6189 12.4627 51.3412 13.0838C51.0275 13.7989 50.8683 14.5707 50.8729 15.3499V26.3617H47.4083V7.54319H50.7606Z" fill="#0E0E11"/>
<path d="M66.8341 17.482C66.8239 16.0735 67.0223 14.6712 67.424 13.3197C67.7691 12.1165 68.3464 10.9906 69.1236 10.0036C69.8663 9.08216 70.8105 8.33899 71.8861 7.82993C73.0341 7.29456 74.2921 7.02863 75.5614 7.05295C76.4196 7.05671 77.276 7.14189 78.1178 7.30732C78.9666 7.46697 79.7729 7.79756 80.4869 8.27855C81.2506 8.82008 81.8785 9.52731 82.3222 10.3459C82.9089 11.4596 83.2624 12.6786 83.3617 13.9301H79.9484C79.875 13.4261 79.7463 12.9314 79.5645 12.4548C79.3871 11.9892 79.1202 11.562 78.778 11.1968C78.4132 10.8206 77.9685 10.5284 77.4764 10.3412C76.8522 10.1054 76.1869 9.9953 75.5193 10.0175C73.8899 9.94309 72.3636 10.8042 71.6004 12.2282C71.1936 12.9706 70.9122 13.7735 70.767 14.6054C70.5928 15.5499 70.5067 16.5081 70.5096 17.4682C70.5132 18.2528 70.5854 19.0358 70.7249 19.8083C70.8607 20.5523 71.1181 21.2694 71.4881 21.9312C71.8537 22.5557 72.3678 23.0829 72.9863 23.4667C73.6942 23.8788 74.5062 24.0842 75.3273 24.0586C76.3668 24.0875 77.3832 23.7571 78.2021 23.1244C79.0121 22.4769 79.6068 21.3577 79.9345 19.7297H83.3477C83.0058 22.167 82.1257 23.9938 80.6977 25.1871C79.1086 26.441 77.1106 27.079 75.0792 26.9815C74.043 26.9853 73.0148 26.8018 72.0452 26.4405C71.0573 26.0712 70.1654 25.4899 69.4326 24.7385C68.609 23.8879 67.9713 22.8786 67.5598 21.7739C67.0532 20.3995 66.8069 18.9446 66.8341 17.482Z" fill="#0E0E11"/>
<path d="M89.8884 0.642853V4.34276H86.3768V0.642853H89.8884ZM89.8884 7.60791V26.2923H86.3768V7.60791H89.8884Z" fill="#0E0E11"/>
<path d="M98.2413 22.5092C98.1957 22.9647 98.369 23.415 98.7095 23.7256C99.1818 23.9979 99.7282 24.119 100.273 24.0724H100.877C101.043 24.0727 101.21 24.0586 101.373 24.0308V26.7133C101.102 26.7642 100.76 26.8197 100.343 26.8751C99.878 26.9389 99.4084 26.9698 98.9388 26.9676C97.4218 26.9676 96.345 26.6485 95.7082 26.0103C95.0715 25.372 94.7592 24.3377 94.7718 22.9069V0.679871H98.2413V22.5092Z" fill="#0E0E11"/>
<path d="M107.788 0.642853V4.34276H104.262V0.642853H107.788ZM107.788 7.60791V26.2923H104.262V7.60791H107.788Z" fill="#0E0E11"/>
<path d="M111.351 17.3155C111.338 15.955 111.533 14.6001 111.927 13.2965C112.277 12.1081 112.859 10.9989 113.64 10.0314C114.409 9.0982 115.378 8.3461 116.478 7.82991C117.7 7.28021 119.03 7.00683 120.373 7.02981C121.513 7.02731 122.644 7.22138 123.716 7.6033C124.771 7.97519 125.73 8.57206 126.525 9.3515C127.372 10.2052 128.035 11.2201 128.473 12.3345C128.996 13.7083 129.247 15.1685 129.213 16.6357C129.224 17.9663 129.066 19.2931 128.745 20.5853C128.445 21.7781 127.908 22.9005 127.167 23.8875C126.42 24.8585 125.446 25.6375 124.329 26.1583C122.983 26.7524 121.519 27.0385 120.045 26.9954C118.938 26.9969 117.839 26.8091 116.796 26.4404C115.753 26.0704 114.805 25.4783 114.02 24.7061C113.159 23.8557 112.495 22.8319 112.072 21.7045C111.562 20.2974 111.318 18.8098 111.351 17.3155ZM114.858 17.2646C114.828 18.3491 114.975 19.4312 115.293 20.4697C115.532 21.24 115.934 21.951 116.473 22.5555C116.94 23.0702 117.531 23.4599 118.191 23.6886C118.851 23.9238 119.546 24.0458 120.247 24.0493C121.12 24.0719 121.984 23.883 122.766 23.4989C123.446 23.1382 124.02 22.6091 124.433 21.9636C124.882 21.2543 125.199 20.471 125.369 19.6512C125.567 18.6908 125.662 17.7127 125.654 16.7329C125.679 15.6848 125.546 14.6391 125.261 13.6295C125.043 12.8664 124.666 12.1562 124.156 11.5437C123.701 11.0252 123.121 10.6277 122.471 10.3875C121.77 10.143 121.032 10.0224 120.289 10.0314C119.549 10.0222 118.815 10.1606 118.13 10.4383C117.457 10.7193 116.865 11.1611 116.407 11.7241C115.879 12.3898 115.489 13.1521 115.26 13.9671C114.965 15.046 114.825 16.161 114.848 17.2785L114.858 17.2646Z" fill="#0E0E11"/>
</g>
<defs>
<clipPath id="clip0_374_96">
<rect width="129.6" height="27" fill="white"/>
</clipPath>
</defs>
</svg>
