<svg xmlns="http://www.w3.org/2000/svg" xmlns:xlink="http://www.w3.org/1999/xlink" viewBox="0 0 590 944"><defs><style>.a06ee974-7979-4349-8958-db82cd42858f,.a3660e3c-8569-4b56-8cfc-0d63c9835e6d,.a695b712-227f-46b4-86f4-f07115ebf7f7,.a72fa3a2-17d6-43e3-a2eb-68701ed28efc,.ab79314d-d917-4f2f-ad2f-66858d037369,.bf232b9b-5b63-420c-88f8-3f10e9708e6c,.e36a777a-cad0-453b-8ba6-6c5116d2a060,.e3e2bb0a-94d4-46a4-9344-6c33e8fb0fdf,.ef737f46-9db0-4c7a-a2b6-91f8dc371ef0,.f06df2ce-9c85-4977-b65a-16929fd9311f,.fba6e7a9-dca3-4539-b113-615e1e853f94,.fbc59ce0-c2ef-427a-b8ee-b7ae624577b1,.fcd3e68c-710d-49e3-9468-0be0ab364ed5{fill:none;}.a06ee974-7979-4349-8958-db82cd42858f,.a3660e3c-8569-4b56-8cfc-0d63c9835e6d,.a72fa3a2-17d6-43e3-a2eb-68701ed28efc,.ab79314d-d917-4f2f-ad2f-66858d037369,.e36a777a-cad0-453b-8ba6-6c5116d2a060,.e3e2bb0a-94d4-46a4-9344-6c33e8fb0fdf,.ef737f46-9db0-4c7a-a2b6-91f8dc371ef0,.fba6e7a9-dca3-4539-b113-615e1e853f94,.fbc59ce0-c2ef-427a-b8ee-b7ae624577b1,.fcd3e68c-710d-49e3-9468-0be0ab364ed5{stroke:#1d1d1b;stroke-linecap:round;stroke-dasharray:0 6.5;}.fcd3e68c-710d-49e3-9468-0be0ab364ed5{stroke-width:3.5px;}.e36a777a-cad0-453b-8ba6-6c5116d2a060{stroke-width:3.25px;}.fba6e7a9-dca3-4539-b113-615e1e853f94{stroke-width:3px;}.ef737f46-9db0-4c7a-a2b6-91f8dc371ef0{stroke-width:2.75px;}.e3e2bb0a-94d4-46a4-9344-6c33e8fb0fdf{stroke-width:2.5px;}.fbc59ce0-c2ef-427a-b8ee-b7ae624577b1{stroke-width:2.25px;}.a06ee974-7979-4349-8958-db82cd42858f{stroke-width:2px;}.a3660e3c-8569-4b56-8cfc-0d63c9835e6d{stroke-width:1.75px;}.ab79314d-d917-4f2f-ad2f-66858d037369{stroke-width:1.499px;}.a72fa3a2-17d6-43e3-a2eb-68701ed28efc{stroke-width:1.25px;}.bf232b9b-5b63-420c-88f8-3f10e9708e6c,.f06df2ce-9c85-4977-b65a-16929fd9311f{stroke:#000;stroke-miterlimit:10;}.bf232b9b-5b63-420c-88f8-3f10e9708e6c{stroke-width:1.5px;}.b6ded222-8b66-4e07-8d54-c69a743fce09{font-size:12px;}.b6ded222-8b66-4e07-8d54-c69a743fce09,.e404a566-bcdf-4849-bd95-a7edc84f6f24{font-family:Georgia;}.bf707b9e-d692-441f-ab88-a7b870bb848d{fill:#666;}.f2eade4b-a809-4d2a-98aa-ad088340a9a0{fill:url(#ecf3b2bb-212a-46e1-b5f0-10ae89d891d6);}.e404a566-bcdf-4849-bd95-a7edc84f6f24{font-size:17px;}</style><pattern id="ecf3b2bb-212a-46e1-b5f0-10ae89d891d6" data-name="Undulating Fine Dots" width="83" height="65" patternTransform="translate(1098.5495 -173.7941)" patternUnits="userSpaceOnUse" viewBox="0 0 83 65"><rect class="a695b712-227f-46b4-86f4-f07115ebf7f7" width="83" height="65"/><line class="fcd3e68c-710d-49e3-9468-0be0ab364ed5" x1="83" y1="65" x2="83" y2="130.5"/><line class="fcd3e68c-710d-49e3-9468-0be0ab364ed5" y1="65" y2="130.5"/><line class="e36a777a-cad0-453b-8ba6-6c5116d2a060" x1="4.6113" y1="61.75" x2="4.6113" y2="130.5"/><line class="fba6e7a9-dca3-4539-b113-615e1e853f94" x1="9.2222" y1="65" x2="9.2222" y2="130.5"/><line class="ef737f46-9db0-4c7a-a2b6-91f8dc371ef0" x1="13.833" y1="61.75" x2="13.833" y2="130.5"/><line class="e3e2bb0a-94d4-46a4-9344-6c33e8fb0fdf" x1="18.4453" y1="65" x2="18.4453" y2="130.5"/><line class="fbc59ce0-c2ef-427a-b8ee-b7ae624577b1" x1="23.0562" y1="61.75" x2="23.0562" y2="130.5"/><line class="a06ee974-7979-4349-8958-db82cd42858f" x1="27.667" y1="65" x2="27.667" y2="130.5"/><line class="a3660e3c-8569-4b56-8cfc-0d63c9835e6d" x1="32.2783" y1="61.75" x2="32.2783" y2="130.5"/><line class="ab79314d-d917-4f2f-ad2f-66858d037369" x1="36.8901" y1="65" x2="36.8901" y2="130.5"/><line class="a72fa3a2-17d6-43e3-a2eb-68701ed28efc" x1="41.5" y1="61.75" x2="41.5" y2="130.5"/><line class="fcd3e68c-710d-49e3-9468-0be0ab364ed5" x1="83" y1="65" x2="83" y2="130.5"/><line class="e36a777a-cad0-453b-8ba6-6c5116d2a060" x1="78.3887" y1="61.75" x2="78.3887" y2="130.5"/><line class="fba6e7a9-dca3-4539-b113-615e1e853f94" x1="73.7773" y1="65" x2="73.7773" y2="130.5"/><line class="ef737f46-9db0-4c7a-a2b6-91f8dc371ef0" x1="69.166" y1="61.75" x2="69.166" y2="130.5"/><line class="e3e2bb0a-94d4-46a4-9344-6c33e8fb0fdf" x1="64.5547" y1="65" x2="64.5547" y2="130.5"/><line class="fbc59ce0-c2ef-427a-b8ee-b7ae624577b1" x1="59.9434" y1="61.75" x2="59.9434" y2="130.5"/><line class="a06ee974-7979-4349-8958-db82cd42858f" x1="55.332" y1="65" x2="55.332" y2="130.5"/><line class="a3660e3c-8569-4b56-8cfc-0d63c9835e6d" x1="50.7212" y1="61.75" x2="50.7212" y2="130.5"/><line class="ab79314d-d917-4f2f-ad2f-66858d037369" x1="46.1104" y1="65" x2="46.1104" y2="130.5"/><line class="fcd3e68c-710d-49e3-9468-0be0ab364ed5" y1="65" y2="130.5"/><line class="fcd3e68c-710d-49e3-9468-0be0ab364ed5" x1="83" x2="83" y2="65.5"/><line class="fcd3e68c-710d-49e3-9468-0be0ab364ed5" y2="65.5"/><line class="e36a777a-cad0-453b-8ba6-6c5116d2a060" x1="4.6113" y1="-3.25" x2="4.6113" y2="65.5"/><line class="fba6e7a9-dca3-4539-b113-615e1e853f94" x1="9.2222" x2="9.2222" y2="65.5"/><line class="ef737f46-9db0-4c7a-a2b6-91f8dc371ef0" x1="13.833" y1="-3.25" x2="13.833" y2="65.5"/><line class="e3e2bb0a-94d4-46a4-9344-6c33e8fb0fdf" x1="18.4453" x2="18.4453" y2="65.5"/><line class="fbc59ce0-c2ef-427a-b8ee-b7ae624577b1" x1="23.0562" y1="-3.25" x2="23.0562" y2="65.5"/><line class="a06ee974-7979-4349-8958-db82cd42858f" x1="27.667" x2="27.667" y2="65.5"/><line class="a3660e3c-8569-4b56-8cfc-0d63c9835e6d" x1="32.2783" y1="-3.25" x2="32.2783" y2="65.5"/><line class="ab79314d-d917-4f2f-ad2f-66858d037369" x1="36.8901" x2="36.8901" y2="65.5"/><line class="a72fa3a2-17d6-43e3-a2eb-68701ed28efc" x1="41.5" y1="-3.25" x2="41.5" y2="65.5"/><line class="fcd3e68c-710d-49e3-9468-0be0ab364ed5" x1="83" x2="83" y2="65.5"/><line class="e36a777a-cad0-453b-8ba6-6c5116d2a060" x1="78.3887" y1="-3.25" x2="78.3887" y2="65.5"/><line class="fba6e7a9-dca3-4539-b113-615e1e853f94" x1="73.7773" x2="73.7773" y2="65.5"/><line class="ef737f46-9db0-4c7a-a2b6-91f8dc371ef0" x1="69.166" y1="-3.25" x2="69.166" y2="65.5"/><line class="e3e2bb0a-94d4-46a4-9344-6c33e8fb0fdf" x1="64.5547" x2="64.5547" y2="65.5"/><line class="fbc59ce0-c2ef-427a-b8ee-b7ae624577b1" x1="59.9434" y1="-3.25" x2="59.9434" y2="65.5"/><line class="a06ee974-7979-4349-8958-db82cd42858f" x1="55.332" x2="55.332" y2="65.5"/><line class="a3660e3c-8569-4b56-8cfc-0d63c9835e6d" x1="50.7212" y1="-3.25" x2="50.7212" y2="65.5"/><line class="ab79314d-d917-4f2f-ad2f-66858d037369" x1="46.1104" x2="46.1104" y2="65.5"/><line class="fcd3e68c-710d-49e3-9468-0be0ab364ed5" y2="65.5"/><line class="fcd3e68c-710d-49e3-9468-0be0ab364ed5" x1="83" y1="-65" x2="83" y2="0.5"/><line class="fcd3e68c-710d-49e3-9468-0be0ab364ed5" y1="-65" y2="0.5"/><line class="e36a777a-cad0-453b-8ba6-6c5116d2a060" x1="4.6113" y1="-68.25" x2="4.6113" y2="0.5"/><line class="fba6e7a9-dca3-4539-b113-615e1e853f94" x1="9.2222" y1="-65" x2="9.2222" y2="0.5"/><line class="ef737f46-9db0-4c7a-a2b6-91f8dc371ef0" x1="13.833" y1="-68.25" x2="13.833" y2="0.5"/><line class="e3e2bb0a-94d4-46a4-9344-6c33e8fb0fdf" x1="18.4453" y1="-65" x2="18.4453" y2="0.5"/><line class="fbc59ce0-c2ef-427a-b8ee-b7ae624577b1" x1="23.0562" y1="-68.25" x2="23.0562" y2="0.5"/><line class="a06ee974-7979-4349-8958-db82cd42858f" x1="27.667" y1="-65" x2="27.667" y2="0.5"/><line class="a3660e3c-8569-4b56-8cfc-0d63c9835e6d" x1="32.2783" y1="-68.25" x2="32.2783" y2="0.5"/><line class="ab79314d-d917-4f2f-ad2f-66858d037369" x1="36.8901" y1="-65" x2="36.8901" y2="0.5"/><line class="a72fa3a2-17d6-43e3-a2eb-68701ed28efc" x1="41.5" y1="-68.25" x2="41.5" y2="0.5"/><line class="fcd3e68c-710d-49e3-9468-0be0ab364ed5" x1="83" y1="-65" x2="83" y2="0.5"/><line class="e36a777a-cad0-453b-8ba6-6c5116d2a060" x1="78.3887" y1="-68.25" x2="78.3887" y2="0.5"/><line class="fba6e7a9-dca3-4539-b113-615e1e853f94" x1="73.7773" y1="-65" x2="73.7773" y2="0.5"/><line class="ef737f46-9db0-4c7a-a2b6-91f8dc371ef0" x1="69.166" y1="-68.25" x2="69.166" y2="0.5"/><line class="e3e2bb0a-94d4-46a4-9344-6c33e8fb0fdf" x1="64.5547" y1="-65" x2="64.5547" y2="0.5"/><line class="fbc59ce0-c2ef-427a-b8ee-b7ae624577b1" x1="59.9434" y1="-68.25" x2="59.9434" y2="0.5"/><line class="a06ee974-7979-4349-8958-db82cd42858f" x1="55.332" y1="-65" x2="55.332" y2="0.5"/><line class="a3660e3c-8569-4b56-8cfc-0d63c9835e6d" x1="50.7212" y1="-68.25" x2="50.7212" y2="0.5"/><line class="ab79314d-d917-4f2f-ad2f-66858d037369" x1="46.1104" y1="-65" x2="46.1104" y2="0.5"/><line class="fcd3e68c-710d-49e3-9468-0be0ab364ed5" y1="-65" y2="0.5"/></pattern></defs><g id="e8dac990-227a-491c-891e-e321d3ab7b4d" data-name="timeline-1"><path class="bf232b9b-5b63-420c-88f8-3f10e9708e6c" d="M319.0838,383.0918l31.3045-2.03,12.9263-27.6208a166.6027,166.6027,0,0,1,23.439,32.5162,170.4506,170.4506,0,0,1,7.5681,15.5589l-13.8083,35.935-39.9087-8.6656a106.668,106.668,0,0,0-21.723-35.0239"/><text class="b6ded222-8b66-4e07-8d54-c69a743fce09" transform="translate(13.9517 228.8542)">Projet initial <tspan class="bf707b9e-d692-441f-ab88-a7b870bb848d"><tspan x="0" y="14.3999">2021</tspan></tspan></text><rect class="f2eade4b-a809-4d2a-98aa-ad088340a9a0" y="215.9869" width="6.5" height="224.5"/><text class="b6ded222-8b66-4e07-8d54-c69a743fce09" transform="translate(15.9932 468.1689)">Recherche &amp; développement<tspan class="bf707b9e-d692-441f-ab88-a7b870bb848d"><tspan x="0" y="14.3999">déc. 21 - sept. 22</tspan></tspan></text><rect class="f2eade4b-a809-4d2a-98aa-ad088340a9a0" y="451.9869" width="6.5" height="224.5"/><rect class="f2eade4b-a809-4d2a-98aa-ad088340a9a0" y="1.1926" width="6.5" height="204.7943"/><text class="b6ded222-8b66-4e07-8d54-c69a743fce09" transform="translate(16.2583 13.4227)">Situation de départ <tspan class="bf707b9e-d692-441f-ab88-a7b870bb848d"><tspan x="0" y="14.4004">dès mars 2020 (covid-19)</tspan></tspan></text><path class="bf232b9b-5b63-420c-88f8-3f10e9708e6c" d="M512.2472,489.9071l-28.14-35.761a106.6994,106.6994,0,0,1-5.7566,34.025l13.78,40.5021,40.2322-13.6888a167.39,167.39,0,0,0,10.43-40.5858Z"/><text class="e404a566-bcdf-4849-bd95-a7edc84f6f24" transform="translate(261.3628 489.4098)">Période de brainstorm</text><path class="bf232b9b-5b63-420c-88f8-3f10e9708e6c" d="M551.9878,568.6864c-7.9631,14.5543-22.5021,23.6064-37.5906,22.972-17.18-.7223-35.27-14.0111-35.5023-29.2371-.176-11.5177,7.893-21.5367,16.7792-22.9306,9.0422-1.4184,13.392,6.1869,12.98,11.9667-.7662,10.7489-22.7346,22.5976-34.98,15.1406-9.6729-5.89-13.5608-23.9981-3.1325-39.6789"/><path class="bf232b9b-5b63-420c-88f8-3f10e9708e6c" d="M561.9388,554.3431c.1169-.85.5369-4.3443-1.0442-5.2209-1.3823-.7664-3.6376.8326-5.2209,2.0884-9.7946,7.7687-30.7938,24.443-31.3255,43.8557-.3169,11.5711,5.2237,16.2252,10.587,17.555,7.4646,1.8507,16.1989-1.5571,17.606-9.2015.8-4.3486-1.9955-10.0522-6.2651-11.486-8.95-3.0055-26.0111,12.2-22.9721,22.972.3894,1.38,1.83,5.244,8.3535,8.3535"/><path class="bf232b9b-5b63-420c-88f8-3f10e9708e6c" d="M441.0342,475.111c1.3653,2.22,7.0146,11.9562,4.1768,24.0162a27.78,27.78,0,0,1-8.3535,14.6186c-10.3955,9.1739-28.8487,9.5777-32.37,3.1326-3.0981-5.6711,4.2447-18.6947,13.5744-20.8837,11.2957-2.65,24.8389,10.7374,29.2371,24.0162,4.4107,13.3162.64,24.8511-5.2109,46.4816-9.0417,33.4268-3.5392,47.7457-2.0984,50.6275,5.221,10.4418,15.5246,15.6444,27.1488,14.6185,13.7315-1.2117,26.15-14.3579,28.193-32.37"/><path class="bf232b9b-5b63-420c-88f8-3f10e9708e6c" d="M508.5008,573.7864c-18.4249,25.861-34.2045,31.8892-50.1208,28.1929-9.1751-2.1307-16.8444-13.4307-30.2813-31.3255-9.7514-12.9866-15.97-18.54-22.45-19.3174-10.5421-1.2644-16.707,4.1767-22.45,15.1407-7.8314-7.8314-22.2245-21.7815-44.3778-25.5825-8.7263-1.4973-24.0461.3377-41.2453,13.0523"/><path class="bf232b9b-5b63-420c-88f8-3f10e9708e6c" d="M363.3594,585.2725c-.2-1.0269,1.5664-10.9642-7.31-11.4861-5.771-.34-13.0522,4.6987-13.5742,15.6628-.6,12.5947,12.0083,22.45,29.2373,27.1487,18.54,5.0562,34.96-2.0623,41.39-5.4814"/><polygon points="411.384 618.776 409.977 618.254 412.557 611.323 405.455 609.255 405.876 607.814 414.525 610.334 411.384 618.776"/><path class="bf232b9b-5b63-420c-88f8-3f10e9708e6c" d="M385.2872,643.7467c5.9148-7.436,15.6338-17.1583,28.1929-17.7512,22.7034-1.0717,33.6983,28.6809,54.2976,28.193,9.058-.2146,22.1268-6.3274,37.5906-35.5022"/><line class="bf232b9b-5b63-420c-88f8-3f10e9708e6c" x1="355.5059" y1="618.9138" x2="322.4102" y2="637.502"/><polygon points="323.739 629.719 325.169 630.176 322.911 637.219 330.101 638.957 329.747 640.416 320.991 638.297 323.739 629.719"/><line class="bf232b9b-5b63-420c-88f8-3f10e9708e6c" x1="313.5449" y1="613.4177" x2="280.4492" y2="632.0056"/><polygon points="281.779 624.223 283.208 624.68 280.951 631.722 288.14 633.46 287.786 634.919 279.03 632.801 281.779 624.223"/><rect class="bf232b9b-5b63-420c-88f8-3f10e9708e6c" x="469.3193" y="518.672" width="6.1219" height="6.1219"/><rect class="bf232b9b-5b63-420c-88f8-3f10e9708e6c" x="436.8586" y="467.2942" width="6.1219" height="6.1219"/><rect class="bf232b9b-5b63-420c-88f8-3f10e9708e6c" x="286.8321" y="554.5543" width="7.5648" height="7.5648"/><rect class="bf232b9b-5b63-420c-88f8-3f10e9708e6c" x="557.889" y="557.183" width="7.5648" height="7.5648"/><rect class="bf232b9b-5b63-420c-88f8-3f10e9708e6c" x="309.3527" y="638.7391" width="7.5648" height="7.5648"/><rect class="bf232b9b-5b63-420c-88f8-3f10e9708e6c" x="359.4065" y="588.3593" width="7.5648" height="7.5648"/><rect class="bf232b9b-5b63-420c-88f8-3f10e9708e6c" x="252.0851" y="528.8136" width="7.5648" height="7.5648"/><line class="f06df2ce-9c85-4977-b65a-16929fd9311f" x1="273.3222" y1="640.7965" x2="265.7575" y2="633.2317"/><line class="f06df2ce-9c85-4977-b65a-16929fd9311f" x1="265.7575" y1="640.7965" x2="273.3222" y2="633.2317"/><line class="bf232b9b-5b63-420c-88f8-3f10e9708e6c" x1="273.3222" y1="640.7965" x2="265.7575" y2="633.2317"/><line class="bf232b9b-5b63-420c-88f8-3f10e9708e6c" x1="265.7575" y1="640.7965" x2="273.3222" y2="633.2317"/><line class="bf232b9b-5b63-420c-88f8-3f10e9708e6c" x1="374.4192" y1="523.1133" x2="366.8545" y2="515.5485"/><line class="bf232b9b-5b63-420c-88f8-3f10e9708e6c" x1="366.8545" y1="523.1133" x2="374.4192" y2="515.5485"/><line class="bf232b9b-5b63-420c-88f8-3f10e9708e6c" x1="387.6561" y1="577.7214" x2="380.0914" y2="570.1566"/><line class="bf232b9b-5b63-420c-88f8-3f10e9708e6c" x1="380.0914" y1="577.7214" x2="387.6561" y2="570.1566"/><line class="f06df2ce-9c85-4977-b65a-16929fd9311f" x1="293.5103" y1="595.6286" x2="285.9456" y2="588.0638"/><line class="f06df2ce-9c85-4977-b65a-16929fd9311f" x1="285.9456" y1="595.6286" x2="293.5103" y2="588.0638"/><line class="bf232b9b-5b63-420c-88f8-3f10e9708e6c" x1="293.5103" y1="595.6286" x2="285.9456" y2="588.0638"/><line class="bf232b9b-5b63-420c-88f8-3f10e9708e6c" x1="285.9456" y1="595.6286" x2="293.5103" y2="588.0638"/><line class="bf232b9b-5b63-420c-88f8-3f10e9708e6c" x1="386.0845" y1="654.744" x2="378.5197" y2="647.1792"/><line class="bf232b9b-5b63-420c-88f8-3f10e9708e6c" x1="378.5197" y1="654.744" x2="386.0845" y2="647.1792"/><path class="bf232b9b-5b63-420c-88f8-3f10e9708e6c" d="M282.2814,559.5778c-1.2031.5984-8.3452,4.01-15.9569.8865-7.4274-3.0474-12.2677-11.0714-11.8791-20.0348"/><path class="bf232b9b-5b63-420c-88f8-3f10e9708e6c" d="M290.4371,565.9605a24.1386,24.1386,0,0,0-3.3686,13.4748,23.0347,23.0347,0,0,0,1.4183,6.7374"/><path class="bf232b9b-5b63-420c-88f8-3f10e9708e6c" d="M379.24,541.1387a28.8029,28.8029,0,0,1-5.8276-11.3318q-.252-1.0023-.4155-1.9534"/><polygon points="380.162 531.387 379.306 532.62 373.234 528.397 369.466 534.762 368.175 533.996 372.766 526.245 380.162 531.387"/><text class="b6ded222-8b66-4e07-8d54-c69a743fce09" transform="translate(384.499 589.6696)">Semaine<tspan x="4.3828" y="14.4004">crunch</tspan></text><rect class="f2eade4b-a809-4d2a-98aa-ad088340a9a0" y="688.3442" width="6.5" height="254.5"/><text class="b6ded222-8b66-4e07-8d54-c69a743fce09" transform="translate(14.9922 702.1517)">Livrables, processus <tspan x="0" y="14.3994">et retours d&apos;expérience </tspan><tspan class="bf707b9e-d692-441f-ab88-a7b870bb848d"><tspan x="0" y="28.7998">oct. 22</tspan></tspan></text><path class="f06df2ce-9c85-4977-b65a-16929fd9311f" d="M284.2114,733.3544v65.58h-85.91a13.8148,13.8148,0,0,0-13.81,13.82v27.29h-6.97a13.8126,13.8126,0,0,1-13.81-13.81v-92.88a13.806,13.806,0,0,1,13.81-13.81h92.87A13.8147,13.8147,0,0,1,284.2114,733.3544Z"/><text class="b6ded222-8b66-4e07-8d54-c69a743fce09" transform="translate(184.2485 769.2914)">le smartphone, <tspan x="0.1084" y="14.3994">par la Marmite</tspan></text><text class="b6ded222-8b66-4e07-8d54-c69a743fce09" transform="translate(199.6218 743.9213)">Module 1</text><path class="f06df2ce-9c85-4977-b65a-16929fd9311f" d="M479.5215,722.5744v92.88a13.8127,13.8127,0,0,1-13.81,13.81h-34.94a13.7738,13.7738,0,0,0-11.92-6.85h-57.94a13.7125,13.7125,0,0,1-1.89-6.96v-92.88a13.8127,13.8127,0,0,1,13.81-13.81h92.88A13.8065,13.8065,0,0,1,479.5215,722.5744Z"/><path d="M392.2148,727.8955a2.5035,2.5035,0,0,1-.2539,1.1514,2.3025,2.3025,0,0,1-.707.8291,3.0474,3.0474,0,0,1-.9785.48,4.0967,4.0967,0,0,1-1.1309.1524h-.9316v2.5195a.899.899,0,0,0,.0683.36.4634.4634,0,0,0,.2774.2373,1.8343,1.8343,0,0,0,.373.0761,4.6831,4.6831,0,0,0,.4883.0411v.416h-3.5683v-.416c.0937-.0078.23-.0215.4082-.0411a1.3956,1.3956,0,0,0,.3711-.0761.5076.5076,0,0,0,.2558-.2227.7845.7845,0,0,0,.0781-.375v-6a1.0915,1.0915,0,0,0-.0586-.3691.4273.4273,0,0,0-.2753-.2461,2.4681,2.4681,0,0,0-.4414-.1084c-.1465-.0215-.2735-.0361-.379-.044v-.416h3.7969a2.9956,2.9956,0,0,1,1.8848.56A1.7894,1.7894,0,0,1,392.2148,727.8955Zm-1.7812,1.418a1.5762,1.5762,0,0,0,.2637-.583,2.6272,2.6272,0,0,0,.0644-.542,3.0407,3.0407,0,0,0-.0781-.68,1.5793,1.5793,0,0,0-.2734-.6035,1.3638,1.3638,0,0,0-.5391-.4278,2.0054,2.0054,0,0,0-.832-.1523h-.8262v3.6738h.5976a2.3228,2.3228,0,0,0,1.0293-.1963A1.5034,1.5034,0,0,0,390.4336,729.3135Z"/><path d="M397.4414,729.126a.97.97,0,0,1-.1465.53.4964.4964,0,0,1-.4511.2315.6828.6828,0,0,1-.5-.17.518.518,0,0,1-.1739-.375,1.2252,1.2252,0,0,1,.0215-.2344c.0137-.07.0254-.1406.0371-.2109a1.2979,1.2979,0,0,0-.6445.2226,1.9058,1.9058,0,0,0-.627.6328v3.3633a.6312.6312,0,0,0,.08.334.4762.4762,0,0,0,.2481.1934,1.5767,1.5767,0,0,0,.3789.0878c.1543.02.2871.0332.4.0411v.3867h-3.0469v-.3867c.09-.0079.1836-.0157.2793-.0235a1.0533,1.0533,0,0,0,.248-.0469.4234.4234,0,0,0,.2442-.1845.6566.6566,0,0,0,.0781-.3418v-3.5645a.8127.8127,0,0,0-.084-.3574.71.71,0,0,0-.2383-.28.8011.8011,0,0,0-.2637-.1025,2.3473,2.3473,0,0,0-.3281-.044V728.44l1.9219-.1289.082.0821v.8144h.0293a2.6293,2.6293,0,0,1,.8086-.7207,1.71,1.71,0,0,1,.8145-.2461.7989.7989,0,0,1,.6015.24A.8894.8894,0,0,1,397.4414,729.126Z"/><path d="M403.57,731.2119a3.8183,3.8183,0,0,1-.1933,1.1983,2.8576,2.8576,0,0,1-.5508.999,2.5618,2.5618,0,0,1-.9395.6972,3.0047,3.0047,0,0,1-1.1953.2286,2.7019,2.7019,0,0,1-1.0508-.208,2.643,2.643,0,0,1-.8847-.6065,2.8856,2.8856,0,0,1-.6075-.958,3.3975,3.3975,0,0,1-.2265-1.2686,3.1538,3.1538,0,0,1,.789-2.2148,2.8875,2.8875,0,0,1,4.07-.0439A3,3,0,0,1,403.57,731.2119Zm-1.2129.0117a5.26,5.26,0,0,0-.0879-.9287,2.94,2.94,0,0,0-.2636-.8291,1.6227,1.6227,0,0,0-.4932-.583,1.2434,1.2434,0,0,0-.7451-.22,1.32,1.32,0,0,0-.7725.2226,1.6444,1.6444,0,0,0-.5195.6094,2.6979,2.6979,0,0,0-.2647.8145,5.3891,5.3891,0,0,0-.0761.8847,5.5665,5.5665,0,0,0,.0918,1.04,2.9719,2.9719,0,0,0,.291.8525,1.6483,1.6483,0,0,0,.501.5889,1.2651,1.2651,0,0,0,.749.2138,1.3078,1.3078,0,0,0,1.1621-.7089A3.7892,3.7892,0,0,0,402.3574,731.2236Z"/><path d="M407.0742,734.3115a2.4408,2.4408,0,0,1-1.9629-.832,3.7371,3.7371,0,0,1-.5175-3.3721,3.1394,3.1394,0,0,1,.5527-.9638,2.5851,2.5851,0,0,1,.8672-.6709,2.5521,2.5521,0,0,1,1.1367-.2549,2.2157,2.2157,0,0,1,1.3828.4072,1.322,1.322,0,0,1,.5332,1.11.96.96,0,0,1-.1406.5185.5034.5034,0,0,1-.4629.2256.763.763,0,0,1-.5352-.1748.5265.5265,0,0,1-.1914-.3916,2.1979,2.1979,0,0,1,.07-.54,2.9707,2.9707,0,0,0,.0821-.4062.5152.5152,0,0,0-.3125-.2422,1.5676,1.5676,0,0,0-.4473-.0615,1.2342,1.2342,0,0,0-.5342.12,1.38,1.38,0,0,0-.4941.4424,2.3869,2.3869,0,0,0-.3506.791,4.5985,4.5985,0,0,0-.1348,1.1895,3.0342,3.0342,0,0,0,.4825,1.7783,1.4818,1.4818,0,0,0,1.2675.6885,1.5851,1.5851,0,0,0,.95-.2764,2.7137,2.7137,0,0,0,.711-.8311l.374.2461a3.0268,3.0268,0,0,1-1.0195,1.0957A2.3957,2.3957,0,0,1,407.0742,734.3115Z"/><path d="M414.9844,732.8a2.96,2.96,0,0,1-.9727,1.1016,2.4489,2.4489,0,0,1-1.4.41,2.8428,2.8428,0,0,1-1.2207-.2461,2.4021,2.4021,0,0,1-.8652-.6679,2.8365,2.8365,0,0,1-.5059-.9844,4.16,4.16,0,0,1-.1679-1.1895,3.5083,3.5083,0,0,1,.18-1.1045,3.1137,3.1137,0,0,1,.5235-.9755,2.54,2.54,0,0,1,.83-.6709,2.3847,2.3847,0,0,1,1.1093-.2549,2.6729,2.6729,0,0,1,1.084.1992,1.9284,1.9284,0,0,1,.7324.5449,2.1779,2.1779,0,0,1,.4024.7735,3.3921,3.3921,0,0,1,.1309.9667v.3868h-3.8262a4.5507,4.5507,0,0,0,.1094,1.0341,2.4852,2.4852,0,0,0,.3418.8165,1.6334,1.6334,0,0,0,.5976.5371,1.8485,1.8485,0,0,0,.8789.1963,1.6139,1.6139,0,0,0,.9-.2452,2.4073,2.4073,0,0,0,.7285-.88Zm-1.2949-2.2031a4.7712,4.7712,0,0,0-.0547-.7012,2.142,2.142,0,0,0-.18-.625,1.1961,1.1961,0,0,0-.3692-.4385,1.01,1.01,0,0,0-.6035-.1689,1.2564,1.2564,0,0,0-1.0215.5107,2.3856,2.3856,0,0,0-.4433,1.4229Z"/><path d="M419.4668,731.3291a1.4743,1.4743,0,0,1,.3691.4863,1.582,1.582,0,0,1,.1289.6739,1.6421,1.6421,0,0,1-.6,1.3125,2.5677,2.5677,0,0,1-2.4843.3281,2.5675,2.5675,0,0,1-.6075-.334l-.1172.3809h-.4394l-.0586-2.01h.4043a2.25,2.25,0,0,0,.1992.5351,2.5759,2.5759,0,0,0,.3692.5528,2.0263,2.0263,0,0,0,.5488.4346,1.45,1.45,0,0,0,.7168.1767,1.306,1.306,0,0,0,.8672-.2568.9033.9033,0,0,0,.3047-.7334.8806.8806,0,0,0-.0957-.4248.9388.9388,0,0,0-.2852-.3135,2.24,2.24,0,0,0-.4746-.2432q-.2812-.1083-.627-.2138a5.8148,5.8148,0,0,1-.6113-.2256,2.4469,2.4469,0,0,1-.5781-.3369,1.6528,1.6528,0,0,1-.4219-.5039,1.4388,1.4388,0,0,1-.1641-.7032,1.5806,1.5806,0,0,1,.5274-1.2011,1.9863,1.9863,0,0,1,1.4121-.4922,2.8861,2.8861,0,0,1,.6953.0879,2.3963,2.3963,0,0,1,.5762.2109l.1347-.3047h.4219l.0879,1.8574h-.4043a1.8666,1.8666,0,0,0-.5293-1.0146,1.3789,1.3789,0,0,0-.9941-.3916,1.1065,1.1065,0,0,0-.7559.2422.7509.7509,0,0,0-.2754.584.9517.9517,0,0,0,.0918.4394.806.806,0,0,0,.2715.2988,2.2808,2.2808,0,0,0,.4434.22c.1777.0683.3965.1455.6582.2314a5.6736,5.6736,0,0,1,.73.2871A2.3843,2.3843,0,0,1,419.4668,731.3291Z"/><path d="M424.6523,731.3291a1.476,1.476,0,0,1,.3692.4863,1.5835,1.5835,0,0,1,.1289.6739,1.6421,1.6421,0,0,1-.6,1.3125,2.5679,2.5679,0,0,1-2.4844.3281,2.5664,2.5664,0,0,1-.6074-.334l-.1172.3809h-.4395l-.0585-2.01h.4042a2.2462,2.2462,0,0,0,.1993.5351,2.5755,2.5755,0,0,0,.3691.5528,2.0279,2.0279,0,0,0,.5488.4346,1.45,1.45,0,0,0,.7168.1767,1.3058,1.3058,0,0,0,.8672-.2568.9033.9033,0,0,0,.3047-.7334.88.88,0,0,0-.0957-.4248.9378.9378,0,0,0-.2852-.3135,2.24,2.24,0,0,0-.4746-.2432q-.2812-.1083-.6269-.2138a5.8148,5.8148,0,0,1-.6113-.2256,2.4476,2.4476,0,0,1-.5782-.3369,1.6525,1.6525,0,0,1-.4218-.5039,1.4388,1.4388,0,0,1-.1641-.7032,1.5808,1.5808,0,0,1,.5273-1.2011,1.9863,1.9863,0,0,1,1.4121-.4922,2.8875,2.8875,0,0,1,.6954.0879,2.3938,2.3938,0,0,1,.5761.2109l.1348-.3047h.4219l.0879,1.8574h-.4043a1.8673,1.8673,0,0,0-.5293-1.0146,1.379,1.379,0,0,0-.9942-.3916,1.1062,1.1062,0,0,0-.7558.2422.7509.7509,0,0,0-.2754.584.95.95,0,0,0,.0918.4394.8052.8052,0,0,0,.2715.2988,2.28,2.28,0,0,0,.4433.22c.1778.0683.3965.1455.6582.2314a5.6751,5.6751,0,0,1,.7305.2871A2.3856,2.3856,0,0,1,424.6523,731.3291Z"/><path d="M432.2168,734.0537l-1.8867.1289-.0879-.082v-.7324h-.0352c-.0937.0976-.1992.2021-.3144.3134a2.2211,2.2211,0,0,1-.4043.3018,2.587,2.587,0,0,1-.51.24,2.2912,2.2912,0,0,1-.6953.0821,1.4074,1.4074,0,0,1-1.168-.501,2.2911,2.2911,0,0,1-.4-1.4541v-2.7627a.7011.7011,0,0,0-.08-.3535.72.72,0,0,0-.2325-.249.7329.7329,0,0,0-.2656-.1026,2.4937,2.4937,0,0,0-.3359-.0439v-.3868l1.9277-.1406.0879.0821v4.0136a1.382,1.382,0,0,0,.2813.9434.8717.8717,0,0,0,.6738.3164,1.5526,1.5526,0,0,0,.5742-.1,1.6241,1.6241,0,0,0,.4219-.2334,2.0508,2.0508,0,0,0,.2793-.2608,1.4833,1.4833,0,0,0,.1836-.2548v-3.2715a.6966.6966,0,0,0-.0821-.3418.7658.7658,0,0,0-.2285-.2549.65.65,0,0,0-.3125-.085c-.1386-.01-.2949-.0185-.4668-.0263v-.3868l2.1035-.1406.0879.0821v4.583a.6631.6631,0,0,0,.0821.34.7386.7386,0,0,0,.2285.2393.6511.6511,0,0,0,.2519.0849,3.0651,3.0651,0,0,0,.3223.0264Z"/><path d="M436.74,731.3291a1.476,1.476,0,0,1,.3692.4863,1.5835,1.5835,0,0,1,.1289.6739,1.6421,1.6421,0,0,1-.6,1.3125,2.5679,2.5679,0,0,1-2.4844.3281,2.5664,2.5664,0,0,1-.6074-.334l-.1172.3809h-.44l-.0586-2.01h.4043a2.2462,2.2462,0,0,0,.1993.5351,2.5755,2.5755,0,0,0,.3691.5528,2.0263,2.0263,0,0,0,.5488.4346,1.45,1.45,0,0,0,.7168.1767,1.3058,1.3058,0,0,0,.8672-.2568.9033.9033,0,0,0,.3047-.7334.8806.8806,0,0,0-.0957-.4248.9388.9388,0,0,0-.2852-.3135,2.24,2.24,0,0,0-.4746-.2432q-.2812-.1083-.6269-.2138a5.824,5.824,0,0,1-.6114-.2256,2.4489,2.4489,0,0,1-.5781-.3369,1.6528,1.6528,0,0,1-.4219-.5039,1.44,1.44,0,0,1-.164-.7032,1.5808,1.5808,0,0,1,.5273-1.2011,1.9863,1.9863,0,0,1,1.4121-.4922,2.8875,2.8875,0,0,1,.6954.0879,2.3938,2.3938,0,0,1,.5761.2109l.1348-.3047h.4219l.0879,1.8574h-.4043a1.868,1.868,0,0,0-.5293-1.0146,1.3792,1.3792,0,0,0-.9942-.3916,1.1062,1.1062,0,0,0-.7558.2422.7509.7509,0,0,0-.2754.584.95.95,0,0,0,.0918.4394.8052.8052,0,0,0,.2715.2988,2.28,2.28,0,0,0,.4433.22c.1777.0683.3965.1455.6582.2314a5.6751,5.6751,0,0,1,.7305.2871A2.3856,2.3856,0,0,1,436.74,731.3291Z"/><path d="M447.334,734.0537l-2.0215.1289-.0879-.082v-.5391l-.0469-.0117a2.395,2.395,0,0,1-.7519.5566,2.0917,2.0917,0,0,1-.9219.2168,2.1716,2.1716,0,0,1-.9492-.22,2.4,2.4,0,0,1-.7988-.6181,3.0526,3.0526,0,0,1-.5469-.9727,3.7185,3.7185,0,0,1-.2031-1.2539,3.2772,3.2772,0,0,1,.2168-1.1895,3.1343,3.1343,0,0,1,.5976-.9843,2.6111,2.6111,0,0,1,.875-.627,2.5321,2.5321,0,0,1,1.0547-.2344,3.0982,3.0982,0,0,1,.793.1026,2.8331,2.8331,0,0,1,.67.2607v-2.0137a1.1888,1.1888,0,0,0-.082-.4492.6833.6833,0,0,0-.2286-.3076,1.14,1.14,0,0,0-.4414-.1621,5.8224,5.8224,0,0,0-.6015-.0732v-.3633l2.3672-.1289.0879.0879v7.788a.71.71,0,0,0,.08.3477.6834.6834,0,0,0,.2305.2432.7245.7245,0,0,0,.3223.0879q.2109.0176.3867.0234Zm-2.1211-1.0137v-3.3808a1.5073,1.5073,0,0,0-.1524-.3281,1.4551,1.4551,0,0,0-.2617-.3223,1.5007,1.5007,0,0,0-.3984-.2432,1.3584,1.3584,0,0,0-.5313-.0967,1.2059,1.2059,0,0,0-.6464.1817,1.7269,1.7269,0,0,0-.5235.5215,2.6871,2.6871,0,0,0-.3418.8349,4.65,4.65,0,0,0-.1269,1.1221,3.9353,3.9353,0,0,0,.0937.8936,2.3621,2.3621,0,0,0,.3164.747,1.6267,1.6267,0,0,0,.5235.5274,1.4009,1.4009,0,0,0,.7578.1992,1.3657,1.3657,0,0,0,.7734-.2051A2.5022,2.5022,0,0,0,445.2129,733.04Z"/><path d="M453.0293,732.8a2.96,2.96,0,0,1-.9727,1.1016,2.4489,2.4489,0,0,1-1.4.41,2.8431,2.8431,0,0,1-1.2207-.2461,2.4021,2.4021,0,0,1-.8652-.6679,2.8363,2.8363,0,0,1-.5058-.9844,4.1562,4.1562,0,0,1-.168-1.1895,3.5055,3.5055,0,0,1,.18-1.1045,3.1114,3.1114,0,0,1,.5234-.9755,2.5408,2.5408,0,0,1,.83-.6709,2.3851,2.3851,0,0,1,1.1094-.2549,2.6724,2.6724,0,0,1,1.0839.1992,1.9288,1.9288,0,0,1,.7325.5449,2.1777,2.1777,0,0,1,.4023.7735,3.3921,3.3921,0,0,1,.1309.9667v.3868h-3.8262a4.5507,4.5507,0,0,0,.1094,1.0341,2.4852,2.4852,0,0,0,.3418.8165,1.6334,1.6334,0,0,0,.5976.5371,1.8485,1.8485,0,0,0,.8789.1963,1.6139,1.6139,0,0,0,.9-.2452,2.4063,2.4063,0,0,0,.7285-.88Zm-1.2949-2.2031a4.7712,4.7712,0,0,0-.0547-.7012,2.142,2.142,0,0,0-.18-.625,1.1959,1.1959,0,0,0-.3691-.4385,1.01,1.01,0,0,0-.6036-.1689,1.2561,1.2561,0,0,0-1.0214.5107,2.385,2.385,0,0,0-.4434,1.4229Z"/><path d="M385.293,748.4541l-2.0215.1289-.0879-.082v-.5391l-.0469-.0117a2.4065,2.4065,0,0,1-.7519.5566,2.092,2.092,0,0,1-.9219.2168,2.18,2.18,0,0,1-.9512-.22,2.4011,2.4011,0,0,1-.7988-.6182,3.07,3.07,0,0,1-.5469-.9726,3.7188,3.7188,0,0,1-.2012-1.2539,3.2979,3.2979,0,0,1,.2159-1.19,3.1319,3.1319,0,0,1,.5966-.9843,2.63,2.63,0,0,1,.875-.627,2.5391,2.5391,0,0,1,1.0567-.2344,3.1039,3.1039,0,0,1,.793.1026,2.85,2.85,0,0,1,.67.2607v-2.0137a1.1869,1.1869,0,0,0-.0821-.4492.6819.6819,0,0,0-.2285-.3076,1.151,1.151,0,0,0-.4433-.1621,5.8132,5.8132,0,0,0-.6-.0733v-.3632l2.3671-.1289.0879.0878v7.7881a.7083.7083,0,0,0,.0782.3477.6892.6892,0,0,0,.2324.2432.7232.7232,0,0,0,.3222.0878q.2111.0177.3868.0235Zm-2.1211-1.0137V744.06a1.5148,1.5148,0,0,0-.1524-.3282,1.4691,1.4691,0,0,0-.2636-.3222,1.4953,1.4953,0,0,0-.3975-.2432,1.353,1.353,0,0,0-.5322-.0967,1.2109,1.2109,0,0,0-.6465.1817,1.7381,1.7381,0,0,0-.5235.5215,2.709,2.709,0,0,0-.3417.8349,4.6536,4.6536,0,0,0-.125,1.1221,3.9338,3.9338,0,0,0,.0937.8935,2.3561,2.3561,0,0,0,.3145.7471,1.6372,1.6372,0,0,0,.5234.5274,1.4009,1.4009,0,0,0,.7578.1992,1.368,1.368,0,0,0,.7754-.2051A2.5311,2.5311,0,0,0,383.1719,747.44Z"/><path d="M390.9883,747.2a2.96,2.96,0,0,1-.9727,1.1016,2.4489,2.4489,0,0,1-1.4.41,2.8516,2.8516,0,0,1-1.2226-.2461,2.3952,2.3952,0,0,1-.8633-.6679,2.8383,2.8383,0,0,1-.5078-.9844,4.1594,4.1594,0,0,1-.166-1.1895,3.5061,3.5061,0,0,1,.1777-1.1045,3.1179,3.1179,0,0,1,.5254-.9756,2.5347,2.5347,0,0,1,.8281-.6709,2.3944,2.3944,0,0,1,1.1113-.2548,2.6729,2.6729,0,0,1,1.084.1992,1.9288,1.9288,0,0,1,.7325.5449,2.1745,2.1745,0,0,1,.4.7734,3.3924,3.3924,0,0,1,.1329.9668v.3868h-3.8262a4.5563,4.5563,0,0,0,.1074,1.0341,2.4885,2.4885,0,0,0,.3438.8164,1.6328,1.6328,0,0,0,.5976.5372,1.8485,1.8485,0,0,0,.8789.1962,1.6077,1.6077,0,0,0,.8985-.2451,2.409,2.409,0,0,0,.73-.88Zm-1.2949-2.2031a4.7867,4.7867,0,0,0-.0567-.7012,2.1447,2.1447,0,0,0-.1777-.625,1.1961,1.1961,0,0,0-.3692-.4385,1.01,1.01,0,0,0-.6035-.1689,1.26,1.26,0,0,0-1.0234.5107,2.3844,2.3844,0,0,0-.4414,1.4229Zm.205-4.9922a.6017.6017,0,0,1-.1035.3633,1.605,1.605,0,0,1-.3008.2988q-.2929.2343-.7656.5976t-1.0156.7911l-.2227-.1875q.5274-.7794.7344-1.0987c.1387-.2129.2891-.4482.4492-.706a1.2431,1.2431,0,0,1,.3516-.4073.7145.7145,0,0,1,.3926-.1083.4755.4755,0,0,1,.48.457Z"/><path d="M397.3633,743.14a1.4584,1.4584,0,0,0-.502.1905,1.1234,1.1234,0,0,0-.4062.5068q-.3458.7853-.7149,1.6377t-.7675,1.79c-.0782.18-.1622.3926-.25.6387s-.168.4824-.2422.709h-.4571q-.5566-1.377-1.0254-2.5107t-.9726-2.3233a.8761.8761,0,0,0-.3789-.4189,1.5209,1.5209,0,0,0-.5235-.1905v-.3867h2.6739v.41a2.128,2.128,0,0,0-.44.0732c-.1758.0449-.2636.1065-.2636.1836a.38.38,0,0,0,.0292.0918c.02.0488.0391.1035.0586.166q.2388.5978.6778,1.668.4365,1.0722.7129,1.7266.2109-.5025.5293-1.252t.6894-1.6738q.0587-.1582.1113-.2959a.772.772,0,0,0,.0528-.2783.2284.2284,0,0,0-.0977-.1778.9751.9751,0,0,0-.23-.1377,1.5048,1.5048,0,0,0-.2637-.0879q-.129-.0293-.211-.041v-.375h2.211Z"/><path d="M402.748,747.2a2.9593,2.9593,0,0,1-.9726,1.1016,2.4494,2.4494,0,0,1-1.4.41,2.8524,2.8524,0,0,1-1.2227-.2461,2.394,2.394,0,0,1-.8632-.6679,2.84,2.84,0,0,1-.5079-.9844,4.1594,4.1594,0,0,1-.166-1.1895,3.5034,3.5034,0,0,1,.1778-1.1045,3.1179,3.1179,0,0,1,.5254-.9756,2.5347,2.5347,0,0,1,.8281-.6709,2.3944,2.3944,0,0,1,1.1113-.2548,2.6729,2.6729,0,0,1,1.084.1992,1.9284,1.9284,0,0,1,.7324.5449,2.1747,2.1747,0,0,1,.4.7734,3.3925,3.3925,0,0,1,.1328.9668v.3868h-3.8262a4.5561,4.5561,0,0,0,.1075,1.0341,2.4884,2.4884,0,0,0,.3437.8164,1.6338,1.6338,0,0,0,.5977.5372,1.8482,1.8482,0,0,0,.8789.1962,1.6073,1.6073,0,0,0,.8984-.2451,2.4091,2.4091,0,0,0,.7305-.88Zm-1.2949-2.2031a4.7859,4.7859,0,0,0-.0566-.7012,2.1447,2.1447,0,0,0-.1777-.625,1.1961,1.1961,0,0,0-.3692-.4385,1.01,1.01,0,0,0-.6035-.1689,1.26,1.26,0,0,0-1.0234.5107,2.3851,2.3851,0,0,0-.4415,1.4229Z"/><path d="M406.123,748.56h-2.8183v-.3867q.1347-.0119.2871-.0264a1.38,1.38,0,0,0,.252-.044.4336.4336,0,0,0,.246-.1845.6445.6445,0,0,0,.0821-.3438v-6.6953a.89.89,0,0,0-.0918-.3965.7634.7634,0,0,0-.2363-.29,1.2041,1.2041,0,0,0-.3868-.1289,3.51,3.51,0,0,0-.4511-.07v-.375l2.1738-.1289.082.0878v7.9278a.6667.6667,0,0,0,.0762.3369.4854.4854,0,0,0,.2461.2021,1.347,1.347,0,0,0,.2539.0879,1.8878,1.8878,0,0,0,.2851.0411Z"/><path d="M412.4863,745.6123a3.8172,3.8172,0,0,1-.1933,1.1982,2.859,2.859,0,0,1-.5528.9991,2.5626,2.5626,0,0,1-.9375.6972,3.01,3.01,0,0,1-1.1972.2286,2.6945,2.6945,0,0,1-1.0489-.2081,2.6392,2.6392,0,0,1-.8867-.6064,2.9186,2.9186,0,0,1-.6074-.958,3.3976,3.3976,0,0,1-.2246-1.2686,3.1449,3.1449,0,0,1,.7891-2.2148,2.8876,2.8876,0,0,1,4.07-.044A3.0045,3.0045,0,0,1,412.4863,745.6123Zm-1.2129.0117a5.26,5.26,0,0,0-.0879-.9287,2.9645,2.9645,0,0,0-.2646-.8291,1.6316,1.6316,0,0,0-.4932-.583,1.2421,1.2421,0,0,0-.7461-.22,1.3163,1.3163,0,0,0-.7714.2226,1.6446,1.6446,0,0,0-.52.6094,2.6944,2.6944,0,0,0-.2636.8145,5.3776,5.3776,0,0,0-.0762.8847,5.5814,5.5814,0,0,0,.09,1.04,3.0057,3.0057,0,0,0,.291.8525,1.6615,1.6615,0,0,0,.502.5889,1.2624,1.2624,0,0,0,.748.2138,1.3047,1.3047,0,0,0,1.1622-.7089A3.7781,3.7781,0,0,0,411.2734,745.624Z"/><path d="M418.5977,743.4678a3.007,3.007,0,0,1,.5351.9521,3.7264,3.7264,0,0,1,.1914,1.2393,3.3109,3.3109,0,0,1-.2285,1.251,3.0625,3.0625,0,0,1-.6035.9638,2.8393,2.8393,0,0,1-.8731.6211,2.4506,2.4506,0,0,1-1.0195.2168,2.6247,2.6247,0,0,1-.8555-.1172,2.0226,2.0226,0,0,1-.5449-.2754h-.0469v1.7383a.69.69,0,0,0,.0821.3526.4742.4742,0,0,0,.2519.205,2.56,2.56,0,0,0,.4.1036,2.9288,2.9288,0,0,0,.4317.0556v.3867H413.09v-.3867q.1816-.0117.3516-.0293a1.6178,1.6178,0,0,0,.3047-.0586.3961.3961,0,0,0,.2461-.2051.7905.7905,0,0,0,.07-.3457v-6.1464a.7109.7109,0,0,0-.0879-.34.7521.7521,0,0,0-.2285-.2637.8314.8314,0,0,0-.293-.1084,2.7722,2.7722,0,0,0-.3633-.05v-.3867l1.9688-.1289.082.07v.65l.0469.0117a2.5292,2.5292,0,0,1,.7559-.5859,1.9307,1.9307,0,0,1,.8964-.2344,2.1388,2.1388,0,0,1,.9864.2285A2.4348,2.4348,0,0,1,418.5977,743.4678Zm-.9551,4.1543a2.6443,2.6443,0,0,0,.3457-.8438,4.76,4.76,0,0,0,.1113-1.0722,4.342,4.342,0,0,0-.0937-.8848,2.5258,2.5258,0,0,0-.293-.7852,1.6389,1.6389,0,0,0-.5215-.5507,1.38,1.38,0,0,0-.7734-.211,1.3661,1.3661,0,0,0-.7383.19,2.2394,2.2394,0,0,0-.5274.4541v3.4161a1.2694,1.2694,0,0,0,.1719.3281,1.5478,1.5478,0,0,0,.2676.293,1.6879,1.6879,0,0,0,.3926.2373,1.3037,1.3037,0,0,0,.5156.0908,1.2647,1.2647,0,0,0,.6328-.1729A1.4677,1.4677,0,0,0,417.6426,747.6221Z"/><path d="M425.4531,743.4678a3.0073,3.0073,0,0,1,.5352.9521,3.729,3.729,0,0,1,.1914,1.2393,3.3109,3.3109,0,0,1-.2285,1.251,3.0642,3.0642,0,0,1-.6035.9638,2.8417,2.8417,0,0,1-.8731.6211,2.4506,2.4506,0,0,1-1.0195.2168,2.6242,2.6242,0,0,1-.8555-.1172,2.0226,2.0226,0,0,1-.5449-.2754h-.0469v1.7383a.6912.6912,0,0,0,.082.3526.4744.4744,0,0,0,.252.205,2.5565,2.5565,0,0,0,.4.1036,2.9277,2.9277,0,0,0,.4316.0556v.3867h-3.2285v-.3867q.1816-.0117.3516-.0293a1.6178,1.6178,0,0,0,.3047-.0586.3961.3961,0,0,0,.2461-.2051.792.792,0,0,0,.07-.3457v-6.1464a.7109.7109,0,0,0-.0879-.34.7521.7521,0,0,0-.2285-.2637.8321.8321,0,0,0-.293-.1084,2.7722,2.7722,0,0,0-.3633-.05v-.3867l1.9688-.1289.082.07v.65l.0469.0117a2.5287,2.5287,0,0,1,.7558-.5859,1.9311,1.9311,0,0,1,.8965-.2344,2.1381,2.1381,0,0,1,.9863.2285A2.4326,2.4326,0,0,1,425.4531,743.4678Zm-.9551,4.1543a2.6444,2.6444,0,0,0,.3458-.8438,4.76,4.76,0,0,0,.1113-1.0722,4.3423,4.3423,0,0,0-.0938-.8848,2.5257,2.5257,0,0,0-.2929-.7852,1.64,1.64,0,0,0-.5215-.5507,1.3805,1.3805,0,0,0-.7735-.211,1.366,1.366,0,0,0-.7382.19,2.2354,2.2354,0,0,0-.5274.4541v3.4161a1.2694,1.2694,0,0,0,.1719.3281,1.5478,1.5478,0,0,0,.2676.293,1.6873,1.6873,0,0,0,.3925.2373,1.3043,1.3043,0,0,0,.5157.0908,1.265,1.265,0,0,0,.6328-.1729A1.4674,1.4674,0,0,0,424.498,747.6221Z"/><path d="M432.1621,747.2a2.96,2.96,0,0,1-.9726,1.1016,2.4494,2.4494,0,0,1-1.4.41,2.8518,2.8518,0,0,1-1.2227-.2461,2.3952,2.3952,0,0,1-.8633-.6679,2.84,2.84,0,0,1-.5078-.9844,4.1594,4.1594,0,0,1-.166-1.1895,3.5061,3.5061,0,0,1,.1777-1.1045,3.122,3.122,0,0,1,.5254-.9756,2.5368,2.5368,0,0,1,.8281-.6709,2.3945,2.3945,0,0,1,1.1114-.2548,2.6729,2.6729,0,0,1,1.084.1992,1.9292,1.9292,0,0,1,.7324.5449,2.1747,2.1747,0,0,1,.4.7734,3.3925,3.3925,0,0,1,.1328.9668v.3868h-3.8262a4.562,4.562,0,0,0,.1074,1.0341,2.4885,2.4885,0,0,0,.3438.8164,1.6328,1.6328,0,0,0,.5976.5372,1.8485,1.8485,0,0,0,.8789.1962,1.6077,1.6077,0,0,0,.8985-.2451,2.41,2.41,0,0,0,.7305-.88Zm-1.2949-2.2031a4.7729,4.7729,0,0,0-.0567-.7012,2.1447,2.1447,0,0,0-.1777-.625,1.1959,1.1959,0,0,0-.3691-.4385,1.01,1.01,0,0,0-.6035-.1689,1.26,1.26,0,0,0-1.0235.5107,2.3851,2.3851,0,0,0-.4414,1.4229Z"/><path d="M442.7148,748.56h-2.8125v-.3867c.09-.0079.18-.0157.2715-.0235a1.0589,1.0589,0,0,0,.2442-.0469.4192.4192,0,0,0,.2422-.1845.66.66,0,0,0,.08-.3428v-2.9824a1.4217,1.4217,0,0,0-.2793-.9405.8688.8688,0,0,0-.6933-.331,1.6254,1.6254,0,0,0-.5391.0879,1.6982,1.6982,0,0,0-.4629.2461,1.4836,1.4836,0,0,0-.2851.2783,2.58,2.58,0,0,0-.1719.249v3.334a.7123.7123,0,0,0,.07.3369.4562.4562,0,0,0,.24.2022,1.9362,1.9362,0,0,0,.2422.0791,1.7653,1.7653,0,0,0,.2852.0381v.3867h-2.7539v-.3867c.09-.0079.1758-.0157.26-.0235a1.0384,1.0384,0,0,0,.2325-.0469.4192.4192,0,0,0,.2422-.1845.66.66,0,0,0,.08-.3428v-2.9824a1.4217,1.4217,0,0,0-.2793-.9405.8725.8725,0,0,0-.6953-.331,1.5823,1.5823,0,0,0-.541.0908,1.8082,1.8082,0,0,0-.4648.249,1.3928,1.3928,0,0,0-.2871.29q-.1173.1611-.1758.2431v3.3106a.6319.6319,0,0,0,.082.334.5147.5147,0,0,0,.2461.205,1.2014,1.2014,0,0,0,.252.0879,1.9512,1.9512,0,0,0,.2871.0411v.3867h-2.8067v-.3867c.09-.0079.1817-.0157.2774-.0235a1.0725,1.0725,0,0,0,.25-.0469.4192.4192,0,0,0,.2422-.1845.6561.6561,0,0,0,.08-.3418v-3.5879a.6673.6673,0,0,0-.0859-.336.7629.7629,0,0,0-.2363-.2548,1,1,0,0,0-.2754-.1143,1.771,1.771,0,0,0-.34-.0557v-.3867l1.9336-.1289.0821.082v.8262h.041q.1464-.1464.3574-.3457a3.1969,3.1969,0,0,1,.3926-.3223,1.86,1.86,0,0,1,.5117-.2343,2.2776,2.2776,0,0,1,.666-.0938,1.57,1.57,0,0,1,.9668.3018,1.72,1.72,0,0,1,.58.73c.1406-.1367.2636-.2569.3711-.36a3.0617,3.0617,0,0,1,.4238-.331,1.9366,1.9366,0,0,1,.5234-.2461,2.2489,2.2489,0,0,1,.67-.0938,1.4708,1.4708,0,0,1,1.1582.4805,2.1714,2.1714,0,0,1,.4277,1.4766v2.9355a.7123.7123,0,0,0,.07.3369.4562.4562,0,0,0,.24.2022,1.5836,1.5836,0,0,0,.2657.0791,2.4334,2.4334,0,0,0,.2968.0381Z"/><path d="M448.5332,747.2a2.96,2.96,0,0,1-.9727,1.1016,2.4488,2.4488,0,0,1-1.4.41,2.8518,2.8518,0,0,1-1.2227-.2461,2.3952,2.3952,0,0,1-.8633-.6679,2.84,2.84,0,0,1-.5078-.9844,4.1594,4.1594,0,0,1-.166-1.1895,3.5061,3.5061,0,0,1,.1777-1.1045,3.12,3.12,0,0,1,.5254-.9756,2.5368,2.5368,0,0,1,.8281-.6709,2.3945,2.3945,0,0,1,1.1114-.2548,2.6732,2.6732,0,0,1,1.084.1992,1.9292,1.9292,0,0,1,.7324.5449,2.1747,2.1747,0,0,1,.4.7734,3.3925,3.3925,0,0,1,.1328.9668v.3868h-3.8262a4.562,4.562,0,0,0,.1074,1.0341,2.4885,2.4885,0,0,0,.3438.8164,1.6328,1.6328,0,0,0,.5976.5372,1.8485,1.8485,0,0,0,.8789.1962,1.6077,1.6077,0,0,0,.8985-.2451,2.409,2.409,0,0,0,.73-.88Zm-1.2949-2.2031a4.7729,4.7729,0,0,0-.0567-.7012,2.1447,2.1447,0,0,0-.1777-.625,1.1959,1.1959,0,0,0-.3691-.4385,1.01,1.01,0,0,0-.6036-.1689,1.26,1.26,0,0,0-1.0234.5107,2.3844,2.3844,0,0,0-.4414,1.4229Z"/><path d="M455.582,748.56h-2.8242v-.3867c.09-.0079.1875-.0157.2949-.0235a1.1185,1.1185,0,0,0,.2676-.0469.4186.4186,0,0,0,.2422-.1845.66.66,0,0,0,.08-.3428v-2.9707a1.4041,1.4041,0,0,0-.291-.9492.9035.9035,0,0,0-.7071-.334,1.6093,1.6093,0,0,0-.57.0967,2.0257,2.0257,0,0,0-.459.2373,1.3425,1.3425,0,0,0-.3086.29,2.5932,2.5932,0,0,0-.166.249v3.3223a.6008.6008,0,0,0,.0821.3281.5258.5258,0,0,0,.2461.1992,1.1426,1.1426,0,0,0,.2656.0879,2.4184,2.4184,0,0,0,.2968.0411v.3867h-2.83v-.3867c.09-.0079.1816-.0157.2773-.0235a1.0715,1.0715,0,0,0,.25-.0469.4186.4186,0,0,0,.2422-.1845.6561.6561,0,0,0,.08-.3418v-3.5645a.7916.7916,0,0,0-.086-.3652.724.724,0,0,0-.2363-.2725.7989.7989,0,0,0-.2637-.1025,2.3473,2.3473,0,0,0-.3281-.044v-.3867l1.9219-.1289.082.082v.8145h.0293q.1407-.1407.3516-.3369a3.0626,3.0626,0,0,1,.3984-.3194,2.1012,2.1012,0,0,1,.5156-.2343,2.2482,2.2482,0,0,1,.6739-.0938,1.46,1.46,0,0,1,1.2324.5186,2.1947,2.1947,0,0,1,.4023,1.38v3.0058a.6771.6771,0,0,0,.07.3311.4643.4643,0,0,0,.24.1963,1.5406,1.5406,0,0,0,.2422.082,1.9168,1.9168,0,0,0,.2851.0352Z"/><path d="M459.8594,748.3076q-.3808.1583-.7207.2666a2.7649,2.7649,0,0,1-.8321.1084,1.249,1.249,0,0,1-1.0234-.3662,1.606,1.606,0,0,1-.2949-1.0342v-3.914h-1.043v-.5625h1.0664v-1.7989h1.0664v1.7989h1.6582v.5625H458.09v3.2285a5.84,5.84,0,0,0,.0254.6064,1.1291,1.1291,0,0,0,.127.4248.6029.6029,0,0,0,.2812.2578,1.2027,1.2027,0,0,0,.5039.0879c.0977,0,.24-.0088.43-.0263a1.9123,1.9123,0,0,0,.4024-.0674Z"/><path d="M395.6074,762.8535l-2.02.1289-.0889-.082v-.5391l-.0468-.0117a2.3852,2.3852,0,0,1-.752.5566,2.0872,2.0872,0,0,1-.9209.2168,2.175,2.175,0,0,1-.95-.2187,2.3951,2.3951,0,0,1-.7988-.6191,3.0545,3.0545,0,0,1-.5479-.9727,3.7462,3.7462,0,0,1-.2021-1.2539,3.2793,3.2793,0,0,1,.2168-1.1895,3.1327,3.1327,0,0,1,.5977-.9843,2.6261,2.6261,0,0,1,.874-.627,2.5358,2.5358,0,0,1,1.0556-.2344,3.0986,3.0986,0,0,1,.793.1036,2.8317,2.8317,0,0,1,.67.26V755.373a1.1905,1.1905,0,0,0-.082-.4492.6839.6839,0,0,0-.2285-.3076,1.1419,1.1419,0,0,0-.4414-.1611,5.8147,5.8147,0,0,0-.6016-.0742v-.3633l2.3672-.1289.0879.0879v7.788a.7124.7124,0,0,0,.08.3487.68.68,0,0,0,.23.2422.7253.7253,0,0,0,.3223.0879q.2109.0176.3867.0234Zm-2.1211-1.0137V758.459a1.5474,1.5474,0,0,0-.1513-.3281,1.3005,1.3005,0,0,0-.6612-.5645,1.3558,1.3558,0,0,0-.5322-.0976,1.2074,1.2074,0,0,0-.6455.1816,1.7145,1.7145,0,0,0-.5234.5215,2.6911,2.6911,0,0,0-.3428.8359,4.6945,4.6945,0,0,0-.126,1.1211,3.9426,3.9426,0,0,0,.0938.8945,2.3541,2.3541,0,0,0,.3164.7461,1.6264,1.6264,0,0,0,.5234.5274,1.3974,1.3974,0,0,0,.7568.1992,1.365,1.365,0,0,0,.7745-.2051A2.4784,2.4784,0,0,0,393.4863,761.84Z"/><path d="M401.3027,761.6a2.96,2.96,0,0,1-.9726,1.1016,2.4494,2.4494,0,0,1-1.4.41,2.8425,2.8425,0,0,1-1.2207-.2461,2.4012,2.4012,0,0,1-.8652-.6679,2.8348,2.8348,0,0,1-.5059-.9844,4.16,4.16,0,0,1-.168-1.1895,3.5018,3.5018,0,0,1,.18-1.1035,3.12,3.12,0,0,1,.5234-.9765,2.54,2.54,0,0,1,.83-.67,2.3867,2.3867,0,0,1,1.1094-.2558,2.6729,2.6729,0,0,1,1.084.1992,1.9284,1.9284,0,0,1,.7324.5449,2.1761,2.1761,0,0,1,.4023.7735,3.3923,3.3923,0,0,1,.1309.9668v.3867h-3.8262a4.5466,4.5466,0,0,0,.1094,1.0342,2.4808,2.4808,0,0,0,.3418.8164,1.6257,1.6257,0,0,0,.5977.5371,1.8365,1.8365,0,0,0,.8789.1963,1.622,1.622,0,0,0,.9-.2442,2.4129,2.4129,0,0,0,.7285-.8808Zm-1.2949-2.2031a4.7816,4.7816,0,0,0-.0547-.7012,2.1575,2.1575,0,0,0-.18-.625,1.2007,1.2007,0,0,0-.3691-.4375,1.0031,1.0031,0,0,0-.6035-.17,1.2545,1.2545,0,0,0-1.0215.5117,2.38,2.38,0,0,0-.4434,1.4219Z"/><path d="M414.75,762.959h-2.8125v-.3867l.2734-.0235a1.0463,1.0463,0,0,0,.2422-.0468.4229.4229,0,0,0,.2442-.1836.6643.6643,0,0,0,.0781-.3438v-2.9824a1.4186,1.4186,0,0,0-.2774-.94.8735.8735,0,0,0-.6953-.332,1.6244,1.6244,0,0,0-.539.0879,1.6982,1.6982,0,0,0-.4629.2461,1.4781,1.4781,0,0,0-.2832.2793,2.6427,2.6427,0,0,0-.1738.248v3.334a.7166.7166,0,0,0,.07.3379.4539.4539,0,0,0,.24.2012,1.9687,1.9687,0,0,0,.2441.08,1.7419,1.7419,0,0,0,.2832.0371v.3867h-2.7539v-.3867c.09-.0078.1778-.0157.2618-.0235a1.0262,1.0262,0,0,0,.23-.0468.4229.4229,0,0,0,.2442-.1836.6643.6643,0,0,0,.0781-.3438v-2.9824a1.4085,1.4085,0,0,0-.2793-.94.8738.8738,0,0,0-.6953-.332,1.5943,1.5943,0,0,0-.541.0918,1.76,1.76,0,0,0-.4629.248,1.4,1.4,0,0,0-.2881.2911c-.0791.1074-.1377.1875-.1768.2422v3.3105a.6319.6319,0,0,0,.0821.334.515.515,0,0,0,.2461.2051,1.2079,1.2079,0,0,0,.2519.0878,1.9379,1.9379,0,0,0,.2871.0411v.3867h-2.8066v-.3867c.09-.0078.1836-.0157.2793-.0235a1.0587,1.0587,0,0,0,.248-.0468.4229.4229,0,0,0,.2442-.1836.659.659,0,0,0,.0781-.3418v-3.5879a.6692.6692,0,0,0-.084-.3369.7761.7761,0,0,0-.2383-.2549.9977.9977,0,0,0-.2754-.1133,1.7617,1.7617,0,0,0-.34-.0566V757.24l1.9336-.1289.082.0821v.8261h.041q.1465-.1464.3574-.3457a3.1935,3.1935,0,0,1,.3926-.3222,1.8715,1.8715,0,0,1,.5137-.2344,2.2646,2.2646,0,0,1,.6641-.0938,1.5714,1.5714,0,0,1,.9668.3028,1.7163,1.7163,0,0,1,.58.7285c.1407-.1367.2647-.2559.3721-.3594a3.06,3.06,0,0,1,.4238-.332,1.9448,1.9448,0,0,1,.5244-.2461,2.2421,2.2421,0,0,1,.669-.0938,1.4707,1.4707,0,0,1,1.1582.4805,2.1761,2.1761,0,0,1,.4268,1.4766v2.9355a.7166.7166,0,0,0,.07.3379.4539.4539,0,0,0,.24.2012,1.606,1.606,0,0,0,.2676.08,2.3887,2.3887,0,0,0,.2949.0371Z"/><path d="M421.0723,760.0117a3.8235,3.8235,0,0,1-.1934,1.1992,2.8509,2.8509,0,0,1-.5508.9981,2.5615,2.5615,0,0,1-.9394.6972,3.0047,3.0047,0,0,1-1.1953.2286,2.699,2.699,0,0,1-1.0508-.2071,2.6436,2.6436,0,0,1-.8848-.6074,2.8818,2.8818,0,0,1-.6074-.957,3.4027,3.4027,0,0,1-.2266-1.2695,3.154,3.154,0,0,1,.7891-2.2149,2.8864,2.8864,0,0,1,4.07-.043A2.998,2.998,0,0,1,421.0723,760.0117Zm-1.2129.0117a5.2492,5.2492,0,0,0-.0879-.9277,2.9434,2.9434,0,0,0-.2637-.83,1.6183,1.6183,0,0,0-.4932-.582,1.2437,1.2437,0,0,0-.7451-.2207,1.32,1.32,0,0,0-.7724.2226,1.6446,1.6446,0,0,0-.52.6094,2.6978,2.6978,0,0,0-.2646.8145,5.3785,5.3785,0,0,0-.0762.8847,5.586,5.586,0,0,0,.0918,1.0411,2.9683,2.9683,0,0,0,.291.8515,1.6529,1.6529,0,0,0,.501.59,1.2659,1.2659,0,0,0,.749.2129,1.3079,1.3079,0,0,0,1.1621-.709A3.7882,3.7882,0,0,0,419.8594,760.0234Z"/><path d="M428.2324,762.8535l-2.0215.1289-.0879-.082v-.5391l-.0468-.0117a2.3966,2.3966,0,0,1-.752.5566,2.0893,2.0893,0,0,1-.92.2168,2.1761,2.1761,0,0,1-.9512-.2187,2.3951,2.3951,0,0,1-.7988-.6191,3.0545,3.0545,0,0,1-.5479-.9727,3.7462,3.7462,0,0,1-.2021-1.2539,3.2793,3.2793,0,0,1,.2168-1.1895,3.1327,3.1327,0,0,1,.5977-.9843,2.6261,2.6261,0,0,1,.874-.627,2.5392,2.5392,0,0,1,1.0556-.2344,3.0986,3.0986,0,0,1,.793.1036,2.8317,2.8317,0,0,1,.67.26V755.373a1.1905,1.1905,0,0,0-.082-.4492.6839.6839,0,0,0-.2285-.3076,1.1419,1.1419,0,0,0-.4414-.1611,5.8147,5.8147,0,0,0-.6016-.0742v-.3633l2.3672-.1289.0879.0879v7.788a.7124.7124,0,0,0,.08.3487.68.68,0,0,0,.23.2422.7253.7253,0,0,0,.3223.0879q.2109.0176.3867.0234Zm-2.1211-1.0137V758.459a1.5066,1.5066,0,0,0-.1523-.3281,1.458,1.458,0,0,0-.2617-.3223,1.4972,1.4972,0,0,0-.3985-.2422,1.3573,1.3573,0,0,0-.5312-.0976,1.2108,1.2108,0,0,0-.6465.1816,1.7145,1.7145,0,0,0-.5234.5215,2.6911,2.6911,0,0,0-.3428.8359,4.6945,4.6945,0,0,0-.126,1.1211,3.9426,3.9426,0,0,0,.0938.8945,2.3541,2.3541,0,0,0,.3164.7461,1.6264,1.6264,0,0,0,.5234.5274,1.4009,1.4009,0,0,0,.7578.1992,1.3658,1.3658,0,0,0,.7735-.2051A2.5042,2.5042,0,0,0,426.1113,761.84Z"/><path d="M434.9883,762.8535l-1.8867.1289-.0879-.082v-.7324h-.0352c-.0937.0976-.1992.2031-.3144.3144a2.2172,2.2172,0,0,1-.4043.3008,2.5814,2.5814,0,0,1-.51.24,2.2916,2.2916,0,0,1-.6953.0821,1.4068,1.4068,0,0,1-1.168-.5,2.2942,2.2942,0,0,1-.4-1.4551v-2.7617a.7048.7048,0,0,0-.08-.3545.6936.6936,0,0,0-.498-.3506,2.49,2.49,0,0,0-.3359-.0449v-.3867l1.9277-.1407.0879.0821v4.0136a1.3818,1.3818,0,0,0,.2812.9434.8717.8717,0,0,0,.6739.3164,1.5526,1.5526,0,0,0,.5742-.1,1.6241,1.6241,0,0,0,.4219-.2334,1.996,1.996,0,0,0,.2793-.2608,1.4817,1.4817,0,0,0,.1836-.2539v-3.2714a.7006.7006,0,0,0-.0821-.3428.7669.7669,0,0,0-.2285-.2549.6506.6506,0,0,0-.3125-.084c-.1387-.01-.2949-.02-.4668-.0273v-.3867l2.1035-.1407.0879.0821v4.5839a.663.663,0,0,0,.082.3389.7389.7389,0,0,0,.2286.2393.6533.6533,0,0,0,.2519.0859,3.0791,3.0791,0,0,0,.3223.0254Z"/><path d="M438.4043,762.959h-2.8184v-.3867c.09-.0078.1856-.0157.2871-.0254a1.379,1.379,0,0,0,.252-.0449.4334.4334,0,0,0,.2461-.1836.6445.6445,0,0,0,.082-.3438v-6.6963a.8838.8838,0,0,0-.09-.3955.77.77,0,0,0-.2383-.291,1.2048,1.2048,0,0,0-.3867-.1289,3.5089,3.5089,0,0,0-.4512-.07v-.375l2.1738-.1289.0821.0879v7.9277a.6717.6717,0,0,0,.0761.3379.4849.4849,0,0,0,.2461.2012,1.3736,1.3736,0,0,0,.2559.0878,1.8466,1.8466,0,0,0,.2832.0411Z"/><path d="M444.2637,761.6a2.96,2.96,0,0,1-.9727,1.1016,2.4489,2.4489,0,0,1-1.4.41,2.8428,2.8428,0,0,1-1.2207-.2461,2.4012,2.4012,0,0,1-.8652-.6679,2.8365,2.8365,0,0,1-.5059-.9844,4.16,4.16,0,0,1-.1679-1.1895,3.5017,3.5017,0,0,1,.18-1.1035,3.1187,3.1187,0,0,1,.5235-.9765,2.5386,2.5386,0,0,1,.83-.67,2.3863,2.3863,0,0,1,1.1093-.2558,2.6729,2.6729,0,0,1,1.084.1992,1.9284,1.9284,0,0,1,.7324.5449,2.1779,2.1779,0,0,1,.4024.7735,3.3924,3.3924,0,0,1,.1308.9668v.3867h-3.8261a4.5525,4.5525,0,0,0,.1093,1.0342,2.4808,2.4808,0,0,0,.3418.8164,1.6257,1.6257,0,0,0,.5977.5371,1.8368,1.8368,0,0,0,.8789.1963,1.6218,1.6218,0,0,0,.9-.2442,2.4119,2.4119,0,0,0,.7285-.8808Zm-1.2949-2.2031a4.7816,4.7816,0,0,0-.0547-.7012,2.1607,2.1607,0,0,0-.18-.625,1.201,1.201,0,0,0-.3692-.4375,1.0029,1.0029,0,0,0-.6035-.17,1.2547,1.2547,0,0,0-1.0215.5117,2.38,2.38,0,0,0-.4433,1.4219Z"/><path d="M448.7461,760.1289a1.4756,1.4756,0,0,1,.3691.4863,1.582,1.582,0,0,1,.1289.6739,1.6421,1.6421,0,0,1-.6,1.3125,2.5677,2.5677,0,0,1-2.4843.3281,2.5675,2.5675,0,0,1-.6075-.334l-.1172.3809h-.4394l-.0586-2.01h.4043a2.232,2.232,0,0,0,.1992.5352,2.5507,2.5507,0,0,0,.3692.5527,2.0292,2.0292,0,0,0,.5488.4355,1.46,1.46,0,0,0,.7168.1758,1.3108,1.3108,0,0,0,.8672-.2558.9068.9068,0,0,0,.3047-.7344.8766.8766,0,0,0-.0957-.4238.9417.9417,0,0,0-.2852-.3145,2.2405,2.2405,0,0,0-.4746-.2422c-.1875-.0723-.3965-.1445-.627-.2148a5.7906,5.7906,0,0,1-.6113-.2246,2.4486,2.4486,0,0,1-.5781-.3379,1.6528,1.6528,0,0,1-.4219-.5039,1.4388,1.4388,0,0,1-.1641-.7032,1.5806,1.5806,0,0,1,.5274-1.2011,1.9863,1.9863,0,0,1,1.4121-.4922,2.8861,2.8861,0,0,1,.6953.0879,2.3963,2.3963,0,0,1,.5762.2109l.1347-.3047h.4219l.0879,1.8574h-.4043a1.8666,1.8666,0,0,0-.5293-1.0146,1.3831,1.3831,0,0,0-.9941-.3916,1.1065,1.1065,0,0,0-.7559.2422.7524.7524,0,0,0-.2754.584.9517.9517,0,0,0,.0918.4394.806.806,0,0,0,.2715.2988,2.2737,2.2737,0,0,0,.4434.2207c.1777.0684.3965.1446.6582.2305a5.6736,5.6736,0,0,1,.73.2871A2.3843,2.3843,0,0,1,448.7461,760.1289Z"/><path d="M375.3672,777.3594H372.543v-.3867c.09-.0079.1875-.0157.2949-.0235a1.1194,1.1194,0,0,0,.2676-.0469.4192.4192,0,0,0,.2422-.1845.66.66,0,0,0,.08-.3428v-2.9707a1.4036,1.4036,0,0,0-.291-.9492.9038.9038,0,0,0-.708-.334,1.6072,1.6072,0,0,0-.5693.0967,2.0257,2.0257,0,0,0-.459.2373,1.2951,1.2951,0,0,0-.3076.29,2.422,2.422,0,0,0-.167.249v3.3223a.6008.6008,0,0,0,.082.3281.5271.5271,0,0,0,.2461.1993,1.1472,1.1472,0,0,0,.2656.0878,2.4174,2.4174,0,0,0,.2969.0411v.3867h-2.83v-.3867c.09-.0079.1817-.0157.2774-.0235a1.0715,1.0715,0,0,0,.25-.0469.4182.4182,0,0,0,.2422-.1835.6625.6625,0,0,0,.08-.3428v-3.5645a.7969.7969,0,0,0-.0859-.3662.7218.7218,0,0,0-.2363-.2715.8011.8011,0,0,0-.2637-.1025,2.3494,2.3494,0,0,0-.3281-.044v-.3867l1.9219-.1289.082.0821v.8144h.0293q.1406-.1405.3515-.3369a3.06,3.06,0,0,1,.3985-.3193,2.0959,2.0959,0,0,1,.5156-.2344,2.247,2.247,0,0,1,.6738-.0938,1.46,1.46,0,0,1,1.2325.5186,2.1953,2.1953,0,0,1,.4023,1.38v3.0058a.6772.6772,0,0,0,.07.3311.4651.4651,0,0,0,.24.1963,1.5475,1.5475,0,0,0,.2422.082,1.92,1.92,0,0,0,.2852.0352Z"/><path d="M382.27,777.2539l-1.8867.1289-.0879-.082v-.7324H380.26q-.1407.1464-.3164.3134a2.2453,2.2453,0,0,1-.4034.3018,2.5776,2.5776,0,0,1-.5088.24,2.3022,2.3022,0,0,1-.6962.0821,1.4087,1.4087,0,0,1-1.167-.5,2.282,2.282,0,0,1-.4-1.4551v-2.7627a.7291.7291,0,0,0-.08-.3545.7465.7465,0,0,0-.2324-.2481.757.757,0,0,0-.2656-.1025,2.5584,2.5584,0,0,0-.336-.0439v-.3868l1.9277-.1406.0879.0821v4.0136a1.382,1.382,0,0,0,.2813.9434.8717.8717,0,0,0,.6738.3164,1.5519,1.5519,0,0,0,.5742-.1,1.6549,1.6549,0,0,0,.4219-.2344,1.9675,1.9675,0,0,0,.2774-.26,1.51,1.51,0,0,0,.1855-.2548v-3.2715a.703.703,0,0,0-.082-.3428.7649.7649,0,0,0-.2285-.2539.6589.6589,0,0,0-.3145-.085c-.1387-.01-.293-.0185-.4648-.0263v-.3868l2.1025-.1406.0889.0821v4.583a.6619.6619,0,0,0,.082.3388.7425.7425,0,0,0,.2285.24.6526.6526,0,0,0,.252.0849,3.0608,3.0608,0,0,0,.3222.0264Z"/><path d="M392.8633,777.3594h-2.8125v-.3867c.09-.0079.18-.0157.2715-.0235a1.058,1.058,0,0,0,.2441-.0469.4186.4186,0,0,0,.2422-.1845.66.66,0,0,0,.08-.3428v-2.9824a1.4225,1.4225,0,0,0-.2793-.9405.869.869,0,0,0-.6934-.331,1.6244,1.6244,0,0,0-.539.0879,1.6982,1.6982,0,0,0-.4629.2461,1.4872,1.4872,0,0,0-.2852.2783,2.58,2.58,0,0,0-.1719.249v3.334a.7135.7135,0,0,0,.07.3369.456.456,0,0,0,.24.2022,1.9256,1.9256,0,0,0,.2422.0791,1.7622,1.7622,0,0,0,.2851.0381v.3867H386.541v-.3867c.09-.0079.1758-.0157.26-.0235a1.0375,1.0375,0,0,0,.2324-.0469.4186.4186,0,0,0,.2422-.1845.66.66,0,0,0,.08-.3428v-2.9824a1.4225,1.4225,0,0,0-.2793-.9405.8733.8733,0,0,0-.6963-.331,1.5808,1.5808,0,0,0-.54.0908,1.7951,1.7951,0,0,0-.4648.249,1.3928,1.3928,0,0,0-.2871.29q-.1172.1611-.1758.2431v3.3106a.6328.6328,0,0,0,.082.334.5159.5159,0,0,0,.2461.2051,1.2087,1.2087,0,0,0,.252.0878,1.9512,1.9512,0,0,0,.2871.0411v.3867h-2.8066v-.3867c.09-.0079.1816-.0157.2773-.0235a1.0715,1.0715,0,0,0,.25-.0469.4175.4175,0,0,0,.2422-.1835.6625.6625,0,0,0,.08-.3428v-3.5879a.6721.6721,0,0,0-.086-.3369.7676.7676,0,0,0-.2363-.2539.9977.9977,0,0,0-.2754-.1143,1.77,1.77,0,0,0-.34-.0557v-.3867l1.9336-.1289.082.0821v.8261h.041q.1466-.1464.3574-.3457a3.1935,3.1935,0,0,1,.3926-.3222,1.8572,1.8572,0,0,1,.5117-.2344,2.2781,2.2781,0,0,1,.666-.0938,1.57,1.57,0,0,1,.9668.3018,1.719,1.719,0,0,1,.58.73q.21-.2051.3711-.36a3.0677,3.0677,0,0,1,.4238-.331,1.9373,1.9373,0,0,1,.5235-.2461,2.2477,2.2477,0,0,1,.67-.0938,1.4707,1.4707,0,0,1,1.1582.4805,2.1708,2.1708,0,0,1,.4277,1.4766v2.9355a.7135.7135,0,0,0,.07.3369.456.456,0,0,0,.24.2022,1.58,1.58,0,0,0,.2656.0791,2.4326,2.4326,0,0,0,.2969.0381Z"/><path d="M398.6816,776a2.9593,2.9593,0,0,1-.9726,1.1016,2.4494,2.4494,0,0,1-1.4.41,2.8521,2.8521,0,0,1-1.2227-.2461,2.394,2.394,0,0,1-.8632-.6679,2.84,2.84,0,0,1-.5079-.9844,4.1594,4.1594,0,0,1-.166-1.1895,3.5034,3.5034,0,0,1,.1778-1.1045,3.1163,3.1163,0,0,1,.5254-.9755,2.5322,2.5322,0,0,1,.8281-.6709,2.3929,2.3929,0,0,1,1.1113-.2549,2.6729,2.6729,0,0,1,1.084.1992,1.9284,1.9284,0,0,1,.7324.5449,2.1747,2.1747,0,0,1,.4.7734,3.3925,3.3925,0,0,1,.1328.9668v.3868h-3.8262a4.5423,4.5423,0,0,0,.1075,1.0332,2.4721,2.4721,0,0,0,.3437.8164,1.6257,1.6257,0,0,0,.5977.5371,1.8366,1.8366,0,0,0,.8789.1972,1.6231,1.6231,0,0,0,.8984-.2441,2.4223,2.4223,0,0,0,.7305-.8809Zm-1.2949-2.2031a4.7859,4.7859,0,0,0-.0566-.7012,2.1506,2.1506,0,0,0-.1778-.625,1.1837,1.1837,0,0,0-.3691-.4375,1.0029,1.0029,0,0,0-.6035-.17,1.2554,1.2554,0,0,0-1.0235.5117,2.3781,2.3781,0,0,0-.4414,1.4219Zm.2051-4.9922a.6024.6024,0,0,1-.1035.3633,1.6112,1.6112,0,0,1-.3008.2988q-.2929.2343-.7656.5977t-1.0157.791l-.2226-.1875q.5274-.7794.7344-1.0987c.1386-.2129.289-.4482.4492-.706a1.2415,1.2415,0,0,1,.3516-.4072.7134.7134,0,0,1,.3925-.1084.4757.4757,0,0,1,.48.457Z"/><path d="M403.7734,772.3262a.9705.9705,0,0,1-.1464.53.4967.4967,0,0,1-.4512.2315.6884.6884,0,0,1-.502-.17.5158.5158,0,0,1-.1718-.375,1.2333,1.2333,0,0,1,.0195-.2344c.0137-.07.0273-.1406.039-.2109a1.2983,1.2983,0,0,0-.6445.2226,1.9046,1.9046,0,0,0-.6269.6328v3.3633a.6314.6314,0,0,0,.0781.334.4811.4811,0,0,0,.25.1934,1.558,1.558,0,0,0,.3769.0878c.1543.02.2891.0332.4024.0411v.3867H399.35v-.3867c.09-.0079.1816-.0157.2774-.0235a1.0725,1.0725,0,0,0,.25-.0469.4176.4176,0,0,0,.2421-.1835.6615.6615,0,0,0,.08-.3428v-3.5645a.8111.8111,0,0,0-.0859-.3564.71.71,0,0,0-.2363-.2813.8028.8028,0,0,0-.2637-.1025,2.3514,2.3514,0,0,0-.3281-.044v-.3867l1.9218-.1289.0821.0821v.8144h.0293a2.6282,2.6282,0,0,1,.8086-.7207,1.709,1.709,0,0,1,.8144-.2461.7946.7946,0,0,1,.6.24A.89.89,0,0,1,403.7734,772.3262Z"/><path d="M407.0664,777.3594h-2.7891v-.3867c.09-.0079.1817-.0157.2774-.0235a1.0715,1.0715,0,0,0,.25-.0469.4179.4179,0,0,0,.2422-.1835.6625.6625,0,0,0,.08-.3428v-3.5645a.7021.7021,0,0,0-.086-.3427.7494.7494,0,0,0-.2363-.26,1.0845,1.0845,0,0,0-.3223-.12,2.3967,2.3967,0,0,0-.3867-.0616v-.3867l2.0391-.1289.082.0821v4.7109a.6632.6632,0,0,0,.0781.34.468.468,0,0,0,.2471.1993,1.9592,1.9592,0,0,0,.251.0849,1.53,1.53,0,0,0,.2734.044Zm-.7324-8.127a.8541.8541,0,0,1-.2207.583.7.7,0,0,1-1.0606.0117.7741.7741,0,0,1-.2187-.5419.8056.8056,0,0,1,.2187-.5625.683.683,0,0,1,.52-.24.7193.7193,0,0,1,.5468.2256A.74.74,0,0,1,406.334,769.2324Z"/><path d="M414.1211,779.9609h-3.1289v-.3867q.1816-.0117.3574-.0293a1.75,1.75,0,0,0,.3164-.0586.3975.3975,0,0,0,.252-.2051.801.801,0,0,0,.07-.3476v-2.1367l-.0352-.0117a2.2581,2.2581,0,0,1-.2666.2431,1.8125,1.8125,0,0,1-.36.2256,2.6946,2.6946,0,0,1-.45.19,1.8518,1.8518,0,0,1-.544.0674,2.295,2.295,0,0,1-.9922-.22,2.4117,2.4117,0,0,1-.8105-.624,2.973,2.973,0,0,1-.5469-.9815,3.887,3.887,0,0,1-.2012-1.28,3.004,3.004,0,0,1,.2344-1.2041,3.1755,3.1755,0,0,1,.6192-.9462,2.7459,2.7459,0,0,1,.8877-.6065,2.5571,2.5571,0,0,1,1.0273-.2256,2.8308,2.8308,0,0,1,.6768.0733,2.7189,2.7189,0,0,1,.5058.1728,2.2084,2.2084,0,0,1,.3633.1963q.1816.12.2578.1611l.5-.7617.336.0469c-.0157.2891-.0372.6445-.0625,1.0674s-.0372.792-.0372,1.1084v5.3476a.7675.7675,0,0,0,.0762.3536.4909.4909,0,0,0,.2461.2265,1.9563,1.9563,0,0,0,.3574.1026,3.2816,3.2816,0,0,0,.3516.0556Zm-2.1328-3.6738v-3.4512a1.4928,1.4928,0,0,0-.1582-.3252,1.4113,1.4113,0,0,0-.2637-.3134,1.396,1.396,0,0,0-.4-.2344,1.4783,1.4783,0,0,0-.5469-.0938,1.3521,1.3521,0,0,0-1.1484.709,3.5257,3.5257,0,0,0-.4648,1.9512,4.022,4.022,0,0,0,.09.8906,2.3327,2.3327,0,0,0,.3125.7442,1.6478,1.6478,0,0,0,.5332.5244,1.534,1.534,0,0,0,.8125.1963,1.37,1.37,0,0,0,.7188-.1787A2.23,2.23,0,0,0,411.9883,776.2871Z"/><path d="M420.69,777.2539l-1.8868.1289-.0879-.082v-.7324H418.68q-.1407.1464-.3164.3134a2.248,2.248,0,0,1-.4033.3018,2.5829,2.5829,0,0,1-.5088.24,2.3034,2.3034,0,0,1-.6963.0821,1.4088,1.4088,0,0,1-1.167-.5,2.282,2.282,0,0,1-.4-1.4551v-2.7627a.728.728,0,0,0-.08-.3545.7455.7455,0,0,0-.2324-.2481.757.757,0,0,0-.2656-.1025,2.5584,2.5584,0,0,0-.336-.0439v-.3868l1.9278-.1406.0879.0821v4.0136a1.382,1.382,0,0,0,.2812.9434.8717.8717,0,0,0,.6738.3164,1.5528,1.5528,0,0,0,.5743-.1,1.6542,1.6542,0,0,0,.4218-.2344,1.9675,1.9675,0,0,0,.2774-.26,1.4992,1.4992,0,0,0,.1855-.2548v-3.2715a.703.703,0,0,0-.082-.3428.7649.7649,0,0,0-.2285-.2539.6586.6586,0,0,0-.3145-.085c-.1386-.01-.2929-.0185-.4648-.0263v-.3868l2.1025-.1406.0889.0821v4.583a.6619.6619,0,0,0,.082.3388.7425.7425,0,0,0,.2285.24.6526.6526,0,0,0,.252.0849,3.0628,3.0628,0,0,0,.3223.0264Z"/><path d="M426.5312,776a2.9593,2.9593,0,0,1-.9726,1.1016,2.4494,2.4494,0,0,1-1.4.41,2.8524,2.8524,0,0,1-1.2227-.2461,2.394,2.394,0,0,1-.8632-.6679,2.8383,2.8383,0,0,1-.5078-.9844,4.1559,4.1559,0,0,1-.1661-1.1895,3.5034,3.5034,0,0,1,.1778-1.1045,3.1163,3.1163,0,0,1,.5254-.9755,2.5322,2.5322,0,0,1,.8281-.6709,2.3932,2.3932,0,0,1,1.1113-.2549,2.6729,2.6729,0,0,1,1.084.1992,1.9284,1.9284,0,0,1,.7324.5449,2.1747,2.1747,0,0,1,.4.7734,3.3925,3.3925,0,0,1,.1328.9668v.3868h-3.8261a4.5426,4.5426,0,0,0,.1074,1.0332,2.4721,2.4721,0,0,0,.3437.8164,1.6257,1.6257,0,0,0,.5977.5371,1.8366,1.8366,0,0,0,.8789.1972,1.6231,1.6231,0,0,0,.8984-.2441,2.4223,2.4223,0,0,0,.7305-.8809Zm-1.2949-2.2031a4.7859,4.7859,0,0,0-.0566-.7012,2.1539,2.1539,0,0,0-.1777-.625,1.1849,1.1849,0,0,0-.3692-.4375,1.0029,1.0029,0,0,0-.6035-.17,1.2551,1.2551,0,0,0-1.0234.5117,2.3768,2.3768,0,0,0-.4414,1.4219Z"/><path d="M431.0137,774.5293a1.4756,1.4756,0,0,1,.3691.4863,1.582,1.582,0,0,1,.1289.6739,1.644,1.644,0,0,1-.6015,1.3125,2.3185,2.3185,0,0,1-1.5547.51,2.3421,2.3421,0,0,1-.93-.1816,2.5456,2.5456,0,0,1-.6055-.334l-.1172.3809h-.4394l-.0586-2.01h.4043a2.241,2.241,0,0,0,.1992.5351,2.5767,2.5767,0,0,0,.3691.5528,2.0568,2.0568,0,0,0,.5469.4355,1.4671,1.4671,0,0,0,.7188.1758,1.3153,1.3153,0,0,0,.8671-.2559.9075.9075,0,0,0,.3047-.7343.8809.8809,0,0,0-.0976-.4248.9321.9321,0,0,0-.2832-.3135,2.2358,2.2358,0,0,0-.4746-.2432q-.2812-.1083-.627-.2138a5.835,5.835,0,0,1-.6133-.2256,2.432,2.432,0,0,1-.5761-.3369,1.6528,1.6528,0,0,1-.4219-.5039,1.4388,1.4388,0,0,1-.1641-.7032,1.5806,1.5806,0,0,1,.5274-1.2011,1.986,1.986,0,0,1,1.4121-.4922,2.8707,2.8707,0,0,1,.6933.0879,2.4133,2.4133,0,0,1,.5782.2109l.1347-.3047h.4219l.0879,1.8574h-.4043a1.872,1.872,0,0,0-.5313-1.0156,1.3811,1.3811,0,0,0-.9921-.3906,1.1018,1.1018,0,0,0-.7559.2422.75.75,0,0,0-.2754.584.9512.9512,0,0,0,.09.4394.8108.8108,0,0,0,.2734.2988,2.2615,2.2615,0,0,0,.4414.22c.1777.0683.3984.1455.66.2314a5.6457,5.6457,0,0,1,.7285.2871A2.4029,2.4029,0,0,1,431.0137,774.5293Z"/><path d="M440.5586,772.2676a3.0073,3.0073,0,0,1,.5352.9521,3.7294,3.7294,0,0,1,.1914,1.2393,3.309,3.309,0,0,1-.2286,1.251,3.0625,3.0625,0,0,1-.6035.9638,2.84,2.84,0,0,1-.873.6211,2.45,2.45,0,0,1-1.02.2168,2.6236,2.6236,0,0,1-.8554-.1172,2.0211,2.0211,0,0,1-.5449-.2754h-.0469v1.7383a.6927.6927,0,0,0,.082.3526.4765.4765,0,0,0,.252.206,2.6781,2.6781,0,0,0,.4.1026,2.9277,2.9277,0,0,0,.4316.0556v.3867h-3.2285v-.3867q.1816-.0117.3515-.0293a1.6162,1.6162,0,0,0,.3047-.0586.3961.3961,0,0,0,.2461-.2051.7905.7905,0,0,0,.07-.3457v-6.1464a.7109.7109,0,0,0-.0879-.34.7509.7509,0,0,0-.2285-.2637.8308.8308,0,0,0-.2929-.1084,2.7722,2.7722,0,0,0-.3633-.05v-.3867l1.9687-.1289.0821.07v.65l.0468.0117a2.532,2.532,0,0,1,.7559-.5859,1.9323,1.9323,0,0,1,.8965-.2344,2.1381,2.1381,0,0,1,.9863.2285A2.4337,2.4337,0,0,1,440.5586,772.2676Zm-.9551,4.1543a2.642,2.642,0,0,0,.3457-.8438,4.76,4.76,0,0,0,.1113-1.0722,4.342,4.342,0,0,0-.0937-.8848,2.5258,2.5258,0,0,0-.293-.7852,1.6379,1.6379,0,0,0-.5215-.5507,1.5247,1.5247,0,0,0-1.5117-.0206,2.2349,2.2349,0,0,0-.5273.4542v3.416a1.2663,1.2663,0,0,0,.1719.3281,1.5473,1.5473,0,0,0,.2675.293,1.6879,1.6879,0,0,0,.3926.2373,1.3037,1.3037,0,0,0,.5156.0908,1.2653,1.2653,0,0,0,.6329-.1729A1.4674,1.4674,0,0,0,439.6035,776.4219Z"/><path d="M447.6074,777.2539c-.1836.0664-.3457.12-.4844.1611a1.6525,1.6525,0,0,1-.4707.0616,1.1522,1.1522,0,0,1-.73-.2139.9864.9864,0,0,1-.3477-.624h-.0351a2.8616,2.8616,0,0,1-.8184.6445,2.2877,2.2877,0,0,1-1.0508.2227,1.4913,1.4913,0,0,1-1.07-.3985,1.3727,1.3727,0,0,1-.418-1.0429,1.7773,1.7773,0,0,1,.0938-.5977,1.428,1.428,0,0,1,.2812-.4746,1.4063,1.4063,0,0,1,.3868-.3135,3.3777,3.3777,0,0,1,.4511-.22q.2637-.1,1.0684-.3692a8.0447,8.0447,0,0,0,1.0879-.4218v-.58a2.5267,2.5267,0,0,0-.0332-.293,1.2255,1.2255,0,0,0-.1367-.41,1.1713,1.1713,0,0,0-.3321-.378.9883.9883,0,0,0-.6054-.1611,1.3657,1.3657,0,0,0-.502.0908.9026.9026,0,0,0-.3242.19,1.5892,1.5892,0,0,0,.0547.3457,1.7956,1.7956,0,0,1,.0566.4218.5047.5047,0,0,1-.1855.375.7261.7261,0,0,1-.5118.17.4813.4813,0,0,1-.4316-.2081.8256.8256,0,0,1,.0527-.9814,1.92,1.92,0,0,1,.4961-.4395,2.6993,2.6993,0,0,1,.6387-.2783,2.508,2.508,0,0,1,.7324-.1142,4.78,4.78,0,0,1,.8575.0674,1.58,1.58,0,0,1,.666.29,1.3491,1.3491,0,0,1,.4531.5889,2.5109,2.5109,0,0,1,.1562.958q0,.8379-.0175,1.4853t-.0176,1.4151a.7166.7166,0,0,0,.0781.3632.6443.6443,0,0,0,.2442.2286.5928.5928,0,0,0,.2773.0585c.127.004.2578.0059.3906.0059Zm-2.0449-3.0937q-.498.1464-.873.2871a3.5384,3.5384,0,0,0-.6973.3535,1.578,1.578,0,0,0-.4629.4726,1.2022,1.2022,0,0,0-.17.6485.92.92,0,0,0,.2539.7168.936.936,0,0,0,.6484.2285,1.3233,1.3233,0,0,0,.7324-.2031,2.1148,2.1148,0,0,0,.5332-.4786Z"/><path d="M452.6055,772.3262a.9706.9706,0,0,1-.1465.53.4967.4967,0,0,1-.4512.2315.6882.6882,0,0,1-.5019-.17.5155.5155,0,0,1-.1719-.375,1.2333,1.2333,0,0,1,.0195-.2344c.0137-.07.0274-.1406.0391-.2109a1.2982,1.2982,0,0,0-.6446.2226,1.9064,1.9064,0,0,0-.6269.6328v3.3633a.6314.6314,0,0,0,.0781.334.4815.4815,0,0,0,.25.1934,1.56,1.56,0,0,0,.377.0878c.1543.02.289.0332.4023.0411v.3867h-3.0469v-.3867c.09-.0079.1817-.0157.2774-.0235a1.0715,1.0715,0,0,0,.25-.0469.4179.4179,0,0,0,.2422-.1835.6625.6625,0,0,0,.08-.3428v-3.5645a.81.81,0,0,0-.0859-.3564.709.709,0,0,0-.2363-.2813.8011.8011,0,0,0-.2637-.1025,2.3473,2.3473,0,0,0-.3281-.044v-.3867l1.9219-.1289.082.0821v.8144h.0293a2.6293,2.6293,0,0,1,.8086-.7207,1.7094,1.7094,0,0,1,.8144-.2461.7945.7945,0,0,1,.6.24A.8905.8905,0,0,1,452.6055,772.3262Z"/><path d="M458.6992,777.3594h-2.8183v-.3867q.1347-.0119.2871-.0264a1.379,1.379,0,0,0,.2519-.044.4339.4339,0,0,0,.2461-.1845.6408.6408,0,0,0,.082-.3428v-6.6973a.88.88,0,0,0-.0918-.3945.765.765,0,0,0-.2363-.291,1.2023,1.2023,0,0,0-.3867-.1289,3.5089,3.5089,0,0,0-.4512-.07v-.375l2.1739-.1289.082.0879v7.9277a.6667.6667,0,0,0,.0762.3369.4857.4857,0,0,0,.2461.2022,1.3536,1.3536,0,0,0,.2539.0878,1.8859,1.8859,0,0,0,.2851.0411Z"/><path d="M464.5586,776a2.96,2.96,0,0,1-.9727,1.1016,2.4489,2.4489,0,0,1-1.4.41,2.8516,2.8516,0,0,1-1.2226-.2461,2.3952,2.3952,0,0,1-.8633-.6679,2.8383,2.8383,0,0,1-.5078-.9844,4.1594,4.1594,0,0,1-.166-1.1895,3.5061,3.5061,0,0,1,.1777-1.1045,3.1183,3.1183,0,0,1,.5254-.9755,2.5342,2.5342,0,0,1,.8281-.6709,2.3933,2.3933,0,0,1,1.1114-.2549,2.6724,2.6724,0,0,1,1.0839.1992,1.9288,1.9288,0,0,1,.7325.5449,2.1747,2.1747,0,0,1,.4.7734,3.396,3.396,0,0,1,.1328.9668v.3868h-3.8262a4.5483,4.5483,0,0,0,.1074,1.0332,2.4723,2.4723,0,0,0,.3438.8164,1.6246,1.6246,0,0,0,.5976.5371,1.8369,1.8369,0,0,0,.8789.1972,1.6235,1.6235,0,0,0,.8985-.2441,2.4222,2.4222,0,0,0,.73-.8809Zm-1.2949-2.2031a4.7867,4.7867,0,0,0-.0567-.7012,2.1539,2.1539,0,0,0-.1777-.625,1.1846,1.1846,0,0,0-.3691-.4375,1.0034,1.0034,0,0,0-.6036-.17,1.2554,1.2554,0,0,0-1.0234.5117,2.3768,2.3768,0,0,0-.4414,1.4219Z"/><path d="M469.041,774.5293a1.476,1.476,0,0,1,.3692.4863,1.5835,1.5835,0,0,1,.1289.6739,1.6438,1.6438,0,0,1-.6016,1.3125,2.3185,2.3185,0,0,1-1.5547.51,2.3425,2.3425,0,0,1-.93-.1816,2.5445,2.5445,0,0,1-.6054-.334l-.1172.3809h-.44l-.0586-2.01h.4043a2.25,2.25,0,0,0,.1992.5351,2.5734,2.5734,0,0,0,.3692.5528,2.0552,2.0552,0,0,0,.5469.4355,1.4667,1.4667,0,0,0,.7187.1758,1.3156,1.3156,0,0,0,.8672-.2559.9078.9078,0,0,0,.3047-.7343.88.88,0,0,0-.0977-.4248.931.931,0,0,0-.2832-.3135,2.2358,2.2358,0,0,0-.4746-.2432q-.2812-.1083-.6269-.2138a5.835,5.835,0,0,1-.6133-.2256,2.4347,2.4347,0,0,1-.5762-.3369,1.6528,1.6528,0,0,1-.4219-.5039,1.44,1.44,0,0,1-.164-.7032,1.58,1.58,0,0,1,.5273-1.2011,1.9863,1.9863,0,0,1,1.4121-.4922,2.8715,2.8715,0,0,1,.6934.0879,2.4123,2.4123,0,0,1,.5781.2109l.1348-.3047h.4218l.0879,1.8574h-.4043a1.8719,1.8719,0,0,0-.5312-1.0156,1.3815,1.3815,0,0,0-.9922-.3906,1.102,1.102,0,0,0-.7559.2422.75.75,0,0,0-.2754.584.9512.9512,0,0,0,.09.4394.8108.8108,0,0,0,.2734.2988,2.2615,2.2615,0,0,0,.4414.22c.1778.0683.3985.1455.66.2314a5.6457,5.6457,0,0,1,.7285.2871A2.4009,2.4009,0,0,1,469.041,774.5293Z"/><path d="M387.1211,791.76h-3.6738v-.416c.1328-.004.3027-.0176.5117-.0411a1.2989,1.2989,0,0,0,.4316-.1.7608.7608,0,0,0,.2656-.2558.6938.6938,0,0,0,.086-.3594V784.541h-.0879l-2.8359,7.084h-.293l-2.7012-7.2305h-.0762v4.9629a4.98,4.98,0,0,0,.09,1.0957,1.0172,1.0172,0,0,0,.2793.5391,1.3507,1.3507,0,0,0,.5332.2344,3.2342,3.2342,0,0,0,.5273.1172v.416H376.82v-.416a4.33,4.33,0,0,0,.5527-.0879,1.0794,1.0794,0,0,0,.4493-.1934.86.86,0,0,0,.2812-.5039,5.8644,5.8644,0,0,0,.0762-1.1367V785.168a1.744,1.744,0,0,0-.0879-.6035.943.943,0,0,0-.252-.3809,1.1543,1.1543,0,0,0-.4453-.2344,2.2393,2.2393,0,0,0-.5215-.0879v-.416h2.834l2.3828,6.24,2.0332-5.2207a5.3094,5.3094,0,0,0,.19-.6005,2.8419,2.8419,0,0,0,.085-.419h2.7119v.416a3.0055,3.0055,0,0,0-.42.0528,2.6889,2.6889,0,0,0-.3711.0879.429.429,0,0,0-.27.2343.8992.8992,0,0,0-.07.3575v5.9941a.769.769,0,0,0,.07.3457.5989.5989,0,0,0,.27.2461,1.3681,1.3681,0,0,0,.375.1074,3.1756,3.1756,0,0,0,.4277.0567Z"/><path d="M394.2812,791.6543l-1.8867.1289-.0879-.082v-.7324h-.0351c-.0938.0976-.1992.2011-.3164.3124a2.2568,2.2568,0,0,1-.4033.3028,2.5829,2.5829,0,0,1-.5088.24,2.3039,2.3039,0,0,1-.6963.082,1.4094,1.4094,0,0,1-1.167-.5009,2.2789,2.2789,0,0,1-.4-1.4541v-2.7637a.7242.7242,0,0,0-.08-.3535.7353.7353,0,0,0-.2324-.2481.7574.7574,0,0,0-.2656-.1035,2.5609,2.5609,0,0,0-.336-.0429v-.3868l1.9278-.1406.0879.082v4.0137a1.382,1.382,0,0,0,.2812.9434.8717.8717,0,0,0,.6738.3164,1.5528,1.5528,0,0,0,.5743-.1,1.6542,1.6542,0,0,0,.4218-.2344,2.0275,2.0275,0,0,0,.2774-.26,1.5028,1.5028,0,0,0,.1855-.2558v-3.2715a.6993.6993,0,0,0-.082-.3418.7649.7649,0,0,0-.2285-.2539.6577.6577,0,0,0-.3145-.086c-.1387-.01-.2929-.0175-.4648-.0253v-.3868l2.1025-.1406.0889.082v4.5821a.6631.6631,0,0,0,.082.34.7422.7422,0,0,0,.2285.24.6489.6489,0,0,0,.252.084,3.0493,3.0493,0,0,0,.3222.0274Z"/><path d="M398.8047,788.93a1.4756,1.4756,0,0,1,.3691.4863,1.5818,1.5818,0,0,1,.1289.6738,1.6434,1.6434,0,0,1-.6015,1.3125,2.318,2.318,0,0,1-1.5547.51,2.3421,2.3421,0,0,1-.93-.1816,2.5492,2.5492,0,0,1-.6055-.334l-.1172.3808h-.4394l-.0586-2.01H395.4a2.2567,2.2567,0,0,0,.1992.5351,2.5984,2.5984,0,0,0,.3692.5528,2.0535,2.0535,0,0,0,.5468.4345,1.4571,1.4571,0,0,0,.7188.1768,1.3109,1.3109,0,0,0,.8672-.2568.9046.9046,0,0,0,.3046-.7334.8849.8849,0,0,0-.0976-.4258.9292.9292,0,0,0-.2832-.3125,2.2359,2.2359,0,0,0-.4746-.2442c-.1875-.0722-.3965-.1425-.627-.2129a5.8426,5.8426,0,0,1-.6133-.2265,2.43,2.43,0,0,1-.5761-.3359,1.652,1.652,0,0,1-.4219-.504,1.4384,1.4384,0,0,1-.1641-.7031,1.5809,1.5809,0,0,1,.5274-1.2012,1.9864,1.9864,0,0,1,1.4121-.4921,2.8749,2.8749,0,0,1,.6933.0878,2.413,2.413,0,0,1,.5782.211l.1347-.3047h.4219l.0879,1.8574H398.6a1.8726,1.8726,0,0,0-.5312-1.0156,1.3778,1.3778,0,0,0-.9922-.3906,1.102,1.102,0,0,0-.7559.2422.748.748,0,0,0-.2754.5839.9514.9514,0,0,0,.09.44.8108.8108,0,0,0,.2734.2988,2.2687,2.2687,0,0,0,.4414.2188c.1777.0683.3984.1465.66.2324a5.6457,5.6457,0,0,1,.7285.2871A2.4029,2.4029,0,0,1,398.8047,788.93Z"/><path d="M405.3086,790.4a2.96,2.96,0,0,1-.9727,1.1016,2.4489,2.4489,0,0,1-1.4.41,2.8516,2.8516,0,0,1-1.2226-.2461,2.3943,2.3943,0,0,1-.8633-.668,2.8369,2.8369,0,0,1-.5078-.9843,4.1594,4.1594,0,0,1-.166-1.1895,3.5112,3.5112,0,0,1,.1777-1.1054,3.1143,3.1143,0,0,1,.5254-.9747,2.538,2.538,0,0,1,.8281-.6718,2.3928,2.3928,0,0,1,1.1114-.2539,2.6724,2.6724,0,0,1,1.0839.1992,1.9288,1.9288,0,0,1,.7325.5449,2.1738,2.1738,0,0,1,.4.7734,3.396,3.396,0,0,1,.1328.9668v.3868h-3.8262a4.5538,4.5538,0,0,0,.1074,1.0332,2.4813,2.4813,0,0,0,.3438.8164,1.6334,1.6334,0,0,0,.5976.5371,1.8486,1.8486,0,0,0,.8789.1972,1.6158,1.6158,0,0,0,.8985-.2451,2.4176,2.4176,0,0,0,.73-.88Zm-1.2949-2.2031a4.7759,4.7759,0,0,0-.0567-.7012,2.1355,2.1355,0,0,0-.1777-.625,1.18,1.18,0,0,0-.3691-.4385,1.01,1.01,0,0,0-.6036-.1689,1.2571,1.2571,0,0,0-1.0234.5107,2.3821,2.3821,0,0,0-.4414,1.4229Zm.2051-4.9922a.6018.6018,0,0,1-.1036.3633,1.6072,1.6072,0,0,1-.3007.2988q-.2931.2343-.7657.5976t-1.0156.7911l-.2227-.1875q.5274-.7794.7344-1.1c.1387-.2129.2891-.4473.4492-.7051a1.2469,1.2469,0,0,1,.3516-.4082.7132.7132,0,0,1,.3926-.1075.4741.4741,0,0,1,.4805.4571Z"/><path d="M411.1094,790.4a2.96,2.96,0,0,1-.9727,1.1016,2.4489,2.4489,0,0,1-1.4.41,2.8516,2.8516,0,0,1-1.2226-.2461,2.3943,2.3943,0,0,1-.8633-.668,2.8369,2.8369,0,0,1-.5078-.9843,4.1559,4.1559,0,0,1-.166-1.1895,3.5112,3.5112,0,0,1,.1777-1.1054,3.1123,3.1123,0,0,1,.5254-.9747,2.5359,2.5359,0,0,1,.8281-.6718,2.3927,2.3927,0,0,1,1.1113-.2539,2.6729,2.6729,0,0,1,1.084.1992,1.9284,1.9284,0,0,1,.7324.5449,2.1738,2.1738,0,0,1,.4.7734,3.3924,3.3924,0,0,1,.1329.9668v.3868h-3.8262a4.5482,4.5482,0,0,0,.1074,1.0332,2.4813,2.4813,0,0,0,.3438.8164,1.6334,1.6334,0,0,0,.5976.5371,1.8486,1.8486,0,0,0,.8789.1972,1.6158,1.6158,0,0,0,.8985-.2451,2.4185,2.4185,0,0,0,.73-.88Zm-1.2949-2.2031a4.7759,4.7759,0,0,0-.0567-.7012,2.1355,2.1355,0,0,0-.1777-.625,1.18,1.18,0,0,0-.3692-.4385,1.01,1.01,0,0,0-.6035-.1689,1.2571,1.2571,0,0,0-1.0234.5107,2.3821,2.3821,0,0,0-.4414,1.4229Z"/><path d="M415.5918,788.93a1.4743,1.4743,0,0,1,.3691.4863,1.5818,1.5818,0,0,1,.1289.6738,1.6434,1.6434,0,0,1-.6015,1.3125,2.318,2.318,0,0,1-1.5547.51,2.3425,2.3425,0,0,1-.93-.1816,2.5492,2.5492,0,0,1-.6055-.334l-.1172.3808h-.4394l-.0586-2.01h.4043a2.2655,2.2655,0,0,0,.1992.5351,2.5984,2.5984,0,0,0,.3692.5528,2.0535,2.0535,0,0,0,.5468.4345,1.4571,1.4571,0,0,0,.7188.1768,1.3109,1.3109,0,0,0,.8672-.2568.9047.9047,0,0,0,.3047-.7334.8838.8838,0,0,0-.0977-.4258.9292.9292,0,0,0-.2832-.3125,2.2359,2.2359,0,0,0-.4746-.2442c-.1875-.0722-.3965-.1425-.627-.2129a5.8334,5.8334,0,0,1-.6132-.2265,2.429,2.429,0,0,1-.5762-.3359,1.652,1.652,0,0,1-.4219-.504,1.4384,1.4384,0,0,1-.1641-.7031,1.5809,1.5809,0,0,1,.5274-1.2012,1.9867,1.9867,0,0,1,1.4121-.4921,2.8763,2.8763,0,0,1,.6934.0878,2.4137,2.4137,0,0,1,.5781.211l.1347-.3047h.4219l.0879,1.8574h-.4043a1.8719,1.8719,0,0,0-.5312-1.0156,1.3778,1.3778,0,0,0-.9922-.3906,1.102,1.102,0,0,0-.7559.2422.748.748,0,0,0-.2754.5839.9514.9514,0,0,0,.09.44.8108.8108,0,0,0,.2734.2988,2.2687,2.2687,0,0,0,.4414.2188c.1778.0683.3985.1465.66.2324a5.6457,5.6457,0,0,1,.7285.2871A2.4009,2.4009,0,0,1,415.5918,788.93Z"/><path d="M426.1855,791.6543l-2.0214.1289-.0879-.082v-.5391l-.0469-.0117a2.4058,2.4058,0,0,1-.752.5566,2.0913,2.0913,0,0,1-.9218.2168,2.1809,2.1809,0,0,1-.9512-.2207,2.3971,2.3971,0,0,1-.7988-.6172,3.07,3.07,0,0,1-.5469-.9726,3.7188,3.7188,0,0,1-.2012-1.2539,3.3,3.3,0,0,1,.2158-1.19,3.1356,3.1356,0,0,1,.5967-.9844,2.631,2.631,0,0,1,.875-.6269,2.5391,2.5391,0,0,1,1.0567-.2344,3.1016,3.1016,0,0,1,.7929.1016,2.8491,2.8491,0,0,1,.67.2617v-2.0137a1.1832,1.1832,0,0,0-.0821-.4492.6858.6858,0,0,0-.2285-.3086,1.168,1.168,0,0,0-.4434-.1621,5.8164,5.8164,0,0,0-.6-.0723v-.3632l2.3672-.1289.0879.0878v7.7872a.7133.7133,0,0,0,.0781.3486.6976.6976,0,0,0,.2325.2431.7218.7218,0,0,0,.3222.0879q.2111.0177.3867.0235Zm-2.121-1.0137V787.26a1.5148,1.5148,0,0,0-.1524-.3282,1.4667,1.4667,0,0,0-.2637-.3222,1.4956,1.4956,0,0,0-.3974-.2442,1.3534,1.3534,0,0,0-.5322-.0957,1.2107,1.2107,0,0,0-.6465.1817,1.7381,1.7381,0,0,0-.5235.5215,2.7059,2.7059,0,0,0-.3418.8339,4.6621,4.6621,0,0,0-.125,1.1231,3.926,3.926,0,0,0,.0938.8926,2.3639,2.3639,0,0,0,.3144.748,1.6385,1.6385,0,0,0,.5235.5274,1.4009,1.4009,0,0,0,.7578.1992,1.368,1.368,0,0,0,.7754-.2051A2.5311,2.5311,0,0,0,424.0645,790.6406Z"/><path d="M431.8809,790.4a2.96,2.96,0,0,1-.9727,1.1016,2.4489,2.4489,0,0,1-1.4.41,2.8516,2.8516,0,0,1-1.2226-.2461,2.3926,2.3926,0,0,1-.8633-.668,2.8369,2.8369,0,0,1-.5078-.9843,4.1559,4.1559,0,0,1-.1661-1.1895,3.5084,3.5084,0,0,1,.1778-1.1054,3.1123,3.1123,0,0,1,.5254-.9747,2.5359,2.5359,0,0,1,.8281-.6718,2.3927,2.3927,0,0,1,1.1113-.2539,2.6729,2.6729,0,0,1,1.084.1992,1.9284,1.9284,0,0,1,.7324.5449,2.1738,2.1738,0,0,1,.4.7734,3.3925,3.3925,0,0,1,.1328.9668v.3868h-3.8261a4.5482,4.5482,0,0,0,.1074,1.0332,2.4833,2.4833,0,0,0,.3437.8164,1.6345,1.6345,0,0,0,.5977.5371,1.8486,1.8486,0,0,0,.8789.1972,1.6152,1.6152,0,0,0,.8984-.2451,2.4177,2.4177,0,0,0,.7305-.88Zm-1.295-2.2031a4.7751,4.7751,0,0,0-.0566-.7012,2.1355,2.1355,0,0,0-.1777-.625,1.18,1.18,0,0,0-.3692-.4385,1.01,1.01,0,0,0-.6035-.1689,1.2571,1.2571,0,0,0-1.0234.5107,2.3821,2.3821,0,0,0-.4414,1.4229Z"/><path d="M441.959,785.4961a2.5011,2.5011,0,0,1-.2559,1.15,2.3006,2.3006,0,0,1-.7051.83,3.0464,3.0464,0,0,1-.9785.48,4.096,4.096,0,0,1-1.1308.1524h-.9317v2.5195a.8945.8945,0,0,0,.0664.3594.4687.4687,0,0,0,.2793.2383,1.8083,1.8083,0,0,0,.3711.0761,4.7438,4.7438,0,0,0,.49.0411v.416h-3.5684v-.416c.0938-.0079.2285-.0215.4063-.0411a1.4132,1.4132,0,0,0,.373-.0761.5026.5026,0,0,0,.2539-.2227.7853.7853,0,0,0,.08-.375v-6a1.0911,1.0911,0,0,0-.0586-.3691.4277.4277,0,0,0-.2754-.2461,2.4885,2.4885,0,0,0-.4434-.1094c-.1464-.0215-.2714-.0352-.3769-.043v-.416h3.7969a2.99,2.99,0,0,1,1.8828.5586A1.7931,1.7931,0,0,1,441.959,785.4961Zm-1.7813,1.418a1.58,1.58,0,0,0,.2637-.584,2.6121,2.6121,0,0,0,.0645-.541,3.0445,3.0445,0,0,0-.08-.68,1.5781,1.5781,0,0,0-.2715-.6035,1.3631,1.3631,0,0,0-.5391-.4278,2.0051,2.0051,0,0,0-.832-.1523h-.8262V787.6h.5977a2.3126,2.3126,0,0,0,1.0273-.1973A1.5082,1.5082,0,0,0,440.1777,786.9141Z"/><path d="M448.9551,791.6543l-1.8867.1289-.0879-.082v-.7324h-.0352c-.0937.0976-.1992.2011-.3164.3124a2.2261,2.2261,0,0,1-.4043.3028,2.5217,2.5217,0,0,1-.5078.24,2.3067,2.3067,0,0,1-.6973.082,1.4088,1.4088,0,0,1-1.166-.5009,2.2789,2.2789,0,0,1-.4-1.4541v-2.7637a.7242.7242,0,0,0-.08-.3535.7353.7353,0,0,0-.2324-.2481.7637.7637,0,0,0-.2656-.1035,2.5814,2.5814,0,0,0-.3359-.0429v-.3868l1.9277-.1406.0879.082v4.0137a1.382,1.382,0,0,0,.2812.9434.8717.8717,0,0,0,.6739.3164,1.5526,1.5526,0,0,0,.5742-.1,1.6549,1.6549,0,0,0,.4219-.2344,2.0324,2.0324,0,0,0,.2773-.26,1.51,1.51,0,0,0,.1856-.2558v-3.2715a.6994.6994,0,0,0-.0821-.3418.7638.7638,0,0,0-.2285-.2539.6576.6576,0,0,0-.3144-.086c-.1387-.01-.293-.0175-.4649-.0253v-.3868l2.1035-.1406.0879.082v4.5821a.6641.6641,0,0,0,.082.34.7415.7415,0,0,0,.2286.24.6489.6489,0,0,0,.2519.084,3.0513,3.0513,0,0,0,.3223.0274Z"/><path d="M452.3711,791.76h-2.8184v-.3868c.09-.0078.1856-.0175.2871-.0273a1.388,1.388,0,0,0,.252-.043.4354.4354,0,0,0,.2461-.1855.6408.6408,0,0,0,.082-.3428v-6.6963a.8842.8842,0,0,0-.0918-.3955.7616.7616,0,0,0-.2363-.29,1.2023,1.2023,0,0,0-.3867-.1289,3.5089,3.5089,0,0,0-.4512-.07v-.375l2.1738-.1289.0821.0878v7.9278a.6638.6638,0,0,0,.0761.3359.4874.4874,0,0,0,.2461.2031,1.3519,1.3519,0,0,0,.2539.0879,1.8754,1.8754,0,0,0,.2852.041Z"/><path d="M455.8047,791.76h-2.8184v-.3868c.09-.0078.1856-.0175.2871-.0273a1.388,1.388,0,0,0,.252-.043.4354.4354,0,0,0,.2461-.1855.6408.6408,0,0,0,.082-.3428v-6.6963a.8842.8842,0,0,0-.0918-.3955.7625.7625,0,0,0-.2363-.29,1.2023,1.2023,0,0,0-.3867-.1289,3.5089,3.5089,0,0,0-.4512-.07v-.375l2.1738-.1289.0821.0878v7.9278a.6638.6638,0,0,0,.0761.3359.487.487,0,0,0,.2461.2031,1.35,1.35,0,0,0,.2539.0879,1.8754,1.8754,0,0,0,.2852.041Z"/><path d="M456.0918,793.6465a.7013.7013,0,0,1,.16-.4785.5119.5119,0,0,1,.4023-.1836.701.701,0,0,1,.3223.0693.8835.8835,0,0,1,.24.1807,1.4442,1.4442,0,0,1,.1875.2383c.0664.1.1191.1835.1582.25a2.35,2.35,0,0,0,.6992-.8243,6.6891,6.6891,0,0,0,.5879-1.17q-.5537-1.3887-1.0058-2.4834t-.9434-2.2666a.8422.8422,0,0,0-.375-.42,1.5518,1.5518,0,0,0-.5274-.1895v-.3867h2.6368v.41a1.8689,1.8689,0,0,0-.4219.0722c-.1641.045-.2461.0977-.2461.1563a.4512.4512,0,0,0,.0273.1162c.0176.0547.0371.1113.0606.17.1484.3858.375.9444.6777,1.6709q.4571,1.0928.7071,1.7481.2636-.627.5488-1.2969t.6367-1.584c.0273-.0742.0664-.1758.1172-.3066a.96.96,0,0,0,.0762-.3369c0-.1006-.0879-.1963-.2657-.2842a1.5855,1.5855,0,0,0-.5078-.16v-.375h2.1465v.3633a1.4322,1.4322,0,0,0-.4629.2012,1.0588,1.0588,0,0,0-.4277.49q-.6974,1.6171-1.24,2.9473t-.8222,1.957a10.7466,10.7466,0,0,1-.66,1.2793,3.85,3.85,0,0,1-.5644.7246,1.642,1.642,0,0,1-.49.33,1.2447,1.2447,0,0,1-.4531.0859,1.0919,1.0919,0,0,1-.7187-.2168A.6351.6351,0,0,1,456.0918,793.6465Z"/><path class="f06df2ce-9c85-4977-b65a-16929fd9311f" d="M432.6616,836.2245v92.88a13.8193,13.8193,0,0,1-13.81,13.81h-92.88a13.8123,13.8123,0,0,1-13.81-13.81v-92.88a13.806,13.806,0,0,1,13.81-13.81h92.88a13.8287,13.8287,0,0,1,13.81,13.81Z"/><text class="b6ded222-8b66-4e07-8d54-c69a743fce09" transform="translate(351.4932 850.8671)">Retours <tspan x="-22.749" y="14.4004">d&apos;expérience des </tspan><tspan x="-22.2803" y="28.8003">petits et moyens </tspan><tspan x="-20.7275" y="43.2002">musées sur leur </tspan><tspan x="-2.7188" y="57.6001">projet de </tspan><tspan x="-19.333" y="72.0005">transformation</tspan></text><path class="f06df2ce-9c85-4977-b65a-16929fd9311f" d="M304.9912,812.7545v92.87a13.8147,13.8147,0,0,1-13.82,13.81h-92.87a13.8064,13.8064,0,0,1-13.81-13.81v-92.87a13.8148,13.8148,0,0,1,13.81-13.82h92.87A13.8231,13.8231,0,0,1,304.9912,812.7545Z"/><text class="b6ded222-8b66-4e07-8d54-c69a743fce09" transform="translate(212.625 849.101)">Concept par <tspan x="-2.9199" y="14.3994">computed.By</tspan><tspan x="0" y="33.1992">Concept par </tspan><tspan x="2.9512" y="47.5996">Transverse</tspan></text><text class="b6ded222-8b66-4e07-8d54-c69a743fce09" transform="translate(219.6267 822.5374)">Module 2</text><text class="e404a566-bcdf-4849-bd95-a7edc84f6f24" transform="translate(175.5791 703.6628)">Développement</text><line class="bf232b9b-5b63-420c-88f8-3f10e9708e6c" x1="328.4111" y1="811.1726" x2="328.4111" y2="766.7307"/><polygon points="334.546 806.202 333.447 805.179 328.413 810.597 323.376 805.179 322.278 806.202 328.413 812.799 334.546 806.202"/><path class="bf232b9b-5b63-420c-88f8-3f10e9708e6c" d="M300.5835,790.71l5.6548-5.6547a28.0457,28.0457,0,0,0,8.2138-19.8308V749.751"/><polygon points="308.436 791.534 308.382 790.033 300.992 790.304 301.261 782.912 299.761 782.859 299.434 791.862 308.436 791.534"/><path class="bf232b9b-5b63-420c-88f8-3f10e9708e6c" d="M289.8169,736.3936H294.32a15.1321,15.1321,0,0,0,15.1318-15.1321V691.5674"/><polygon points="294.787 742.528 295.811 741.43 290.393 736.395 295.811 731.359 294.787 730.26 288.19 736.395 294.787 742.528"/><path class="bf232b9b-5b63-420c-88f8-3f10e9708e6c" d="M354.2378,750.8831h-4.6943a15.1323,15.1323,0,0,1-15.1324-15.1324V706.0566"/><polygon points="349.268 744.748 348.244 745.847 353.662 750.882 348.244 755.918 349.268 757.016 355.864 750.882 349.268 744.748"/><path class="bf232b9b-5b63-420c-88f8-3f10e9708e6c" d="M319.1113,305.7345v119.86H65.0415v-168.82h210.3"/><path class="bf232b9b-5b63-420c-88f8-3f10e9708e6c" d="M358.0615,277.9144c-8.7838,23.9332-37.25,34.6276-59.36,23.31a21.3454,21.3454,0,0,1-29.1,14.17c-20.3874-8.4158-14.7044-39.781,6.96-40.86a42.9255,42.9255,0,0,1,3.72-32.52"/><text class="b6ded222-8b66-4e07-8d54-c69a743fce09" transform="translate(77.0317 281.2501)">Dépôt de dossier pour le fonds de <tspan x="0" y="14.4004">transformation du SERAC pour </tspan><tspan x="0" y="28.8003">deux modules numériques aux </tspan><tspan x="0" y="43.2002">Musées de Pully</tspan></text><text class="b6ded222-8b66-4e07-8d54-c69a743fce09" transform="translate(77.0317 281.2501)">Dépôt de dossier pour le fonds de <tspan x="0" y="14.4004">transformation du SERAC pour </tspan><tspan x="0" y="28.8003">deux modules numériques aux </tspan><tspan x="0" y="43.2002">Musées de Pully</tspan></text><circle cx="84.8472" cy="367.2816" r="6.1127"/><circle cx="84.8472" cy="388.9112" r="6.1127"/><circle class="f06df2ce-9c85-4977-b65a-16929fd9311f" cx="104.9823" cy="410.5409" r="6.1127"/><path class="bf232b9b-5b63-420c-88f8-3f10e9708e6c" d="M356.8,242.298a34.4774,34.4774,0,0,1-57.7017,36.78"/></g><g id="ebbb3df9-b70f-4738-8a2b-beabf2a68c8c" data-name="Layer 2"><path class="bf232b9b-5b63-420c-88f8-3f10e9708e6c" d="M398.1849,179.1074a48.8022,48.8022,0,0,1-67.9036,12.3461,49.9258,49.9258,0,0,1-12.63-69.4668,51.0752,51.0752,0,0,1,71.066-12.9211,52.2509,52.2509,0,0,1,13.2185,72.7019A53.4537,53.4537,0,0,1,327.56,195.29a54.6841,54.6841,0,0,1-13.8341-76.0876A55.9429,55.9429,0,0,1,391.5649,105.05a57.2306,57.2306,0,0,1,14.4784,79.6309,58.5483,58.5483,0,0,1-81.4641,14.8117,59.8961,59.8961,0,0,1-15.1526-83.3394"/><path class="bf232b9b-5b63-420c-88f8-3f10e9708e6c" d="M453.5714,141.4445c-.2-.79-.41-1.56-.65-2.33a48.8193,48.8193,0,0,0-5.98-12.73,49.6777,49.6777,0,0,0-17.6-16.21,47.9417,47.9417,0,0,0-7.43-3.29v-.01a49.23,49.23,0,0,0-16.23-2.73c-.69,0-1.39.01-2.07.05a48.4992,48.4992,0,0,0-10.91,1.68,48.0141,48.0141,0,0,0-5.82,1.98,49.3827,49.3827,0,0,0-7.59,87.42,48.6431,48.6431,0,0,0,10.68,5.08,49.3549,49.3549,0,0,0,65.09-46.82"/><path class="bf232b9b-5b63-420c-88f8-3f10e9708e6c" d="M560.7214,70.1345a45.2636,45.2636,0,0,0-26.56-2.19c-1.33.29-2.63.65-3.91,1.06a44.9372,44.9372,0,0,0-19.49,12.47,44.9387,44.9387,0,0,0-11.78,28.35,45.0743,45.0743,0,0,0,1.31,13.05h.01a42.698,42.698,0,0,0,2.01,6.1c.48,1.19,1.02,2.35,1.61,3.48a44.96,44.96,0,0,0,37.95,24.34c1.19.05,2.38.06,3.55.03a44.9959,44.9959,0,0,0,28.17-78.76"/><path class="bf232b9b-5b63-420c-88f8-3f10e9708e6c" d="M530.2812,70.8145a60.2661,60.2661,0,0,1-29.98,52.06h-.01a60.112,60.112,0,0,1-72.96-9.71,61.2835,61.2835,0,0,1-5.42-6.28,47.95,47.95,0,0,1,7.43,3.29,64.4261,64.4261,0,0,1,76.49-22.24,44.4171,44.4171,0,0,1,4.93-6.46,72.0891,72.0891,0,0,0-17.66-33,70.2634,70.2634,0,0,0-64.77-20.99,60.1805,60.1805,0,0,1,101.92,41.52C530.2715,69.6044,530.2812,70.2045,530.2812,70.8145Z"/><path class="bf232b9b-5b63-420c-88f8-3f10e9708e6c" d="M463.4914,44.3845a62.7753,62.7753,0,0,1,33.48-27.42,61.2292,61.2292,0,0,1,9.2-2.41,62.6205,62.6205,0,1,1,11.29,124.21"/><path class="bf232b9b-5b63-420c-88f8-3f10e9708e6c" d="M417.9614,138.5445a63.9963,63.9963,0,0,1,3.42-13.44,63.347,63.347,0,0,1,5.95-11.94c.64-1.02,1.31-2.01,2.01-2.99a64.4262,64.4262,0,0,1,76.49-22.24,63.542,63.542,0,0,1,17.63,10.71c1.15.98,2.27,2,3.34,3.06a64.1607,64.1607,0,0,1,19.28,45.93,63.32,63.32,0,0,1-.66,9.19,64.3775,64.3775,0,0,1-126.97,2.8c-.05-.24-.1-.47-.14-.71"/><path class="bf232b9b-5b63-420c-88f8-3f10e9708e6c" d="M534.1616,67.9445c.04.82.05,1.64.05,2.47"/><path class="bf232b9b-5b63-420c-88f8-3f10e9708e6c" d="M506.1714,14.5545a69.5456,69.5456,0,0,1,27.99,53.39"/><path class="bf232b9b-5b63-420c-88f8-3f10e9708e6c" d="M464.5415.7544a69.3542,69.3542,0,0,1,41.63,13.8"/><path class="bf232b9b-5b63-420c-88f8-3f10e9708e6c" d="M408.4414,29.1144a69.558,69.558,0,0,1,56.1-28.36"/><path class="bf232b9b-5b63-420c-88f8-3f10e9708e6c" d="M428.3315,27.4845c-1.26,1.2-2.45,2.46-3.59,3.78"/><path class="bf232b9b-5b63-420c-88f8-3f10e9708e6c" d="M472.0415,33.0444a70.5094,70.5094,0,0,0-43.71-5.56"/><path class="bf232b9b-5b63-420c-88f8-3f10e9708e6c" d="M493.1015,48.4745a70.0813,70.0813,0,0,0-21.06-15.43"/><path class="bf232b9b-5b63-420c-88f8-3f10e9708e6c" d="M510.7612,81.4745a72.0891,72.0891,0,0,0-17.66-33"/><path class="bf232b9b-5b63-420c-88f8-3f10e9708e6c" d="M505.8315,87.9345a44.4171,44.4171,0,0,1,4.93-6.46"/><path class="bf232b9b-5b63-420c-88f8-3f10e9708e6c" d="M481.7016,83.2544a64.101,64.101,0,0,1,24.13,4.68"/><path class="bf232b9b-5b63-420c-88f8-3f10e9708e6c" d="M429.3413,110.1745a64.29,64.29,0,0,1,52.36-26.92"/><path class="bf232b9b-5b63-420c-88f8-3f10e9708e6c" d="M421.9116,106.8844a47.95,47.95,0,0,1,7.43,3.29"/><path class="bf232b9b-5b63-420c-88f8-3f10e9708e6c" d="M421.9116,106.8744v.01"/><path class="bf232b9b-5b63-420c-88f8-3f10e9708e6c" d="M412.3613,87.8644a60.0582,60.0582,0,0,0,9.55,19.01"/><path class="bf232b9b-5b63-420c-88f8-3f10e9708e6c" d="M403.6113,104.1945a68.6139,68.6139,0,0,1-6.21-15.17"/><path class="bf232b9b-5b63-420c-88f8-3f10e9708e6c" d="M421.3813,125.1044a69.8729,69.8729,0,0,1-17.77-20.91"/><path class="bf232b9b-5b63-420c-88f8-3f10e9708e6c" d="M452.9214,139.1144a69.29,69.29,0,0,1-31.54-14.01"/><path class="bf232b9b-5b63-420c-88f8-3f10e9708e6c" d="M464.5415,140.0844a69.5523,69.5523,0,0,1-11.62-.97"/><path class="bf232b9b-5b63-420c-88f8-3f10e9708e6c" d="M502.3115,128.9745a69.37,69.37,0,0,1-37.77,11.11"/><path class="bf232b9b-5b63-420c-88f8-3f10e9708e6c" d="M507.2314,125.4745q-2.3854,1.86-4.92,3.5"/><path class="bf232b9b-5b63-420c-88f8-3f10e9708e6c" d="M526.8013,101.7045a69.6328,69.6328,0,0,1-19.57,23.77"/><path class="bf232b9b-5b63-420c-88f8-3f10e9708e6c" d="M534.2114,70.4144a69.3576,69.3576,0,0,1-7.41,31.29"/><path class="bf232b9b-5b63-420c-88f8-3f10e9708e6c" d="M349.3006,166.4336a43.2453,43.2453,0,0,1-61.1251-2.0088,44.5015,44.5015,0,0,1,2.0671-62.9008,45.7945,45.7945,0,0,1,64.7282,2.1272,47.1247,47.1247,0,0,1-2.189,66.6085,48.4647,48.4647,0,0,1-49.9659,10.0965"/><path class="bf232b9b-5b63-420c-88f8-3f10e9708e6c" d="M459.5714,168.0045a74.1239,74.1239,0,0,0,30.16-17.19,72.0727,72.0727,0,0,0,14.19-18.36,68.2809,68.2809,0,0,0,3.31-6.98,70.1929,70.1929,0,0,0,3.29-10.08,72.3234,72.3234,0,0,0-17.42-66.92,70.5041,70.5041,0,0,0-74.93-18.23"/><path class="bf232b9b-5b63-420c-88f8-3f10e9708e6c" d="M372.2814,88.9645a69.3462,69.3462,0,0,0-.26,7.49c.03,1.7.12,3.41.29,5.11a68.1209,68.1209,0,0,0,18.16,40.28,66.0849,66.0849,0,0,0,20.55,14.87q2.37,1.125,4.82,2.02c.86.32,1.73.62,2.61.89a66.3514,66.3514,0,0,0,65.94-14.69"/><text class="e404a566-bcdf-4849-bd95-a7edc84f6f24" transform="translate(286.4741 57.0463)">Potentiel de l&apos;utilisation <tspan x="-1.2246" y="20.3999">du numérique au musée</tspan></text></g></svg>