<svg xmlns="http://www.w3.org/2000/svg" xmlns:xlink="http://www.w3.org/1999/xlink" viewBox="0 0 375 991.9999"><defs><style>.a05d1565-19c8-47a4-8bf3-342eb6ca8097,.ad17c9e8-86ff-4585-9160-906497d8a25f,.ad4bb3de-36aa-4c0e-af80-c8b12f7e6fc5,.af5b644a-d7e5-4de1-af4a-ffc313abef95,.b31d52aa-0543-450c-8d71-9da3cb046a08,.b63d3a4f-67a5-40e8-b81b-fb37898b729b,.b91db015-00db-4b22-86f3-051445ceca8b,.b945677c-f8fa-4052-ae68-794c4091665d,.becdf294-d7cc-4dac-87d8-dc9e3f034438,.e36fbc47-9f15-492b-b721-58a4eed5ab6a,.e3e8e949-98e7-45dd-b7ae-88064571c162,.e5fc41b2-9551-4ff8-bd3a-67b79414cbbc,.e730c6e3-7139-4ab8-ba25-99ff8ea8ea09{fill:none;}.a05d1565-19c8-47a4-8bf3-342eb6ca8097,.ad17c9e8-86ff-4585-9160-906497d8a25f,.ad4bb3de-36aa-4c0e-af80-c8b12f7e6fc5,.af5b644a-d7e5-4de1-af4a-ffc313abef95,.b91db015-00db-4b22-86f3-051445ceca8b,.becdf294-d7cc-4dac-87d8-dc9e3f034438,.e36fbc47-9f15-492b-b721-58a4eed5ab6a,.e3e8e949-98e7-45dd-b7ae-88064571c162,.e5fc41b2-9551-4ff8-bd3a-67b79414cbbc,.e730c6e3-7139-4ab8-ba25-99ff8ea8ea09{stroke:#1d1d1b;stroke-linecap:round;stroke-dasharray:0 6.5;}.ad4bb3de-36aa-4c0e-af80-c8b12f7e6fc5{stroke-width:3.5px;}.af5b644a-d7e5-4de1-af4a-ffc313abef95{stroke-width:3.25px;}.e730c6e3-7139-4ab8-ba25-99ff8ea8ea09{stroke-width:3px;}.ad17c9e8-86ff-4585-9160-906497d8a25f{stroke-width:2.75px;}.e5fc41b2-9551-4ff8-bd3a-67b79414cbbc{stroke-width:2.5px;}.b91db015-00db-4b22-86f3-051445ceca8b{stroke-width:2.25px;}.e3e8e949-98e7-45dd-b7ae-88064571c162{stroke-width:2px;}.e36fbc47-9f15-492b-b721-58a4eed5ab6a{stroke-width:1.75px;}.a05d1565-19c8-47a4-8bf3-342eb6ca8097{stroke-width:1.499px;}.becdf294-d7cc-4dac-87d8-dc9e3f034438{stroke-width:1.25px;}.ba2d47fb-f351-419d-8034-b30af17279cb{font-size:12px;}.b3a5937e-d385-40d4-a076-e129b5d95910,.ba2d47fb-f351-419d-8034-b30af17279cb{font-family:Georgia;}.ad5be8e4-4935-44bb-9f14-4e656a4cbadf{fill:#666;}.f9306136-4acc-414f-a4e2-f300dc7bb3d0{fill:url(#b177e1db-580a-43ce-a46f-481b9d0379b0);}.b63d3a4f-67a5-40e8-b81b-fb37898b729b,.b945677c-f8fa-4052-ae68-794c4091665d{stroke:#000;stroke-miterlimit:10;}.b945677c-f8fa-4052-ae68-794c4091665d{stroke-width:1.5px;}.b3a5937e-d385-40d4-a076-e129b5d95910{font-size:17px;}</style><pattern id="b177e1db-580a-43ce-a46f-481b9d0379b0" data-name="Undulating Fine Dots" width="83" height="65" patternTransform="translate(1135.548 -173.7941)" patternUnits="userSpaceOnUse" viewBox="0 0 83 65"><rect class="b31d52aa-0543-450c-8d71-9da3cb046a08" width="83" height="65"/><line class="ad4bb3de-36aa-4c0e-af80-c8b12f7e6fc5" x1="83" y1="65" x2="83" y2="130.5"/><line class="ad4bb3de-36aa-4c0e-af80-c8b12f7e6fc5" y1="65" y2="130.5"/><line class="af5b644a-d7e5-4de1-af4a-ffc313abef95" x1="4.6113" y1="61.75" x2="4.6113" y2="130.5"/><line class="e730c6e3-7139-4ab8-ba25-99ff8ea8ea09" x1="9.2222" y1="65" x2="9.2222" y2="130.5"/><line class="ad17c9e8-86ff-4585-9160-906497d8a25f" x1="13.833" y1="61.75" x2="13.833" y2="130.5"/><line class="e5fc41b2-9551-4ff8-bd3a-67b79414cbbc" x1="18.4453" y1="65" x2="18.4453" y2="130.5"/><line class="b91db015-00db-4b22-86f3-051445ceca8b" x1="23.0562" y1="61.75" x2="23.0562" y2="130.5"/><line class="e3e8e949-98e7-45dd-b7ae-88064571c162" x1="27.667" y1="65" x2="27.667" y2="130.5"/><line class="e36fbc47-9f15-492b-b721-58a4eed5ab6a" x1="32.2783" y1="61.75" x2="32.2783" y2="130.5"/><line class="a05d1565-19c8-47a4-8bf3-342eb6ca8097" x1="36.8901" y1="65" x2="36.8901" y2="130.5"/><line class="becdf294-d7cc-4dac-87d8-dc9e3f034438" x1="41.5" y1="61.75" x2="41.5" y2="130.5"/><line class="ad4bb3de-36aa-4c0e-af80-c8b12f7e6fc5" x1="83" y1="65" x2="83" y2="130.5"/><line class="af5b644a-d7e5-4de1-af4a-ffc313abef95" x1="78.3887" y1="61.75" x2="78.3887" y2="130.5"/><line class="e730c6e3-7139-4ab8-ba25-99ff8ea8ea09" x1="73.7773" y1="65" x2="73.7773" y2="130.5"/><line class="ad17c9e8-86ff-4585-9160-906497d8a25f" x1="69.166" y1="61.75" x2="69.166" y2="130.5"/><line class="e5fc41b2-9551-4ff8-bd3a-67b79414cbbc" x1="64.5547" y1="65" x2="64.5547" y2="130.5"/><line class="b91db015-00db-4b22-86f3-051445ceca8b" x1="59.9434" y1="61.75" x2="59.9434" y2="130.5"/><line class="e3e8e949-98e7-45dd-b7ae-88064571c162" x1="55.332" y1="65" x2="55.332" y2="130.5"/><line class="e36fbc47-9f15-492b-b721-58a4eed5ab6a" x1="50.7212" y1="61.75" x2="50.7212" y2="130.5"/><line class="a05d1565-19c8-47a4-8bf3-342eb6ca8097" x1="46.1104" y1="65" x2="46.1104" y2="130.5"/><line class="ad4bb3de-36aa-4c0e-af80-c8b12f7e6fc5" y1="65" y2="130.5"/><line class="ad4bb3de-36aa-4c0e-af80-c8b12f7e6fc5" x1="83" x2="83" y2="65.5"/><line class="ad4bb3de-36aa-4c0e-af80-c8b12f7e6fc5" y2="65.5"/><line class="af5b644a-d7e5-4de1-af4a-ffc313abef95" x1="4.6113" y1="-3.25" x2="4.6113" y2="65.5"/><line class="e730c6e3-7139-4ab8-ba25-99ff8ea8ea09" x1="9.2222" x2="9.2222" y2="65.5"/><line class="ad17c9e8-86ff-4585-9160-906497d8a25f" x1="13.833" y1="-3.25" x2="13.833" y2="65.5"/><line class="e5fc41b2-9551-4ff8-bd3a-67b79414cbbc" x1="18.4453" x2="18.4453" y2="65.5"/><line class="b91db015-00db-4b22-86f3-051445ceca8b" x1="23.0562" y1="-3.25" x2="23.0562" y2="65.5"/><line class="e3e8e949-98e7-45dd-b7ae-88064571c162" x1="27.667" x2="27.667" y2="65.5"/><line class="e36fbc47-9f15-492b-b721-58a4eed5ab6a" x1="32.2783" y1="-3.25" x2="32.2783" y2="65.5"/><line class="a05d1565-19c8-47a4-8bf3-342eb6ca8097" x1="36.8901" x2="36.8901" y2="65.5"/><line class="becdf294-d7cc-4dac-87d8-dc9e3f034438" x1="41.5" y1="-3.25" x2="41.5" y2="65.5"/><line class="ad4bb3de-36aa-4c0e-af80-c8b12f7e6fc5" x1="83" x2="83" y2="65.5"/><line class="af5b644a-d7e5-4de1-af4a-ffc313abef95" x1="78.3887" y1="-3.25" x2="78.3887" y2="65.5"/><line class="e730c6e3-7139-4ab8-ba25-99ff8ea8ea09" x1="73.7773" x2="73.7773" y2="65.5"/><line class="ad17c9e8-86ff-4585-9160-906497d8a25f" x1="69.166" y1="-3.25" x2="69.166" y2="65.5"/><line class="e5fc41b2-9551-4ff8-bd3a-67b79414cbbc" x1="64.5547" x2="64.5547" y2="65.5"/><line class="b91db015-00db-4b22-86f3-051445ceca8b" x1="59.9434" y1="-3.25" x2="59.9434" y2="65.5"/><line class="e3e8e949-98e7-45dd-b7ae-88064571c162" x1="55.332" x2="55.332" y2="65.5"/><line class="e36fbc47-9f15-492b-b721-58a4eed5ab6a" x1="50.7212" y1="-3.25" x2="50.7212" y2="65.5"/><line class="a05d1565-19c8-47a4-8bf3-342eb6ca8097" x1="46.1104" x2="46.1104" y2="65.5"/><line class="ad4bb3de-36aa-4c0e-af80-c8b12f7e6fc5" y2="65.5"/><line class="ad4bb3de-36aa-4c0e-af80-c8b12f7e6fc5" x1="83" y1="-65" x2="83" y2="0.5"/><line class="ad4bb3de-36aa-4c0e-af80-c8b12f7e6fc5" y1="-65" y2="0.5"/><line class="af5b644a-d7e5-4de1-af4a-ffc313abef95" x1="4.6113" y1="-68.25" x2="4.6113" y2="0.5"/><line class="e730c6e3-7139-4ab8-ba25-99ff8ea8ea09" x1="9.2222" y1="-65" x2="9.2222" y2="0.5"/><line class="ad17c9e8-86ff-4585-9160-906497d8a25f" x1="13.833" y1="-68.25" x2="13.833" y2="0.5"/><line class="e5fc41b2-9551-4ff8-bd3a-67b79414cbbc" x1="18.4453" y1="-65" x2="18.4453" y2="0.5"/><line class="b91db015-00db-4b22-86f3-051445ceca8b" x1="23.0562" y1="-68.25" x2="23.0562" y2="0.5"/><line class="e3e8e949-98e7-45dd-b7ae-88064571c162" x1="27.667" y1="-65" x2="27.667" y2="0.5"/><line class="e36fbc47-9f15-492b-b721-58a4eed5ab6a" x1="32.2783" y1="-68.25" x2="32.2783" y2="0.5"/><line class="a05d1565-19c8-47a4-8bf3-342eb6ca8097" x1="36.8901" y1="-65" x2="36.8901" y2="0.5"/><line class="becdf294-d7cc-4dac-87d8-dc9e3f034438" x1="41.5" y1="-68.25" x2="41.5" y2="0.5"/><line class="ad4bb3de-36aa-4c0e-af80-c8b12f7e6fc5" x1="83" y1="-65" x2="83" y2="0.5"/><line class="af5b644a-d7e5-4de1-af4a-ffc313abef95" x1="78.3887" y1="-68.25" x2="78.3887" y2="0.5"/><line class="e730c6e3-7139-4ab8-ba25-99ff8ea8ea09" x1="73.7773" y1="-65" x2="73.7773" y2="0.5"/><line class="ad17c9e8-86ff-4585-9160-906497d8a25f" x1="69.166" y1="-68.25" x2="69.166" y2="0.5"/><line class="e5fc41b2-9551-4ff8-bd3a-67b79414cbbc" x1="64.5547" y1="-65" x2="64.5547" y2="0.5"/><line class="b91db015-00db-4b22-86f3-051445ceca8b" x1="59.9434" y1="-68.25" x2="59.9434" y2="0.5"/><line class="e3e8e949-98e7-45dd-b7ae-88064571c162" x1="55.332" y1="-65" x2="55.332" y2="0.5"/><line class="e36fbc47-9f15-492b-b721-58a4eed5ab6a" x1="50.7212" y1="-68.25" x2="50.7212" y2="0.5"/><line class="a05d1565-19c8-47a4-8bf3-342eb6ca8097" x1="46.1104" y1="-65" x2="46.1104" y2="0.5"/><line class="ad4bb3de-36aa-4c0e-af80-c8b12f7e6fc5" y1="-65" y2="0.5"/></pattern></defs><g id="fe49c319-91d2-438b-a3a5-f89fdb76a39b" data-name="timeline-1"><text class="ba2d47fb-f351-419d-8034-b30af17279cb" transform="translate(13.9516 228.8542)">Projet initial <tspan class="ad5be8e4-4935-44bb-9f14-4e656a4cbadf"><tspan x="0" y="14.3999">2021</tspan></tspan></text><rect class="f9306136-4acc-414f-a4e2-f300dc7bb3d0" y="215.9869" width="6.5" height="224.5"/><text class="ba2d47fb-f351-419d-8034-b30af17279cb" transform="translate(15.9931 468.1689)">Recherche &amp; développement<tspan class="ad5be8e4-4935-44bb-9f14-4e656a4cbadf"><tspan x="0" y="14.3999">déc. 21 - sept. 22</tspan></tspan></text><rect class="f9306136-4acc-414f-a4e2-f300dc7bb3d0" y="451.9869" width="6.5" height="224.5"/><rect class="f9306136-4acc-414f-a4e2-f300dc7bb3d0" y="1.1926" width="6.5" height="204.7943"/><text class="ba2d47fb-f351-419d-8034-b30af17279cb" transform="translate(16.2582 13.4227)">Situation de départ <tspan class="ad5be8e4-4935-44bb-9f14-4e656a4cbadf"><tspan x="0" y="14.4004">dès mars 2020 (covid-19)</tspan></tspan></text><path class="b945677c-f8fa-4052-ae68-794c4091665d" d="M319.9855,513.8431l-28.14-35.7609a106.7022,106.7022,0,0,1-5.7566,34.025L299.87,552.6093l40.2322-13.6888a167.39,167.39,0,0,0,10.43-40.5858Z"/><text class="b3a5937e-d385-40d4-a076-e129b5d95910" transform="translate(69.101 513.3458)">Période de brainstorm</text><path class="b945677c-f8fa-4052-ae68-794c4091665d" d="M359.7261,592.6225c-7.9631,14.5543-22.5021,23.6064-37.5906,22.972-17.18-.7223-35.2695-14.0111-35.5022-29.2371-.1761-11.5177,7.893-21.5368,16.7791-22.9307,9.0423-1.4184,13.3921,6.187,12.98,11.9668-.7661,10.7489-22.7346,22.5976-34.98,15.1406-9.673-5.89-13.5608-23.9981-3.1326-39.679"/><path class="b945677c-f8fa-4052-ae68-794c4091665d" d="M369.6772,578.2792c.1168-.85.5368-4.3444-1.0442-5.2209-1.3824-.7664-3.6377.8326-5.2209,2.0884-9.7947,7.7687-30.7939,24.443-31.3255,43.8557-.3169,11.5711,5.2237,16.2252,10.5869,17.555,7.4646,1.8507,16.1989-1.5571,17.606-9.2015.8-4.3486-1.9955-10.0522-6.2651-11.4861-8.95-3.0055-26.011,12.2-22.972,22.9721.3894,1.38,1.83,5.244,8.3534,8.3535"/><path class="b945677c-f8fa-4052-ae68-794c4091665d" d="M248.7726,499.0471c1.3652,2.22,7.0145,11.9562,4.1767,24.0162a27.7786,27.7786,0,0,1-8.3535,14.6186c-10.3955,9.1739-28.8486,9.5777-32.37,3.1325-3.0982-5.6711,4.2447-18.6946,13.5743-20.8836,11.2958-2.65,24.8389,10.7374,29.2372,24.0162,4.4106,13.3162.64,24.8511-5.2109,46.4815-9.0417,33.4269-3.5393,47.7458-2.0984,50.6276,5.2209,10.4418,15.5246,15.6444,27.1488,14.6185,13.7315-1.2118,26.15-14.3579,28.1929-32.37"/><path class="b945677c-f8fa-4052-ae68-794c4091665d" d="M316.2392,597.7224c-18.4249,25.8611-34.2045,31.8892-50.1208,28.193-9.1751-2.1307-16.8445-13.4307-30.2813-31.3255-9.7514-12.9866-15.97-18.54-22.45-19.3174-10.5421-1.2644-16.7069,4.1767-22.45,15.1407-7.8314-7.8314-22.2245-21.7815-44.3778-25.5825-8.7263-1.4973-24.0462.3377-41.2453,13.0523"/><path class="b945677c-f8fa-4052-ae68-794c4091665d" d="M171.0977,609.2085c-.2-1.0268,1.5664-10.9641-7.31-11.486-5.771-.34-13.0523,4.6987-13.5743,15.6628-.6,12.5947,12.0083,22.45,29.2373,27.1487,18.54,5.0561,34.96-2.0623,41.39-5.4815"/><polygon points="219.122 642.712 217.715 642.19 220.295 635.259 213.193 633.191 213.614 631.751 222.263 634.27 219.122 642.712"/><path class="b945677c-f8fa-4052-ae68-794c4091665d" d="M193.0255,667.6827c5.9149-7.4359,15.6338-17.1582,28.193-17.7511,22.7033-1.0717,33.6983,28.6809,54.2975,28.193,9.0581-.2146,22.1268-6.3274,37.5906-35.5023"/><line class="b945677c-f8fa-4052-ae68-794c4091665d" x1="163.2442" y1="642.8499" x2="130.1485" y2="661.438"/><polygon points="131.478 653.655 132.908 654.112 130.649 661.155 137.839 662.893 137.485 664.352 128.729 662.233 131.478 653.655"/><line class="b945677c-f8fa-4052-ae68-794c4091665d" x1="121.2833" y1="637.3538" x2="88.1876" y2="655.9417"/><polygon points="89.517 648.159 90.947 648.616 88.689 655.658 95.878 657.397 95.524 658.856 86.769 656.737 89.517 648.159"/><rect class="b945677c-f8fa-4052-ae68-794c4091665d" x="277.0577" y="542.6081" width="6.1219" height="6.1219"/><rect class="b945677c-f8fa-4052-ae68-794c4091665d" x="244.5969" y="491.2303" width="6.1219" height="6.1219"/><rect class="b945677c-f8fa-4052-ae68-794c4091665d" x="94.5704" y="578.4904" width="7.5648" height="7.5648"/><rect class="b945677c-f8fa-4052-ae68-794c4091665d" x="365.6273" y="581.1191" width="7.5648" height="7.5648"/><rect class="b945677c-f8fa-4052-ae68-794c4091665d" x="117.0911" y="662.6752" width="7.5648" height="7.5648"/><rect class="b945677c-f8fa-4052-ae68-794c4091665d" x="167.1448" y="612.2954" width="7.5648" height="7.5648"/><rect class="b945677c-f8fa-4052-ae68-794c4091665d" x="59.8235" y="552.7497" width="7.5648" height="7.5648"/><line class="b63d3a4f-67a5-40e8-b81b-fb37898b729b" x1="81.0606" y1="664.7326" x2="73.4958" y2="657.1678"/><line class="b63d3a4f-67a5-40e8-b81b-fb37898b729b" x1="73.4958" y1="664.7326" x2="81.0606" y2="657.1678"/><line class="b945677c-f8fa-4052-ae68-794c4091665d" x1="81.0606" y1="664.7326" x2="73.4958" y2="657.1678"/><line class="b945677c-f8fa-4052-ae68-794c4091665d" x1="73.4958" y1="664.7326" x2="81.0606" y2="657.1678"/><line class="b945677c-f8fa-4052-ae68-794c4091665d" x1="182.1576" y1="547.0494" x2="174.5928" y2="539.4846"/><line class="b945677c-f8fa-4052-ae68-794c4091665d" x1="174.5928" y1="547.0494" x2="182.1576" y2="539.4846"/><line class="b945677c-f8fa-4052-ae68-794c4091665d" x1="195.3945" y1="601.6575" x2="187.8297" y2="594.0927"/><line class="b945677c-f8fa-4052-ae68-794c4091665d" x1="187.8297" y1="601.6575" x2="195.3945" y2="594.0927"/><line class="b63d3a4f-67a5-40e8-b81b-fb37898b729b" x1="101.2487" y1="619.5647" x2="93.6839" y2="611.9999"/><line class="b63d3a4f-67a5-40e8-b81b-fb37898b729b" x1="93.6839" y1="619.5647" x2="101.2487" y2="611.9999"/><line class="b945677c-f8fa-4052-ae68-794c4091665d" x1="101.2487" y1="619.5647" x2="93.6839" y2="611.9999"/><line class="b945677c-f8fa-4052-ae68-794c4091665d" x1="93.6839" y1="619.5647" x2="101.2487" y2="611.9999"/><line class="b945677c-f8fa-4052-ae68-794c4091665d" x1="193.8228" y1="678.6801" x2="186.2581" y2="671.1153"/><line class="b945677c-f8fa-4052-ae68-794c4091665d" x1="186.2581" y1="678.6801" x2="193.8228" y2="671.1153"/><path class="b945677c-f8fa-4052-ae68-794c4091665d" d="M90.02,583.5139c-1.2031.5983-8.3451,4.01-15.9569.8865-7.4274-3.0474-12.2676-11.0714-11.879-20.0349"/><path class="b945677c-f8fa-4052-ae68-794c4091665d" d="M98.1755,589.8966a24.1376,24.1376,0,0,0-3.3687,13.4748,23.0362,23.0362,0,0,0,1.4184,6.7373"/><path class="b945677c-f8fa-4052-ae68-794c4091665d" d="M186.9781,565.0748a28.8016,28.8016,0,0,1-5.8276-11.3318c-.168-.6682-.3052-1.3206-.4156-1.9534"/><polygon points="187.9 555.323 187.045 556.556 180.973 552.333 177.204 558.698 175.913 557.932 180.504 550.181 187.9 555.323"/><text class="ba2d47fb-f351-419d-8034-b30af17279cb" transform="translate(192.2373 613.6056)">Semaine<tspan x="4.3828" y="14.4004">crunch</tspan></text><rect class="f9306136-4acc-414f-a4e2-f300dc7bb3d0" y="688.3442" width="6.5" height="299.9686"/><text class="ba2d47fb-f351-419d-8034-b30af17279cb" transform="translate(14.9921 702.1517)">Livrables, processus <tspan x="0" y="14.3994">et retours d&apos;expérience </tspan><tspan class="ad5be8e4-4935-44bb-9f14-4e656a4cbadf"><tspan x="0" y="28.7998">oct. 22</tspan></tspan></text><path class="b63d3a4f-67a5-40e8-b81b-fb37898b729b" d="M177.0254,779.0639v65.58h-85.91a13.8149,13.8149,0,0,0-13.81,13.82v27.29h-6.97a13.8126,13.8126,0,0,1-13.81-13.81v-92.88a13.806,13.806,0,0,1,13.81-13.81h92.87A13.8147,13.8147,0,0,1,177.0254,779.0639Z"/><text class="ba2d47fb-f351-419d-8034-b30af17279cb" transform="translate(77.0629 815.001)">le smartphone, <tspan x="0.1084" y="14.3994">par la Marmite</tspan></text><text class="ba2d47fb-f351-419d-8034-b30af17279cb" transform="translate(92.4357 789.6309)">Module 1</text><path class="b63d3a4f-67a5-40e8-b81b-fb37898b729b" d="M372.3355,768.2839v92.88a13.8127,13.8127,0,0,1-13.81,13.81h-34.94a13.7739,13.7739,0,0,0-11.92-6.85h-57.94a13.7129,13.7129,0,0,1-1.89-6.96v-92.88a13.8127,13.8127,0,0,1,13.81-13.81h92.88A13.8065,13.8065,0,0,1,372.3355,768.2839Z"/><path d="M285.03,773.6055a2.5043,2.5043,0,0,1-.2548,1.1513,2.3,2.3,0,0,1-.7061.8291,3.0487,3.0487,0,0,1-.9785.4805,4.0967,4.0967,0,0,1-1.1309.1524h-.9316v2.5195a.897.897,0,0,0,.0674.36.465.465,0,0,0,.2783.2373,1.8117,1.8117,0,0,0,.3721.0762,4.7224,4.7224,0,0,0,.4892.041v.416h-3.5683v-.416q.1406-.0117.4072-.041a1.3984,1.3984,0,0,0,.372-.0762.5048.5048,0,0,0,.2549-.2226.7846.7846,0,0,0,.0791-.375v-6a1.0921,1.0921,0,0,0-.0586-.3692.4274.4274,0,0,0-.2754-.2461,2.4816,2.4816,0,0,0-.4423-.1084q-.22-.0321-.378-.0439v-.416h3.7969a2.9928,2.9928,0,0,1,1.8838.56A1.79,1.79,0,0,1,285.03,773.6055Zm-1.7812,1.4179a1.5755,1.5755,0,0,0,.2637-.583,2.6256,2.6256,0,0,0,.0644-.542,3.0421,3.0421,0,0,0-.0791-.68,1.5776,1.5776,0,0,0-.2725-.6036,1.3633,1.3633,0,0,0-.539-.4277,2.0038,2.0038,0,0,0-.832-.1523h-.8262v3.6738h.5976a2.3189,2.3189,0,0,0,1.0284-.1963A1.5074,1.5074,0,0,0,283.2485,775.0234Z"/><path d="M290.2563,774.8359a.97.97,0,0,1-.1465.53.4964.4964,0,0,1-.4512.2315.6853.6853,0,0,1-.5009-.17.5164.5164,0,0,1-.1729-.375,1.2289,1.2289,0,0,1,.02-.2343q.0206-.1056.0381-.211a1.2972,1.2972,0,0,0-.6445.2227,1.9048,1.9048,0,0,0-.627.6328v3.3633a.6315.6315,0,0,0,.0791.334.4792.4792,0,0,0,.249.1933,1.5643,1.5643,0,0,0,.378.0879q.2314.0292.4013.041v.3867h-3.0468v-.3867q.1347-.0117.2783-.0234a1.0675,1.0675,0,0,0,.249-.0469.4213.4213,0,0,0,.2432-.1846.6586.6586,0,0,0,.0791-.3418v-3.5644a.8126.8126,0,0,0-.085-.3574.7074.7074,0,0,0-.2373-.28.7967.7967,0,0,0-.2637-.1025,2.3325,2.3325,0,0,0-.3281-.044V774.15l1.9219-.1289.082.082v.8145h.0293a2.628,2.628,0,0,1,.8086-.7207,1.71,1.71,0,0,1,.8145-.2461.7965.7965,0,0,1,.6006.24A.89.89,0,0,1,290.2563,774.8359Z"/><path d="M296.3852,776.9219a3.8183,3.8183,0,0,1-.1934,1.1982,2.87,2.87,0,0,1-.5517.999,2.558,2.558,0,0,1-.9385.6973,3.01,3.01,0,0,1-1.1963.2285,2.6985,2.6985,0,0,1-1.05-.208,2.6367,2.6367,0,0,1-.8857-.6064,2.9008,2.9008,0,0,1-.6074-.958,3.3976,3.3976,0,0,1-.2256-1.2686,3.15,3.15,0,0,1,.789-2.2148,2.8874,2.8874,0,0,1,4.07-.044A3,3,0,0,1,296.3852,776.9219Zm-1.2129.0117a5.2592,5.2592,0,0,0-.0879-.9287,2.9634,2.9634,0,0,0-.2646-.8291,1.62,1.62,0,0,0-.4922-.583,1.2464,1.2464,0,0,0-.7461-.22,1.3167,1.3167,0,0,0-.7715.2227,1.6345,1.6345,0,0,0-.5195.6094,2.6972,2.6972,0,0,0-.2647.8144,5.3784,5.3784,0,0,0-.0761.8848,5.5679,5.5679,0,0,0,.0908,1.04,3.0022,3.0022,0,0,0,.291.8526,1.65,1.65,0,0,0,.5019.5888,1.2625,1.2625,0,0,0,.7481.2139,1.3057,1.3057,0,0,0,1.1621-.709A3.7872,3.7872,0,0,0,295.1723,776.9336Z"/><path d="M299.8891,780.0215a2.4411,2.4411,0,0,1-1.9629-.832,3.7435,3.7435,0,0,1-.5185-3.3721,3.1438,3.1438,0,0,1,.5537-.9639,2.5854,2.5854,0,0,1,.8672-.6709,2.5534,2.5534,0,0,1,1.1367-.2549,2.2157,2.2157,0,0,1,1.3828.4073,1.3218,1.3218,0,0,1,.5332,1.11.96.96,0,0,1-.1406.5186.5034.5034,0,0,1-.4629.2256.7614.7614,0,0,1-.5362-.1758.5218.5218,0,0,1-.19-.3907,2.2055,2.2055,0,0,1,.07-.541,2.98,2.98,0,0,0,.0821-.4052.5144.5144,0,0,0-.3125-.2422,1.5726,1.5726,0,0,0-.4473-.0616,1.2343,1.2343,0,0,0-.5342.12,1.3715,1.3715,0,0,0-.4941.4423,2.3692,2.3692,0,0,0-.3516.7911,4.6413,4.6413,0,0,0-.1338,1.1894,3.0345,3.0345,0,0,0,.4824,1.7783,1.48,1.48,0,0,0,1.2666.6885,1.5823,1.5823,0,0,0,.9512-.2773,2.7115,2.7115,0,0,0,.711-.83l.374.2461a3.027,3.027,0,0,1-1.02,1.0957A2.396,2.396,0,0,1,299.8891,780.0215Z"/><path d="M307.7993,778.51a2.9585,2.9585,0,0,1-.9727,1.1015,2.4482,2.4482,0,0,1-1.4.41,2.8474,2.8474,0,0,1-1.2217-.2461,2.3978,2.3978,0,0,1-.8642-.668,2.8374,2.8374,0,0,1-.5069-.9844,4.1588,4.1588,0,0,1-.1669-1.1894,3.5039,3.5039,0,0,1,.1787-1.1045,3.1154,3.1154,0,0,1,.5244-.9756,2.5372,2.5372,0,0,1,.8291-.6709,2.39,2.39,0,0,1,1.11-.2549,2.6711,2.6711,0,0,1,1.084.1993,1.9284,1.9284,0,0,1,.7324.5449,2.1748,2.1748,0,0,1,.4014.7734,3.3929,3.3929,0,0,1,.1318.9668v.3867h-3.8261a4.54,4.54,0,0,0,.1084,1.0332,2.4691,2.4691,0,0,0,.3427.8164,1.624,1.624,0,0,0,.5977.5371,1.8357,1.8357,0,0,0,.8789.1973,1.6186,1.6186,0,0,0,.8994-.2451,2.4088,2.4088,0,0,0,.7295-.88Zm-1.295-2.2032a4.7674,4.7674,0,0,0-.0556-.7011,2.1424,2.1424,0,0,0-.1787-.625,1.1961,1.1961,0,0,0-.3692-.4385,1.01,1.01,0,0,0-.6035-.169,1.2553,1.2553,0,0,0-1.0224.5108,2.3822,2.3822,0,0,0-.4424,1.4228Z"/><path d="M312.2817,777.0391a1.4756,1.4756,0,0,1,.3691.4863,1.5818,1.5818,0,0,1,.1289.6738,1.6427,1.6427,0,0,1-.6006,1.3125,2.567,2.567,0,0,1-2.4843.3281,2.557,2.557,0,0,1-.6065-.3339l-.1172.3808h-.4394l-.0586-2.01h.4043a2.2567,2.2567,0,0,0,.1992.5351,2.6011,2.6011,0,0,0,.3691.5527,2.041,2.041,0,0,0,.5479.4346,1.453,1.453,0,0,0,.7178.1768,1.3109,1.3109,0,0,0,.8672-.2569.9045.9045,0,0,0,.3046-.7334.8813.8813,0,0,0-.0966-.4248.9361.9361,0,0,0-.2842-.3134,2.2358,2.2358,0,0,0-.4746-.2432q-.2812-.1085-.627-.2139a5.8249,5.8249,0,0,1-.6123-.2256,2.4394,2.4394,0,0,1-.5771-.3369,1.6516,1.6516,0,0,1-.4219-.5039,1.4384,1.4384,0,0,1-.1641-.7031,1.5806,1.5806,0,0,1,.5274-1.2012,1.9865,1.9865,0,0,1,1.4121-.4922,2.8781,2.8781,0,0,1,.6943.0879,2.4,2.4,0,0,1,.5772.211l.1347-.3047h.4219l.0879,1.8574h-.4043a1.8708,1.8708,0,0,0-.53-1.0156,1.3794,1.3794,0,0,0-.9931-.3907,1.102,1.102,0,0,0-.7559.2422.75.75,0,0,0-.2754.584.9523.9523,0,0,0,.0908.4395.809.809,0,0,0,.2725.2988,2.2727,2.2727,0,0,0,.4424.22q.2665.1026.6592.2315a5.6661,5.6661,0,0,1,.7295.2871A2.3922,2.3922,0,0,1,312.2817,777.0391Z"/><path d="M317.4672,777.0391a1.476,1.476,0,0,1,.3692.4863,1.5833,1.5833,0,0,1,.1289.6738,1.6427,1.6427,0,0,1-.6006,1.3125,2.5672,2.5672,0,0,1-2.4844.3281,2.5559,2.5559,0,0,1-.6064-.3339l-.1172.3808h-.44l-.0586-2.01h.4043a2.2619,2.2619,0,0,0,.1993.5351,2.5973,2.5973,0,0,0,.3691.5527,2.0405,2.0405,0,0,0,.5478.4346,1.4533,1.4533,0,0,0,.7178.1768,1.3107,1.3107,0,0,0,.8672-.2569.9045.9045,0,0,0,.3047-.7334.88.88,0,0,0-.0967-.4248.935.935,0,0,0-.2842-.3134,2.2358,2.2358,0,0,0-.4746-.2432q-.2812-.1085-.6269-.2139a5.8249,5.8249,0,0,1-.6123-.2256,2.4422,2.4422,0,0,1-.5772-.3369,1.6516,1.6516,0,0,1-.4219-.5039,1.44,1.44,0,0,1-.164-.7031,1.5809,1.5809,0,0,1,.5273-1.2012,1.9868,1.9868,0,0,1,1.4121-.4922,2.88,2.88,0,0,1,.6944.0879,2.3985,2.3985,0,0,1,.5771.211l.1348-.3047h.4219l.0879,1.8574h-.4043a1.8715,1.8715,0,0,0-.53-1.0156,1.38,1.38,0,0,0-.9932-.3907,1.1017,1.1017,0,0,0-.7558.2422.75.75,0,0,0-.2754.584.951.951,0,0,0,.0908.4395.8087.8087,0,0,0,.2724.2988,2.2727,2.2727,0,0,0,.4424.22q.2667.1026.6592.2315a5.66,5.66,0,0,1,.7295.2871A2.39,2.39,0,0,1,317.4672,777.0391Z"/><path d="M325.0317,779.7637l-1.8867.1289-.0879-.0821v-.7324h-.0352c-.0937.0977-.1992.2022-.3154.3135a2.23,2.23,0,0,1-.4043.3018,2.56,2.56,0,0,1-.5088.24,2.2994,2.2994,0,0,1-.6963.082,1.4067,1.4067,0,0,1-1.167-.501,2.2848,2.2848,0,0,1-.4-1.4541v-2.7626a.7154.7154,0,0,0-.08-.3545.7349.7349,0,0,0-.2325-.2481.7468.7468,0,0,0-.2656-.1025,2.5345,2.5345,0,0,0-.3359-.044v-.3867l1.9277-.1406.0879.082v4.0137a1.3815,1.3815,0,0,0,.2812.9433.8717.8717,0,0,0,.6739.3165,1.5506,1.5506,0,0,0,.5742-.1,1.6548,1.6548,0,0,0,.4219-.2343,2.0484,2.0484,0,0,0,.2783-.26,1.4949,1.4949,0,0,0,.1846-.2549v-3.2715a.7.7,0,0,0-.0821-.3427.7638.7638,0,0,0-.2285-.2539.6542.6542,0,0,0-.3135-.085q-.2079-.0147-.4658-.0264v-.3867l2.1035-.1406.0879.082v4.583a.6623.6623,0,0,0,.0821.3389.7411.7411,0,0,0,.2285.24.6511.6511,0,0,0,.2519.085,3.0922,3.0922,0,0,0,.3223.0264Z"/><path d="M329.5551,777.0391a1.476,1.476,0,0,1,.3692.4863,1.5833,1.5833,0,0,1,.1289.6738,1.6427,1.6427,0,0,1-.6006,1.3125,2.5672,2.5672,0,0,1-2.4844.3281,2.5559,2.5559,0,0,1-.6064-.3339l-.1172.3808h-.44l-.0586-2.01h.4043a2.2655,2.2655,0,0,0,.1992.5351,2.6014,2.6014,0,0,0,.3692.5527,2.039,2.039,0,0,0,.5478.4346,1.4533,1.4533,0,0,0,.7178.1768,1.3107,1.3107,0,0,0,.8672-.2569.9045.9045,0,0,0,.3047-.7334.88.88,0,0,0-.0967-.4248.935.935,0,0,0-.2842-.3134,2.2358,2.2358,0,0,0-.4746-.2432q-.2812-.1085-.6269-.2139a5.8249,5.8249,0,0,1-.6123-.2256,2.4422,2.4422,0,0,1-.5772-.3369,1.6516,1.6516,0,0,1-.4219-.5039,1.44,1.44,0,0,1-.164-.7031,1.5809,1.5809,0,0,1,.5273-1.2012,1.9868,1.9868,0,0,1,1.4121-.4922,2.88,2.88,0,0,1,.6944.0879,2.3985,2.3985,0,0,1,.5771.211l.1348-.3047h.4219l.0878,1.8574H329.35a1.8707,1.8707,0,0,0-.53-1.0156,1.38,1.38,0,0,0-.9932-.3907,1.102,1.102,0,0,0-.7559.2422.75.75,0,0,0-.2753.584.951.951,0,0,0,.0908.4395.8078.8078,0,0,0,.2724.2988,2.2727,2.2727,0,0,0,.4424.22q.2667.1026.6592.2315a5.66,5.66,0,0,1,.73.2871A2.39,2.39,0,0,1,329.5551,777.0391Z"/><path d="M340.1489,779.7637l-2.0215.1289-.0879-.0821v-.539l-.0469-.0117a2.3965,2.3965,0,0,1-.7519.5566,2.0934,2.0934,0,0,1-.9219.2168,2.1758,2.1758,0,0,1-.95-.22,2.4014,2.4014,0,0,1-.7988-.6182,3.051,3.051,0,0,1-.5469-.9726,3.7186,3.7186,0,0,1-.2022-1.2539,3.2793,3.2793,0,0,1,.2168-1.1895,3.1172,3.1172,0,0,1,.5967-.9844,2.6209,2.6209,0,0,1,.875-.6269,2.535,2.535,0,0,1,1.0557-.2344,3.1025,3.1025,0,0,1,.793.1025,2.8374,2.8374,0,0,1,.67.2608v-2.0137a1.1832,1.1832,0,0,0-.0821-.4492.6851.6851,0,0,0-.2285-.3086,1.146,1.146,0,0,0-.4423-.1611,5.8064,5.8064,0,0,0-.6006-.0733v-.3633l2.3672-.1289.0878.0879v7.7871a.7137.7137,0,0,0,.0791.3487.6862.6862,0,0,0,.2315.2431.7219.7219,0,0,0,.3223.0879q.2109.0175.3867.0235Zm-2.1211-1.0137v-3.3809a1.5163,1.5163,0,0,0-.1524-.3281,1.46,1.46,0,0,0-.2627-.3222,1.5065,1.5065,0,0,0-.3974-.2432,1.3581,1.3581,0,0,0-.5322-.0967,1.2092,1.2092,0,0,0-.6465.1816,1.728,1.728,0,0,0-.5235.5215,2.6888,2.6888,0,0,0-.3418.835,4.657,4.657,0,0,0-.1259,1.1221,3.9344,3.9344,0,0,0,.0937.8935,2.36,2.36,0,0,0,.3154.7471,1.6382,1.6382,0,0,0,.5235.5273,1.4009,1.4009,0,0,0,.7578.1992,1.3668,1.3668,0,0,0,.7744-.205A2.5022,2.5022,0,0,0,338.0278,778.75Z"/><path d="M345.8442,778.51a2.9585,2.9585,0,0,1-.9727,1.1015,2.4482,2.4482,0,0,1-1.4.41,2.847,2.847,0,0,1-1.2216-.2461,2.399,2.399,0,0,1-.8643-.668,2.8356,2.8356,0,0,1-.5068-.9844,4.1553,4.1553,0,0,1-.167-1.1894,3.5039,3.5039,0,0,1,.1787-1.1045,3.1154,3.1154,0,0,1,.5244-.9756,2.5383,2.5383,0,0,1,.8291-.6709,2.39,2.39,0,0,1,1.11-.2549,2.6706,2.6706,0,0,1,1.0839.1993,1.9288,1.9288,0,0,1,.7325.5449,2.1762,2.1762,0,0,1,.4013.7734,3.3929,3.3929,0,0,1,.1319.9668v.3867h-3.8262a4.54,4.54,0,0,0,.1084,1.0332,2.4692,2.4692,0,0,0,.3428.8164,1.6229,1.6229,0,0,0,.5976.5371,1.8357,1.8357,0,0,0,.8789.1973,1.6186,1.6186,0,0,0,.8994-.2451,2.4079,2.4079,0,0,0,.73-.88Zm-1.2949-2.2032a4.7681,4.7681,0,0,0-.0557-.7011,2.1424,2.1424,0,0,0-.1787-.625,1.1961,1.1961,0,0,0-.3692-.4385,1.01,1.01,0,0,0-.6035-.169,1.2554,1.2554,0,0,0-1.0224.5108,2.3822,2.3822,0,0,0-.4424,1.4228Z"/><path d="M278.1069,794.1641l-2.0215.1289-.0879-.0821v-.539l-.0469-.0117a2.3965,2.3965,0,0,1-.7519.5566,2.093,2.093,0,0,1-.9219.2168,2.1762,2.1762,0,0,1-.95-.22,2.3924,2.3924,0,0,1-.7988-.6182,3.0714,3.0714,0,0,1-.5479-.9727,3.7434,3.7434,0,0,1-.2011-1.2539,3.2771,3.2771,0,0,1,.2168-1.1894,3.1335,3.1335,0,0,1,.5966-.9844,2.6263,2.6263,0,0,1,.8741-.6269,2.5387,2.5387,0,0,1,1.0566-.2344,3.1025,3.1025,0,0,1,.793.1025,2.8374,2.8374,0,0,1,.67.2608v-2.0137a1.1848,1.1848,0,0,0-.082-.4492.686.686,0,0,0-.2286-.3086,1.1476,1.1476,0,0,0-.4423-.1612,5.8073,5.8073,0,0,0-.6006-.0732v-.3633L277,785.1992l.0879.0879v7.7871a.7129.7129,0,0,0,.0791.3487.685.685,0,0,0,.2314.2431.7219.7219,0,0,0,.3223.0879q.2109.0175.3867.0234Zm-2.1211-1.0137V789.77a1.5116,1.5116,0,0,0-.1524-.3281,1.3108,1.3108,0,0,0-.66-.5654,1.36,1.36,0,0,0-.5332-.0967,1.2074,1.2074,0,0,0-.6455.1816,1.728,1.728,0,0,0-.5235.5215,2.713,2.713,0,0,0-.3427.835,4.7043,4.7043,0,0,0-.125,1.1221,3.9344,3.9344,0,0,0,.0937.8935,2.3835,2.3835,0,0,0,.3154.7471,1.6382,1.6382,0,0,0,.5235.5273,1.3974,1.3974,0,0,0,.7568.1992,1.368,1.368,0,0,0,.7754-.205A2.5052,2.5052,0,0,0,275.9858,793.15Z"/><path d="M283.8022,792.91a2.9585,2.9585,0,0,1-.9727,1.1015,2.4482,2.4482,0,0,1-1.4.41,2.8485,2.8485,0,0,1-1.2216-.2461,2.399,2.399,0,0,1-.8643-.668,2.8356,2.8356,0,0,1-.5068-.9844,4.1553,4.1553,0,0,1-.167-1.1894,3.5068,3.5068,0,0,1,.1787-1.1045,3.1154,3.1154,0,0,1,.5244-.9756,2.5383,2.5383,0,0,1,.8291-.6709,2.39,2.39,0,0,1,1.11-.2549,2.6724,2.6724,0,0,1,1.0839.1992,1.93,1.93,0,0,1,.7325.545,2.1746,2.1746,0,0,1,.4013.7734,3.3924,3.3924,0,0,1,.1319.9668v.3867h-3.8262a4.54,4.54,0,0,0,.1084,1.0332,2.4692,2.4692,0,0,0,.3428.8164,1.6229,1.6229,0,0,0,.5976.5371,1.8357,1.8357,0,0,0,.8789.1973,1.6186,1.6186,0,0,0,.8994-.2451,2.4079,2.4079,0,0,0,.7295-.88Zm-1.2949-2.2032a4.7681,4.7681,0,0,0-.0557-.7011,2.1424,2.1424,0,0,0-.1787-.625,1.1951,1.1951,0,0,0-.3691-.4385,1.01,1.01,0,0,0-.6036-.169,1.2554,1.2554,0,0,0-1.0224.5108,2.3822,2.3822,0,0,0-.4424,1.4228Zm.2051-4.9922a.6011.6011,0,0,1-.1026.3633,1.6135,1.6135,0,0,1-.3017.2989q-.2931.2343-.7647.5976t-1.0166.791l-.2227-.1875q.5274-.7793.7354-1.0986t.4482-.7061a1.2426,1.2426,0,0,1,.3516-.4072.7137.7137,0,0,1,.3926-.1084.4758.4758,0,0,1,.4805.457Z"/><path d="M290.1772,788.85a1.4533,1.4533,0,0,0-.501.19,1.125,1.125,0,0,0-.4072.5069q-.3458.7851-.7149,1.6377t-.7675,1.79q-.1173.27-.2491.6387t-.2431.709h-.457q-.5566-1.377-1.0254-2.5108t-.9727-2.3232a.8743.8743,0,0,0-.3779-.419,1.5244,1.5244,0,0,0-.5244-.19v-.3867h2.6738v.41a2.1291,2.1291,0,0,0-.44.0733c-.1757.0449-.2636.1064-.2636.1836a.3755.3755,0,0,0,.0293.0908q.0292.0732.0586.167.24.5976.6777,1.668t.7129,1.7265q.2109-.5024.53-1.2519t.6884-1.6739q.0587-.1581.1114-.2959a.7736.7736,0,0,0,.0527-.2783.2285.2285,0,0,0-.0967-.1787.9806.9806,0,0,0-.2314-.1367,1.4884,1.4884,0,0,0-.2637-.0879q-.1289-.0292-.2109-.041v-.375h2.2109Z"/><path d="M295.562,792.91a2.9585,2.9585,0,0,1-.9727,1.1015,2.4482,2.4482,0,0,1-1.4.41,2.8489,2.8489,0,0,1-1.2217-.2461,2.3978,2.3978,0,0,1-.8642-.668,2.8374,2.8374,0,0,1-.5069-.9844,4.1589,4.1589,0,0,1-.167-1.1894,3.504,3.504,0,0,1,.1788-1.1045,3.1154,3.1154,0,0,1,.5244-.9756,2.5372,2.5372,0,0,1,.8291-.6709,2.39,2.39,0,0,1,1.11-.2549,2.6729,2.6729,0,0,1,1.084.1992,1.93,1.93,0,0,1,.7324.545,2.1748,2.1748,0,0,1,.4014.7734,3.3924,3.3924,0,0,1,.1318.9668v.3867h-3.8261a4.54,4.54,0,0,0,.1084,1.0332,2.4691,2.4691,0,0,0,.3427.8164,1.624,1.624,0,0,0,.5977.5371,1.8357,1.8357,0,0,0,.8789.1973,1.6186,1.6186,0,0,0,.8994-.2451,2.4088,2.4088,0,0,0,.7295-.88Zm-1.295-2.2032a4.7674,4.7674,0,0,0-.0556-.7011,2.1424,2.1424,0,0,0-.1787-.625,1.1953,1.1953,0,0,0-.3692-.4385,1.01,1.01,0,0,0-.6035-.169,1.2556,1.2556,0,0,0-1.0225.5108,2.3828,2.3828,0,0,0-.4423,1.4228Z"/><path d="M298.937,794.27h-2.8184v-.3867q.1347-.0117.2871-.0264a1.38,1.38,0,0,0,.252-.0439.4348.4348,0,0,0,.2461-.1846.6451.6451,0,0,0,.082-.3437v-6.6963a.8843.8843,0,0,0-.0908-.3955.7659.7659,0,0,0-.2373-.29,1.2082,1.2082,0,0,0-.3868-.1289,3.5257,3.5257,0,0,0-.4511-.07v-.375l2.1738-.1289.082.0879v7.9277a.6668.6668,0,0,0,.0762.337.4864.4864,0,0,0,.2461.2021,1.3557,1.3557,0,0,0,.2549.0879,1.8738,1.8738,0,0,0,.2842.041Z"/><path d="M305.3,791.3223a3.8181,3.8181,0,0,1-.1933,1.1982,2.84,2.84,0,0,1-.5518.999,2.5662,2.5662,0,0,1-.9385.6973,3.0075,3.0075,0,0,1-1.1962.2285,2.6948,2.6948,0,0,1-1.05-.208,2.646,2.646,0,0,1-.8858-.6064,2.9035,2.9035,0,0,1-.6074-.958,3.3979,3.3979,0,0,1-.2256-1.2686,3.1494,3.1494,0,0,1,.7891-2.2148,2.8874,2.8874,0,0,1,4.07-.044A3.0042,3.0042,0,0,1,305.3,791.3223Zm-1.2128.0117a5.2583,5.2583,0,0,0-.0879-.9287,2.9351,2.9351,0,0,0-.2637-.8291,1.6332,1.6332,0,0,0-.4942-.583,1.239,1.239,0,0,0-.7451-.22,1.32,1.32,0,0,0-.7724.2227,1.653,1.653,0,0,0-.52.6094,2.6938,2.6938,0,0,0-.2636.8144,5.3788,5.3788,0,0,0-.0762.8848,5.5763,5.5763,0,0,0,.0908,1.04,2.9746,2.9746,0,0,0,.291.8526,1.657,1.657,0,0,0,.501.5888,1.2656,1.2656,0,0,0,.749.2139,1.3066,1.3066,0,0,0,1.1621-.709A3.7772,3.7772,0,0,0,304.0874,791.334Z"/><path d="M311.4116,789.1777a3.0128,3.0128,0,0,1,.5361.9522,3.727,3.727,0,0,1,.19,1.2392,3.3083,3.3083,0,0,1-.2285,1.251,3.0618,3.0618,0,0,1-.6035.9639,2.8434,2.8434,0,0,1-.873.6211,2.4514,2.4514,0,0,1-1.02.2168,2.6263,2.6263,0,0,1-.8554-.1172,2.0234,2.0234,0,0,1-.545-.2754h-.0468v1.7383a.6921.6921,0,0,0,.082.3525.4747.4747,0,0,0,.2519.2051,2.6857,2.6857,0,0,0,.4014.1035,2.92,2.92,0,0,0,.4307.0557v.3867h-3.2285v-.3867q.1817-.0117.3515-.0293a1.6242,1.6242,0,0,0,.3047-.0586.3964.3964,0,0,0,.2461-.2051.7908.7908,0,0,0,.07-.3457v-6.1465a.7106.7106,0,0,0-.0879-.34.7511.7511,0,0,0-.2285-.2637.8294.8294,0,0,0-.293-.1084,2.74,2.74,0,0,0-.3632-.05v-.3867l1.9687-.1289.082.07v.65l.0469.0117a2.5276,2.5276,0,0,1,.7559-.5859,1.9311,1.9311,0,0,1,.8965-.2344,2.1429,2.1429,0,0,1,.9873.2285A2.4293,2.4293,0,0,1,311.4116,789.1777Zm-.9551,4.1543a2.6437,2.6437,0,0,0,.3457-.8437,4.7608,4.7608,0,0,0,.1113-1.0723,4.3428,4.3428,0,0,0-.0937-.8848,2.5261,2.5261,0,0,0-.293-.7851,1.6373,1.6373,0,0,0-.5215-.5508,1.3807,1.3807,0,0,0-.7734-.2109,1.3661,1.3661,0,0,0-.7383.19,2.2346,2.2346,0,0,0-.5273.4541v3.416a1.2681,1.2681,0,0,0,.1728.3281,1.5438,1.5438,0,0,0,.2666.293,1.6811,1.6811,0,0,0,.3926.2373,1.302,1.302,0,0,0,.5156.0908,1.2656,1.2656,0,0,0,.6328-.1728A1.4663,1.4663,0,0,0,310.4565,793.332Z"/><path d="M318.267,789.1777a3.0111,3.0111,0,0,1,.5362.9522,3.73,3.73,0,0,1,.19,1.2392,3.31,3.31,0,0,1-.2285,1.251,3.0636,3.0636,0,0,1-.6035.9639,2.8438,2.8438,0,0,1-.8731.6211,2.4506,2.4506,0,0,1-1.0195.2168,2.627,2.627,0,0,1-.8555-.1172,2.0226,2.0226,0,0,1-.5449-.2754h-.0469v1.7383a.6921.6921,0,0,0,.0821.3525.474.474,0,0,0,.2519.2051,2.6824,2.6824,0,0,0,.4014.1035,2.9206,2.9206,0,0,0,.4306.0557v.3867h-3.2285v-.3867q.1816-.0117.3516-.0293a1.6258,1.6258,0,0,0,.3047-.0586.3964.3964,0,0,0,.2461-.2051.7923.7923,0,0,0,.07-.3457v-6.1465a.7106.7106,0,0,0-.0879-.34.7521.7521,0,0,0-.2285-.2637.8294.8294,0,0,0-.293-.1084,2.7387,2.7387,0,0,0-.3633-.05v-.3867l1.9688-.1289.082.07v.65l.0469.0117a2.5284,2.5284,0,0,1,.7558-.5859,1.9314,1.9314,0,0,1,.8965-.2344,2.1423,2.1423,0,0,1,.9873.2285A2.4271,2.4271,0,0,1,318.267,789.1777Zm-.955,4.1543a2.646,2.646,0,0,0,.3457-.8437,4.7608,4.7608,0,0,0,.1113-1.0723,4.343,4.343,0,0,0-.0938-.8848,2.526,2.526,0,0,0-.2929-.7851,1.6382,1.6382,0,0,0-.5215-.5508,1.3812,1.3812,0,0,0-.7734-.2109,1.3661,1.3661,0,0,0-.7383.19,2.2351,2.2351,0,0,0-.5274.4541v3.416a1.2717,1.2717,0,0,0,.1729.3281,1.54,1.54,0,0,0,.2666.293,1.679,1.679,0,0,0,.3926.2373,1.302,1.302,0,0,0,.5156.0908,1.2659,1.2659,0,0,0,.6328-.1728A1.468,1.468,0,0,0,317.312,793.332Z"/><path d="M324.976,792.91a2.9591,2.9591,0,0,1-.9726,1.1015,2.4487,2.4487,0,0,1-1.4.41,2.8486,2.8486,0,0,1-1.2217-.2461,2.399,2.399,0,0,1-.8643-.668,2.8373,2.8373,0,0,1-.5068-.9844,4.1589,4.1589,0,0,1-.167-1.1894,3.5068,3.5068,0,0,1,.1787-1.1045,3.12,3.12,0,0,1,.5244-.9756,2.5393,2.5393,0,0,1,.8291-.6709,2.39,2.39,0,0,1,1.11-.2549,2.6729,2.6729,0,0,1,1.084.1992,1.93,1.93,0,0,1,.7324.545,2.1748,2.1748,0,0,1,.4014.7734,3.3924,3.3924,0,0,1,.1318.9668v.3867h-3.8262a4.5451,4.5451,0,0,0,.1084,1.0332,2.4692,2.4692,0,0,0,.3428.8164,1.6232,1.6232,0,0,0,.5977.5371,1.8352,1.8352,0,0,0,.8789.1973,1.619,1.619,0,0,0,.8994-.2451,2.41,2.41,0,0,0,.7295-.88Zm-1.2949-2.2032a4.7681,4.7681,0,0,0-.0557-.7011,2.1393,2.1393,0,0,0-.1787-.625,1.1951,1.1951,0,0,0-.3691-.4385,1.01,1.01,0,0,0-.6035-.169,1.2555,1.2555,0,0,0-1.0225.5108,2.3828,2.3828,0,0,0-.4424,1.4228Z"/><path d="M335.5288,794.27h-2.8125v-.3867l.2724-.0234a1.0551,1.0551,0,0,0,.2432-.0469.4212.4212,0,0,0,.2431-.1846.6588.6588,0,0,0,.0791-.3427v-2.9825a1.4215,1.4215,0,0,0-.2783-.94.8708.8708,0,0,0-.6943-.3311,1.6254,1.6254,0,0,0-.5391.0879,1.7038,1.7038,0,0,0-.4629.2461,1.48,1.48,0,0,0-.2841.2784,2.619,2.619,0,0,0-.1729.249v3.334a.7123.7123,0,0,0,.07.3369.4554.4554,0,0,0,.24.2021,1.9234,1.9234,0,0,0,.2431.0791,1.7287,1.7287,0,0,0,.2842.0381v.3867h-2.7539v-.3867q.1347-.0117.2607-.0234a1.0349,1.0349,0,0,0,.2315-.0469.4212.4212,0,0,0,.2431-.1846.6588.6588,0,0,0,.0791-.3427v-2.9825a1.4162,1.4162,0,0,0-.2793-.94.8726.8726,0,0,0-.6953-.3311,1.5881,1.5881,0,0,0-.541.0909,1.7831,1.7831,0,0,0-.4638.249,1.42,1.42,0,0,0-.2881.29q-.1173.1612-.1758.2432v3.31a.6314.6314,0,0,0,.082.334.5149.5149,0,0,0,.2461.2051,1.2014,1.2014,0,0,0,.252.0879,1.9518,1.9518,0,0,0,.2871.041v.3867h-2.8067v-.3867q.1349-.0117.2784-.0234a1.0675,1.0675,0,0,0,.249-.0469.4212.4212,0,0,0,.2431-.1846.6576.6576,0,0,0,.0791-.3418v-3.5879a.67.67,0,0,0-.0849-.3369.7644.7644,0,0,0-.2373-.2539.9977.9977,0,0,0-.2754-.1142,1.7633,1.7633,0,0,0-.34-.0557v-.3867l1.9336-.1289.0821.082v.8262h.041q.1464-.1466.3574-.3457a3.1877,3.1877,0,0,1,.3926-.3223,1.8673,1.8673,0,0,1,.5127-.2344,2.2708,2.2708,0,0,1,.665-.0937,1.5711,1.5711,0,0,1,.9668.3017,1.72,1.72,0,0,1,.58.7295c.1406-.1367.2637-.2568.3711-.36a3.0775,3.0775,0,0,1,.4248-.3311,1.9268,1.9268,0,0,1,.5234-.2461,2.2441,2.2441,0,0,1,.67-.0937,1.4719,1.4719,0,0,1,1.1583.4805,2.1765,2.1765,0,0,1,.4267,1.4765v2.9356a.7123.7123,0,0,0,.07.3369.4554.4554,0,0,0,.24.2021,1.5808,1.5808,0,0,0,.2666.0791,2.3739,2.3739,0,0,0,.2959.0381Z"/><path d="M341.3471,792.91a2.9591,2.9591,0,0,1-.9726,1.1015,2.4487,2.4487,0,0,1-1.4.41,2.8486,2.8486,0,0,1-1.2217-.2461,2.399,2.399,0,0,1-.8643-.668,2.8373,2.8373,0,0,1-.5068-.9844,4.1589,4.1589,0,0,1-.167-1.1894,3.5068,3.5068,0,0,1,.1787-1.1045,3.12,3.12,0,0,1,.5244-.9756,2.5393,2.5393,0,0,1,.8291-.6709,2.39,2.39,0,0,1,1.11-.2549,2.6729,2.6729,0,0,1,1.084.1992,1.93,1.93,0,0,1,.7324.545,2.1748,2.1748,0,0,1,.4014.7734,3.396,3.396,0,0,1,.1318.9668v.3867H337.38a4.5451,4.5451,0,0,0,.1084,1.0332,2.4692,2.4692,0,0,0,.3428.8164,1.6237,1.6237,0,0,0,.5976.5371,1.8359,1.8359,0,0,0,.879.1973,1.619,1.619,0,0,0,.8994-.2451,2.41,2.41,0,0,0,.73-.88Zm-1.2949-2.2032a4.7681,4.7681,0,0,0-.0557-.7011,2.1393,2.1393,0,0,0-.1787-.625,1.1951,1.1951,0,0,0-.3691-.4385,1.01,1.01,0,0,0-.6035-.169,1.2555,1.2555,0,0,0-1.0225.5108,2.3828,2.3828,0,0,0-.4424,1.4228Z"/><path d="M348.3959,794.27h-2.8242v-.3867q.1348-.0117.2959-.0234a1.1151,1.1151,0,0,0,.2666-.0469.4214.4214,0,0,0,.2432-.1846.66.66,0,0,0,.0791-.3427v-2.9707a1.3994,1.3994,0,0,0-.291-.9493.9038.9038,0,0,0-.7071-.334,1.62,1.62,0,0,0-.57.0967,2.0281,2.0281,0,0,0-.458.2373,1.3247,1.3247,0,0,0-.3086.29,2.64,2.64,0,0,0-.167.249v3.3223a.6008.6008,0,0,0,.0821.3281.5275.5275,0,0,0,.2461.1992,1.1507,1.1507,0,0,0,.2666.0879,2.4011,2.4011,0,0,0,.2959.041v.3867h-2.83v-.3867q.1347-.0117.2783-.0234a1.0675,1.0675,0,0,0,.249-.0469.4214.4214,0,0,0,.2432-.1846.6586.6586,0,0,0,.0791-.3418v-3.5644a.795.795,0,0,0-.085-.3662.7227.7227,0,0,0-.2373-.2715.7993.7993,0,0,0-.2636-.1026,2.3513,2.3513,0,0,0-.3282-.0439v-.3867l1.9219-.1289.082.082v.8145h.0293q.1407-.1407.3516-.337a3.0611,3.0611,0,0,1,.3984-.3193,2.1,2.1,0,0,1,.5157-.2344,2.2471,2.2471,0,0,1,.6738-.0937,1.4618,1.4618,0,0,1,1.2334.5185,2.1947,2.1947,0,0,1,.4014,1.38v3.0059a.6765.6765,0,0,0,.07.331.4639.4639,0,0,0,.24.1963,1.5529,1.5529,0,0,0,.2432.0821,1.8911,1.8911,0,0,0,.2841.0351Z"/><path d="M352.6733,794.0176q-.3808.1581-.7207.2666a2.7678,2.7678,0,0,1-.832.1084,1.2468,1.2468,0,0,1-1.0225-.3662,1.6063,1.6063,0,0,1-.2959-1.0342v-3.9141h-1.043v-.5625h1.0664v-1.7988h1.0664v1.7988H352.55v.5625h-1.6464v3.2285a5.7829,5.7829,0,0,0,.0263.6065,1.1287,1.1287,0,0,0,.126.4248.6032.6032,0,0,0,.2813.2578,1.2023,1.2023,0,0,0,.5039.0879q.1464,0,.4306-.0264a1.8919,1.8919,0,0,0,.4014-.0674Z"/><path d="M288.4223,808.5635l-2.0205.1289-.0889-.082v-.5391l-.0468-.0117a2.397,2.397,0,0,1-.752.5566,2.0889,2.0889,0,0,1-.9209.2168,2.18,2.18,0,0,1-.9512-.22,2.4024,2.4024,0,0,1-.7988-.6182,3.051,3.051,0,0,1-.5469-.9726,3.7211,3.7211,0,0,1-.2021-1.2539,3.3,3.3,0,0,1,.2158-1.1895,3.1362,3.1362,0,0,1,.5977-.9844,2.63,2.63,0,0,1,.875-.6269,2.5342,2.5342,0,0,1,1.0556-.2344,3.1077,3.1077,0,0,1,.793.1025,2.8528,2.8528,0,0,1,.67.2608V801.083a1.19,1.19,0,0,0-.082-.4492.6833.6833,0,0,0-.2285-.3076,1.1616,1.1616,0,0,0-.4424-.1621,5.8064,5.8064,0,0,0-.6006-.0733v-.3633l2.3672-.1289.0879.0879v7.7881a.7122.7122,0,0,0,.0791.3486.691.691,0,0,0,.2314.2422.7223.7223,0,0,0,.3223.0879q.2109.0176.3867.0235Zm-2.1211-1.0137v-3.3809a1.5519,1.5519,0,0,0-.1513-.3281,1.47,1.47,0,0,0-.2637-.3222,1.4971,1.4971,0,0,0-.3985-.2432,1.3457,1.3457,0,0,0-.5312-.0967,1.2109,1.2109,0,0,0-.6465.1817,1.7251,1.7251,0,0,0-.5234.5214,2.6863,2.6863,0,0,0-.3418.835,4.6518,4.6518,0,0,0-.126,1.1221,3.9344,3.9344,0,0,0,.0937.8935,2.3379,2.3379,0,0,0,.3155.7471,1.627,1.627,0,0,0,.5234.5273,1.4012,1.4012,0,0,0,.7578.1993,1.3646,1.3646,0,0,0,.7744-.2051A2.5022,2.5022,0,0,0,286.3012,807.55Z"/><path d="M294.1176,807.31a2.9591,2.9591,0,0,1-.9726,1.1015,2.4487,2.4487,0,0,1-1.4.41,2.8471,2.8471,0,0,1-1.2217-.2461,2.399,2.399,0,0,1-.8643-.668,2.8368,2.8368,0,0,1-.5068-.9843,4.16,4.16,0,0,1-.167-1.19,3.5068,3.5068,0,0,1,.1787-1.1045,3.12,3.12,0,0,1,.5244-.9756,2.5393,2.5393,0,0,1,.8291-.6709,2.39,2.39,0,0,1,1.11-.2549,2.6711,2.6711,0,0,1,1.084.1993,1.9284,1.9284,0,0,1,.7324.5449,2.1748,2.1748,0,0,1,.4014.7734,3.3929,3.3929,0,0,1,.1318.9668v.3867h-3.8262a4.56,4.56,0,0,0,.1084,1.0342,2.4872,2.4872,0,0,0,.3428.8164,1.6319,1.6319,0,0,0,.5977.5371,1.8468,1.8468,0,0,0,.8789.1963,1.6186,1.6186,0,0,0,.8994-.2441,2.423,2.423,0,0,0,.7295-.8809Zm-1.2949-2.2032a4.7893,4.7893,0,0,0-.0557-.7011,2.1476,2.1476,0,0,0-.1787-.625,1.1846,1.1846,0,0,0-.3691-.4375,1.0031,1.0031,0,0,0-.6035-.17,1.2563,1.2563,0,0,0-1.0225.5117,2.38,2.38,0,0,0-.4424,1.4218Z"/><path d="M307.5649,808.6689h-2.8125v-.3867l.2725-.0234a1.05,1.05,0,0,0,.2431-.0469.4213.4213,0,0,0,.2432-.1846.66.66,0,0,0,.0791-.3427v-2.9825a1.422,1.422,0,0,0-.2783-.94.8709.8709,0,0,0-.6944-.331,1.6244,1.6244,0,0,0-.539.0879,1.6979,1.6979,0,0,0-.4629.246,1.484,1.484,0,0,0-.2842.2784,2.619,2.619,0,0,0-.1729.249v3.334a.7122.7122,0,0,0,.07.3369.4548.4548,0,0,0,.24.2021,1.9033,1.9033,0,0,0,.2432.0791,1.7257,1.7257,0,0,0,.2841.0381v.3867h-2.7539v-.3867q.1348-.0117.2608-.0234a1.0284,1.0284,0,0,0,.2314-.0469.4213.4213,0,0,0,.2432-.1846.66.66,0,0,0,.0791-.3427v-2.9825a1.4167,1.4167,0,0,0-.2793-.94.8733.8733,0,0,0-.6963-.331,1.5857,1.5857,0,0,0-.54.0908,1.7663,1.7663,0,0,0-.4639.249,1.39,1.39,0,0,0-.2871.29c-.0791.1075-.1377.1885-.1768.2432v3.3106a.6322.6322,0,0,0,.082.3339.5154.5154,0,0,0,.2461.2051,1.2053,1.2053,0,0,0,.252.0879,1.9518,1.9518,0,0,0,.2871.041v.3867h-2.8066v-.3867q.1347-.0117.2783-.0234a1.0624,1.0624,0,0,0,.249-.0469.42.42,0,0,0,.2432-.1836.66.66,0,0,0,.0791-.3428v-3.5878a.6678.6678,0,0,0-.085-.336.7739.7739,0,0,0-.2373-.2549,1.0007,1.0007,0,0,0-.2754-.1142,1.7623,1.7623,0,0,0-.34-.0557V802.95l1.9336-.1289.082.082v.8262h.041q.1466-.1466.3574-.3457a3.2044,3.2044,0,0,1,.3926-.3223,1.8673,1.8673,0,0,1,.5127-.2344,2.2713,2.2713,0,0,1,.665-.0937,1.57,1.57,0,0,1,.9668.3018,1.7188,1.7188,0,0,1,.58.7294c.14-.1367.2647-.2568.3721-.36a3.0021,3.0021,0,0,1,.4238-.3311,1.94,1.94,0,0,1,.5235-.2461,2.2478,2.2478,0,0,1,.67-.0937,1.4721,1.4721,0,0,1,1.1582.4805,2.176,2.176,0,0,1,.4267,1.4765v2.9356a.7122.7122,0,0,0,.07.3369.4548.4548,0,0,0,.24.2021,1.5716,1.5716,0,0,0,.2666.0791,2.3764,2.3764,0,0,0,.2959.0381Z"/><path d="M313.8872,805.7217a3.8183,3.8183,0,0,1-.1934,1.1982,2.8719,2.8719,0,0,1-.5518.999,2.5585,2.5585,0,0,1-.9384.6973,3.01,3.01,0,0,1-1.1963.2285,2.6985,2.6985,0,0,1-1.05-.208,2.6371,2.6371,0,0,1-.8858-.6064,2.9024,2.9024,0,0,1-.6074-.958,3.3976,3.3976,0,0,1-.2256-1.2686,3.1494,3.1494,0,0,1,.7891-2.2148,2.8874,2.8874,0,0,1,4.07-.044A3,3,0,0,1,313.8872,805.7217Zm-1.2129.0117a5.2592,5.2592,0,0,0-.0879-.9287,2.9666,2.9666,0,0,0-.2647-.8291,1.6193,1.6193,0,0,0-.4922-.583,1.2463,1.2463,0,0,0-.7461-.22,1.3165,1.3165,0,0,0-.7714.2226,1.6347,1.6347,0,0,0-.52.6094,2.6972,2.6972,0,0,0-.2646.8144,5.3788,5.3788,0,0,0-.0762.8848,5.5763,5.5763,0,0,0,.0908,1.04,3.0053,3.0053,0,0,0,.291.8526,1.65,1.65,0,0,0,.502.5888,1.2624,1.2624,0,0,0,.748.2139,1.3057,1.3057,0,0,0,1.1622-.709A3.7882,3.7882,0,0,0,312.6743,805.7334Z"/><path d="M321.0473,808.5635l-2.0215.1289-.0879-.082v-.5391l-.0468-.0117a2.3981,2.3981,0,0,1-.752.5566,2.092,2.092,0,0,1-.9209.2168,2.18,2.18,0,0,1-.9512-.22,2.4024,2.4024,0,0,1-.7988-.6182,3.051,3.051,0,0,1-.5469-.9726,3.7211,3.7211,0,0,1-.2021-1.2539,3.3,3.3,0,0,1,.2158-1.1895,3.1362,3.1362,0,0,1,.5977-.9844,2.63,2.63,0,0,1,.875-.6269,2.5342,2.5342,0,0,1,1.0556-.2344,3.1019,3.1019,0,0,1,.793.1025,2.8357,2.8357,0,0,1,.67.2608V801.083a1.19,1.19,0,0,0-.082-.4492.6833.6833,0,0,0-.2285-.3076,1.1616,1.1616,0,0,0-.4424-.1621,5.8064,5.8064,0,0,0-.6006-.0733v-.3633l2.3672-.1289.0879.0879v7.7881a.7122.7122,0,0,0,.0791.3486.691.691,0,0,0,.2314.2422.7223.7223,0,0,0,.3223.0879q.2109.0176.3867.0235Zm-2.1211-1.0137v-3.3809a1.5108,1.5108,0,0,0-.1523-.3281,1.4623,1.4623,0,0,0-.2627-.3222,1.5071,1.5071,0,0,0-.3975-.2432,1.3578,1.3578,0,0,0-.5322-.0967,1.2109,1.2109,0,0,0-.6465.1817,1.7251,1.7251,0,0,0-.5234.5214,2.6863,2.6863,0,0,0-.3418.835,4.6518,4.6518,0,0,0-.126,1.1221,3.9344,3.9344,0,0,0,.0937.8935,2.3379,2.3379,0,0,0,.3155.7471,1.627,1.627,0,0,0,.5234.5273,1.4012,1.4012,0,0,0,.7578.1993,1.3666,1.3666,0,0,0,.7744-.2051A2.5022,2.5022,0,0,0,318.9262,807.55Z"/><path d="M327.8032,808.5635l-1.8867.1289-.0879-.082v-.7325h-.0352c-.0937.0977-.1992.2022-.3154.3135a2.23,2.23,0,0,1-.4043.3018,2.56,2.56,0,0,1-.5088.24,2.2994,2.2994,0,0,1-.6963.082,1.4089,1.4089,0,0,1-1.167-.5,2.2878,2.2878,0,0,1-.4-1.455v-2.7627a.7134.7134,0,0,0-.08-.3536.7279.7279,0,0,0-.2324-.249.7476.7476,0,0,0-.2656-.1025,2.5367,2.5367,0,0,0-.3359-.044v-.3867l1.9277-.1406.0879.082v4.0137a1.382,1.382,0,0,0,.2812.9434.8717.8717,0,0,0,.6739.3164,1.5506,1.5506,0,0,0,.5742-.1,1.6256,1.6256,0,0,0,.4219-.2333,1.9926,1.9926,0,0,0,.2783-.2608,1.4883,1.4883,0,0,0,.1845-.2549v-3.2715a.7.7,0,0,0-.082-.3418.7666.7666,0,0,0-.2285-.2548.6542.6542,0,0,0-.3135-.085q-.208-.0147-.4658-.0264v-.3867l2.1035-.1406.0879.082v4.583a.6638.6638,0,0,0,.082.34.74.74,0,0,0,.2286.2392.6505.6505,0,0,0,.2519.085,3.0651,3.0651,0,0,0,.3223.0264Z"/><path d="M331.2192,808.6689h-2.8184v-.3867q.1349-.0117.2871-.0263a1.3873,1.3873,0,0,0,.252-.044.434.434,0,0,0,.2461-.1846.64.64,0,0,0,.082-.3427v-6.6963a.8843.8843,0,0,0-.0908-.3955.7682.7682,0,0,0-.2373-.291,1.2023,1.2023,0,0,0-.3867-.1289,3.53,3.53,0,0,0-.4512-.07v-.375l2.1738-.1289.0821.0879v7.9278a.6667.6667,0,0,0,.0761.3369.4859.4859,0,0,0,.2461.2021,1.3582,1.3582,0,0,0,.2549.0879,1.8738,1.8738,0,0,0,.2842.041Z"/><path d="M337.0786,807.31a2.9585,2.9585,0,0,1-.9727,1.1015,2.4482,2.4482,0,0,1-1.4.41,2.8474,2.8474,0,0,1-1.2217-.2461,2.3978,2.3978,0,0,1-.8642-.668,2.837,2.837,0,0,1-.5069-.9843,4.16,4.16,0,0,1-.167-1.19,3.504,3.504,0,0,1,.1788-1.1045,3.1154,3.1154,0,0,1,.5244-.9756,2.5372,2.5372,0,0,1,.8291-.6709,2.39,2.39,0,0,1,1.11-.2549,2.6711,2.6711,0,0,1,1.084.1993,1.9284,1.9284,0,0,1,.7324.5449,2.1748,2.1748,0,0,1,.4014.7734,3.3929,3.3929,0,0,1,.1318.9668v.3867h-3.8261a4.5547,4.5547,0,0,0,.1084,1.0342,2.4871,2.4871,0,0,0,.3427.8164,1.6327,1.6327,0,0,0,.5977.5371,1.8473,1.8473,0,0,0,.8789.1963,1.6181,1.6181,0,0,0,.8994-.2441,2.422,2.422,0,0,0,.73-.8809Zm-1.295-2.2032a4.7885,4.7885,0,0,0-.0556-.7011,2.1507,2.1507,0,0,0-.1787-.625,1.1849,1.1849,0,0,0-.3692-.4375,1.0029,1.0029,0,0,0-.6035-.17,1.2565,1.2565,0,0,0-1.0225.5117,2.38,2.38,0,0,0-.4423,1.4218Z"/><path d="M341.561,805.8389a1.4756,1.4756,0,0,1,.3691.4863,1.5818,1.5818,0,0,1,.1289.6738,1.6427,1.6427,0,0,1-.6006,1.3125,2.567,2.567,0,0,1-2.4843.3281,2.557,2.557,0,0,1-.6065-.3339l-.1172.3808h-.4394l-.0586-2.01h.4043a2.2256,2.2256,0,0,0,.1992.5351,2.5515,2.5515,0,0,0,.3691.5527,2.0442,2.0442,0,0,0,.5479.4356,1.4632,1.4632,0,0,0,.7178.1758,1.3108,1.3108,0,0,0,.8672-.2559.9066.9066,0,0,0,.3046-.7344.8813.8813,0,0,0-.0966-.4248.9361.9361,0,0,0-.2842-.3134,2.2358,2.2358,0,0,0-.4746-.2432q-.2812-.1085-.627-.2139a5.8249,5.8249,0,0,1-.6123-.2256,2.4394,2.4394,0,0,1-.5771-.3369,1.6516,1.6516,0,0,1-.4219-.5039,1.4384,1.4384,0,0,1-.1641-.7031,1.5808,1.5808,0,0,1,.5274-1.2012,1.9865,1.9865,0,0,1,1.4121-.4922,2.8787,2.8787,0,0,1,.6943.0879,2.4,2.4,0,0,1,.5772.211l.1347-.3047h.4219l.0879,1.8574h-.4043a1.8679,1.8679,0,0,0-.53-1.0146,1.38,1.38,0,0,0-.9931-.3916,1.107,1.107,0,0,0-.7559.2421.7512.7512,0,0,0-.2754.584.9523.9523,0,0,0,.0908.4395.809.809,0,0,0,.2725.2988,2.27,2.27,0,0,0,.4424.22q.2666.1026.6592.2315a5.6661,5.6661,0,0,1,.73.2871A2.3953,2.3953,0,0,1,341.561,805.8389Z"/><path d="M268.1811,823.0693h-2.8242v-.3867q.1347-.0117.2959-.0234a1.1151,1.1151,0,0,0,.2666-.0469.4212.4212,0,0,0,.2431-.1846.6588.6588,0,0,0,.0791-.3427v-2.9707a1.404,1.404,0,0,0-.291-.9493.9035.9035,0,0,0-.707-.3339,1.6155,1.6155,0,0,0-.57.0966,2.0474,2.0474,0,0,0-.458.2373,1.2973,1.2973,0,0,0-.3076.29,2.4807,2.4807,0,0,0-.168.249v3.3223a.6008.6008,0,0,0,.082.3281.5275.5275,0,0,0,.2461.1992,1.1523,1.1523,0,0,0,.2666.0879,2.4038,2.4038,0,0,0,.2959.041v.3867H261.8v-.3867q.1349-.0117.2784-.0234a1.0675,1.0675,0,0,0,.249-.0469.4212.4212,0,0,0,.2431-.1846.6576.6576,0,0,0,.0792-.3418v-3.5644a.7963.7963,0,0,0-.085-.3662.7245.7245,0,0,0-.2373-.2715.799.799,0,0,0-.2637-.1026,2.3477,2.3477,0,0,0-.3281-.0439v-.3867l1.9219-.1289.082.082v.8145h.0293q.1406-.1407.3516-.337a3.0611,3.0611,0,0,1,.3984-.3193,2.1,2.1,0,0,1,.5156-.2344,2.2471,2.2471,0,0,1,.6738-.0937,1.4617,1.4617,0,0,1,1.2334.5185,2.1947,2.1947,0,0,1,.4014,1.38v3.0059a.6765.6765,0,0,0,.07.331.4645.4645,0,0,0,.24.1963,1.5522,1.5522,0,0,0,.2431.0821,1.8928,1.8928,0,0,0,.2842.0351Z"/><path d="M275.0834,822.9639l-1.8867.1289-.0879-.0821v-.7324h-.0351q-.1407.1466-.3164.3135a2.2115,2.2115,0,0,1-.4024.3018,2.5947,2.5947,0,0,1-.51.24,2.2966,2.2966,0,0,1-.6953.082,1.4073,1.4073,0,0,1-1.168-.501,2.2787,2.2787,0,0,1-.4-1.4541V818.498a.7153.7153,0,0,0-.08-.3544.7.7,0,0,0-.498-.3506,2.5142,2.5142,0,0,0-.336-.044v-.3867l1.9278-.1406.0879.082v4.0137a1.3815,1.3815,0,0,0,.2812.9433.8714.8714,0,0,0,.6738.3164,1.5528,1.5528,0,0,0,.5743-.1,1.6558,1.6558,0,0,0,.4218-.2343,2.0366,2.0366,0,0,0,.2783-.26,1.4949,1.4949,0,0,0,.1846-.2549V818.457a.7.7,0,0,0-.082-.3427.7639.7639,0,0,0-.2285-.2539.6542.6542,0,0,0-.3135-.085q-.208-.0147-.4658-.0264v-.3867l2.1035-.1406.0879.082v4.583a.6623.6623,0,0,0,.082.3389.7432.7432,0,0,0,.2285.24.651.651,0,0,0,.252.085,3.0645,3.0645,0,0,0,.3222.0263Z"/><path d="M285.6772,823.0693h-2.8125v-.3867l.2725-.0234a1.0542,1.0542,0,0,0,.2431-.0469.4217.4217,0,0,0,.2432-.1846.66.66,0,0,0,.0791-.3427v-2.9825a1.422,1.422,0,0,0-.2783-.94.8709.8709,0,0,0-.6944-.331,1.6269,1.6269,0,0,0-.539.0878,1.7009,1.7009,0,0,0-.4629.2461,1.484,1.484,0,0,0-.2842.2784,2.619,2.619,0,0,0-.1729.249v3.334a.7122.7122,0,0,0,.07.3369.4548.4548,0,0,0,.24.2021,1.9033,1.9033,0,0,0,.2432.0791,1.7257,1.7257,0,0,0,.2841.0381v.3867h-2.7539v-.3867q.1348-.0117.2608-.0234a1.034,1.034,0,0,0,.2314-.0469.4217.4217,0,0,0,.2432-.1846.66.66,0,0,0,.0791-.3427v-2.9825a1.4167,1.4167,0,0,0-.2793-.94.8728.8728,0,0,0-.6953-.331,1.5831,1.5831,0,0,0-.541.0908,1.7821,1.7821,0,0,0-.4639.249,1.3953,1.3953,0,0,0-.2881.29q-.1172.1612-.1758.2432v3.31a.6314.6314,0,0,0,.0821.334.5147.5147,0,0,0,.246.2051,1.2053,1.2053,0,0,0,.252.0879,1.9518,1.9518,0,0,0,.2871.041v.3867h-2.8066v-.3867q.1347-.0117.2783-.0234a1.0675,1.0675,0,0,0,.249-.0469.4217.4217,0,0,0,.2432-.1846.6586.6586,0,0,0,.0791-.3418V818.498a.6688.6688,0,0,0-.085-.3369.7623.7623,0,0,0-.2373-.2539,1.0007,1.0007,0,0,0-.2754-.1142,1.7623,1.7623,0,0,0-.34-.0557v-.3867l1.9336-.1289.082.082v.8262h.041q.1466-.1466.3574-.3457a3.1952,3.1952,0,0,1,.3926-.3223,1.8673,1.8673,0,0,1,.5127-.2344,2.2715,2.2715,0,0,1,.6651-.0937,1.5713,1.5713,0,0,1,.9668.3017,1.72,1.72,0,0,1,.58.7295c.1407-.1367.2637-.2568.3711-.36a3.1186,3.1186,0,0,1,.4239-.3311,1.945,1.945,0,0,1,.5244-.2461,2.2415,2.2415,0,0,1,.6689-.0937,1.469,1.469,0,0,1,1.1582.4805,2.1707,2.1707,0,0,1,.4277,1.4765v2.9356a.7122.7122,0,0,0,.07.3369.4548.4548,0,0,0,.24.2021,1.5716,1.5716,0,0,0,.2666.0791,2.3764,2.3764,0,0,0,.2959.0381Z"/><path d="M291.4956,821.71a2.9593,2.9593,0,0,1-.9727,1.1015,2.4485,2.4485,0,0,1-1.4.41,2.8489,2.8489,0,0,1-1.2217-.2461,2.3978,2.3978,0,0,1-.8642-.668,2.8374,2.8374,0,0,1-.5069-.9844,4.1589,4.1589,0,0,1-.167-1.1894,3.504,3.504,0,0,1,.1788-1.1045,3.1154,3.1154,0,0,1,.5244-.9756,2.5372,2.5372,0,0,1,.8291-.6709,2.39,2.39,0,0,1,1.11-.2549,2.6729,2.6729,0,0,1,1.084.1992,1.93,1.93,0,0,1,.7324.545,2.1748,2.1748,0,0,1,.4014.7734,3.3924,3.3924,0,0,1,.1318.9668v.3867h-3.8261a4.54,4.54,0,0,0,.1084,1.0332,2.4691,2.4691,0,0,0,.3427.8164,1.624,1.624,0,0,0,.5977.5371,1.8355,1.8355,0,0,0,.8789.1973,1.6188,1.6188,0,0,0,.8994-.2451,2.4088,2.4088,0,0,0,.7295-.88Zm-1.295-2.2032a4.7674,4.7674,0,0,0-.0556-.7011,2.1424,2.1424,0,0,0-.1787-.625,1.1961,1.1961,0,0,0-.3692-.4385,1.01,1.01,0,0,0-.6035-.169,1.2555,1.2555,0,0,0-1.0225.5108,2.3828,2.3828,0,0,0-.4423,1.4228Zm.2051-4.9922a.6017.6017,0,0,1-.1025.3633,1.6176,1.6176,0,0,1-.3018.2989q-.2929.2343-.7646.5976t-1.0166.791l-.2227-.1875q.5274-.7793.7354-1.0986t.4482-.7061a1.2426,1.2426,0,0,1,.3516-.4072.7142.7142,0,0,1,.3925-.1084.4758.4758,0,0,1,.4805.457Z"/><path d="M296.5874,818.0361a.9707.9707,0,0,1-.1465.53.4967.4967,0,0,1-.4512.2315.6855.6855,0,0,1-.501-.17.517.517,0,0,1-.1728-.375,1.2289,1.2289,0,0,1,.0205-.2343q.02-.1056.0381-.211a1.2975,1.2975,0,0,0-.6446.2227,1.9036,1.9036,0,0,0-.6269.6328v3.3633a.6306.6306,0,0,0,.0791.334.4784.4784,0,0,0,.249.1933,1.5633,1.5633,0,0,0,.3779.0879q.2314.0292.4014.041v.3867h-3.0469v-.3867q.1349-.0117.2783-.0234a1.0684,1.0684,0,0,0,.2491-.0469.4215.4215,0,0,0,.2431-.1846.6576.6576,0,0,0,.0791-.3418v-3.5644a.8136.8136,0,0,0-.0849-.3574.7091.7091,0,0,0-.2373-.28.8.8,0,0,0-.2637-.1026,2.35,2.35,0,0,0-.3281-.0439v-.3867l1.9218-.1289.0821.082v.8145h.0293a2.628,2.628,0,0,1,.8086-.7207,1.709,1.709,0,0,1,.8144-.2461.7965.7965,0,0,1,.6006.24A.89.89,0,0,1,296.5874,818.0361Z"/><path d="M299.88,823.0693h-2.789v-.3867q.1347-.0117.2783-.0234a1.0675,1.0675,0,0,0,.249-.0469.4217.4217,0,0,0,.2432-.1846.6586.6586,0,0,0,.0791-.3418v-3.5644a.7028.7028,0,0,0-.085-.3428.7445.7445,0,0,0-.2373-.26,1.0861,1.0861,0,0,0-.3223-.12,2.3847,2.3847,0,0,0-.3867-.0615v-.3867l2.0391-.1289.082.082v4.7109a.6738.6738,0,0,0,.0781.34.4669.4669,0,0,0,.2481.1992,1.9323,1.9323,0,0,0,.25.085,1.5378,1.5378,0,0,0,.2734.0439Zm-.7324-8.1269a.8533.8533,0,0,1-.22.583.6948.6948,0,0,1-.542.249.6847.6847,0,0,1-.5186-.2373.7754.7754,0,0,1-.22-.542.8069.8069,0,0,1,.22-.5625.6813.6813,0,0,1,.5186-.24.7214.7214,0,0,1,.5478.2256A.7387.7387,0,0,1,299.1479,814.9424Z"/><path d="M306.935,825.6709h-3.1289v-.3867q.1816-.0117.3574-.0293a1.759,1.759,0,0,0,.3164-.0586.4022.4022,0,0,0,.252-.2061.7922.7922,0,0,0,.07-.3466v-2.1368l-.0352-.0117a2.2368,2.2368,0,0,1-.2656.2432,1.8416,1.8416,0,0,1-.36.2256,2.6946,2.6946,0,0,1-.45.19,1.8671,1.8671,0,0,1-.545.0674,2.292,2.292,0,0,1-.9912-.22,2.401,2.401,0,0,1-.81-.6241,2.9731,2.9731,0,0,1-.5479-.9814,3.9111,3.9111,0,0,1-.2011-1.28,3.0036,3.0036,0,0,1,.2343-1.2041,3.1994,3.1994,0,0,1,.62-.9463,2.7435,2.7435,0,0,1,.8877-.6064,2.5539,2.5539,0,0,1,1.0273-.2256,2.8276,2.8276,0,0,1,.6758.0732,2.7259,2.7259,0,0,1,.5058.1729,2.2084,2.2084,0,0,1,.3633.1963q.1817.12.2578.1611l.5-.7617.336.0469q-.0235.4335-.0616,1.0673t-.038,1.1075v5.3476a.7714.7714,0,0,0,.0761.3545.4911.4911,0,0,0,.2461.2266,1.965,1.965,0,0,0,.3574.1025,3.29,3.29,0,0,0,.3516.0557Zm-2.1328-3.6738v-3.4512a1.4884,1.4884,0,0,0-.1582-.3252,1.4374,1.4374,0,0,0-.2627-.3135,1.4041,1.4041,0,0,0-.4014-.2343,1.4745,1.4745,0,0,0-.5468-.0938,1.3543,1.3543,0,0,0-1.1485.709,3.5253,3.5253,0,0,0-.4648,1.9512,4.0132,4.0132,0,0,0,.0908.8906,2.3111,2.3111,0,0,0,.3125.7441,1.6428,1.6428,0,0,0,.5322.5244,1.538,1.538,0,0,0,.8125.1963,1.3725,1.3725,0,0,0,.72-.1787A2.244,2.244,0,0,0,304.8022,821.9971Z"/><path d="M313.5034,822.9639l-1.8868.1289-.0878-.0821v-.7324h-.0352q-.1406.1466-.3164.3135a2.2141,2.2141,0,0,1-.4023.3018,2.5954,2.5954,0,0,1-.51.24,2.2966,2.2966,0,0,1-.6953.082,1.4074,1.4074,0,0,1-1.168-.501,2.2787,2.2787,0,0,1-.4-1.4541V818.498a.7153.7153,0,0,0-.08-.3544.7.7,0,0,0-.498-.3506,2.5148,2.5148,0,0,0-.3359-.044v-.3867l1.9277-.1406.0879.082v4.0137a1.3815,1.3815,0,0,0,.2812.9433.8714.8714,0,0,0,.6739.3164,1.5526,1.5526,0,0,0,.5742-.1,1.6541,1.6541,0,0,0,.4218-.2343,2.0435,2.0435,0,0,0,.2784-.26,1.4938,1.4938,0,0,0,.1845-.2549V818.457a.7.7,0,0,0-.082-.3427.7639.7639,0,0,0-.2285-.2539.6542.6542,0,0,0-.3135-.085q-.208-.0147-.4658-.0264v-.3867l2.1035-.1406.0879.082v4.583a.6623.6623,0,0,0,.082.3389.7432.7432,0,0,0,.2285.24.6516.6516,0,0,0,.252.085,3.0665,3.0665,0,0,0,.3223.0263Z"/><path d="M319.3452,821.71a2.9585,2.9585,0,0,1-.9727,1.1015,2.4482,2.4482,0,0,1-1.4.41,2.8489,2.8489,0,0,1-1.2217-.2461,2.3978,2.3978,0,0,1-.8642-.668,2.8374,2.8374,0,0,1-.5069-.9844,4.1588,4.1588,0,0,1-.1669-1.1894,3.5039,3.5039,0,0,1,.1787-1.1045,3.1154,3.1154,0,0,1,.5244-.9756,2.5372,2.5372,0,0,1,.8291-.6709,2.39,2.39,0,0,1,1.11-.2549,2.6729,2.6729,0,0,1,1.084.1992,1.93,1.93,0,0,1,.7324.545,2.1748,2.1748,0,0,1,.4014.7734,3.3924,3.3924,0,0,1,.1318.9668v.3867h-3.8261a4.54,4.54,0,0,0,.1084,1.0332,2.4691,2.4691,0,0,0,.3427.8164,1.624,1.624,0,0,0,.5977.5371,1.8357,1.8357,0,0,0,.8789.1973,1.6186,1.6186,0,0,0,.8994-.2451,2.4088,2.4088,0,0,0,.73-.88Zm-1.295-2.2032a4.7674,4.7674,0,0,0-.0556-.7011,2.1424,2.1424,0,0,0-.1787-.625,1.1961,1.1961,0,0,0-.3692-.4385,1.01,1.01,0,0,0-.6035-.169,1.2556,1.2556,0,0,0-1.0225.5108,2.3828,2.3828,0,0,0-.4423,1.4228Z"/><path d="M323.8276,820.2393a1.4756,1.4756,0,0,1,.3691.4863,1.5818,1.5818,0,0,1,.1289.6738,1.6427,1.6427,0,0,1-.6006,1.3125,2.567,2.567,0,0,1-2.4843.3281,2.5605,2.5605,0,0,1-.6065-.3339l-.1172.3808h-.4394l-.0586-2.01h.4043a2.2557,2.2557,0,0,0,.1992.5352,2.6011,2.6011,0,0,0,.3691.5527,2.041,2.041,0,0,0,.5479.4346,1.453,1.453,0,0,0,.7178.1768,1.3109,1.3109,0,0,0,.8672-.2569.9045.9045,0,0,0,.3046-.7334.8813.8813,0,0,0-.0966-.4248.9361.9361,0,0,0-.2842-.3134,2.2358,2.2358,0,0,0-.4746-.2432q-.2812-.1085-.627-.2139a5.8249,5.8249,0,0,1-.6123-.2256,2.4394,2.4394,0,0,1-.5771-.3369,1.6516,1.6516,0,0,1-.4219-.5039,1.4384,1.4384,0,0,1-.1641-.7031,1.5806,1.5806,0,0,1,.5274-1.2012,1.9865,1.9865,0,0,1,1.4121-.4922,2.8781,2.8781,0,0,1,.6943.0879,2.4,2.4,0,0,1,.5772.211l.1347-.3047h.4219l.0879,1.8574h-.4043a1.8708,1.8708,0,0,0-.53-1.0156,1.38,1.38,0,0,0-.9931-.3907,1.102,1.102,0,0,0-.7559.2422.75.75,0,0,0-.2754.584.9523.9523,0,0,0,.0908.4395.809.809,0,0,0,.2725.2988,2.27,2.27,0,0,0,.4424.22q.2665.1026.6592.2315a5.6661,5.6661,0,0,1,.73.2871A2.3922,2.3922,0,0,1,323.8276,820.2393Z"/><path d="M333.3725,817.9775a3.0089,3.0089,0,0,1,.5361.9522,3.7269,3.7269,0,0,1,.1905,1.2392,3.31,3.31,0,0,1-.2285,1.251,3.0638,3.0638,0,0,1-.6036.9639,2.8418,2.8418,0,0,1-.873.6211,2.451,2.451,0,0,1-1.0195.2168,2.6265,2.6265,0,0,1-.8555-.1172,2.0211,2.0211,0,0,1-.5449-.2754h-.0469v1.7383a.6921.6921,0,0,0,.082.3525.4746.4746,0,0,0,.252.2051,2.68,2.68,0,0,0,.4013.1035,2.9217,2.9217,0,0,0,.4307.0557v.3867h-3.2285v-.3867q.1816-.0117.3516-.0293a1.6246,1.6246,0,0,0,.3046-.0586.3961.3961,0,0,0,.2461-.2051.7908.7908,0,0,0,.07-.3457V818.499a.7106.7106,0,0,0-.0879-.34.7513.7513,0,0,0-.2286-.2637.8288.8288,0,0,0-.2929-.1084,2.7387,2.7387,0,0,0-.3633-.05v-.3867l1.9687-.1289.0821.07v.65l.0469.0117a2.5271,2.5271,0,0,1,.7558-.5859,1.9311,1.9311,0,0,1,.8965-.2344,2.1423,2.1423,0,0,1,.9873.2285A2.4282,2.4282,0,0,1,333.3725,817.9775Zm-.9551,4.1543a2.6415,2.6415,0,0,0,.3457-.8437,4.7542,4.7542,0,0,0,.1114-1.0723,4.3413,4.3413,0,0,0-.0938-.8847,2.5233,2.5233,0,0,0-.293-.7852,1.638,1.638,0,0,0-.5214-.5508,1.3813,1.3813,0,0,0-.7735-.2109,1.3666,1.3666,0,0,0-.7383.19,2.2346,2.2346,0,0,0-.5273.4541v3.416a1.2764,1.2764,0,0,0,.1728.3282,1.5461,1.5461,0,0,0,.2666.2929,1.6811,1.6811,0,0,0,.3926.2373,1.3025,1.3025,0,0,0,.5157.0908,1.2661,1.2661,0,0,0,.6328-.1728A1.4669,1.4669,0,0,0,332.4174,822.1318Z"/><path d="M340.4213,822.9639q-.2754.1-.4834.1611a1.6632,1.6632,0,0,1-.4716.0615,1.15,1.15,0,0,1-.7295-.2138.9874.9874,0,0,1-.3487-.6241h-.0351a2.8584,2.8584,0,0,1-.8174.6446,2.2921,2.2921,0,0,1-1.0518.2226,1.4889,1.4889,0,0,1-1.0693-.3984,1.3734,1.3734,0,0,1-.4189-1.043,1.7767,1.7767,0,0,1,.0937-.5976,1.43,1.43,0,0,1,.2813-.4747,1.4058,1.4058,0,0,1,.3867-.3134,3.3791,3.3791,0,0,1,.4511-.22q.2637-.1,1.0694-.3691a8.0111,8.0111,0,0,0,1.0869-.4219v-.58a2.45,2.45,0,0,0-.0322-.293,1.2279,1.2279,0,0,0-.1377-.41,1.1676,1.1676,0,0,0-.3311-.3779.9916.9916,0,0,0-.6064-.1611,1.3584,1.3584,0,0,0-.501.0908.9085.9085,0,0,0-.3252.19,1.604,1.604,0,0,0,.0557.3457,1.7925,1.7925,0,0,1,.0556.4219.5034.5034,0,0,1-.1845.375.7286.7286,0,0,1-.5127.17.48.48,0,0,1-.4307-.208.8216.8216,0,0,1,.0527-.9814,1.9117,1.9117,0,0,1,.4952-.44,2.6925,2.6925,0,0,1,.6386-.2783,2.5054,2.5054,0,0,1,.7324-.1143,4.7993,4.7993,0,0,1,.8584.0674,1.575,1.575,0,0,1,.6651.29,1.3513,1.3513,0,0,1,.4541.5888,2.5131,2.5131,0,0,1,.1553.958q0,.8379-.0176,1.4854t-.0176,1.415a.7162.7162,0,0,0,.0791.3633.6416.6416,0,0,0,.2432.2285.5964.5964,0,0,0,.2783.0586q.19.0059.39.0059Zm-2.0449-3.0938q-.498.1466-.873.2871a3.5905,3.5905,0,0,0-.6973.3526,1.59,1.59,0,0,0-.4629.4726,1.2054,1.2054,0,0,0-.17.6494.916.916,0,0,0,.2549.7159.9294.9294,0,0,0,.6474.2294,1.323,1.323,0,0,0,.7325-.2031,2.116,2.116,0,0,0,.5332-.4785Z"/><path d="M345.4194,818.0361a.97.97,0,0,1-.1465.53.4966.4966,0,0,1-.4512.2315.6857.6857,0,0,1-.501-.17.517.517,0,0,1-.1728-.375,1.2289,1.2289,0,0,1,.0205-.2343q.0205-.1056.0381-.211a1.2972,1.2972,0,0,0-.6445.2227,1.9039,1.9039,0,0,0-.627.6328v3.3633a.6315.6315,0,0,0,.0791.334.4788.4788,0,0,0,.249.1933,1.5643,1.5643,0,0,0,.378.0879q.2314.0292.4013.041v.3867h-3.0468v-.3867q.1347-.0117.2783-.0234a1.0675,1.0675,0,0,0,.249-.0469.4217.4217,0,0,0,.2432-.1846.6586.6586,0,0,0,.0791-.3418v-3.5644a.8137.8137,0,0,0-.085-.3574.7074.7074,0,0,0-.2373-.28.799.799,0,0,0-.2637-.1026,2.3477,2.3477,0,0,0-.3281-.0439v-.3867l1.9219-.1289.082.082v.8145h.0293a2.628,2.628,0,0,1,.8086-.7207,1.71,1.71,0,0,1,.8145-.2461.7964.7964,0,0,1,.6005.24A.89.89,0,0,1,345.4194,818.0361Z"/><path d="M351.5131,823.0693h-2.8183v-.3867q.1347-.0117.2871-.0264a1.38,1.38,0,0,0,.2519-.0439.4345.4345,0,0,0,.2461-.1846.6442.6442,0,0,0,.0821-.3437v-6.6963a.8831.8831,0,0,0-.0909-.3955.764.764,0,0,0-.2373-.29,1.2073,1.2073,0,0,0-.3867-.1289,3.5267,3.5267,0,0,0-.4512-.07v-.375l2.1739-.1289.082.0879v7.9277a.6668.6668,0,0,0,.0762.337.4859.4859,0,0,0,.2461.2021,1.3557,1.3557,0,0,0,.2549.0879,1.8724,1.8724,0,0,0,.2841.041Z"/><path d="M357.3725,821.71a2.9591,2.9591,0,0,1-.9726,1.1015,2.4487,2.4487,0,0,1-1.4.41,2.8486,2.8486,0,0,1-1.2217-.2461,2.399,2.399,0,0,1-.8643-.668,2.8373,2.8373,0,0,1-.5068-.9844,4.1589,4.1589,0,0,1-.167-1.1894,3.5068,3.5068,0,0,1,.1787-1.1045,3.1175,3.1175,0,0,1,.5244-.9756,2.5383,2.5383,0,0,1,.8291-.6709,2.39,2.39,0,0,1,1.11-.2549,2.6732,2.6732,0,0,1,1.084.1992,1.93,1.93,0,0,1,.7324.545,2.173,2.173,0,0,1,.4013.7734,3.3924,3.3924,0,0,1,.1319.9668v.3867h-3.8262a4.54,4.54,0,0,0,.1084,1.0332,2.4692,2.4692,0,0,0,.3428.8164,1.6229,1.6229,0,0,0,.5976.5371,1.8357,1.8357,0,0,0,.8789.1973,1.6192,1.6192,0,0,0,.8995-.2451,2.41,2.41,0,0,0,.73-.88Zm-1.2949-2.2032a4.7681,4.7681,0,0,0-.0557-.7011,2.1424,2.1424,0,0,0-.1787-.625,1.1959,1.1959,0,0,0-.3691-.4385,1.01,1.01,0,0,0-.6035-.169,1.2555,1.2555,0,0,0-1.0225.5108,2.3822,2.3822,0,0,0-.4424,1.4228Z"/><path d="M361.8549,820.2393a1.476,1.476,0,0,1,.3692.4863,1.5833,1.5833,0,0,1,.1289.6738,1.6427,1.6427,0,0,1-.6006,1.3125,2.5672,2.5672,0,0,1-2.4844.3281,2.5594,2.5594,0,0,1-.6064-.3339l-.1172.3808h-.44l-.0586-2.01h.4043a2.2609,2.2609,0,0,0,.1993.5352,2.5973,2.5973,0,0,0,.3691.5527,2.0405,2.0405,0,0,0,.5478.4346,1.4533,1.4533,0,0,0,.7178.1768,1.3107,1.3107,0,0,0,.8672-.2569.9045.9045,0,0,0,.3047-.7334.88.88,0,0,0-.0967-.4248.935.935,0,0,0-.2842-.3134,2.2358,2.2358,0,0,0-.4746-.2432q-.2812-.1085-.6269-.2139a5.8249,5.8249,0,0,1-.6123-.2256,2.4422,2.4422,0,0,1-.5772-.3369,1.6516,1.6516,0,0,1-.4219-.5039,1.44,1.44,0,0,1-.164-.7031,1.5809,1.5809,0,0,1,.5273-1.2012,1.9868,1.9868,0,0,1,1.4121-.4922,2.88,2.88,0,0,1,.6944.0879,2.3985,2.3985,0,0,1,.5771.211l.1348-.3047h.4219l.0878,1.8574H361.65a1.8715,1.8715,0,0,0-.53-1.0156,1.38,1.38,0,0,0-.9932-.3907,1.1016,1.1016,0,0,0-.7558.2422.75.75,0,0,0-.2754.584.951.951,0,0,0,.0908.4395.8087.8087,0,0,0,.2724.2988,2.2727,2.2727,0,0,0,.4424.22q.2667.1026.6592.2315a5.66,5.66,0,0,1,.7295.2871A2.39,2.39,0,0,1,361.8549,820.2393Z"/><path d="M279.935,837.4688h-3.6738v-.4161q.1992-.0058.5127-.041a1.2914,1.2914,0,0,0,.4306-.1.7626.7626,0,0,0,.2666-.2549.6973.6973,0,0,0,.085-.36V830.25h-.0879l-2.8359,7.084h-.293l-2.7012-7.23h-.0761v4.9629a4.9693,4.9693,0,0,0,.0908,1.0957,1.0167,1.0167,0,0,0,.2783.5391,1.35,1.35,0,0,0,.5332.2343,3.2116,3.2116,0,0,0,.5273.1172v.4161h-3.3574v-.4161a4.3094,4.3094,0,0,0,.5537-.0879,1.0734,1.0734,0,0,0,.4483-.1933.86.86,0,0,0,.2812-.5039,5.8644,5.8644,0,0,0,.0762-1.1367V830.877a1.745,1.745,0,0,0-.0879-.6036.9442.9442,0,0,0-.2519-.3808,1.1555,1.1555,0,0,0-.4454-.2344,2.2393,2.2393,0,0,0-.5214-.0879v-.416h2.8349l2.3819,6.2412,2.0332-5.2207a5.1284,5.1284,0,0,0,.1894-.6006,2.9084,2.9084,0,0,0,.086-.42h2.7109v.416a3.01,3.01,0,0,0-.419.0527,2.7435,2.7435,0,0,0-.372.0879.4294.4294,0,0,0-.27.2344.8991.8991,0,0,0-.07.3574v5.9942a.769.769,0,0,0,.07.3457.5994.5994,0,0,0,.27.2461,1.3642,1.3642,0,0,0,.375.1084,3.1276,3.1276,0,0,0,.4277.0556Z"/><path d="M287.0952,837.3633l-1.8868.1289-.0878-.082v-.7325h-.0352q-.1407.1466-.3164.3135a2.2115,2.2115,0,0,1-.4024.3018,2.5921,2.5921,0,0,1-.51.24,2.2966,2.2966,0,0,1-.6953.082,1.41,1.41,0,0,1-1.168-.5,2.2817,2.2817,0,0,1-.4-1.455v-2.7627a.7145.7145,0,0,0-.08-.3536.6984.6984,0,0,0-.498-.3515,2.5142,2.5142,0,0,0-.336-.044v-.3867l1.9278-.1406.0879.082v4.0137a1.382,1.382,0,0,0,.2812.9434.8717.8717,0,0,0,.6739.3164,1.5526,1.5526,0,0,0,.5742-.1,1.6263,1.6263,0,0,0,.4218-.2334,1.9879,1.9879,0,0,0,.2784-.2608,1.49,1.49,0,0,0,.1845-.2549v-3.2715a.7.7,0,0,0-.082-.3418.7676.7676,0,0,0-.2285-.2548.6542.6542,0,0,0-.3135-.085q-.2081-.0147-.4658-.0264v-.3867l2.1035-.1406.0879.082v4.583a.6638.6638,0,0,0,.082.34.74.74,0,0,0,.2285.2392.6516.6516,0,0,0,.252.085,3.0651,3.0651,0,0,0,.3223.0264Z"/><path d="M291.6186,834.6387a1.4743,1.4743,0,0,1,.3691.4863,1.5818,1.5818,0,0,1,.1289.6738,1.6426,1.6426,0,0,1-.6005,1.3125,2.5677,2.5677,0,0,1-2.4844.3282,2.56,2.56,0,0,1-.6065-.334l-.1171.3808h-.44l-.0586-2.01h.4043a2.2342,2.2342,0,0,0,.1992.5351,2.5514,2.5514,0,0,0,.3692.5528,2.0438,2.0438,0,0,0,.5478.4355,1.4635,1.4635,0,0,0,.7178.1758,1.3106,1.3106,0,0,0,.8672-.2559.9066.9066,0,0,0,.3047-.7344.8813.8813,0,0,0-.0967-.4248.9361.9361,0,0,0-.2842-.3134,2.2358,2.2358,0,0,0-.4746-.2432q-.2812-.1085-.627-.2139a5.8025,5.8025,0,0,1-.6123-.2256,2.4394,2.4394,0,0,1-.5771-.3369,1.6516,1.6516,0,0,1-.4219-.5039,1.4384,1.4384,0,0,1-.164-.7031,1.5807,1.5807,0,0,1,.5273-1.2012,1.9868,1.9868,0,0,1,1.4121-.4922,2.8781,2.8781,0,0,1,.6943.0879,2.3978,2.3978,0,0,1,.5772.211l.1348-.3047h.4218l.0879,1.8574h-.4043a1.8679,1.8679,0,0,0-.53-1.0146,1.38,1.38,0,0,0-.9931-.3916,1.107,1.107,0,0,0-.7559.2421.7512.7512,0,0,0-.2754.584.951.951,0,0,0,.0909.4395.8078.8078,0,0,0,.2724.2988,2.2727,2.2727,0,0,0,.4424.22q.2666.1026.6592.2315a5.66,5.66,0,0,1,.73.2871A2.3932,2.3932,0,0,1,291.6186,834.6387Z"/><path d="M298.1225,836.1094a2.9591,2.9591,0,0,1-.9726,1.1015,2.4487,2.4487,0,0,1-1.4.41,2.8471,2.8471,0,0,1-1.2217-.2461,2.399,2.399,0,0,1-.8643-.668,2.8368,2.8368,0,0,1-.5068-.9843,4.16,4.16,0,0,1-.167-1.19,3.5068,3.5068,0,0,1,.1787-1.1045,3.1175,3.1175,0,0,1,.5244-.9756,2.5383,2.5383,0,0,1,.8291-.6709,2.39,2.39,0,0,1,1.11-.2549,2.6731,2.6731,0,0,1,1.084.1993,1.9292,1.9292,0,0,1,.7324.5449,2.173,2.173,0,0,1,.4013.7734,3.3929,3.3929,0,0,1,.1319.9668v.3867h-3.8262a4.5547,4.5547,0,0,0,.1084,1.0342,2.4872,2.4872,0,0,0,.3428.8164,1.6316,1.6316,0,0,0,.5976.5371,1.8473,1.8473,0,0,0,.8789.1963,1.6187,1.6187,0,0,0,.8995-.2441,2.423,2.423,0,0,0,.73-.8809Zm-1.2949-2.2032a4.7893,4.7893,0,0,0-.0557-.7011,2.1517,2.1517,0,0,0-.1787-.625,1.1846,1.1846,0,0,0-.3691-.4375,1.0033,1.0033,0,0,0-.6035-.17,1.2563,1.2563,0,0,0-1.0225.5117,2.3789,2.3789,0,0,0-.4424,1.4218Zm.2051-4.9921a.601.601,0,0,1-.1026.3632,1.6135,1.6135,0,0,1-.3017.2989q-.2929.2343-.7647.5976t-1.0166.791l-.2226-.1875q.5272-.7793.7353-1.0986t.4483-.706a1.2408,1.2408,0,0,1,.3515-.4073.7148.7148,0,0,1,.3926-.1084.4758.4758,0,0,1,.48.4571Z"/><path d="M303.9233,836.1094a2.9585,2.9585,0,0,1-.9727,1.1015,2.4482,2.4482,0,0,1-1.4.41,2.847,2.847,0,0,1-1.2216-.2461,2.399,2.399,0,0,1-.8643-.668,2.8351,2.8351,0,0,1-.5068-.9843,4.156,4.156,0,0,1-.167-1.19,3.5039,3.5039,0,0,1,.1787-1.1045,3.1154,3.1154,0,0,1,.5244-.9756,2.5383,2.5383,0,0,1,.8291-.6709,2.39,2.39,0,0,1,1.11-.2549,2.6723,2.6723,0,0,1,1.0839.1993,1.9288,1.9288,0,0,1,.7325.5449,2.1762,2.1762,0,0,1,.4013.7734,3.3929,3.3929,0,0,1,.1319.9668v.3867h-3.8262a4.5547,4.5547,0,0,0,.1084,1.0342,2.4872,2.4872,0,0,0,.3428.8164,1.6316,1.6316,0,0,0,.5976.5371,1.8473,1.8473,0,0,0,.8789.1963,1.6181,1.6181,0,0,0,.8994-.2441,2.4211,2.4211,0,0,0,.73-.8809Zm-1.2949-2.2032a4.7893,4.7893,0,0,0-.0557-.7011,2.1517,2.1517,0,0,0-.1787-.625,1.1856,1.1856,0,0,0-.3691-.4375,1.0034,1.0034,0,0,0-.6036-.17,1.2563,1.2563,0,0,0-1.0224.5117,2.3789,2.3789,0,0,0-.4424,1.4218Z"/><path d="M308.4057,834.6387a1.476,1.476,0,0,1,.3692.4863,1.5833,1.5833,0,0,1,.1289.6738,1.6427,1.6427,0,0,1-.6006,1.3125,2.5677,2.5677,0,0,1-2.4844.3282,2.5569,2.5569,0,0,1-.6064-.334l-.1172.3808h-.4395l-.0586-2.01h.4043a2.2342,2.2342,0,0,0,.1992.5351,2.5514,2.5514,0,0,0,.3692.5528,2.0438,2.0438,0,0,0,.5478.4355,1.4635,1.4635,0,0,0,.7178.1758,1.3106,1.3106,0,0,0,.8672-.2559.9066.9066,0,0,0,.3047-.7344.8813.8813,0,0,0-.0967-.4248.9361.9361,0,0,0-.2842-.3134,2.2358,2.2358,0,0,0-.4746-.2432q-.2812-.1085-.6269-.2139a5.8117,5.8117,0,0,1-.6124-.2256,2.4414,2.4414,0,0,1-.5771-.3369,1.6516,1.6516,0,0,1-.4219-.5039,1.4384,1.4384,0,0,1-.164-.7031,1.5807,1.5807,0,0,1,.5273-1.2012,1.9868,1.9868,0,0,1,1.4121-.4922,2.8781,2.8781,0,0,1,.6943.0879,2.3978,2.3978,0,0,1,.5772.211l.1348-.3047h.4218l.0879,1.8574h-.4043a1.8684,1.8684,0,0,0-.53-1.0146,1.3805,1.3805,0,0,0-.9932-.3916,1.107,1.107,0,0,0-.7559.2421.7512.7512,0,0,0-.2754.584.951.951,0,0,0,.0909.4395.8078.8078,0,0,0,.2724.2988,2.2727,2.2727,0,0,0,.4424.22q.2666.1026.6592.2315a5.66,5.66,0,0,1,.73.2871A2.3932,2.3932,0,0,1,308.4057,834.6387Z"/><path d="M319,837.3633l-2.0215.1289-.0879-.082v-.5391l-.0469-.0117a2.3965,2.3965,0,0,1-.7519.5566,2.0934,2.0934,0,0,1-.9219.2168,2.1758,2.1758,0,0,1-.95-.22,2.39,2.39,0,0,1-.7988-.6182,3.072,3.072,0,0,1-.5479-.9726,3.7438,3.7438,0,0,1-.2012-1.2539,3.2793,3.2793,0,0,1,.2168-1.1895,3.1356,3.1356,0,0,1,.5967-.9844,2.6269,2.6269,0,0,1,.874-.6269,2.5391,2.5391,0,0,1,1.0567-.2344,3.1012,3.1012,0,0,1,.7929.1025,2.8365,2.8365,0,0,1,.67.2608v-2.0137a1.19,1.19,0,0,0-.0821-.4492.6826.6826,0,0,0-.2285-.3076,1.161,1.161,0,0,0-.4424-.1621,5.8009,5.8009,0,0,0-.6005-.0733v-.3633l2.3671-.1289.0879.0879v7.7881a.7133.7133,0,0,0,.0791.3486.6913.6913,0,0,0,.2315.2422.7218.7218,0,0,0,.3222.0879q.2111.0176.3868.0235Zm-2.1211-1.0137v-3.3808a1.5148,1.5148,0,0,0-.1524-.3282,1.312,1.312,0,0,0-.66-.5654,1.36,1.36,0,0,0-.5332-.0967,1.2073,1.2073,0,0,0-.6455.1817,1.7265,1.7265,0,0,0-.5235.5214,2.713,2.713,0,0,0-.3428.835,4.7043,4.7043,0,0,0-.125,1.1221,3.9341,3.9341,0,0,0,.0938.8935,2.3835,2.3835,0,0,0,.3154.7471,1.6362,1.6362,0,0,0,.5235.5273,1.3966,1.3966,0,0,0,.7568.1993,1.368,1.368,0,0,0,.7754-.2051A2.5048,2.5048,0,0,0,316.8784,836.35Z"/><path d="M324.6948,836.1094a2.9585,2.9585,0,0,1-.9727,1.1015,2.4482,2.4482,0,0,1-1.4.41,2.8478,2.8478,0,0,1-1.2217-.2461,2.3987,2.3987,0,0,1-.8642-.668,2.8351,2.8351,0,0,1-.5068-.9843,4.156,4.156,0,0,1-.167-1.19,3.5039,3.5039,0,0,1,.1787-1.1045,3.1154,3.1154,0,0,1,.5244-.9756,2.5372,2.5372,0,0,1,.8291-.6709,2.39,2.39,0,0,1,1.11-.2549,2.6728,2.6728,0,0,1,1.084.1993,1.9284,1.9284,0,0,1,.7324.5449,2.1748,2.1748,0,0,1,.4014.7734,3.3929,3.3929,0,0,1,.1318.9668v.3867H320.728a4.5547,4.5547,0,0,0,.1084,1.0342,2.4871,2.4871,0,0,0,.3427.8164,1.6327,1.6327,0,0,0,.5977.5371,1.8473,1.8473,0,0,0,.8789.1963,1.6181,1.6181,0,0,0,.8994-.2441,2.422,2.422,0,0,0,.73-.8809ZM323.4,833.9062a4.7893,4.7893,0,0,0-.0557-.7011,2.1517,2.1517,0,0,0-.1787-.625,1.1849,1.1849,0,0,0-.3692-.4375,1.0029,1.0029,0,0,0-.6035-.17,1.2562,1.2562,0,0,0-1.0224.5117,2.3789,2.3789,0,0,0-.4424,1.4218Z"/><path d="M334.7729,831.2051a2.5044,2.5044,0,0,1-.2549,1.1513,2.3,2.3,0,0,1-.706.8291,3.0461,3.0461,0,0,1-.9786.4805,4.096,4.096,0,0,1-1.1308.1524h-.9317v2.5195a.8987.8987,0,0,0,.0674.36.4644.4644,0,0,0,.2783.2373,1.8149,1.8149,0,0,0,.3721.0762,4.6966,4.6966,0,0,0,.4893.041v.4161H328.41v-.4161q.1407-.0117.4072-.041a1.3984,1.3984,0,0,0,.3721-.0762.5048.5048,0,0,0,.2549-.2226.7857.7857,0,0,0,.0791-.375v-6a1.0911,1.0911,0,0,0-.0586-.3691.4274.4274,0,0,0-.2754-.2461,2.4655,2.4655,0,0,0-.4424-.1084q-.22-.0322-.3779-.044v-.416h3.7969a2.993,2.993,0,0,1,1.8838.56A1.79,1.79,0,0,1,334.7729,831.2051Zm-1.7813,1.4179a1.5723,1.5723,0,0,0,.2637-.583,2.62,2.62,0,0,0,.0645-.542,3.0421,3.0421,0,0,0-.0791-.68,1.5806,1.5806,0,0,0-.2725-.6036,1.3629,1.3629,0,0,0-.5391-.4277,2.0035,2.0035,0,0,0-.832-.1523h-.8262v3.6738h.5977a2.3185,2.3185,0,0,0,1.0283-.1963A1.5067,1.5067,0,0,0,332.9916,832.623Z"/><path d="M341.769,837.3633l-1.8867.1289-.0879-.082v-.7325h-.0352c-.0937.0977-.1992.2022-.3154.3135a2.23,2.23,0,0,1-.4043.3018,2.56,2.56,0,0,1-.5088.24,2.2994,2.2994,0,0,1-.6963.082,1.4089,1.4089,0,0,1-1.167-.5,2.2878,2.2878,0,0,1-.4-1.455v-2.7627a.7145.7145,0,0,0-.08-.3536.7292.7292,0,0,0-.2325-.249.7468.7468,0,0,0-.2656-.1025,2.5345,2.5345,0,0,0-.3359-.044v-.3867l1.9277-.1406.0879.082v4.0137a1.382,1.382,0,0,0,.2813.9434.8717.8717,0,0,0,.6738.3164,1.5526,1.5526,0,0,0,.5742-.1,1.627,1.627,0,0,0,.4219-.2334,1.9926,1.9926,0,0,0,.2783-.2608,1.491,1.491,0,0,0,.1846-.2549v-3.2715a.7.7,0,0,0-.0821-.3418.7666.7666,0,0,0-.2285-.2548.6542.6542,0,0,0-.3135-.085q-.2079-.0147-.4658-.0264v-.3867l2.1035-.1406.0879.082v4.583a.6638.6638,0,0,0,.0821.34.7382.7382,0,0,0,.2285.2392.6511.6511,0,0,0,.2519.085,3.0651,3.0651,0,0,0,.3223.0264Z"/><path d="M345.185,837.4688h-2.8184v-.3868q.1348-.0117.2872-.0263a1.3876,1.3876,0,0,0,.2519-.044.434.434,0,0,0,.2461-.1846.64.64,0,0,0,.082-.3427v-6.6963a.883.883,0,0,0-.0908-.3955.7664.7664,0,0,0-.2373-.291,1.2023,1.2023,0,0,0-.3867-.1289,3.53,3.53,0,0,0-.4512-.07v-.375l2.1738-.1289.0821.0879v7.9278a.6667.6667,0,0,0,.0762.3369.4857.4857,0,0,0,.246.2021,1.3582,1.3582,0,0,0,.2549.0879,1.8738,1.8738,0,0,0,.2842.041Z"/><path d="M348.6186,837.4688H345.8v-.3868q.1349-.0117.2872-.0263a1.3876,1.3876,0,0,0,.2519-.044.434.434,0,0,0,.2461-.1846.64.64,0,0,0,.082-.3427v-6.6963a.883.883,0,0,0-.0908-.3955.7664.7664,0,0,0-.2373-.291,1.2023,1.2023,0,0,0-.3867-.1289,3.53,3.53,0,0,0-.4512-.07v-.375l2.1738-.1289.0821.0879v7.9278a.6678.6678,0,0,0,.0761.3369.4863.4863,0,0,0,.2461.2021,1.3582,1.3582,0,0,0,.2549.0879,1.8738,1.8738,0,0,0,.2842.041Z"/><path d="M348.9057,839.3555a.7.7,0,0,1,.1611-.4776.5115.5115,0,0,1,.4014-.1845.6885.6885,0,0,1,.3223.07.8985.8985,0,0,1,.24.18,1.5383,1.5383,0,0,1,.1875.2382c.0664.1006.1192.1846.1582.25a2.3384,2.3384,0,0,0,.7-.8242,6.7238,6.7238,0,0,0,.5879-1.1689q-.5551-1.3887-1.0068-2.4834t-.9434-2.2676a.84.84,0,0,0-.375-.4189,1.5528,1.5528,0,0,0-.5273-.1905v-.3867H351.45v.41a1.8765,1.8765,0,0,0-.4219.0732q-.2462.0674-.2461.1553a.448.448,0,0,0,.0264.1172q.0262.082.0615.17.2226.5785.6777,1.6709t.707,1.748q.2637-.6269.5489-1.2968t.6367-1.584c.0273-.0742.0664-.1758.1172-.3067a.9583.9583,0,0,0,.0761-.3369q0-.1522-.2666-.2842a1.5811,1.5811,0,0,0-.5068-.1611v-.375h2.1455v.3633a1.4407,1.4407,0,0,0-.4629.2021,1.0571,1.0571,0,0,0-.4277.4893q-.6972,1.6172-1.2393,2.9473t-.8232,1.957a10.7988,10.7988,0,0,1-.6592,1.28,3.84,3.84,0,0,1-.5654.7236,1.647,1.647,0,0,1-.4893.3311,1.2493,1.2493,0,0,1-.4541.0849,1.09,1.09,0,0,1-.7177-.2168A.6363.6363,0,0,1,348.9057,839.3555Z"/><path class="b63d3a4f-67a5-40e8-b81b-fb37898b729b" d="M325.4756,881.9341v92.88a13.8193,13.8193,0,0,1-13.81,13.81h-92.88a13.8123,13.8123,0,0,1-13.81-13.81v-92.88a13.8059,13.8059,0,0,1,13.81-13.81h92.88a13.8285,13.8285,0,0,1,13.81,13.81Z"/><text class="ba2d47fb-f351-419d-8034-b30af17279cb" transform="translate(244.3076 896.5767)">Retours <tspan x="-22.749" y="14.4004">d&apos;expérience des </tspan><tspan x="-22.2803" y="28.8003">petits et moyens </tspan><tspan x="-20.7275" y="43.2002">musées sur leur </tspan><tspan x="-2.7188" y="57.6001">projet de </tspan><tspan x="-19.333" y="72.0005">transformation</tspan></text><path class="b63d3a4f-67a5-40e8-b81b-fb37898b729b" d="M197.8052,858.4641v92.87a13.8146,13.8146,0,0,1-13.82,13.81h-92.87a13.8063,13.8063,0,0,1-13.81-13.81v-92.87a13.8149,13.8149,0,0,1,13.81-13.82h92.87A13.8232,13.8232,0,0,1,197.8052,858.4641Z"/><text class="ba2d47fb-f351-419d-8034-b30af17279cb" transform="translate(105.4394 894.8105)">Concept par <tspan x="-2.9199" y="14.3994">computed.By</tspan><tspan x="0" y="33.1992">Concept par </tspan><tspan x="2.9512" y="47.5996">Transverse</tspan></text><text class="ba2d47fb-f351-419d-8034-b30af17279cb" transform="translate(112.4406 868.2469)">Module 2</text><text class="b3a5937e-d385-40d4-a076-e129b5d95910" transform="translate(68.393 749.3724)">Développement</text><line class="b945677c-f8fa-4052-ae68-794c4091665d" x1="221.2251" y1="856.8822" x2="221.2251" y2="812.4403"/><polygon points="227.36 851.912 226.261 850.889 221.227 856.306 216.19 850.889 215.092 851.912 221.227 858.509 227.36 851.912"/><path class="b945677c-f8fa-4052-ae68-794c4091665d" d="M193.3975,836.42l5.6548-5.6548a28.0454,28.0454,0,0,0,8.2139-19.8308V795.4605"/><polygon points="201.25 837.243 201.196 835.743 193.806 836.014 194.075 828.622 192.575 828.568 192.248 837.571 201.25 837.243"/><path class="b945677c-f8fa-4052-ae68-794c4091665d" d="M182.6309,782.1031h4.5034a15.1322,15.1322,0,0,0,15.1319-15.1321V737.2769"/><polygon points="187.601 788.238 188.625 787.139 183.207 782.105 188.625 777.068 187.601 775.97 181.004 782.105 187.601 788.238"/><path class="b945677c-f8fa-4052-ae68-794c4091665d" d="M247.0518,796.5926h-4.6943A15.1322,15.1322,0,0,1,227.2251,781.46V751.7662"/><polygon points="242.082 790.458 241.058 791.556 246.476 796.591 241.058 801.627 242.082 802.726 248.678 796.591 242.082 790.458"/><path class="b945677c-f8fa-4052-ae68-794c4091665d" d="M287.1114,307.0678v119.86H33.0416v-168.82h210.3"/><path class="b945677c-f8fa-4052-ae68-794c4091665d" d="M326.0616,279.2478c-8.7838,23.9331-37.25,34.6275-59.36,23.31a21.3454,21.3454,0,0,1-29.1,14.17c-20.3875-8.4158-14.7044-39.7809,6.96-40.86a42.925,42.925,0,0,1,3.72-32.52"/><text class="ba2d47fb-f351-419d-8034-b30af17279cb" transform="translate(45.0317 282.5835)">Dépôt de dossier pour le fonds de <tspan x="0" y="14.4004">transformation du SERAC pour </tspan><tspan x="0" y="28.8003">deux modules numériques aux </tspan><tspan x="0" y="43.2002">Musées de Pully</tspan></text><path class="b945677c-f8fa-4052-ae68-794c4091665d" d="M315.8716,415.5178l-19.9,32.95-37.7695-15.53c-.37-2.01-.81-4.01-1.3-6.01h30.21v-54.72l6.67-9.46a166.2373,166.2373,0,0,1,17.37,36.13A168.9547,168.9547,0,0,1,315.8716,415.5178Z"/><text class="ba2d47fb-f351-419d-8034-b30af17279cb" transform="translate(45.0317 282.5835)">Dépôt de dossier pour le fonds de <tspan x="0" y="14.4004">transformation du SERAC pour </tspan><tspan x="0" y="28.8003">deux modules numériques aux </tspan><tspan x="0" y="43.2002">Musées de Pully</tspan></text><circle cx="52.8473" cy="368.6149" r="6.1127"/><circle cx="52.8473" cy="390.2445" r="6.1127"/><circle class="b63d3a4f-67a5-40e8-b81b-fb37898b729b" cx="72.9824" cy="411.8742" r="6.1127"/><path class="b945677c-f8fa-4052-ae68-794c4091665d" d="M324.8,243.6313a34.4775,34.4775,0,0,1-57.7018,36.78"/></g><g id="a0cfdf3b-d23a-4ef4-af5e-323f15cfaac2" data-name="Layer 2"><path class="b945677c-f8fa-4052-ae68-794c4091665d" d="M181.6,182.2185a48.8023,48.8023,0,0,1-67.9037,12.3461,49.9257,49.9257,0,0,1-12.63-69.4668,51.075,51.075,0,0,1,71.0659-12.9211A52.2508,52.2508,0,0,1,185.35,184.8786a53.4536,53.4536,0,0,1-74.3754,13.5228,54.684,54.684,0,0,1-13.8341-76.0876A55.9429,55.9429,0,0,1,174.98,108.1613a57.2306,57.2306,0,0,1,14.4783,79.6309,58.5482,58.5482,0,0,1-81.464,14.8117,59.896,59.896,0,0,1-15.1526-83.3394"/><path class="b945677c-f8fa-4052-ae68-794c4091665d" d="M236.9864,144.5556c-.2-.79-.41-1.56-.65-2.33a48.8193,48.8193,0,0,0-5.98-12.73,49.6777,49.6777,0,0,0-17.6-16.21,47.9417,47.9417,0,0,0-7.43-3.29v-.01a49.23,49.23,0,0,0-16.23-2.73c-.69,0-1.39.01-2.07.05a48.4992,48.4992,0,0,0-10.91,1.68,48.0141,48.0141,0,0,0-5.82,1.98,49.3827,49.3827,0,0,0-7.59,87.42,48.6431,48.6431,0,0,0,10.68,5.08,49.3549,49.3549,0,0,0,65.09-46.82"/><path class="b945677c-f8fa-4052-ae68-794c4091665d" d="M344.1364,73.2456a45.2636,45.2636,0,0,0-26.56-2.19c-1.33.29-2.63.65-3.91,1.06a44.9372,44.9372,0,0,0-19.49,12.47,44.9387,44.9387,0,0,0-11.78,28.35,45.0743,45.0743,0,0,0,1.31,13.05h.01a42.698,42.698,0,0,0,2.01,6.1c.48,1.19,1.02,2.35,1.61,3.48a44.96,44.96,0,0,0,37.95,24.34c1.19.05,2.38.06,3.55.03a44.9959,44.9959,0,0,0,28.17-78.76"/><path class="b945677c-f8fa-4052-ae68-794c4091665d" d="M313.6963,73.9256a60.2664,60.2664,0,0,1-29.98,52.06h-.01a60.1118,60.1118,0,0,1-72.96-9.71,61.2844,61.2844,0,0,1-5.42-6.28,47.95,47.95,0,0,1,7.43,3.29,64.4262,64.4262,0,0,1,76.49-22.24,44.4171,44.4171,0,0,1,4.93-6.46,72.0891,72.0891,0,0,0-17.66-33,70.2644,70.2644,0,0,0-64.77-20.99,60.1805,60.1805,0,0,1,101.92,41.52C313.6865,72.7155,313.6963,73.3156,313.6963,73.9256Z"/><path class="b945677c-f8fa-4052-ae68-794c4091665d" d="M246.9064,47.4956a62.7753,62.7753,0,0,1,33.48-27.42,61.2292,61.2292,0,0,1,9.2-2.41,62.6205,62.6205,0,1,1,11.29,124.21"/><path class="b945677c-f8fa-4052-ae68-794c4091665d" d="M201.3764,141.6556a63.9963,63.9963,0,0,1,3.42-13.44,63.347,63.347,0,0,1,5.95-11.94c.64-1.02,1.31-2.01,2.01-2.99a64.4262,64.4262,0,0,1,76.49-22.24,63.542,63.542,0,0,1,17.63,10.71c1.15.98,2.27,2,3.34,3.06a64.1607,64.1607,0,0,1,19.28,45.93,63.32,63.32,0,0,1-.66,9.19,64.3775,64.3775,0,0,1-126.97,2.8c-.05-.24-.1-.47-.14-.71"/><path class="b945677c-f8fa-4052-ae68-794c4091665d" d="M317.5766,71.0556c.04.82.05,1.64.05,2.47"/><path class="b945677c-f8fa-4052-ae68-794c4091665d" d="M289.5864,17.6656a69.5457,69.5457,0,0,1,27.99,53.39"/><path class="b945677c-f8fa-4052-ae68-794c4091665d" d="M247.9565,3.8655a69.3542,69.3542,0,0,1,41.63,13.8"/><path class="b945677c-f8fa-4052-ae68-794c4091665d" d="M191.8564,32.2255a69.5581,69.5581,0,0,1,56.1-28.36"/><path class="b945677c-f8fa-4052-ae68-794c4091665d" d="M211.7466,30.5956c-1.26,1.2-2.45,2.46-3.59,3.78"/><path class="b945677c-f8fa-4052-ae68-794c4091665d" d="M255.4565,36.1556a70.5083,70.5083,0,0,0-43.71-5.56"/><path class="b945677c-f8fa-4052-ae68-794c4091665d" d="M276.5166,51.5856a70.08,70.08,0,0,0-21.06-15.43"/><path class="b945677c-f8fa-4052-ae68-794c4091665d" d="M294.1763,84.5856a72.0891,72.0891,0,0,0-17.66-33"/><path class="b945677c-f8fa-4052-ae68-794c4091665d" d="M289.2466,91.0456a44.4171,44.4171,0,0,1,4.93-6.46"/><path class="b945677c-f8fa-4052-ae68-794c4091665d" d="M265.1167,86.3655a64.101,64.101,0,0,1,24.13,4.68"/><path class="b945677c-f8fa-4052-ae68-794c4091665d" d="M212.7563,113.2856a64.29,64.29,0,0,1,52.36-26.92"/><path class="b945677c-f8fa-4052-ae68-794c4091665d" d="M205.3266,109.9955a47.95,47.95,0,0,1,7.43,3.29"/><path class="b945677c-f8fa-4052-ae68-794c4091665d" d="M205.3266,109.9855v.01"/><path class="b945677c-f8fa-4052-ae68-794c4091665d" d="M195.7764,90.9755a60.058,60.058,0,0,0,9.55,19.01"/><path class="b945677c-f8fa-4052-ae68-794c4091665d" d="M187.0264,107.3056a68.6094,68.6094,0,0,1-6.21-15.17"/><path class="b945677c-f8fa-4052-ae68-794c4091665d" d="M204.7964,128.2155a69.87,69.87,0,0,1-17.77-20.91"/><path class="b945677c-f8fa-4052-ae68-794c4091665d" d="M236.3364,142.2255a69.2887,69.2887,0,0,1-31.54-14.01"/><path class="b945677c-f8fa-4052-ae68-794c4091665d" d="M247.9565,143.1955a69.5541,69.5541,0,0,1-11.62-.97"/><path class="b945677c-f8fa-4052-ae68-794c4091665d" d="M285.7266,132.0856a69.37,69.37,0,0,1-37.77,11.11"/><path class="b945677c-f8fa-4052-ae68-794c4091665d" d="M290.6465,128.5856q-2.3856,1.86-4.92,3.5"/><path class="b945677c-f8fa-4052-ae68-794c4091665d" d="M310.2163,104.8156a69.6336,69.6336,0,0,1-19.57,23.77"/><path class="b945677c-f8fa-4052-ae68-794c4091665d" d="M317.6265,73.5255a69.3574,69.3574,0,0,1-7.41,31.29"/><path class="b945677c-f8fa-4052-ae68-794c4091665d" d="M132.7156,169.5447a43.2452,43.2452,0,0,1-61.1251-2.0088,44.5015,44.5015,0,0,1,2.0672-62.9008,45.7943,45.7943,0,0,1,64.7281,2.1272,47.1247,47.1247,0,0,1-2.189,66.6085A48.4646,48.4646,0,0,1,86.231,183.4673"/><path class="b945677c-f8fa-4052-ae68-794c4091665d" d="M242.9864,171.1156a74.1239,74.1239,0,0,0,30.16-17.19,72.0727,72.0727,0,0,0,14.19-18.36,68.2809,68.2809,0,0,0,3.31-6.98,70.1929,70.1929,0,0,0,3.29-10.08,72.3234,72.3234,0,0,0-17.42-66.92,70.5041,70.5041,0,0,0-74.93-18.23"/><path class="b945677c-f8fa-4052-ae68-794c4091665d" d="M155.6964,92.0756a69.3462,69.3462,0,0,0-.26,7.49c.03,1.7.12,3.41.29,5.11a68.1209,68.1209,0,0,0,18.16,40.28,66.0849,66.0849,0,0,0,20.55,14.87q2.37,1.125,4.82,2.02c.86.32,1.73.62,2.61.89a66.3514,66.3514,0,0,0,65.94-14.69"/><text class="b3a5937e-d385-40d4-a076-e129b5d95910" transform="translate(69.8886 60.1573)">Potentiel de l&apos;utilisation <tspan x="-1.2246" y="20.3999">du numérique au musée</tspan></text></g></svg>