<svg xmlns="http://www.w3.org/2000/svg" xmlns:xlink="http://www.w3.org/1999/xlink" viewBox="0 0 590 944"><defs><style>.a5653272-2867-4c88-94bb-71df7a423e3f,.a5797807-9d2e-4942-8a31-f7d6f5ed52e2,.a5b7a244-e46b-4e24-845f-5dce75c9ef9d,.aa3d3805-1acf-4643-a15c-eba3e85c9625,.af1a547d-66ff-4692-9168-970f327e22bc,.b14fe51f-9bca-42ec-9820-125094255a99,.b2b32ac0-ebf8-4397-abdb-4dbdfbb504bb,.b940fb68-e8d6-4ebb-a6e7-5195148fd2e9,.e466d80d-28ca-4ff5-9be3-8f6e09f5b7f4,.e500b430-d091-4113-b837-942b79f01db5,.f29b4b2e-1415-4df9-a386-15affeabf6b3,.fde3436a-35cb-470c-b3b0-0de877f87926,.fe7748d2-2ca6-48e9-8177-093bc87f8ac4{fill:none;}.a5653272-2867-4c88-94bb-71df7a423e3f,.a5797807-9d2e-4942-8a31-f7d6f5ed52e2,.a5b7a244-e46b-4e24-845f-5dce75c9ef9d,.aa3d3805-1acf-4643-a15c-eba3e85c9625,.b2b32ac0-ebf8-4397-abdb-4dbdfbb504bb,.b940fb68-e8d6-4ebb-a6e7-5195148fd2e9,.e466d80d-28ca-4ff5-9be3-8f6e09f5b7f4,.f29b4b2e-1415-4df9-a386-15affeabf6b3,.fde3436a-35cb-470c-b3b0-0de877f87926,.fe7748d2-2ca6-48e9-8177-093bc87f8ac4{stroke:#1d1d1b;stroke-linecap:round;stroke-dasharray:0 6.5;}.a5653272-2867-4c88-94bb-71df7a423e3f{stroke-width:3.5px;}.a5797807-9d2e-4942-8a31-f7d6f5ed52e2{stroke-width:3.25px;}.fe7748d2-2ca6-48e9-8177-093bc87f8ac4{stroke-width:3px;}.a5b7a244-e46b-4e24-845f-5dce75c9ef9d{stroke-width:2.75px;}.fde3436a-35cb-470c-b3b0-0de877f87926{stroke-width:2.5px;}.aa3d3805-1acf-4643-a15c-eba3e85c9625{stroke-width:2.25px;}.f29b4b2e-1415-4df9-a386-15affeabf6b3{stroke-width:2px;}.b2b32ac0-ebf8-4397-abdb-4dbdfbb504bb{stroke-width:1.75px;}.b940fb68-e8d6-4ebb-a6e7-5195148fd2e9{stroke-width:1.499px;}.e466d80d-28ca-4ff5-9be3-8f6e09f5b7f4{stroke-width:1.25px;}.af1a547d-66ff-4692-9168-970f327e22bc,.e500b430-d091-4113-b837-942b79f01db5{stroke:#000;stroke-miterlimit:10;}.e500b430-d091-4113-b837-942b79f01db5{stroke-width:1.5px;}.e76a9917-dce5-4d8b-9ecb-6745f65f3013{font-size:12px;}.b11152fb-176e-4112-b536-6aaccc77cc14,.e76a9917-dce5-4d8b-9ecb-6745f65f3013{font-family:Georgia;}.f6227113-a35d-412e-b4a1-d72032d55e63{fill:#666;}.a327b519-872d-471c-a2bb-4b7b37442abf{fill:url(#b08dd72d-5daf-4d4b-8550-397c62c20ad3);}.b11152fb-176e-4112-b536-6aaccc77cc14{font-size:17px;}</style><pattern id="b08dd72d-5daf-4d4b-8550-397c62c20ad3" data-name="Undulating Fine Dots" width="83" height="65" patternTransform="translate(351.5495 -173.7941)" patternUnits="userSpaceOnUse" viewBox="0 0 83 65"><rect class="b14fe51f-9bca-42ec-9820-125094255a99" width="83" height="65"/><line class="a5653272-2867-4c88-94bb-71df7a423e3f" x1="83" y1="65" x2="83" y2="130.5"/><line class="a5653272-2867-4c88-94bb-71df7a423e3f" y1="65" y2="130.5"/><line class="a5797807-9d2e-4942-8a31-f7d6f5ed52e2" x1="4.6113" y1="61.75" x2="4.6113" y2="130.5"/><line class="fe7748d2-2ca6-48e9-8177-093bc87f8ac4" x1="9.2222" y1="65" x2="9.2222" y2="130.5"/><line class="a5b7a244-e46b-4e24-845f-5dce75c9ef9d" x1="13.833" y1="61.75" x2="13.833" y2="130.5"/><line class="fde3436a-35cb-470c-b3b0-0de877f87926" x1="18.4453" y1="65" x2="18.4453" y2="130.5"/><line class="aa3d3805-1acf-4643-a15c-eba3e85c9625" x1="23.0562" y1="61.75" x2="23.0562" y2="130.5"/><line class="f29b4b2e-1415-4df9-a386-15affeabf6b3" x1="27.667" y1="65" x2="27.667" y2="130.5"/><line class="b2b32ac0-ebf8-4397-abdb-4dbdfbb504bb" x1="32.2783" y1="61.75" x2="32.2783" y2="130.5"/><line class="b940fb68-e8d6-4ebb-a6e7-5195148fd2e9" x1="36.8901" y1="65" x2="36.8901" y2="130.5"/><line class="e466d80d-28ca-4ff5-9be3-8f6e09f5b7f4" x1="41.5" y1="61.75" x2="41.5" y2="130.5"/><line class="a5653272-2867-4c88-94bb-71df7a423e3f" x1="83" y1="65" x2="83" y2="130.5"/><line class="a5797807-9d2e-4942-8a31-f7d6f5ed52e2" x1="78.3887" y1="61.75" x2="78.3887" y2="130.5"/><line class="fe7748d2-2ca6-48e9-8177-093bc87f8ac4" x1="73.7773" y1="65" x2="73.7773" y2="130.5"/><line class="a5b7a244-e46b-4e24-845f-5dce75c9ef9d" x1="69.166" y1="61.75" x2="69.166" y2="130.5"/><line class="fde3436a-35cb-470c-b3b0-0de877f87926" x1="64.5547" y1="65" x2="64.5547" y2="130.5"/><line class="aa3d3805-1acf-4643-a15c-eba3e85c9625" x1="59.9434" y1="61.75" x2="59.9434" y2="130.5"/><line class="f29b4b2e-1415-4df9-a386-15affeabf6b3" x1="55.332" y1="65" x2="55.332" y2="130.5"/><line class="b2b32ac0-ebf8-4397-abdb-4dbdfbb504bb" x1="50.7212" y1="61.75" x2="50.7212" y2="130.5"/><line class="b940fb68-e8d6-4ebb-a6e7-5195148fd2e9" x1="46.1104" y1="65" x2="46.1104" y2="130.5"/><line class="a5653272-2867-4c88-94bb-71df7a423e3f" y1="65" y2="130.5"/><line class="a5653272-2867-4c88-94bb-71df7a423e3f" x1="83" x2="83" y2="65.5"/><line class="a5653272-2867-4c88-94bb-71df7a423e3f" y2="65.5"/><line class="a5797807-9d2e-4942-8a31-f7d6f5ed52e2" x1="4.6113" y1="-3.25" x2="4.6113" y2="65.5"/><line class="fe7748d2-2ca6-48e9-8177-093bc87f8ac4" x1="9.2222" x2="9.2222" y2="65.5"/><line class="a5b7a244-e46b-4e24-845f-5dce75c9ef9d" x1="13.833" y1="-3.25" x2="13.833" y2="65.5"/><line class="fde3436a-35cb-470c-b3b0-0de877f87926" x1="18.4453" x2="18.4453" y2="65.5"/><line class="aa3d3805-1acf-4643-a15c-eba3e85c9625" x1="23.0562" y1="-3.25" x2="23.0562" y2="65.5"/><line class="f29b4b2e-1415-4df9-a386-15affeabf6b3" x1="27.667" x2="27.667" y2="65.5"/><line class="b2b32ac0-ebf8-4397-abdb-4dbdfbb504bb" x1="32.2783" y1="-3.25" x2="32.2783" y2="65.5"/><line class="b940fb68-e8d6-4ebb-a6e7-5195148fd2e9" x1="36.8901" x2="36.8901" y2="65.5"/><line class="e466d80d-28ca-4ff5-9be3-8f6e09f5b7f4" x1="41.5" y1="-3.25" x2="41.5" y2="65.5"/><line class="a5653272-2867-4c88-94bb-71df7a423e3f" x1="83" x2="83" y2="65.5"/><line class="a5797807-9d2e-4942-8a31-f7d6f5ed52e2" x1="78.3887" y1="-3.25" x2="78.3887" y2="65.5"/><line class="fe7748d2-2ca6-48e9-8177-093bc87f8ac4" x1="73.7773" x2="73.7773" y2="65.5"/><line class="a5b7a244-e46b-4e24-845f-5dce75c9ef9d" x1="69.166" y1="-3.25" x2="69.166" y2="65.5"/><line class="fde3436a-35cb-470c-b3b0-0de877f87926" x1="64.5547" x2="64.5547" y2="65.5"/><line class="aa3d3805-1acf-4643-a15c-eba3e85c9625" x1="59.9434" y1="-3.25" x2="59.9434" y2="65.5"/><line class="f29b4b2e-1415-4df9-a386-15affeabf6b3" x1="55.332" x2="55.332" y2="65.5"/><line class="b2b32ac0-ebf8-4397-abdb-4dbdfbb504bb" x1="50.7212" y1="-3.25" x2="50.7212" y2="65.5"/><line class="b940fb68-e8d6-4ebb-a6e7-5195148fd2e9" x1="46.1104" x2="46.1104" y2="65.5"/><line class="a5653272-2867-4c88-94bb-71df7a423e3f" y2="65.5"/><line class="a5653272-2867-4c88-94bb-71df7a423e3f" x1="83" y1="-65" x2="83" y2="0.5"/><line class="a5653272-2867-4c88-94bb-71df7a423e3f" y1="-65" y2="0.5"/><line class="a5797807-9d2e-4942-8a31-f7d6f5ed52e2" x1="4.6113" y1="-68.25" x2="4.6113" y2="0.5"/><line class="fe7748d2-2ca6-48e9-8177-093bc87f8ac4" x1="9.2222" y1="-65" x2="9.2222" y2="0.5"/><line class="a5b7a244-e46b-4e24-845f-5dce75c9ef9d" x1="13.833" y1="-68.25" x2="13.833" y2="0.5"/><line class="fde3436a-35cb-470c-b3b0-0de877f87926" x1="18.4453" y1="-65" x2="18.4453" y2="0.5"/><line class="aa3d3805-1acf-4643-a15c-eba3e85c9625" x1="23.0562" y1="-68.25" x2="23.0562" y2="0.5"/><line class="f29b4b2e-1415-4df9-a386-15affeabf6b3" x1="27.667" y1="-65" x2="27.667" y2="0.5"/><line class="b2b32ac0-ebf8-4397-abdb-4dbdfbb504bb" x1="32.2783" y1="-68.25" x2="32.2783" y2="0.5"/><line class="b940fb68-e8d6-4ebb-a6e7-5195148fd2e9" x1="36.8901" y1="-65" x2="36.8901" y2="0.5"/><line class="e466d80d-28ca-4ff5-9be3-8f6e09f5b7f4" x1="41.5" y1="-68.25" x2="41.5" y2="0.5"/><line class="a5653272-2867-4c88-94bb-71df7a423e3f" x1="83" y1="-65" x2="83" y2="0.5"/><line class="a5797807-9d2e-4942-8a31-f7d6f5ed52e2" x1="78.3887" y1="-68.25" x2="78.3887" y2="0.5"/><line class="fe7748d2-2ca6-48e9-8177-093bc87f8ac4" x1="73.7773" y1="-65" x2="73.7773" y2="0.5"/><line class="a5b7a244-e46b-4e24-845f-5dce75c9ef9d" x1="69.166" y1="-68.25" x2="69.166" y2="0.5"/><line class="fde3436a-35cb-470c-b3b0-0de877f87926" x1="64.5547" y1="-65" x2="64.5547" y2="0.5"/><line class="aa3d3805-1acf-4643-a15c-eba3e85c9625" x1="59.9434" y1="-68.25" x2="59.9434" y2="0.5"/><line class="f29b4b2e-1415-4df9-a386-15affeabf6b3" x1="55.332" y1="-65" x2="55.332" y2="0.5"/><line class="b2b32ac0-ebf8-4397-abdb-4dbdfbb504bb" x1="50.7212" y1="-68.25" x2="50.7212" y2="0.5"/><line class="b940fb68-e8d6-4ebb-a6e7-5195148fd2e9" x1="46.1104" y1="-65" x2="46.1104" y2="0.5"/><line class="a5653272-2867-4c88-94bb-71df7a423e3f" y1="-65" y2="0.5"/></pattern></defs><g id="bc0d6352-5fe7-48ca-97ff-ce9920ec722a" data-name="timeline-1"><path class="e500b430-d091-4113-b837-942b79f01db5" d="M319.1113,305.7345v119.86H65.0415v-168.82h210.3"/><path class="e500b430-d091-4113-b837-942b79f01db5" d="M358.0615,277.9144c-8.7838,23.9332-37.25,34.6276-59.36,23.31a21.3454,21.3454,0,0,1-29.1,14.17c-20.3874-8.4158-14.7044-39.781,6.96-40.86a42.9255,42.9255,0,0,1,3.72-32.52"/><text class="e76a9917-dce5-4d8b-9ecb-6745f65f3013" transform="translate(13.9492 228.8542)">Projet initial <tspan class="f6227113-a35d-412e-b4a1-d72032d55e63"><tspan x="0" y="14.3999">2021</tspan></tspan></text><text class="e76a9917-dce5-4d8b-9ecb-6745f65f3013" transform="translate(15.9907 468.1689)">Recherche &amp; développement<tspan class="f6227113-a35d-412e-b4a1-d72032d55e63"><tspan x="0" y="14.3999">déc. 21 - sept. 22</tspan></tspan></text><rect class="a327b519-872d-471c-a2bb-4b7b37442abf" y="215.9869" width="6.5" height="224.5"/><rect class="a327b519-872d-471c-a2bb-4b7b37442abf" y="451.9869" width="6.5" height="224.5"/><rect class="a327b519-872d-471c-a2bb-4b7b37442abf" y="688.3442" width="6.5" height="254.5"/><rect class="a327b519-872d-471c-a2bb-4b7b37442abf" y="1.1926" width="6.5" height="204.7943"/><text class="e76a9917-dce5-4d8b-9ecb-6745f65f3013" transform="translate(16.2559 13.4227)">Situation de départ <tspan class="f6227113-a35d-412e-b4a1-d72032d55e63"><tspan x="0" y="14.4004">dès mars 2020 (covid-19)</tspan></tspan></text><text class="e76a9917-dce5-4d8b-9ecb-6745f65f3013" transform="translate(77.0293 281.2501)">Dépôt de dossier pour le fonds de <tspan x="0" y="14.4004">transformation du SERAC pour </tspan><tspan x="0" y="28.8003">deux modules numériques aux </tspan><tspan x="0" y="43.2002">Musées de Pully</tspan></text><path class="e500b430-d091-4113-b837-942b79f01db5" d="M512.2472,489.9071l-28.14-35.761a106.6994,106.6994,0,0,1-5.7566,34.025l13.78,40.5021,40.2322-13.6888a167.39,167.39,0,0,0,10.43-40.5858Z"/><text class="b11152fb-176e-4112-b536-6aaccc77cc14" transform="translate(261.3604 489.4098)">Période de brainstorm</text><path class="e500b430-d091-4113-b837-942b79f01db5" d="M551.9878,568.6864c-7.9631,14.5543-22.5021,23.6064-37.5906,22.972-17.18-.7223-35.27-14.0111-35.5023-29.2371-.176-11.5177,7.893-21.5367,16.7792-22.9306,9.0422-1.4184,13.392,6.1869,12.98,11.9667-.7662,10.7489-22.7346,22.5976-34.98,15.1406-9.6729-5.89-13.5608-23.9981-3.1325-39.6789"/><path class="e500b430-d091-4113-b837-942b79f01db5" d="M561.9388,554.3431c.1169-.85.5369-4.3443-1.0442-5.2209-1.3823-.7664-3.6376.8326-5.2209,2.0884-9.7946,7.7687-30.7938,24.443-31.3255,43.8557-.3169,11.5711,5.2237,16.2252,10.587,17.555,7.4646,1.8507,16.1989-1.5571,17.606-9.2015.8-4.3486-1.9955-10.0522-6.2651-11.486-8.95-3.0055-26.0111,12.2-22.9721,22.972.3894,1.38,1.83,5.244,8.3535,8.3535"/><path class="e500b430-d091-4113-b837-942b79f01db5" d="M441.0342,475.111c1.3653,2.22,7.0146,11.9562,4.1768,24.0162a27.78,27.78,0,0,1-8.3535,14.6186c-10.3955,9.1739-28.8487,9.5777-32.37,3.1326-3.0981-5.6711,4.2447-18.6947,13.5744-20.8837,11.2957-2.65,24.8389,10.7374,29.2371,24.0162,4.4107,13.3162.64,24.8511-5.2109,46.4816-9.0417,33.4268-3.5392,47.7457-2.0984,50.6275,5.221,10.4418,15.5246,15.6444,27.1488,14.6185,13.7315-1.2117,26.15-14.3579,28.193-32.37"/><path class="e500b430-d091-4113-b837-942b79f01db5" d="M508.5008,573.7864c-18.4249,25.861-34.2045,31.8892-50.1208,28.1929-9.1751-2.1307-16.8444-13.4307-30.2813-31.3255-9.7514-12.9866-15.97-18.54-22.45-19.3174-10.5421-1.2644-16.707,4.1767-22.45,15.1407-7.8314-7.8314-22.2245-21.7815-44.3778-25.5825-8.7263-1.4973-24.0461.3377-41.2453,13.0523"/><path class="e500b430-d091-4113-b837-942b79f01db5" d="M363.3594,585.2724c-.2-1.0269,1.5664-10.9639-7.31-11.4861-5.771-.3394-13.0523,4.6989-13.5742,15.6628-.6,12.5947,12.0083,22.45,29.2373,27.1487,18.54,5.0564,34.96-2.0623,41.39-5.4812"/><polygon points="411.384 618.776 409.977 618.254 412.557 611.323 405.455 609.256 405.876 607.814 414.525 610.334 411.384 618.776"/><path class="e500b430-d091-4113-b837-942b79f01db5" d="M385.2872,643.7467c5.9148-7.436,15.6338-17.1583,28.1929-17.7512,22.7034-1.0717,33.6983,28.6809,54.2976,28.193,9.058-.2146,22.1268-6.3274,37.5906-35.5022"/><line class="e500b430-d091-4113-b837-942b79f01db5" x1="355.5058" y1="618.914" x2="322.4101" y2="637.5021"/><polygon points="323.739 629.719 325.169 630.176 322.911 637.219 330.101 638.957 329.747 640.416 320.991 638.297 323.739 629.719"/><line class="e500b430-d091-4113-b837-942b79f01db5" x1="313.5449" y1="613.4176" x2="280.4492" y2="632.0058"/><polygon points="281.779 624.223 283.209 624.68 280.951 631.723 288.14 633.46 287.786 634.919 279.03 632.801 281.779 624.223"/><rect class="e500b430-d091-4113-b837-942b79f01db5" x="469.3193" y="518.672" width="6.1219" height="6.1219"/><rect class="e500b430-d091-4113-b837-942b79f01db5" x="436.8586" y="467.2942" width="6.1219" height="6.1219"/><rect class="e500b430-d091-4113-b837-942b79f01db5" x="286.8321" y="554.5543" width="7.5648" height="7.5648"/><rect class="e500b430-d091-4113-b837-942b79f01db5" x="557.889" y="557.183" width="7.5648" height="7.5648"/><rect class="e500b430-d091-4113-b837-942b79f01db5" x="309.3527" y="638.7391" width="7.5648" height="7.5648"/><rect class="e500b430-d091-4113-b837-942b79f01db5" x="359.4065" y="588.3593" width="7.5648" height="7.5648"/><rect class="e500b430-d091-4113-b837-942b79f01db5" x="252.0851" y="528.8136" width="7.5648" height="7.5648"/><line class="af1a547d-66ff-4692-9168-970f327e22bc" x1="273.3222" y1="640.7965" x2="265.7575" y2="633.2317"/><line class="af1a547d-66ff-4692-9168-970f327e22bc" x1="265.7575" y1="640.7965" x2="273.3222" y2="633.2317"/><line class="e500b430-d091-4113-b837-942b79f01db5" x1="273.3222" y1="640.7965" x2="265.7575" y2="633.2317"/><line class="e500b430-d091-4113-b837-942b79f01db5" x1="265.7575" y1="640.7965" x2="273.3222" y2="633.2317"/><line class="e500b430-d091-4113-b837-942b79f01db5" x1="374.4192" y1="523.1133" x2="366.8545" y2="515.5485"/><line class="e500b430-d091-4113-b837-942b79f01db5" x1="366.8545" y1="523.1133" x2="374.4192" y2="515.5485"/><line class="e500b430-d091-4113-b837-942b79f01db5" x1="387.6561" y1="577.7214" x2="380.0914" y2="570.1566"/><line class="e500b430-d091-4113-b837-942b79f01db5" x1="380.0914" y1="577.7214" x2="387.6561" y2="570.1566"/><line class="af1a547d-66ff-4692-9168-970f327e22bc" x1="293.5103" y1="595.6286" x2="285.9456" y2="588.0638"/><line class="af1a547d-66ff-4692-9168-970f327e22bc" x1="285.9456" y1="595.6286" x2="293.5103" y2="588.0638"/><line class="e500b430-d091-4113-b837-942b79f01db5" x1="293.5103" y1="595.6286" x2="285.9456" y2="588.0638"/><line class="e500b430-d091-4113-b837-942b79f01db5" x1="285.9456" y1="595.6286" x2="293.5103" y2="588.0638"/><line class="e500b430-d091-4113-b837-942b79f01db5" x1="386.0845" y1="654.744" x2="378.5197" y2="647.1792"/><line class="e500b430-d091-4113-b837-942b79f01db5" x1="378.5197" y1="654.744" x2="386.0845" y2="647.1792"/><path class="e500b430-d091-4113-b837-942b79f01db5" d="M282.2814,559.5778c-1.2031.5984-8.3452,4.01-15.9569.8865-7.4274-3.0474-12.2677-11.0714-11.8791-20.0348"/><path class="e500b430-d091-4113-b837-942b79f01db5" d="M290.4371,565.9605a24.1386,24.1386,0,0,0-3.3686,13.4748,23.0347,23.0347,0,0,0,1.4183,6.7374"/><path class="e500b430-d091-4113-b837-942b79f01db5" d="M379.24,541.1386a28.8034,28.8034,0,0,1-5.8276-11.3316c-.168-.6684-.3047-1.3205-.4155-1.9536"/><polygon points="380.162 531.387 379.306 532.62 373.234 528.397 369.466 534.762 368.175 533.996 372.766 526.245 380.162 531.387"/><text class="e76a9917-dce5-4d8b-9ecb-6745f65f3013" transform="translate(384.4966 589.6696)">Semaine<tspan x="4.3828" y="14.4004">crunch</tspan></text><path class="e500b430-d091-4113-b837-942b79f01db5" d="M398.1849,179.1074a48.8022,48.8022,0,0,1-67.9036,12.3461,49.9258,49.9258,0,0,1-12.63-69.4668,51.0752,51.0752,0,0,1,71.066-12.9211,52.2509,52.2509,0,0,1,13.2185,72.7019A53.4537,53.4537,0,0,1,327.56,195.29a54.6841,54.6841,0,0,1-13.8341-76.0876A55.9429,55.9429,0,0,1,391.5649,105.05a57.2306,57.2306,0,0,1,14.4784,79.6309,58.5483,58.5483,0,0,1-81.4641,14.8117,59.8961,59.8961,0,0,1-15.1526-83.3394"/><path class="e500b430-d091-4113-b837-942b79f01db5" d="M453.5714,141.4445c-.2-.79-.41-1.56-.65-2.33a48.8193,48.8193,0,0,0-5.98-12.73,49.6777,49.6777,0,0,0-17.6-16.21,47.9417,47.9417,0,0,0-7.43-3.29v-.01a49.23,49.23,0,0,0-16.23-2.73c-.69,0-1.39.01-2.07.05a48.4992,48.4992,0,0,0-10.91,1.68,48.0141,48.0141,0,0,0-5.82,1.98,49.3827,49.3827,0,0,0-7.59,87.42,48.6431,48.6431,0,0,0,10.68,5.08,49.3549,49.3549,0,0,0,65.09-46.82"/><path class="e500b430-d091-4113-b837-942b79f01db5" d="M560.7214,70.1345a45.2636,45.2636,0,0,0-26.56-2.19c-1.33.29-2.63.65-3.91,1.06a44.9372,44.9372,0,0,0-19.49,12.47,44.9387,44.9387,0,0,0-11.78,28.35,45.0743,45.0743,0,0,0,1.31,13.05h.01a42.698,42.698,0,0,0,2.01,6.1c.48,1.19,1.02,2.35,1.61,3.48a44.96,44.96,0,0,0,37.95,24.34c1.19.05,2.38.06,3.55.03a44.9959,44.9959,0,0,0,28.17-78.76"/><path class="e500b430-d091-4113-b837-942b79f01db5" d="M530.2812,70.8145a60.2661,60.2661,0,0,1-29.98,52.06h-.01a60.112,60.112,0,0,1-72.96-9.71,61.2835,61.2835,0,0,1-5.42-6.28,47.95,47.95,0,0,1,7.43,3.29,64.4261,64.4261,0,0,1,76.49-22.24,44.4171,44.4171,0,0,1,4.93-6.46,72.0891,72.0891,0,0,0-17.66-33,70.2634,70.2634,0,0,0-64.77-20.99,60.1805,60.1805,0,0,1,101.92,41.52C530.2715,69.6044,530.2812,70.2045,530.2812,70.8145Z"/><path class="e500b430-d091-4113-b837-942b79f01db5" d="M463.4914,44.3845a62.7753,62.7753,0,0,1,33.48-27.42,61.2292,61.2292,0,0,1,9.2-2.41,62.6205,62.6205,0,1,1,11.29,124.21"/><path class="e500b430-d091-4113-b837-942b79f01db5" d="M417.9614,138.5445a63.9963,63.9963,0,0,1,3.42-13.44,63.347,63.347,0,0,1,5.95-11.94c.64-1.02,1.31-2.01,2.01-2.99a64.4262,64.4262,0,0,1,76.49-22.24,63.542,63.542,0,0,1,17.63,10.71c1.15.98,2.27,2,3.34,3.06a64.1607,64.1607,0,0,1,19.28,45.93,63.32,63.32,0,0,1-.66,9.19,64.3775,64.3775,0,0,1-126.97,2.8c-.05-.24-.1-.47-.14-.71"/><path class="e500b430-d091-4113-b837-942b79f01db5" d="M534.1616,67.9445c.04.82.05,1.64.05,2.47"/><path class="e500b430-d091-4113-b837-942b79f01db5" d="M506.1714,14.5545a69.5456,69.5456,0,0,1,27.99,53.39"/><path class="e500b430-d091-4113-b837-942b79f01db5" d="M464.5415.7544a69.3542,69.3542,0,0,1,41.63,13.8"/><path class="e500b430-d091-4113-b837-942b79f01db5" d="M408.4414,29.1144a69.558,69.558,0,0,1,56.1-28.36"/><path class="e500b430-d091-4113-b837-942b79f01db5" d="M428.3315,27.4845c-1.26,1.2-2.45,2.46-3.59,3.78"/><path class="e500b430-d091-4113-b837-942b79f01db5" d="M472.0415,33.0444a70.5094,70.5094,0,0,0-43.71-5.56"/><path class="e500b430-d091-4113-b837-942b79f01db5" d="M493.1015,48.4745a70.0813,70.0813,0,0,0-21.06-15.43"/><path class="e500b430-d091-4113-b837-942b79f01db5" d="M510.7612,81.4745a72.0891,72.0891,0,0,0-17.66-33"/><path class="e500b430-d091-4113-b837-942b79f01db5" d="M505.8315,87.9345a44.4171,44.4171,0,0,1,4.93-6.46"/><path class="e500b430-d091-4113-b837-942b79f01db5" d="M481.7016,83.2544a64.101,64.101,0,0,1,24.13,4.68"/><path class="e500b430-d091-4113-b837-942b79f01db5" d="M429.3413,110.1745a64.29,64.29,0,0,1,52.36-26.92"/><path class="e500b430-d091-4113-b837-942b79f01db5" d="M421.9116,106.8844a47.95,47.95,0,0,1,7.43,3.29"/><path class="e500b430-d091-4113-b837-942b79f01db5" d="M421.9116,106.8744v.01"/><path class="e500b430-d091-4113-b837-942b79f01db5" d="M412.3613,87.8644a60.0582,60.0582,0,0,0,9.55,19.01"/><path class="e500b430-d091-4113-b837-942b79f01db5" d="M403.6113,104.1945a68.6139,68.6139,0,0,1-6.21-15.17"/><path class="e500b430-d091-4113-b837-942b79f01db5" d="M421.3813,125.1044a69.8729,69.8729,0,0,1-17.77-20.91"/><path class="e500b430-d091-4113-b837-942b79f01db5" d="M452.9214,139.1144a69.29,69.29,0,0,1-31.54-14.01"/><path class="e500b430-d091-4113-b837-942b79f01db5" d="M464.5415,140.0844a69.5523,69.5523,0,0,1-11.62-.97"/><path class="e500b430-d091-4113-b837-942b79f01db5" d="M502.3115,128.9745a69.37,69.37,0,0,1-37.77,11.11"/><path class="e500b430-d091-4113-b837-942b79f01db5" d="M507.2314,125.4745q-2.3854,1.86-4.92,3.5"/><path class="e500b430-d091-4113-b837-942b79f01db5" d="M526.8013,101.7045a69.6328,69.6328,0,0,1-19.57,23.77"/><path class="e500b430-d091-4113-b837-942b79f01db5" d="M534.2114,70.4144a69.3576,69.3576,0,0,1-7.41,31.29"/><path class="e500b430-d091-4113-b837-942b79f01db5" d="M349.3006,166.4336a43.2453,43.2453,0,0,1-61.1251-2.0088,44.5015,44.5015,0,0,1,2.0671-62.9008,45.7945,45.7945,0,0,1,64.7282,2.1272,47.1247,47.1247,0,0,1-2.189,66.6085,48.4647,48.4647,0,0,1-49.9659,10.0965"/><path class="e500b430-d091-4113-b837-942b79f01db5" d="M459.5714,168.0045a74.1239,74.1239,0,0,0,30.16-17.19,72.0727,72.0727,0,0,0,14.19-18.36,68.2809,68.2809,0,0,0,3.31-6.98,70.1929,70.1929,0,0,0,3.29-10.08,72.3234,72.3234,0,0,0-17.42-66.92,70.5041,70.5041,0,0,0-74.93-18.23"/><path class="e500b430-d091-4113-b837-942b79f01db5" d="M372.2814,88.9645a69.3462,69.3462,0,0,0-.26,7.49c.03,1.7.12,3.41.29,5.11a68.1209,68.1209,0,0,0,18.16,40.28,66.0849,66.0849,0,0,0,20.55,14.87q2.37,1.125,4.82,2.02c.86.32,1.73.62,2.61.89a66.3514,66.3514,0,0,0,65.94-14.69"/><path class="af1a547d-66ff-4692-9168-970f327e22bc" d="M284.2114,733.3544v65.58h-85.91a13.8148,13.8148,0,0,0-13.81,13.82v27.29h-6.97a13.8126,13.8126,0,0,1-13.81-13.81v-92.88a13.806,13.806,0,0,1,13.81-13.81h92.87A13.8147,13.8147,0,0,1,284.2114,733.3544Z"/><text class="e76a9917-dce5-4d8b-9ecb-6745f65f3013" transform="translate(184.2461 769.2914)">le smartphone, <tspan x="0.1084" y="14.3994">par la Marmite</tspan></text><text class="e76a9917-dce5-4d8b-9ecb-6745f65f3013" transform="translate(199.6221 743.9213)">Module 1</text><text class="e76a9917-dce5-4d8b-9ecb-6745f65f3013" transform="translate(14.9897 702.1517)">Livrables, processus <tspan x="0" y="14.3994">et retours d&apos;expérience </tspan><tspan class="f6227113-a35d-412e-b4a1-d72032d55e63"><tspan x="0" y="28.7998">oct. 22</tspan></tspan></text><path class="af1a547d-66ff-4692-9168-970f327e22bc" d="M479.5215,722.5744v92.88a13.8127,13.8127,0,0,1-13.81,13.81h-34.94a13.7738,13.7738,0,0,0-11.92-6.85h-57.94a13.7125,13.7125,0,0,1-1.89-6.96v-92.88a13.8127,13.8127,0,0,1,13.81-13.81h92.88A13.8065,13.8065,0,0,1,479.5215,722.5744Z"/><path d="M392.2129,727.8955a2.5051,2.5051,0,0,1-.2549,1.1514,2.3008,2.3008,0,0,1-.706.8291,3.0479,3.0479,0,0,1-.9786.48,4.096,4.096,0,0,1-1.1308.1524h-.9317v2.5195a.8992.8992,0,0,0,.0674.36.465.465,0,0,0,.2783.2373,1.8235,1.8235,0,0,0,.3721.0761,4.6963,4.6963,0,0,0,.4893.0411v.416H385.85v-.416q.1407-.0117.4072-.0411a1.4034,1.4034,0,0,0,.3721-.0761.505.505,0,0,0,.2549-.2227.7852.7852,0,0,0,.0791-.375v-6a1.0915,1.0915,0,0,0-.0586-.3691.4277.4277,0,0,0-.2754-.2461,2.4741,2.4741,0,0,0-.4424-.1084q-.22-.0323-.3779-.044v-.416h3.7969a2.993,2.993,0,0,1,1.8838.56A1.79,1.79,0,0,1,392.2129,727.8955Zm-1.7813,1.418a1.5746,1.5746,0,0,0,.2637-.583,2.621,2.621,0,0,0,.0645-.542,3.0429,3.0429,0,0,0-.0791-.68,1.58,1.58,0,0,0-.2725-.6035,1.3631,1.3631,0,0,0-.5391-.4278,2.0051,2.0051,0,0,0-.832-.1523h-.8262v3.6738h.5977a2.3185,2.3185,0,0,0,1.0283-.1963A1.5065,1.5065,0,0,0,390.4316,729.3135Z"/><path d="M397.44,729.126a.97.97,0,0,1-.1465.53.4967.4967,0,0,1-.4512.2315.6855.6855,0,0,1-.501-.17.517.517,0,0,1-.1728-.375,1.2292,1.2292,0,0,1,.02-.2344q.02-.1054.0381-.2109a1.2982,1.2982,0,0,0-.6446.2226,1.9055,1.9055,0,0,0-.6269.6328v3.3633a.63.63,0,0,0,.0791.334.4785.4785,0,0,0,.249.1934,1.5685,1.5685,0,0,0,.3779.0878q.2315.0294.4014.0411v.3867h-3.0469v-.3867q.1348-.0119.2783-.0235a1.0633,1.0633,0,0,0,.2491-.0469.4209.4209,0,0,0,.2431-.1845.6554.6554,0,0,0,.0791-.3418v-3.5645a.8139.8139,0,0,0-.0849-.3574.7091.7091,0,0,0-.2373-.28.8011.8011,0,0,0-.2637-.1025,2.3494,2.3494,0,0,0-.3281-.044V728.44l1.9218-.1289.0821.0821v.8144h.0293a2.6293,2.6293,0,0,1,.8086-.7207,1.709,1.709,0,0,1,.8144-.2461.7969.7969,0,0,1,.6006.24A.89.89,0,0,1,397.44,729.126Z"/><path d="M403.5684,731.2119a3.8184,3.8184,0,0,1-.1934,1.1983,2.8419,2.8419,0,0,1-.5518.999,2.5664,2.5664,0,0,1-.9384.6972,3.0062,3.0062,0,0,1-1.1963.2286,2.6967,2.6967,0,0,1-1.05-.208,2.6463,2.6463,0,0,1-.8858-.6065,2.9014,2.9014,0,0,1-.6074-.958,3.3976,3.3976,0,0,1-.2256-1.2686,3.1494,3.1494,0,0,1,.7891-2.2148,2.8875,2.8875,0,0,1,4.07-.0439A3.0042,3.0042,0,0,1,403.5684,731.2119Zm-1.2129.0117a5.26,5.26,0,0,0-.0879-.9287,2.9372,2.9372,0,0,0-.2637-.8291,1.6348,1.6348,0,0,0-.4941-.583,1.24,1.24,0,0,0-.7452-.22,1.32,1.32,0,0,0-.7724.2226,1.6526,1.6526,0,0,0-.52.6094,2.6972,2.6972,0,0,0-.2637.8145,5.3785,5.3785,0,0,0-.0762.8847,5.5782,5.5782,0,0,0,.0908,1.04,2.978,2.978,0,0,0,.291.8525,1.66,1.66,0,0,0,.501.5889,1.2655,1.2655,0,0,0,.749.2138,1.3069,1.3069,0,0,0,1.1622-.7089A3.7787,3.7787,0,0,0,402.3555,731.2236Z"/><path d="M407.0723,734.3115a2.4406,2.4406,0,0,1-1.9629-.832,3.7442,3.7442,0,0,1-.5186-3.3721,3.1442,3.1442,0,0,1,.5537-.9638,2.5861,2.5861,0,0,1,.8672-.6709,2.5527,2.5527,0,0,1,1.1367-.2549,2.2155,2.2155,0,0,1,1.3828.4072,1.3221,1.3221,0,0,1,.5333,1.11.9592.9592,0,0,1-.1407.5185.5031.5031,0,0,1-.4629.2256.7656.7656,0,0,1-.5361-.1748.5253.5253,0,0,1-.19-.3916,2.1931,2.1931,0,0,1,.07-.54,2.9664,2.9664,0,0,0,.082-.4062.5149.5149,0,0,0-.3125-.2422,1.5674,1.5674,0,0,0-.4472-.0615,1.2382,1.2382,0,0,0-.5352.12,1.3873,1.3873,0,0,0-.4941.4424,2.3891,2.3891,0,0,0-.35.791,4.5989,4.5989,0,0,0-.1347,1.1895,3.0269,3.0269,0,0,0,.4824,1.7783,1.4816,1.4816,0,0,0,1.2666.6885,1.5853,1.5853,0,0,0,.95-.2764,2.6987,2.6987,0,0,0,.7109-.8311l.375.2461a3.026,3.026,0,0,1-1.0195,1.0957A2.3954,2.3954,0,0,1,407.0723,734.3115Z"/><path d="M414.9824,732.8a2.96,2.96,0,0,1-.9726,1.1016,2.4494,2.4494,0,0,1-1.4.41,2.8471,2.8471,0,0,1-1.2217-.2461,2.3988,2.3988,0,0,1-.8643-.6679,2.8381,2.8381,0,0,1-.5068-.9844,4.16,4.16,0,0,1-.167-1.1895,3.5072,3.5072,0,0,1,.1787-1.1045,3.1179,3.1179,0,0,1,.5244-.9755,2.538,2.538,0,0,1,.8291-.6709,2.3892,2.3892,0,0,1,1.11-.2549,2.6729,2.6729,0,0,1,1.084.1992,1.9284,1.9284,0,0,1,.7324.5449,2.1761,2.1761,0,0,1,.4014.7735,3.3917,3.3917,0,0,1,.1318.9667v.3868h-3.8262a4.5589,4.5589,0,0,0,.1084,1.0341,2.4887,2.4887,0,0,0,.3428.8165,1.6337,1.6337,0,0,0,.5977.5371,1.8479,1.8479,0,0,0,.8789.1963,1.611,1.611,0,0,0,.8994-.2452,2.4094,2.4094,0,0,0,.7295-.88Zm-1.2949-2.2031a4.7789,4.7789,0,0,0-.0557-.7012,2.14,2.14,0,0,0-.1787-.625,1.1959,1.1959,0,0,0-.3691-.4385,1.01,1.01,0,0,0-.6035-.1689,1.2581,1.2581,0,0,0-1.0225.5107,2.3855,2.3855,0,0,0-.4424,1.4229Z"/><path d="M419.4648,731.3291a1.476,1.476,0,0,1,.3692.4863,1.5835,1.5835,0,0,1,.1289.6739,1.6429,1.6429,0,0,1-.6006,1.3125,2.568,2.568,0,0,1-2.4844.3281,2.5554,2.5554,0,0,1-.6064-.334l-.1172.3809h-.4395l-.0586-2.01h.4043a2.2462,2.2462,0,0,0,.1993.5351,2.5755,2.5755,0,0,0,.3691.5528,2.022,2.022,0,0,0,.5479.4346,1.4537,1.4537,0,0,0,.7177.1767,1.3058,1.3058,0,0,0,.8672-.2568.9033.9033,0,0,0,.3047-.7334.88.88,0,0,0-.0967-.4248.9344.9344,0,0,0-.2842-.3135,2.24,2.24,0,0,0-.4746-.2432q-.2812-.1083-.6269-.2138a5.8249,5.8249,0,0,1-.6123-.2256,2.4422,2.4422,0,0,1-.5772-.3369,1.6525,1.6525,0,0,1-.4218-.5039,1.4388,1.4388,0,0,1-.1641-.7032,1.5808,1.5808,0,0,1,.5273-1.2011,1.9863,1.9863,0,0,1,1.4121-.4922,2.8789,2.8789,0,0,1,.6944.0879,2.403,2.403,0,0,1,.5771.2109l.1348-.3047h.4219l.0879,1.8574H419.26a1.8685,1.8685,0,0,0-.53-1.0146,1.3767,1.3767,0,0,0-.9932-.3916,1.1062,1.1062,0,0,0-.7558.2422.7509.7509,0,0,0-.2754.584.9521.9521,0,0,0,.0908.4394.8081.8081,0,0,0,.2725.2988,2.2686,2.2686,0,0,0,.4423.22q.2667.1024.6592.2314a5.66,5.66,0,0,1,.73.2871A2.3932,2.3932,0,0,1,419.4648,731.3291Z"/><path d="M424.65,731.3291a1.4756,1.4756,0,0,1,.3691.4863,1.582,1.582,0,0,1,.1289.6739,1.6431,1.6431,0,0,1-.6,1.3125,2.568,2.568,0,0,1-2.4844.3281,2.5565,2.5565,0,0,1-.6065-.334l-.1172.3809H420.9l-.0586-2.01h.4043a2.2454,2.2454,0,0,0,.1992.5351,2.5759,2.5759,0,0,0,.3692.5528,2.0216,2.0216,0,0,0,.5478.4346,1.4543,1.4543,0,0,0,.7178.1767,1.306,1.306,0,0,0,.8672-.2568.9033.9033,0,0,0,.3047-.7334.8808.8808,0,0,0-.0967-.4248.9354.9354,0,0,0-.2842-.3135,2.24,2.24,0,0,0-.4746-.2432q-.2812-.1083-.627-.2138a5.8249,5.8249,0,0,1-.6123-.2256,2.4394,2.4394,0,0,1-.5771-.3369,1.6528,1.6528,0,0,1-.4219-.5039,1.4388,1.4388,0,0,1-.1641-.7032,1.5806,1.5806,0,0,1,.5274-1.2011,1.9862,1.9862,0,0,1,1.4121-.4922,2.8781,2.8781,0,0,1,.6943.0879,2.404,2.404,0,0,1,.5772.2109l.1347-.3047h.4219l.0879,1.8574h-.4043a1.8679,1.8679,0,0,0-.53-1.0146,1.3764,1.3764,0,0,0-.9931-.3916,1.1065,1.1065,0,0,0-.7559.2422.7509.7509,0,0,0-.2754.584.9521.9521,0,0,0,.0908.4394.809.809,0,0,0,.2725.2988,2.2725,2.2725,0,0,0,.4424.22q.2665.1024.6592.2314a5.6661,5.6661,0,0,1,.7295.2871A2.3932,2.3932,0,0,1,424.65,731.3291Z"/><path d="M432.2148,734.0537l-1.8867.1289-.0879-.082v-.7324h-.0351q-.1407.1464-.3155.3134a2.2168,2.2168,0,0,1-.4042.3018,2.5593,2.5593,0,0,1-.5088.24,2.2989,2.2989,0,0,1-.6963.0821,1.4066,1.4066,0,0,1-1.167-.501,2.285,2.285,0,0,1-.4-1.4541v-2.7627a.7117.7117,0,0,0-.08-.3535.7289.7289,0,0,0-.2324-.249.7476.7476,0,0,0-.2656-.1026,2.5363,2.5363,0,0,0-.336-.0439v-.3868l1.9278-.1406.0879.0821v4.0136a1.382,1.382,0,0,0,.2812.9434.8717.8717,0,0,0,.6738.3164,1.5528,1.5528,0,0,0,.5743-.1,1.625,1.625,0,0,0,.4218-.2334,2.03,2.03,0,0,0,.2783-.2608,1.4946,1.4946,0,0,0,.1846-.2548v-3.2715a.6966.6966,0,0,0-.082-.3418.768.768,0,0,0-.2285-.2549.6542.6542,0,0,0-.3135-.085q-.208-.0145-.4658-.0263v-.3868l2.1035-.1406.0879.0821v4.583a.6631.6631,0,0,0,.082.34.74.74,0,0,0,.2285.2393.651.651,0,0,0,.252.0849,3.0631,3.0631,0,0,0,.3222.0264Z"/><path d="M436.7383,731.3291a1.4756,1.4756,0,0,1,.3691.4863,1.582,1.582,0,0,1,.1289.6739,1.6429,1.6429,0,0,1-.6006,1.3125,2.5678,2.5678,0,0,1-2.4843.3281,2.5565,2.5565,0,0,1-.6065-.334l-.1172.3809h-.4394l-.0586-2.01h.4043a2.241,2.241,0,0,0,.1992.5351,2.5792,2.5792,0,0,0,.3691.5528,2.0236,2.0236,0,0,0,.5479.4346,1.454,1.454,0,0,0,.7178.1767,1.306,1.306,0,0,0,.8672-.2568.9033.9033,0,0,0,.3046-.7334.8807.8807,0,0,0-.0966-.4248.9354.9354,0,0,0-.2842-.3135,2.24,2.24,0,0,0-.4746-.2432q-.2812-.1083-.627-.2138a5.8249,5.8249,0,0,1-.6123-.2256,2.4394,2.4394,0,0,1-.5771-.3369,1.6528,1.6528,0,0,1-.4219-.5039,1.4388,1.4388,0,0,1-.1641-.7032,1.5806,1.5806,0,0,1,.5274-1.2011,1.986,1.986,0,0,1,1.4121-.4922,2.8787,2.8787,0,0,1,.6943.0879,2.4056,2.4056,0,0,1,.5772.2109l.1347-.3047h.4219l.0879,1.8574h-.4043a1.8679,1.8679,0,0,0-.53-1.0146,1.3766,1.3766,0,0,0-.9931-.3916,1.1065,1.1065,0,0,0-.7559.2422.7509.7509,0,0,0-.2754.584.9521.9521,0,0,0,.0908.4394.809.809,0,0,0,.2725.2988,2.27,2.27,0,0,0,.4424.22q.2665.1024.6592.2314a5.6661,5.6661,0,0,1,.73.2871A2.3953,2.3953,0,0,1,436.7383,731.3291Z"/><path d="M447.332,734.0537l-2.0215.1289-.0878-.082v-.5391l-.0469-.0117a2.3943,2.3943,0,0,1-.752.5566,2.0913,2.0913,0,0,1-.9218.2168,2.1755,2.1755,0,0,1-.95-.22,2.4015,2.4015,0,0,1-.7989-.6181,3.0525,3.0525,0,0,1-.5468-.9727,3.7186,3.7186,0,0,1-.2022-1.2539,3.2793,3.2793,0,0,1,.2168-1.1895,3.1156,3.1156,0,0,1,.5967-.9843,2.6212,2.6212,0,0,1,.875-.627,2.5358,2.5358,0,0,1,1.0556-.2344,3.0976,3.0976,0,0,1,.793.1026,2.8314,2.8314,0,0,1,.67.2607v-2.0137a1.1869,1.1869,0,0,0-.082-.4492.6839.6839,0,0,0-.2285-.3076,1.1463,1.1463,0,0,0-.4424-.1621,5.8006,5.8006,0,0,0-.6006-.0732v-.3633l2.3672-.1289.0879.0879v7.788a.7094.7094,0,0,0,.0791.3477.6861.6861,0,0,0,.2314.2432.7253.7253,0,0,0,.3223.0879q.2109.0176.3867.0234Zm-2.1211-1.0137v-3.3808a1.5066,1.5066,0,0,0-.1523-.3281,1.46,1.46,0,0,0-.2627-.3223,1.51,1.51,0,0,0-.3975-.2432,1.3592,1.3592,0,0,0-.5322-.0967,1.2084,1.2084,0,0,0-.6465.1817,1.7266,1.7266,0,0,0-.5234.5215,2.6871,2.6871,0,0,0-.3418.8349,4.6518,4.6518,0,0,0-.126,1.1221,3.935,3.935,0,0,0,.0938.8936,2.36,2.36,0,0,0,.3154.747,1.6362,1.6362,0,0,0,.5234.5274,1.4011,1.4011,0,0,0,.7578.1992,1.367,1.367,0,0,0,.7745-.2051A2.5042,2.5042,0,0,0,445.2109,733.04Z"/><path d="M453.0273,732.8a2.9593,2.9593,0,0,1-.9726,1.1016,2.4494,2.4494,0,0,1-1.4.41,2.8474,2.8474,0,0,1-1.2217-.2461,2.3976,2.3976,0,0,1-.8642-.6679,2.8383,2.8383,0,0,1-.5069-.9844,4.16,4.16,0,0,1-.167-1.1895,3.5072,3.5072,0,0,1,.1787-1.1045,3.1161,3.1161,0,0,1,.5245-.9755,2.536,2.536,0,0,1,.8291-.6709,2.3888,2.3888,0,0,1,1.11-.2549,2.6729,2.6729,0,0,1,1.084.1992,1.9284,1.9284,0,0,1,.7324.5449,2.1761,2.1761,0,0,1,.4014.7735,3.3917,3.3917,0,0,1,.1318.9667v.3868h-3.8262a4.5589,4.5589,0,0,0,.1084,1.0341,2.4908,2.4908,0,0,0,.3428.8165,1.6345,1.6345,0,0,0,.5977.5371,1.8482,1.8482,0,0,0,.8789.1963,1.611,1.611,0,0,0,.8994-.2452,2.4094,2.4094,0,0,0,.73-.88Zm-1.2949-2.2031a4.7782,4.7782,0,0,0-.0556-.7012,2.1432,2.1432,0,0,0-.1788-.625,1.1949,1.1949,0,0,0-.3691-.4385,1.01,1.01,0,0,0-.6035-.1689,1.2581,1.2581,0,0,0-1.0225.5107,2.3855,2.3855,0,0,0-.4424,1.4229Z"/><path d="M385.29,748.4541l-2.0205.1289-.0888-.082v-.5391l-.0469-.0117a2.3954,2.3954,0,0,1-.752.5566,2.0872,2.0872,0,0,1-.9209.2168,2.18,2.18,0,0,1-.9511-.22,2.4,2.4,0,0,1-.7989-.6182,3.0508,3.0508,0,0,1-.5468-.9726,3.7186,3.7186,0,0,1-.2022-1.2539,3.3,3.3,0,0,1,.2158-1.19,3.1364,3.1364,0,0,1,.5977-.9843,2.63,2.63,0,0,1,.875-.627,2.5347,2.5347,0,0,1,1.0557-.2344,3.1026,3.1026,0,0,1,.7929.1026,2.8485,2.8485,0,0,1,.67.2607v-2.0137a1.1869,1.1869,0,0,0-.082-.4492.6826.6826,0,0,0-.2285-.3076,1.1463,1.1463,0,0,0-.4424-.1621,5.827,5.827,0,0,0-.6006-.0733v-.3632l2.3672-.1289.0879.0878v7.7881a.7094.7094,0,0,0,.0791.3477.6864.6864,0,0,0,.2315.2432.7232.7232,0,0,0,.3222.0878q.2109.0177.3867.0235Zm-2.1211-1.0137V744.06a1.55,1.55,0,0,0-.1513-.3282,1.4667,1.4667,0,0,0-.2637-.3222,1.5007,1.5007,0,0,0-.3984-.2432,1.3484,1.3484,0,0,0-.5313-.0967,1.2109,1.2109,0,0,0-.6465.1817,1.7266,1.7266,0,0,0-.5234.5215,2.6871,2.6871,0,0,0-.3418.8349,4.6518,4.6518,0,0,0-.126,1.1221,3.9335,3.9335,0,0,0,.0938.8935,2.3377,2.3377,0,0,0,.3154.7471,1.6273,1.6273,0,0,0,.5234.5274,1.4013,1.4013,0,0,0,.7579.1992,1.3646,1.3646,0,0,0,.7744-.2051A2.5016,2.5016,0,0,0,383.1689,747.44Z"/><path d="M390.9854,747.2a2.96,2.96,0,0,1-.9727,1.1016,2.4494,2.4494,0,0,1-1.4.41,2.8474,2.8474,0,0,1-1.2217-.2461,2.3976,2.3976,0,0,1-.8642-.6679,2.8383,2.8383,0,0,1-.5069-.9844,4.16,4.16,0,0,1-.167-1.1895,3.5072,3.5072,0,0,1,.1787-1.1045,3.1177,3.1177,0,0,1,.5245-.9756,2.5385,2.5385,0,0,1,.8291-.6709,2.39,2.39,0,0,1,1.11-.2548,2.6729,2.6729,0,0,1,1.084.1992,1.9284,1.9284,0,0,1,.7324.5449,2.1765,2.1765,0,0,1,.4014.7734,3.3929,3.3929,0,0,1,.1318.9668v.3868h-3.8261a4.5538,4.5538,0,0,0,.1084,1.0341,2.4871,2.4871,0,0,0,.3427.8164,1.6338,1.6338,0,0,0,.5977.5372,1.8482,1.8482,0,0,0,.8789.1962,1.6107,1.6107,0,0,0,.8994-.2451,2.408,2.408,0,0,0,.7295-.88Zm-1.295-2.2031a4.7782,4.7782,0,0,0-.0556-.7012,2.1433,2.1433,0,0,0-.1787-.625,1.1961,1.1961,0,0,0-.3692-.4385,1.01,1.01,0,0,0-.6035-.1689,1.2581,1.2581,0,0,0-1.0225.5107,2.3852,2.3852,0,0,0-.4423,1.4229Zm.2051-4.9922a.6021.6021,0,0,1-.1025.3633,1.62,1.62,0,0,1-.3018.2988q-.2929.2343-.7646.5976t-1.0166.7911l-.2227-.1875q.5274-.7794.7354-1.0987t.4482-.706a1.2431,1.2431,0,0,1,.3516-.4073.7142.7142,0,0,1,.3925-.1083.4757.4757,0,0,1,.4805.457Z"/><path d="M397.36,743.14a1.4535,1.4535,0,0,0-.501.1905,1.1248,1.1248,0,0,0-.4073.5068q-.3456.7853-.7148,1.6377t-.7676,1.79q-.1172.27-.249.6387t-.2432.709h-.457q-.5567-1.377-1.0254-2.5107t-.9726-2.3233a.8743.8743,0,0,0-.378-.4189,1.5253,1.5253,0,0,0-.5244-.1905v-.3867h2.6738v.41a2.1282,2.1282,0,0,0-.4394.0732c-.1758.0449-.2637.1065-.2637.1836a.3821.3821,0,0,0,.0293.0918c.0195.0488.0391.1035.0586.166q.2388.5978.6777,1.668.438,1.0722.7129,1.7266.2111-.5025.53-1.252t.6885-1.6738q.0585-.1582.1113-.2959a.7718.7718,0,0,0,.0527-.2783.2272.2272,0,0,0-.0966-.1778.9831.9831,0,0,0-.2315-.1377,1.5011,1.5011,0,0,0-.2636-.0879q-.129-.0293-.211-.041v-.375h2.211Z"/><path d="M402.7451,747.2a2.96,2.96,0,0,1-.9726,1.1016,2.4494,2.4494,0,0,1-1.4.41,2.8471,2.8471,0,0,1-1.2217-.2461,2.3988,2.3988,0,0,1-.8643-.6679,2.8381,2.8381,0,0,1-.5068-.9844,4.16,4.16,0,0,1-.167-1.1895,3.5072,3.5072,0,0,1,.1787-1.1045,3.12,3.12,0,0,1,.5244-.9756,2.5406,2.5406,0,0,1,.8291-.6709,2.39,2.39,0,0,1,1.11-.2548,2.6729,2.6729,0,0,1,1.084.1992,1.9292,1.9292,0,0,1,.7324.5449,2.1765,2.1765,0,0,1,.4014.7734,3.3965,3.3965,0,0,1,.1318.9668v.3868h-3.8262a4.56,4.56,0,0,0,.1084,1.0341,2.4872,2.4872,0,0,0,.3428.8164,1.6335,1.6335,0,0,0,.5976.5372,1.8486,1.8486,0,0,0,.879.1962,1.6109,1.6109,0,0,0,.8994-.2451,2.409,2.409,0,0,0,.7295-.88Zm-1.2949-2.2031a4.7789,4.7789,0,0,0-.0557-.7012,2.14,2.14,0,0,0-.1787-.625,1.1959,1.1959,0,0,0-.3691-.4385,1.01,1.01,0,0,0-.6035-.1689,1.2581,1.2581,0,0,0-1.0225.5107,2.3852,2.3852,0,0,0-.4424,1.4229Z"/><path d="M406.12,748.56h-2.8183v-.3867q.1347-.0119.2871-.0264a1.379,1.379,0,0,0,.2519-.044.4339.4339,0,0,0,.2461-.1845.6445.6445,0,0,0,.082-.3438v-6.6953a.8875.8875,0,0,0-.0908-.3965.7637.7637,0,0,0-.2373-.29,1.2023,1.2023,0,0,0-.3867-.1289,3.5089,3.5089,0,0,0-.4512-.07v-.375l2.1739-.1289.082.0878v7.9278a.6667.6667,0,0,0,.0762.3369.485.485,0,0,0,.2461.2021,1.3573,1.3573,0,0,0,.2548.0879,1.8732,1.8732,0,0,0,.2842.0411Z"/><path d="M412.4834,745.6123a3.8173,3.8173,0,0,1-.1934,1.1982,2.8715,2.8715,0,0,1-.5517.9991,2.5585,2.5585,0,0,1-.9385.6972,3.01,3.01,0,0,1-1.1963.2286,2.6985,2.6985,0,0,1-1.05-.2081,2.6353,2.6353,0,0,1-.8857-.6064,2.9026,2.9026,0,0,1-.6075-.958,3.4,3.4,0,0,1-.2255-1.2686,3.15,3.15,0,0,1,.789-2.2148,2.8876,2.8876,0,0,1,4.07-.044A3,3,0,0,1,412.4834,745.6123Zm-1.2129.0117a5.26,5.26,0,0,0-.0879-.9287,2.9678,2.9678,0,0,0-.2646-.8291,1.62,1.62,0,0,0-.4922-.583,1.2463,1.2463,0,0,0-.7461-.22,1.3166,1.3166,0,0,0-.7715.2226,1.6353,1.6353,0,0,0-.52.6094,2.6979,2.6979,0,0,0-.2647.8145,5.3772,5.3772,0,0,0-.0761.8847,5.57,5.57,0,0,0,.0908,1.04,3.0026,3.0026,0,0,0,.291.8525,1.6513,1.6513,0,0,0,.5019.5889,1.2625,1.2625,0,0,0,.7481.2138,1.3058,1.3058,0,0,0,1.1621-.7089A3.7876,3.7876,0,0,0,411.2705,745.624Z"/><path d="M418.5947,743.4678a3.01,3.01,0,0,1,.5362.9521,3.73,3.73,0,0,1,.19,1.2393,3.3109,3.3109,0,0,1-.2285,1.251,3.0642,3.0642,0,0,1-.6035.9638,2.8417,2.8417,0,0,1-.8731.6211,2.4506,2.4506,0,0,1-1.0195.2168,2.6242,2.6242,0,0,1-.8555-.1172,2.0226,2.0226,0,0,1-.5449-.2754h-.0469v1.7383a.6912.6912,0,0,0,.082.3526.4744.4744,0,0,0,.252.205,2.5711,2.5711,0,0,0,.4014.1036,2.9168,2.9168,0,0,0,.4306.0556v.3867h-3.2285v-.3867q.1816-.0117.3516-.0293a1.6178,1.6178,0,0,0,.3047-.0586.3961.3961,0,0,0,.2461-.2051.792.792,0,0,0,.07-.3457v-6.1464a.7109.7109,0,0,0-.0879-.34.7521.7521,0,0,0-.2285-.2637.8314.8314,0,0,0-.293-.1084,2.7722,2.7722,0,0,0-.3633-.05v-.3867l1.9688-.1289.082.07v.65l.0469.0117a2.5287,2.5287,0,0,1,.7558-.5859,1.9311,1.9311,0,0,1,.8965-.2344,2.1423,2.1423,0,0,1,.9873.2285A2.43,2.43,0,0,1,418.5947,743.4678Zm-.9551,4.1543a2.6444,2.6444,0,0,0,.3458-.8438,4.76,4.76,0,0,0,.1113-1.0722,4.3423,4.3423,0,0,0-.0938-.8848,2.5257,2.5257,0,0,0-.2929-.7852,1.64,1.64,0,0,0-.5215-.5507,1.3805,1.3805,0,0,0-.7735-.211,1.366,1.366,0,0,0-.7382.19,2.2374,2.2374,0,0,0-.5274.4541v3.4161a1.2749,1.2749,0,0,0,.1729.3281,1.54,1.54,0,0,0,.2666.293,1.6873,1.6873,0,0,0,.3925.2373,1.3043,1.3043,0,0,0,.5157.0908,1.265,1.265,0,0,0,.6328-.1729A1.4674,1.4674,0,0,0,417.64,747.6221Z"/><path d="M425.45,743.4678a3.0073,3.0073,0,0,1,.5361.9521,3.7271,3.7271,0,0,1,.19,1.2393,3.309,3.309,0,0,1-.2286,1.251,3.0625,3.0625,0,0,1-.6035.9638,2.84,2.84,0,0,1-.873.6211,2.4511,2.4511,0,0,1-1.02.2168,2.6236,2.6236,0,0,1-.8554-.1172,2.0211,2.0211,0,0,1-.5449-.2754h-.0469v1.7383a.69.69,0,0,0,.082.3526.4744.4744,0,0,0,.252.205,2.5724,2.5724,0,0,0,.4013.1036,2.92,2.92,0,0,0,.4307.0556v.3867h-3.2285v-.3867q.1816-.0117.3515-.0293a1.6162,1.6162,0,0,0,.3047-.0586.3958.3958,0,0,0,.2461-.2051.7905.7905,0,0,0,.07-.3457v-6.1464a.7109.7109,0,0,0-.0879-.34.75.75,0,0,0-.2285-.2637.8308.8308,0,0,0-.2929-.1084,2.7722,2.7722,0,0,0-.3633-.05v-.3867l1.9687-.1289.0821.07v.65l.0468.0117a2.53,2.53,0,0,1,.7559-.5859,1.9311,1.9311,0,0,1,.8965-.2344,2.1423,2.1423,0,0,1,.9873.2285A2.43,2.43,0,0,1,425.45,743.4678Zm-.9551,4.1543a2.642,2.642,0,0,0,.3457-.8438,4.76,4.76,0,0,0,.1113-1.0722,4.342,4.342,0,0,0-.0937-.8848,2.5258,2.5258,0,0,0-.293-.7852,1.6379,1.6379,0,0,0-.5215-.5507,1.5247,1.5247,0,0,0-1.5117-.0206,2.2369,2.2369,0,0,0-.5273.4541v3.4161a1.2744,1.2744,0,0,0,.1728.3281,1.5468,1.5468,0,0,0,.2666.293,1.6879,1.6879,0,0,0,.3926.2373,1.3037,1.3037,0,0,0,.5156.0908,1.2653,1.2653,0,0,0,.6329-.1729A1.4674,1.4674,0,0,0,424.4951,747.6221Z"/><path d="M432.1592,747.2a2.96,2.96,0,0,1-.9727,1.1016,2.4489,2.4489,0,0,1-1.4.41,2.847,2.847,0,0,1-1.2216-.2461,2.3979,2.3979,0,0,1-.8643-.6679,2.8364,2.8364,0,0,1-.5068-.9844,4.156,4.156,0,0,1-.167-1.1895,3.5044,3.5044,0,0,1,.1787-1.1045,3.1154,3.1154,0,0,1,.5244-.9756,2.5385,2.5385,0,0,1,.8291-.6709,2.39,2.39,0,0,1,1.11-.2548,2.6729,2.6729,0,0,1,1.084.1992,1.9288,1.9288,0,0,1,.7325.5449,2.1779,2.1779,0,0,1,.4013.7734,3.3929,3.3929,0,0,1,.1319.9668v.3868h-3.8262a4.5538,4.5538,0,0,0,.1084,1.0341,2.4851,2.4851,0,0,0,.3428.8164,1.6328,1.6328,0,0,0,.5976.5372,1.8485,1.8485,0,0,0,.8789.1962,1.61,1.61,0,0,0,.8994-.2451,2.408,2.408,0,0,0,.73-.88Zm-1.2949-2.2031a4.7789,4.7789,0,0,0-.0557-.7012,2.1433,2.1433,0,0,0-.1787-.625,1.1961,1.1961,0,0,0-.3692-.4385,1.01,1.01,0,0,0-.6035-.1689,1.2579,1.2579,0,0,0-1.0224.5107,2.3846,2.3846,0,0,0-.4424,1.4229Z"/><path d="M442.7119,748.56h-2.8125v-.3867q.1349-.0119.2725-.0235a1.0489,1.0489,0,0,0,.2431-.0469.4208.4208,0,0,0,.2432-.1845.66.66,0,0,0,.0791-.3428v-2.9824a1.4222,1.4222,0,0,0-.2783-.9405.8709.8709,0,0,0-.6944-.331,1.6248,1.6248,0,0,0-.539.0879,1.6982,1.6982,0,0,0-.4629.2461,1.4806,1.4806,0,0,0-.2842.2783,2.5965,2.5965,0,0,0-.1728.249v3.334a.7123.7123,0,0,0,.07.3369.4558.4558,0,0,0,.24.2022,1.9407,1.9407,0,0,0,.2432.0791,1.7491,1.7491,0,0,0,.2842.0381v.3867H436.39v-.3867q.1349-.0119.2608-.0235a1.0284,1.0284,0,0,0,.2314-.0469.4208.4208,0,0,0,.2432-.1845.66.66,0,0,0,.0791-.3428v-2.9824a1.4168,1.4168,0,0,0-.2793-.9405.8727.8727,0,0,0-.6953-.331,1.59,1.59,0,0,0-.541.0908,1.7881,1.7881,0,0,0-.4639.249,1.4231,1.4231,0,0,0-.2881.29q-.1172.1611-.1758.2431v3.3106a.6319.6319,0,0,0,.0821.334.5147.5147,0,0,0,.2461.205,1.2025,1.2025,0,0,0,.2519.0879,1.9551,1.9551,0,0,0,.2871.0411v.3867h-2.8066v-.3867q.1347-.0119.2783-.0235a1.0624,1.0624,0,0,0,.249-.0469.4208.4208,0,0,0,.2432-.1845.6563.6563,0,0,0,.0791-.3418v-3.5879a.6657.6657,0,0,0-.085-.336.764.764,0,0,0-.2373-.2548.9977.9977,0,0,0-.2754-.1143,1.7687,1.7687,0,0,0-.34-.0557v-.3867l1.9336-.1289.082.082v.8262h.041q.1465-.1464.3575-.3457a3.1967,3.1967,0,0,1,.3925-.3223,1.87,1.87,0,0,1,.5127-.2343,2.2715,2.2715,0,0,1,.6651-.0938,1.5707,1.5707,0,0,1,.9668.3018,1.7188,1.7188,0,0,1,.58.73c.1407-.1367.2637-.2569.3711-.36a3.09,3.09,0,0,1,.4248-.331,1.9231,1.9231,0,0,1,.5235-.2461,2.2435,2.2435,0,0,1,.67-.0938,1.472,1.472,0,0,1,1.1582.4805,2.1761,2.1761,0,0,1,.4268,1.4766v2.9355a.7123.7123,0,0,0,.07.3369.4558.4558,0,0,0,.24.2022,1.5929,1.5929,0,0,0,.2666.0791,2.4148,2.4148,0,0,0,.2959.0381Z"/><path d="M448.53,747.2a2.96,2.96,0,0,1-.9727,1.1016,2.4489,2.4489,0,0,1-1.4.41,2.8478,2.8478,0,0,1-1.2217-.2461,2.3984,2.3984,0,0,1-.8642-.6679,2.8364,2.8364,0,0,1-.5068-.9844,4.156,4.156,0,0,1-.167-1.1895,3.5044,3.5044,0,0,1,.1787-1.1045,3.1154,3.1154,0,0,1,.5244-.9756,2.5385,2.5385,0,0,1,.8291-.6709,2.39,2.39,0,0,1,1.11-.2548,2.6729,2.6729,0,0,1,1.084.1992,1.9284,1.9284,0,0,1,.7324.5449,2.1765,2.1765,0,0,1,.4014.7734,3.3929,3.3929,0,0,1,.1318.9668v.3868h-3.8261a4.5538,4.5538,0,0,0,.1084,1.0341,2.4871,2.4871,0,0,0,.3427.8164,1.6338,1.6338,0,0,0,.5977.5372,1.8485,1.8485,0,0,0,.8789.1962,1.61,1.61,0,0,0,.8994-.2451,2.408,2.408,0,0,0,.7295-.88Zm-1.2949-2.2031a4.7789,4.7789,0,0,0-.0557-.7012,2.1433,2.1433,0,0,0-.1787-.625,1.1961,1.1961,0,0,0-.3692-.4385,1.01,1.01,0,0,0-.6035-.1689,1.2579,1.2579,0,0,0-1.0224.5107,2.3846,2.3846,0,0,0-.4424,1.4229Z"/><path d="M455.5791,748.56h-2.8242v-.3867q.1347-.0119.2959-.0235a1.11,1.11,0,0,0,.2666-.0469.4206.4206,0,0,0,.2431-.1845.6592.6592,0,0,0,.0791-.3428v-2.9707a1.3984,1.3984,0,0,0-.291-.9492.9033.9033,0,0,0-.707-.334,1.6168,1.6168,0,0,0-.57.0967,2.0179,2.0179,0,0,0-.458.2373,1.32,1.32,0,0,0-.3086.29,2.62,2.62,0,0,0-.167.249v3.3223a.6008.6008,0,0,0,.082.3281.5263.5263,0,0,0,.2461.1992,1.1523,1.1523,0,0,0,.2666.0879,2.4037,2.4037,0,0,0,.2959.0411v.3867h-2.83v-.3867q.1348-.0119.2784-.0235a1.0624,1.0624,0,0,0,.249-.0469.4211.4211,0,0,0,.2432-.1845.6563.6563,0,0,0,.0791-.3418v-3.5645a.7921.7921,0,0,0-.085-.3652.7283.7283,0,0,0-.2373-.2725.7989.7989,0,0,0-.2637-.1025,2.3473,2.3473,0,0,0-.3281-.044v-.3867l1.9219-.1289.082.082v.8145h.0293q.1406-.1407.3516-.3369a3.0626,3.0626,0,0,1,.3984-.3194,2.1,2.1,0,0,1,.5156-.2343,2.247,2.247,0,0,1,.6738-.0938,1.4618,1.4618,0,0,1,1.2334.5186,2.1945,2.1945,0,0,1,.4014,1.38v3.0058a.6772.6772,0,0,0,.07.3311.465.465,0,0,0,.24.1963,1.5505,1.5505,0,0,0,.2431.082,1.9038,1.9038,0,0,0,.2842.0352Z"/><path d="M459.8564,748.3076q-.3809.1583-.7207.2666a2.7642,2.7642,0,0,1-.832.1084,1.2468,1.2468,0,0,1-1.0225-.3662,1.6067,1.6067,0,0,1-.2958-1.0342v-3.914h-1.043v-.5625h1.0664v-1.7989h1.0664v1.7989h1.6582v.5625h-1.6465v3.2285a5.7774,5.7774,0,0,0,.0264.6064,1.1287,1.1287,0,0,0,.126.4248.6029.6029,0,0,0,.2812.2578,1.2027,1.2027,0,0,0,.5039.0879q.1465,0,.4307-.0263a1.8985,1.8985,0,0,0,.4013-.0674Z"/><path d="M395.6055,762.8535l-2.0215.1289-.0879-.082v-.5391l-.0469-.0117a2.395,2.395,0,0,1-.7519.5566,2.092,2.092,0,0,1-.9219.2168,2.1747,2.1747,0,0,1-.95-.2187,2.3951,2.3951,0,0,1-.7988-.6191,3.0736,3.0736,0,0,1-.5479-.9727,3.7438,3.7438,0,0,1-.2012-1.2539,3.2793,3.2793,0,0,1,.2168-1.1895,3.134,3.134,0,0,1,.5967-.9843,2.6271,2.6271,0,0,1,.874-.627,2.5407,2.5407,0,0,1,1.0567-.2344,3.0991,3.0991,0,0,1,.793.1036,2.8334,2.8334,0,0,1,.67.26V755.373a1.1905,1.1905,0,0,0-.0821-.4492.6825.6825,0,0,0-.2285-.3076,1.1459,1.1459,0,0,0-.4424-.1611,5.7921,5.7921,0,0,0-.6005-.0742v-.3633l2.3671-.1289.0879.0879v7.788a.7135.7135,0,0,0,.0791.3487.6838.6838,0,0,0,.2315.2422.7245.7245,0,0,0,.3223.0879q.2109.0176.3867.0234Zm-2.1211-1.0137V758.459a1.512,1.512,0,0,0-.1524-.3281,1.3038,1.3038,0,0,0-.66-.5645,1.3613,1.3613,0,0,0-.5332-.0976,1.2074,1.2074,0,0,0-.6455.1816,1.7269,1.7269,0,0,0-.5235.5215,2.7154,2.7154,0,0,0-.3427.8359,4.6912,4.6912,0,0,0-.125,1.1211,3.9428,3.9428,0,0,0,.0937.8945,2.3771,2.3771,0,0,0,.3154.7461,1.6375,1.6375,0,0,0,.5235.5274,1.3974,1.3974,0,0,0,.7568.1992,1.368,1.368,0,0,0,.7754-.2051A2.5022,2.5022,0,0,0,393.4844,761.84Z"/><path d="M401.3008,761.6a2.96,2.96,0,0,1-.9727,1.1016,2.4489,2.4489,0,0,1-1.4.41,2.847,2.847,0,0,1-1.2216-.2461,2.3979,2.3979,0,0,1-.8643-.6679,2.8364,2.8364,0,0,1-.5068-.9844,4.156,4.156,0,0,1-.167-1.1895,3.4978,3.4978,0,0,1,.1787-1.1035,3.1188,3.1188,0,0,1,.5244-.9765,2.5358,2.5358,0,0,1,.8291-.67,2.3908,2.3908,0,0,1,1.11-.2558,2.6725,2.6725,0,0,1,1.084.1992,1.9288,1.9288,0,0,1,.7325.5449,2.1775,2.1775,0,0,1,.4013.7735,3.3919,3.3919,0,0,1,.1319.9668v.3867H397.334a4.5491,4.5491,0,0,0,.1084,1.0342,2.4778,2.4778,0,0,0,.3428.8164,1.6246,1.6246,0,0,0,.5976.5371,1.8368,1.8368,0,0,0,.8789.1963,1.6182,1.6182,0,0,0,.8994-.2442,2.413,2.413,0,0,0,.73-.8808Zm-1.2949-2.2031a4.79,4.79,0,0,0-.0557-.7012,2.1619,2.1619,0,0,0-.1787-.625,1.201,1.201,0,0,0-.3692-.4375,1.0029,1.0029,0,0,0-.6035-.17,1.2563,1.2563,0,0,0-1.0224.5117,2.3792,2.3792,0,0,0-.4424,1.4219Z"/><path d="M414.748,762.959h-2.8125v-.3867q.1348-.0117.2725-.0235a1.0553,1.0553,0,0,0,.2432-.0468.42.42,0,0,0,.2431-.1836.6631.6631,0,0,0,.0791-.3438v-2.9824a1.4187,1.4187,0,0,0-.2783-.94.8717.8717,0,0,0-.6943-.332,1.6254,1.6254,0,0,0-.5391.0879,1.7011,1.7011,0,0,0-.4629.2461,1.4846,1.4846,0,0,0-.2842.2793,2.64,2.64,0,0,0-.1728.248v3.334a.7166.7166,0,0,0,.07.3379.4547.4547,0,0,0,.24.2012,1.96,1.96,0,0,0,.2432.08,1.7548,1.7548,0,0,0,.2842.0371v.3867h-2.7539v-.3867q.1347-.0117.2607-.0235a1.035,1.035,0,0,0,.2315-.0468.42.42,0,0,0,.2431-.1836.6631.6631,0,0,0,.0791-.3438v-2.9824a1.4134,1.4134,0,0,0-.2793-.94.8735.8735,0,0,0-.6953-.332,1.5863,1.5863,0,0,0-.541.0918,1.782,1.782,0,0,0-.4639.248,1.4019,1.4019,0,0,0-.288.2911c-.0782.1074-.1368.1875-.1758.2422v3.3105a.6319.6319,0,0,0,.082.334.5155.5155,0,0,0,.2461.2051,1.2067,1.2067,0,0,0,.252.0878,1.9379,1.9379,0,0,0,.2871.0411v.3867h-2.8067v-.3867q.1349-.0117.2783-.0235a1.0687,1.0687,0,0,0,.2491-.0468.42.42,0,0,0,.2431-.1836.6578.6578,0,0,0,.0791-.3418v-3.5879a.67.67,0,0,0-.0849-.3369.775.775,0,0,0-.2373-.2549.999.999,0,0,0-.2754-.1133,1.764,1.764,0,0,0-.34-.0566V757.24l1.9336-.1289.0821.0821v.8261h.041q.1464-.1464.3574-.3457a3.1861,3.1861,0,0,1,.3926-.3222,1.8644,1.8644,0,0,1,.5127-.2344,2.27,2.27,0,0,1,.665-.0938,1.5711,1.5711,0,0,1,.9668.3028,1.7166,1.7166,0,0,1,.58.7285c.1406-.1367.2637-.2559.3711-.3594a3.1215,3.1215,0,0,1,.4238-.332,1.942,1.942,0,0,1,.5244-.2461,2.2416,2.2416,0,0,1,.669-.0938,1.4694,1.4694,0,0,1,1.1582.4805,2.1714,2.1714,0,0,1,.4277,1.4766v2.9355a.7166.7166,0,0,0,.07.3379.4547.4547,0,0,0,.24.2012,1.6013,1.6013,0,0,0,.2666.08,2.4089,2.4089,0,0,0,.2959.0371Z"/><path d="M421.07,760.0117a3.8234,3.8234,0,0,1-.1933,1.1992,2.8383,2.8383,0,0,1-.5518.9981,2.5659,2.5659,0,0,1-.9385.6972,3.0062,3.0062,0,0,1-1.1963.2286,2.6948,2.6948,0,0,1-1.05-.2071,2.6481,2.6481,0,0,1-.8857-.6074,2.8962,2.8962,0,0,1-.6074-.957,3.4027,3.4027,0,0,1-.2256-1.2695,3.15,3.15,0,0,1,.789-2.2149,2.8864,2.8864,0,0,1,4.07-.043A3.0022,3.0022,0,0,1,421.07,760.0117Zm-1.2129.0117a5.2492,5.2492,0,0,0-.0879-.9277,2.9467,2.9467,0,0,0-.2636-.83,1.6316,1.6316,0,0,0-.4942-.582,1.24,1.24,0,0,0-.7451-.2207,1.32,1.32,0,0,0-.7725.2226,1.6536,1.6536,0,0,0-.5195.6094,2.6972,2.6972,0,0,0-.2637.8145,5.3891,5.3891,0,0,0-.0761.8847,5.5807,5.5807,0,0,0,.0908,1.0411,2.9653,2.9653,0,0,0,.291.8515,1.6619,1.6619,0,0,0,.501.59,1.2657,1.2657,0,0,0,.749.2129,1.3068,1.3068,0,0,0,1.1621-.709A3.7787,3.7787,0,0,0,419.8574,760.0234Z"/><path d="M428.2305,762.8535l-2.0215.1289-.0879-.082v-.5391l-.0469-.0117a2.395,2.395,0,0,1-.7519.5566,2.091,2.091,0,0,1-.9209.2168,2.1758,2.1758,0,0,1-.9512-.2187,2.3951,2.3951,0,0,1-.7988-.6191,3.0736,3.0736,0,0,1-.5479-.9727,3.7438,3.7438,0,0,1-.2012-1.2539,3.2793,3.2793,0,0,1,.2168-1.1895,3.134,3.134,0,0,1,.5967-.9843,2.6271,2.6271,0,0,1,.874-.627,2.5441,2.5441,0,0,1,1.0567-.2344,3.0991,3.0991,0,0,1,.793.1036,2.8334,2.8334,0,0,1,.67.26V755.373a1.1905,1.1905,0,0,0-.0821-.4492.6825.6825,0,0,0-.2285-.3076,1.1459,1.1459,0,0,0-.4424-.1611,5.7921,5.7921,0,0,0-.6005-.0742v-.3633l2.3671-.1289.0879.0879v7.788a.7135.7135,0,0,0,.0791.3487.6838.6838,0,0,0,.2315.2422.7245.7245,0,0,0,.3223.0879q.2109.0176.3867.0234Zm-2.1211-1.0137V758.459a1.512,1.512,0,0,0-.1524-.3281,1.46,1.46,0,0,0-.2627-.3223,1.5067,1.5067,0,0,0-.3974-.2422,1.36,1.36,0,0,0-.5323-.0976,1.2105,1.2105,0,0,0-.6464.1816,1.7159,1.7159,0,0,0-.5235.5215,2.7154,2.7154,0,0,0-.3427.8359,4.6912,4.6912,0,0,0-.125,1.1211,3.9428,3.9428,0,0,0,.0937.8945,2.3771,2.3771,0,0,0,.3154.7461,1.6276,1.6276,0,0,0,.5235.5274,1.4009,1.4009,0,0,0,.7578.1992,1.3669,1.3669,0,0,0,.7744-.2051A2.5022,2.5022,0,0,0,426.1094,761.84Z"/><path d="M434.9863,762.8535l-1.8867.1289-.0879-.082v-.7324h-.0351c-.0938.0976-.1993.2031-.3155.3144a2.2138,2.2138,0,0,1-.4043.3008,2.5485,2.5485,0,0,1-.5088.24,2.2982,2.2982,0,0,1-.6962.0821,1.4058,1.4058,0,0,1-1.167-.5,2.2881,2.2881,0,0,1-.4-1.4551v-2.7617a.7154.7154,0,0,0-.08-.3545.7379.7379,0,0,0-.2324-.249.7471.7471,0,0,0-.2657-.1016,2.53,2.53,0,0,0-.3359-.0449v-.3867l1.9277-.1407.0879.0821v4.0136a1.3818,1.3818,0,0,0,.2813.9434.8717.8717,0,0,0,.6738.3164,1.5519,1.5519,0,0,0,.5742-.1,1.6241,1.6241,0,0,0,.4219-.2334,1.9756,1.9756,0,0,0,.2783-.2608,1.4874,1.4874,0,0,0,.1846-.2539v-3.2714a.7005.7005,0,0,0-.082-.3428.768.768,0,0,0-.2285-.2549.6557.6557,0,0,0-.3135-.084c-.1387-.01-.294-.02-.4658-.0273v-.3867l2.1035-.1407.0879.0821v4.5839a.662.662,0,0,0,.082.3389.74.74,0,0,0,.2285.2393.6532.6532,0,0,0,.252.0859,3.0749,3.0749,0,0,0,.3222.0254Z"/><path d="M438.4023,762.959H435.584v-.3867c.09-.0078.1855-.0157.2871-.0254a1.3777,1.3777,0,0,0,.2519-.0449.4331.4331,0,0,0,.2461-.1836.6445.6445,0,0,0,.0821-.3438v-6.6963a.8846.8846,0,0,0-.0908-.3955.7683.7683,0,0,0-.2374-.291,1.2048,1.2048,0,0,0-.3867-.1289,3.51,3.51,0,0,0-.4511-.07v-.375l2.1738-.1289.082.0879v7.9277a.6707.6707,0,0,0,.0762.3379.4845.4845,0,0,0,.2461.2012,1.3624,1.3624,0,0,0,.2549.0878,1.8592,1.8592,0,0,0,.2841.0411Z"/><path d="M444.2617,761.6a2.96,2.96,0,0,1-.9726,1.1016,2.4494,2.4494,0,0,1-1.4.41,2.8471,2.8471,0,0,1-1.2217-.2461,2.3988,2.3988,0,0,1-.8643-.6679,2.8381,2.8381,0,0,1-.5068-.9844,4.16,4.16,0,0,1-.167-1.1895,3.5006,3.5006,0,0,1,.1787-1.1035,3.1229,3.1229,0,0,1,.5244-.9765,2.5368,2.5368,0,0,1,.8291-.67,2.3909,2.3909,0,0,1,1.11-.2558,2.6729,2.6729,0,0,1,1.084.1992,1.9292,1.9292,0,0,1,.7324.5449,2.1761,2.1761,0,0,1,.4014.7735,3.3955,3.3955,0,0,1,.1318.9668v.3867h-3.8262a4.5548,4.5548,0,0,0,.1084,1.0342,2.48,2.48,0,0,0,.3428.8164,1.6249,1.6249,0,0,0,.5977.5371,1.8362,1.8362,0,0,0,.8789.1963,1.6186,1.6186,0,0,0,.8994-.2442,2.4139,2.4139,0,0,0,.73-.8808Zm-1.2949-2.2031a4.79,4.79,0,0,0-.0557-.7012,2.1588,2.1588,0,0,0-.1787-.625,1.2007,1.2007,0,0,0-.3691-.4375,1.0031,1.0031,0,0,0-.6035-.17,1.2563,1.2563,0,0,0-1.0225.5117,2.38,2.38,0,0,0-.4424,1.4219Z"/><path d="M448.7441,760.1289a1.476,1.476,0,0,1,.3692.4863,1.5835,1.5835,0,0,1,.1289.6739,1.6429,1.6429,0,0,1-.6006,1.3125,2.568,2.568,0,0,1-2.4844.3281,2.5554,2.5554,0,0,1-.6064-.334l-.1172.3809h-.44l-.0586-2.01h.4043a2.2328,2.2328,0,0,0,.1993.5352,2.55,2.55,0,0,0,.3691.5527,2.0249,2.0249,0,0,0,.5479.4355,1.4628,1.4628,0,0,0,.7177.1758,1.3106,1.3106,0,0,0,.8672-.2558.9068.9068,0,0,0,.3047-.7344.8756.8756,0,0,0-.0967-.4238.9372.9372,0,0,0-.2842-.3145,2.2405,2.2405,0,0,0-.4746-.2422c-.1875-.0723-.3964-.1445-.6269-.2148a5.8007,5.8007,0,0,1-.6123-.2246,2.4439,2.4439,0,0,1-.5772-.3379,1.6525,1.6525,0,0,1-.4218-.5039,1.4388,1.4388,0,0,1-.1641-.7032,1.5808,1.5808,0,0,1,.5273-1.2011,1.9863,1.9863,0,0,1,1.4121-.4922,2.8789,2.8789,0,0,1,.6944.0879,2.403,2.403,0,0,1,.5771.2109l.1348-.3047h.4219l.0879,1.8574h-.4043a1.8685,1.8685,0,0,0-.53-1.0146,1.381,1.381,0,0,0-.9932-.3916,1.1062,1.1062,0,0,0-.7558.2422.7524.7524,0,0,0-.2754.584.9509.9509,0,0,0,.0908.4394.8081.8081,0,0,0,.2725.2988,2.2616,2.2616,0,0,0,.4423.2207c.1778.0684.3975.1446.6592.2305a5.66,5.66,0,0,1,.7295.2871A2.3932,2.3932,0,0,1,448.7441,760.1289Z"/><path d="M375.3643,777.3594H372.54v-.3867q.1348-.0119.2959-.0235a1.1092,1.1092,0,0,0,.2666-.0469.4208.4208,0,0,0,.2432-.1845.66.66,0,0,0,.0791-.3428v-2.9707a1.3989,1.3989,0,0,0-.291-.9492.9039.9039,0,0,0-.708-.334,1.6161,1.6161,0,0,0-.5694.0967,1.9991,1.9991,0,0,0-.458.2373,1.3027,1.3027,0,0,0-.3086.29,2.6155,2.6155,0,0,0-.1669.249v3.3223a.6008.6008,0,0,0,.082.3281.5271.5271,0,0,0,.2461.1993,1.1554,1.1554,0,0,0,.2666.0878,2.4011,2.4011,0,0,0,.2959.0411v.3867h-2.83v-.3867q.1347-.0119.2783-.0235a1.0624,1.0624,0,0,0,.249-.0469.42.42,0,0,0,.2432-.1835.6627.6627,0,0,0,.0791-.3428v-3.5645a.795.795,0,0,0-.085-.3662.7235.7235,0,0,0-.2373-.2715.8014.8014,0,0,0-.2636-.1025,2.3508,2.3508,0,0,0-.3282-.044v-.3867l1.9219-.1289.0821.0821v.8144h.0292q.1407-.1405.3516-.3369a3.0527,3.0527,0,0,1,.3984-.3193,2.0984,2.0984,0,0,1,.5157-.2344,2.247,2.247,0,0,1,.6738-.0938,1.4619,1.4619,0,0,1,1.2334.5186,2.1945,2.1945,0,0,1,.4014,1.38v3.0058a.6772.6772,0,0,0,.07.3311.4647.4647,0,0,0,.24.1963,1.5512,1.5512,0,0,0,.2432.082,1.902,1.902,0,0,0,.2842.0352Z"/><path d="M382.2666,777.2539l-1.8857.1289-.0889-.082v-.7324h-.0352c-.0937.0976-.1982.2021-.3154.3134a2.2176,2.2176,0,0,1-.4043.3018,2.58,2.58,0,0,1-.5088.24,2.2945,2.2945,0,0,1-.6963.0821,1.4089,1.4089,0,0,1-1.167-.5,2.2881,2.2881,0,0,1-.4-1.4551v-2.7627a.7281.7281,0,0,0-.0791-.3545.7045.7045,0,0,0-.499-.3506,2.5326,2.5326,0,0,0-.3359-.0439v-.3868l1.9277-.1406.0879.0821v4.0136a1.382,1.382,0,0,0,.2813.9434.8717.8717,0,0,0,.6738.3164,1.5526,1.5526,0,0,0,.5742-.1,1.6549,1.6549,0,0,0,.4219-.2344,1.9759,1.9759,0,0,0,.2783-.26,1.4946,1.4946,0,0,0,.1846-.2548v-3.2715a.703.703,0,0,0-.0821-.3428.7627.7627,0,0,0-.2285-.2539.6542.6542,0,0,0-.3135-.085q-.2079-.0145-.4658-.0263v-.3868l2.1026-.1406.0888.0821v4.583a.6619.6619,0,0,0,.0821.3388.7415.7415,0,0,0,.2285.24.6527.6527,0,0,0,.2519.0849,3.0651,3.0651,0,0,0,.3223.0264Z"/><path d="M392.86,777.3594h-2.8125v-.3867q.1347-.0119.2724-.0235a1.05,1.05,0,0,0,.2432-.0469.4206.4206,0,0,0,.2431-.1845.6592.6592,0,0,0,.0791-.3428v-2.9824a1.4218,1.4218,0,0,0-.2783-.9405.8707.8707,0,0,0-.6943-.331,1.6254,1.6254,0,0,0-.5391.0879,1.7011,1.7011,0,0,0-.4629.2461,1.48,1.48,0,0,0-.2841.2783,2.619,2.619,0,0,0-.1729.249v3.334a.7123.7123,0,0,0,.07.3369.4562.4562,0,0,0,.24.2022,1.9407,1.9407,0,0,0,.2432.0791,1.7507,1.7507,0,0,0,.2842.0381v.3867h-2.7539v-.3867q.1347-.0119.2607-.0235a1.0293,1.0293,0,0,0,.2315-.0469.4209.4209,0,0,0,.2431-.1845.6592.6592,0,0,0,.0791-.3428v-2.9824a1.4165,1.4165,0,0,0-.2793-.9405.873.873,0,0,0-.6962-.331,1.5887,1.5887,0,0,0-.54.0908,1.7737,1.7737,0,0,0-.4639.249,1.3977,1.3977,0,0,0-.2871.29c-.0791.1074-.1377.1885-.1767.2431v3.3106a.6319.6319,0,0,0,.082.334.5155.5155,0,0,0,.2461.2051,1.2067,1.2067,0,0,0,.252.0878,1.9512,1.9512,0,0,0,.2871.0411v.3867H382.97v-.3867q.1349-.0119.2783-.0235a1.0623,1.0623,0,0,0,.2491-.0469.42.42,0,0,0,.2431-.1835.6617.6617,0,0,0,.0791-.3428v-3.5879a.6724.6724,0,0,0-.0849-.3369.773.773,0,0,0-.2373-.2539.9977.9977,0,0,0-.2754-.1143,1.771,1.771,0,0,0-.34-.0557v-.3867l1.9336-.1289.0821.0821v.8261h.041q.1464-.1464.3574-.3457a3.1861,3.1861,0,0,1,.3926-.3222,1.8644,1.8644,0,0,1,.5127-.2344,2.27,2.27,0,0,1,.665-.0938,1.57,1.57,0,0,1,.9668.3018,1.72,1.72,0,0,1,.58.73c.14-.1367.2646-.2569.3721-.36a3.0023,3.0023,0,0,1,.4238-.331,1.9352,1.9352,0,0,1,.5234-.2461,2.2482,2.2482,0,0,1,.67-.0938,1.472,1.472,0,0,1,1.1582.4805,2.1761,2.1761,0,0,1,.4268,1.4766v2.9355a.7123.7123,0,0,0,.07.3369.456.456,0,0,0,.24.2022,1.59,1.59,0,0,0,.2666.0791,2.4122,2.4122,0,0,0,.2959.0381Z"/><path d="M398.6787,776a2.96,2.96,0,0,1-.9726,1.1016,2.4494,2.4494,0,0,1-1.4.41,2.8471,2.8471,0,0,1-1.2217-.2461,2.3988,2.3988,0,0,1-.8643-.6679,2.8381,2.8381,0,0,1-.5068-.9844,4.16,4.16,0,0,1-.167-1.1895,3.5072,3.5072,0,0,1,.1787-1.1045,3.1179,3.1179,0,0,1,.5244-.9755,2.537,2.537,0,0,1,.8291-.6709,2.3892,2.3892,0,0,1,1.11-.2549,2.6729,2.6729,0,0,1,1.084.1992,1.9292,1.9292,0,0,1,.7324.5449,2.1747,2.1747,0,0,1,.4013.7734,3.3929,3.3929,0,0,1,.1319.9668v.3868h-3.8262a4.54,4.54,0,0,0,.1084,1.0332,2.471,2.471,0,0,0,.3428.8164,1.6246,1.6246,0,0,0,.5976.5371,1.8369,1.8369,0,0,0,.8789.1972,1.6269,1.6269,0,0,0,.9-.2441,2.4222,2.4222,0,0,0,.7295-.8809Zm-1.2949-2.2031a4.7789,4.7789,0,0,0-.0557-.7012,2.1526,2.1526,0,0,0-.1787-.625,1.1846,1.1846,0,0,0-.3691-.4375,1.0031,1.0031,0,0,0-.6035-.17,1.2536,1.2536,0,0,0-1.0225.5117,2.3776,2.3776,0,0,0-.4424,1.4219Zm.2051-4.9922a.6015.6015,0,0,1-.1026.3633,1.6164,1.6164,0,0,1-.3017.2988q-.2929.2343-.7647.5977t-1.0166.791l-.2226-.1875q.5272-.7794.7353-1.0987t.4483-.706a1.2414,1.2414,0,0,1,.3515-.4072.714.714,0,0,1,.3926-.1084.4757.4757,0,0,1,.4805.457Z"/><path d="M403.7705,772.3262a.97.97,0,0,1-.1465.53.4964.4964,0,0,1-.4511.2315.6857.6857,0,0,1-.501-.17.5168.5168,0,0,1-.1729-.375,1.2374,1.2374,0,0,1,.02-.2344q.0206-.1054.0381-.2109a1.2979,1.2979,0,0,0-.6445.2226,1.9058,1.9058,0,0,0-.627.6328v3.3633a.6313.6313,0,0,0,.0791.334.4792.4792,0,0,0,.2491.1934,1.5673,1.5673,0,0,0,.3779.0878q.2314.0294.4014.0411v.3867h-3.0469v-.3867q.1347-.0119.2783-.0235a1.0624,1.0624,0,0,0,.249-.0469.42.42,0,0,0,.2432-.1835.6627.6627,0,0,0,.0791-.3428v-3.5645a.8085.8085,0,0,0-.085-.3564.71.71,0,0,0-.2373-.2813.8014.8014,0,0,0-.2636-.1025,2.3508,2.3508,0,0,0-.3282-.044v-.3867l1.9219-.1289.082.0821v.8144h.0293a2.6293,2.6293,0,0,1,.8086-.7207,1.71,1.71,0,0,1,.8145-.2461.7969.7969,0,0,1,.6006.24A.89.89,0,0,1,403.7705,772.3262Z"/><path d="M407.0635,777.3594h-2.7891v-.3867q.1349-.0119.2783-.0235a1.0643,1.0643,0,0,0,.2491-.0469.42.42,0,0,0,.2431-.1835.6617.6617,0,0,0,.0791-.3428v-3.5645a.7024.7024,0,0,0-.0849-.3427.7534.7534,0,0,0-.2373-.26,1.0856,1.0856,0,0,0-.3223-.12,2.3967,2.3967,0,0,0-.3867-.0616v-.3867l2.039-.1289.0821.0821v4.7109a.6621.6621,0,0,0,.0791.34.4648.4648,0,0,0,.2461.1993,2.0682,2.0682,0,0,0,.2509.0849,1.5478,1.5478,0,0,0,.2735.044Zm-.7324-8.127a.8532.8532,0,0,1-.22.583.6947.6947,0,0,1-.542.2491.6843.6843,0,0,1-.5185-.2374.7751.7751,0,0,1-.22-.5419.8066.8066,0,0,1,.22-.5625.6809.6809,0,0,1,.5185-.24.7217.7217,0,0,1,.5479.2256A.7387.7387,0,0,1,406.3311,769.2324Z"/><path d="M414.1182,779.9609h-3.1289v-.3867q.1817-.0117.3574-.0293a1.7519,1.7519,0,0,0,.3164-.0586.3971.3971,0,0,0,.2519-.2051.8.8,0,0,0,.07-.3476v-2.1367l-.0352-.0117a2.1879,2.1879,0,0,1-.2666.2431,1.8066,1.8066,0,0,1-.3594.2256,2.6959,2.6959,0,0,1-.4512.19,1.848,1.848,0,0,1-.5429.0674,2.2943,2.2943,0,0,1-.9922-.22,2.4111,2.4111,0,0,1-.8106-.624,2.9551,2.9551,0,0,1-.5468-.9815,3.8842,3.8842,0,0,1-.2022-1.28,3.0023,3.0023,0,0,1,.2344-1.2041,3.1606,3.1606,0,0,1,.62-.9462,2.7415,2.7415,0,0,1,.8867-.6065,2.5612,2.5612,0,0,1,1.0274-.2256,2.8235,2.8235,0,0,1,.6767.0733,2.7319,2.7319,0,0,1,.5069.1728,2.2,2.2,0,0,1,.3623.1963q.1816.12.2578.1611l.501-.7617.3349.0469q-.0234.4336-.0615,1.0674t-.0381,1.1084v5.3476a.7675.7675,0,0,0,.0762.3536.4909.4909,0,0,0,.2461.2265,1.9539,1.9539,0,0,0,.3574.1026,3.2778,3.2778,0,0,0,.3516.0556Zm-2.1328-3.6738v-3.4512a1.5275,1.5275,0,0,0-.1573-.3252,1.4136,1.4136,0,0,0-.2636-.3134,1.396,1.396,0,0,0-.4-.2344,1.4787,1.4787,0,0,0-.5469-.0938,1.3522,1.3522,0,0,0-1.1494.709,3.5333,3.5333,0,0,0-.4649,1.9512,4.0129,4.0129,0,0,0,.0909.8906,2.3123,2.3123,0,0,0,.3124.7442,1.655,1.655,0,0,0,.5323.5244,1.5373,1.5373,0,0,0,.8135.1963,1.375,1.375,0,0,0,.7187-.1787A2.2273,2.2273,0,0,0,411.9854,776.2871Z"/><path d="M420.6865,777.2539l-1.8857.1289-.0889-.082v-.7324h-.0351c-.0938.0976-.1983.2021-.3155.3134a2.2176,2.2176,0,0,1-.4043.3018,2.58,2.58,0,0,1-.5088.24,2.2937,2.2937,0,0,1-.6962.0821,1.4087,1.4087,0,0,1-1.167-.5,2.2881,2.2881,0,0,1-.4-1.4551v-2.7627a.7292.7292,0,0,0-.0791-.3545.7044.7044,0,0,0-.4991-.3506,2.5326,2.5326,0,0,0-.3359-.0439v-.3868l1.9277-.1406.0879.0821v4.0136a1.382,1.382,0,0,0,.2813.9434.8717.8717,0,0,0,.6738.3164,1.5519,1.5519,0,0,0,.5742-.1,1.6549,1.6549,0,0,0,.4219-.2344,1.9759,1.9759,0,0,0,.2783-.26,1.4946,1.4946,0,0,0,.1846-.2548v-3.2715a.703.703,0,0,0-.082-.3428.7641.7641,0,0,0-.2286-.2539.6541.6541,0,0,0-.3134-.085q-.208-.0145-.4658-.0263v-.3868l2.1025-.1406.0889.0821v4.583a.6619.6619,0,0,0,.082.3388.7415.7415,0,0,0,.2285.24.6526.6526,0,0,0,.252.0849,3.0608,3.0608,0,0,0,.3222.0264Z"/><path d="M426.5283,776a2.96,2.96,0,0,1-.9726,1.1016,2.4494,2.4494,0,0,1-1.4.41,2.8471,2.8471,0,0,1-1.2217-.2461,2.3988,2.3988,0,0,1-.8643-.6679,2.8381,2.8381,0,0,1-.5068-.9844,4.16,4.16,0,0,1-.167-1.1895,3.5072,3.5072,0,0,1,.1787-1.1045,3.1179,3.1179,0,0,1,.5244-.9755,2.538,2.538,0,0,1,.8291-.6709,2.3892,2.3892,0,0,1,1.11-.2549,2.6729,2.6729,0,0,1,1.084.1992,1.9284,1.9284,0,0,1,.7324.5449,2.1765,2.1765,0,0,1,.4014.7734,3.3929,3.3929,0,0,1,.1318.9668v.3868h-3.8262a4.5457,4.5457,0,0,0,.1084,1.0332,2.471,2.471,0,0,0,.3428.8164,1.6249,1.6249,0,0,0,.5977.5371,1.8363,1.8363,0,0,0,.8789.1972,1.6268,1.6268,0,0,0,.8994-.2441,2.4222,2.4222,0,0,0,.73-.8809Zm-1.2949-2.2031a4.7789,4.7789,0,0,0-.0557-.7012,2.15,2.15,0,0,0-.1787-.625,1.1846,1.1846,0,0,0-.3691-.4375,1.0031,1.0031,0,0,0-.6035-.17,1.2536,1.2536,0,0,0-1.0225.5117,2.3776,2.3776,0,0,0-.4424,1.4219Z"/><path d="M431.0107,774.5293a1.476,1.476,0,0,1,.3692.4863,1.5835,1.5835,0,0,1,.1289.6739,1.6429,1.6429,0,0,1-.6006,1.3125,2.568,2.568,0,0,1-2.4844.3281,2.5554,2.5554,0,0,1-.6064-.334l-.1172.3809h-.44l-.0586-2.01h.4043a2.2462,2.2462,0,0,0,.1993.5351,2.573,2.573,0,0,0,.3691.5528,2.06,2.06,0,0,0,.5479.4355,1.4628,1.4628,0,0,0,.7177.1758,1.3156,1.3156,0,0,0,.8672-.2559.9078.9078,0,0,0,.3047-.7343.88.88,0,0,0-.0967-.4248.9344.9344,0,0,0-.2842-.3135,2.2358,2.2358,0,0,0-.4746-.2432q-.2812-.1083-.6269-.2138a5.8249,5.8249,0,0,1-.6123-.2256,2.4422,2.4422,0,0,1-.5772-.3369,1.6525,1.6525,0,0,1-.4218-.5039,1.4388,1.4388,0,0,1-.1641-.7032,1.5808,1.5808,0,0,1,.5273-1.2011,1.9863,1.9863,0,0,1,1.4121-.4922,2.8789,2.8789,0,0,1,.6944.0879,2.403,2.403,0,0,1,.5771.2109l.1348-.3047h.4219l.0879,1.8574h-.4043a1.8715,1.8715,0,0,0-.53-1.0156,1.3837,1.3837,0,0,0-.9932-.3906,1.1017,1.1017,0,0,0-.7558.2422.75.75,0,0,0-.2754.584.9509.9509,0,0,0,.0908.4394.8081.8081,0,0,0,.2725.2988,2.2686,2.2686,0,0,0,.4423.22q.2667.1024.6592.2314a5.66,5.66,0,0,1,.7295.2871A2.3932,2.3932,0,0,1,431.0107,774.5293Z"/><path d="M440.5557,772.2676a3.0112,3.0112,0,0,1,.5361.9521,3.7276,3.7276,0,0,1,.19,1.2393,3.309,3.309,0,0,1-.2285,1.251,3.0625,3.0625,0,0,1-.6035.9638,2.8393,2.8393,0,0,1-.8731.6211,2.4491,2.4491,0,0,1-1.0195.2168,2.6247,2.6247,0,0,1-.8555-.1172,2.0241,2.0241,0,0,1-.5449-.2754H437.11v1.7383a.6927.6927,0,0,0,.082.3526.4766.4766,0,0,0,.2519.206,2.7036,2.7036,0,0,0,.4014.1026,2.9179,2.9179,0,0,0,.4307.0556v.3867h-3.2285v-.3867q.1815-.0117.3515-.0293a1.6162,1.6162,0,0,0,.3047-.0586.3961.3961,0,0,0,.2461-.2051.7905.7905,0,0,0,.07-.3457v-6.1464a.7109.7109,0,0,0-.0879-.34.7519.7519,0,0,0-.2285-.2637.8314.8314,0,0,0-.293-.1084,2.773,2.773,0,0,0-.3632-.05v-.3867l1.9687-.1289.082.07v.65l.0469.0117a2.5308,2.5308,0,0,1,.7559-.5859,1.932,1.932,0,0,1,.8965-.2344,2.1429,2.1429,0,0,1,.9873.2285A2.431,2.431,0,0,1,440.5557,772.2676Zm-.9551,4.1543a2.6443,2.6443,0,0,0,.3457-.8438,4.76,4.76,0,0,0,.1113-1.0722,4.342,4.342,0,0,0-.0937-.8848,2.5258,2.5258,0,0,0-.293-.7852,1.6379,1.6379,0,0,0-.5215-.5507,1.38,1.38,0,0,0-.7734-.211,1.3661,1.3661,0,0,0-.7383.19,2.2349,2.2349,0,0,0-.5273.4542v3.416a1.2713,1.2713,0,0,0,.1728.3281,1.5435,1.5435,0,0,0,.2666.293,1.6879,1.6879,0,0,0,.3926.2373,1.3037,1.3037,0,0,0,.5156.0908,1.2647,1.2647,0,0,0,.6328-.1729A1.4677,1.4677,0,0,0,439.6006,776.4219Z"/><path d="M447.6045,777.2539q-.2754.1-.4834.1611a1.66,1.66,0,0,1-.4717.0616,1.15,1.15,0,0,1-.73-.2139.9877.9877,0,0,1-.3486-.624h-.0352a2.8576,2.8576,0,0,1-.8173.6445,2.2926,2.2926,0,0,1-1.0518.2227,1.4889,1.4889,0,0,1-1.0693-.3985,1.3734,1.3734,0,0,1-.419-1.0429,1.7773,1.7773,0,0,1,.0938-.5977,1.428,1.428,0,0,1,.2812-.4746,1.4072,1.4072,0,0,1,.3867-.3135,3.3844,3.3844,0,0,1,.4512-.22q.2637-.1,1.0693-.3692a8.0178,8.0178,0,0,0,1.087-.4218v-.58a2.4591,2.4591,0,0,0-.0323-.293,1.2273,1.2273,0,0,0-.1377-.41,1.1664,1.1664,0,0,0-.331-.378.9919.9919,0,0,0-.6065-.1611,1.36,1.36,0,0,0-.5009.0908.9085.9085,0,0,0-.3252.19,1.6033,1.6033,0,0,0,.0556.3457,1.7915,1.7915,0,0,1,.0557.4218.5032.5032,0,0,1-.1846.375.7283.7283,0,0,1-.5127.17.48.48,0,0,1-.4306-.2081.8216.8216,0,0,1,.0527-.9814,1.9131,1.9131,0,0,1,.4951-.4395,2.6993,2.6993,0,0,1,.6387-.2783,2.508,2.508,0,0,1,.7324-.1142,4.7908,4.7908,0,0,1,.8584.0674,1.5762,1.5762,0,0,1,.665.29,1.35,1.35,0,0,1,.4541.5889,2.51,2.51,0,0,1,.1553.958q0,.8379-.0176,1.4853t-.0175,1.4151a.715.715,0,0,0,.0791.3632.6407.6407,0,0,0,.2431.2286.5981.5981,0,0,0,.2783.0585q.19.006.39.0059ZM445.56,774.16q-.4981.1464-.8731.2871a3.5376,3.5376,0,0,0-.6972.3535,1.5756,1.5756,0,0,0-.4629.4726,1.2023,1.2023,0,0,0-.17.6485.92.92,0,0,0,.2549.7168.9337.9337,0,0,0,.6475.2285,1.3235,1.3235,0,0,0,.7324-.2031,2.1165,2.1165,0,0,0,.5332-.4786Z"/><path d="M452.6025,772.3262a.9705.9705,0,0,1-.1464.53.4967.4967,0,0,1-.4512.2315.6857.6857,0,0,1-.501-.17.517.517,0,0,1-.1728-.375,1.2292,1.2292,0,0,1,.0205-.2344q.02-.1054.038-.2109a1.2983,1.2983,0,0,0-.6445.2226,1.9046,1.9046,0,0,0-.6269.6328v3.3633a.63.63,0,0,0,.0791.334.4785.4785,0,0,0,.249.1934,1.5673,1.5673,0,0,0,.3779.0878q.2314.0294.4014.0411v.3867h-3.0469v-.3867q.1348-.0119.2783-.0235a1.0643,1.0643,0,0,0,.2491-.0469.42.42,0,0,0,.2431-.1835.6617.6617,0,0,0,.0791-.3428v-3.5645a.81.81,0,0,0-.0849-.3564.7121.7121,0,0,0-.2373-.2813.8028.8028,0,0,0-.2637-.1025,2.3514,2.3514,0,0,0-.3281-.044v-.3867l1.9218-.1289.0821.0821v.8144h.0293a2.6282,2.6282,0,0,1,.8086-.7207,1.709,1.709,0,0,1,.8144-.2461.7969.7969,0,0,1,.6006.24A.89.89,0,0,1,452.6025,772.3262Z"/><path d="M458.6963,777.3594h-2.8184v-.3867q.1348-.0119.2871-.0264a1.3787,1.3787,0,0,0,.252-.044.4339.4339,0,0,0,.2461-.1845.6408.6408,0,0,0,.082-.3428v-6.6973a.88.88,0,0,0-.0908-.3945.7681.7681,0,0,0-.2373-.291,1.2023,1.2023,0,0,0-.3867-.1289,3.5089,3.5089,0,0,0-.4512-.07v-.375l2.1738-.1289.0821.0879v7.9277a.6678.6678,0,0,0,.0761.3369.4861.4861,0,0,0,.2461.2022,1.3648,1.3648,0,0,0,.2549.0878,1.8732,1.8732,0,0,0,.2842.0411Z"/><path d="M464.5557,776a2.96,2.96,0,0,1-.9727,1.1016,2.4489,2.4489,0,0,1-1.4.41,2.8474,2.8474,0,0,1-1.2217-.2461,2.3976,2.3976,0,0,1-.8642-.6679,2.8383,2.8383,0,0,1-.5069-.9844,4.16,4.16,0,0,1-.1669-1.1895,3.5044,3.5044,0,0,1,.1787-1.1045,3.1138,3.1138,0,0,1,.5244-.9755,2.536,2.536,0,0,1,.8291-.6709,2.3891,2.3891,0,0,1,1.11-.2549,2.6729,2.6729,0,0,1,1.084.1992,1.9284,1.9284,0,0,1,.7324.5449,2.1765,2.1765,0,0,1,.4014.7734,3.3929,3.3929,0,0,1,.1318.9668v.3868h-3.8261a4.54,4.54,0,0,0,.1084,1.0332,2.4708,2.4708,0,0,0,.3427.8164,1.6257,1.6257,0,0,0,.5977.5371,1.8369,1.8369,0,0,0,.8789.1972,1.6263,1.6263,0,0,0,.8994-.2441,2.4212,2.4212,0,0,0,.73-.8809Zm-1.295-2.2031a4.7782,4.7782,0,0,0-.0556-.7012,2.1526,2.1526,0,0,0-.1787-.625,1.1849,1.1849,0,0,0-.3692-.4375,1.0029,1.0029,0,0,0-.6035-.17,1.2537,1.2537,0,0,0-1.0225.5117,2.3776,2.3776,0,0,0-.4423,1.4219Z"/><path d="M469.0381,774.5293a1.4756,1.4756,0,0,1,.3691.4863,1.582,1.582,0,0,1,.1289.6739,1.6429,1.6429,0,0,1-.6006,1.3125,2.5678,2.5678,0,0,1-2.4843.3281,2.5565,2.5565,0,0,1-.6065-.334l-.1172.3809h-.4394l-.0586-2.01h.4043a2.241,2.241,0,0,0,.1992.5351,2.5767,2.5767,0,0,0,.3691.5528,2.0617,2.0617,0,0,0,.5479.4355,1.4632,1.4632,0,0,0,.7178.1758,1.3158,1.3158,0,0,0,.8672-.2559.9077.9077,0,0,0,.3046-.7343.8807.8807,0,0,0-.0966-.4248.9354.9354,0,0,0-.2842-.3135,2.2358,2.2358,0,0,0-.4746-.2432q-.2812-.1083-.627-.2138a5.8249,5.8249,0,0,1-.6123-.2256,2.4394,2.4394,0,0,1-.5771-.3369,1.6528,1.6528,0,0,1-.4219-.5039,1.4388,1.4388,0,0,1-.1641-.7032,1.5806,1.5806,0,0,1,.5274-1.2011,1.986,1.986,0,0,1,1.4121-.4922,2.8781,2.8781,0,0,1,.6943.0879,2.404,2.404,0,0,1,.5772.2109l.1347-.3047h.4219l.0879,1.8574h-.4043a1.8708,1.8708,0,0,0-.53-1.0156,1.3836,1.3836,0,0,0-.9931-.3906,1.102,1.102,0,0,0-.7559.2422.75.75,0,0,0-.2754.584.9521.9521,0,0,0,.0908.4394.809.809,0,0,0,.2725.2988,2.27,2.27,0,0,0,.4424.22q.2665.1024.6592.2314a5.6661,5.6661,0,0,1,.7295.2871A2.3953,2.3953,0,0,1,469.0381,774.5293Z"/><path d="M387.1182,791.76h-3.6739v-.416q.1992-.006.5127-.0411a1.2921,1.2921,0,0,0,.4307-.1.7645.7645,0,0,0,.2666-.2558.6948.6948,0,0,0,.085-.3594V784.541h-.0879l-2.836,7.084h-.2929l-2.7012-7.2305h-.0762v4.9629a4.9755,4.9755,0,0,0,.0908,1.0957,1.0175,1.0175,0,0,0,.2784.5391,1.35,1.35,0,0,0,.5332.2344,3.2342,3.2342,0,0,0,.5273.1172v.416h-3.3574v-.416a4.3474,4.3474,0,0,0,.5537-.0879,1.0736,1.0736,0,0,0,.4482-.1934.86.86,0,0,0,.2813-.5039,5.8644,5.8644,0,0,0,.0762-1.1367V785.168a1.744,1.744,0,0,0-.0879-.6035.943.943,0,0,0-.252-.3809,1.1551,1.1551,0,0,0-.4453-.2344,2.24,2.24,0,0,0-.5215-.0879v-.416h2.835l2.3818,6.24,2.0332-5.2207a5.311,5.311,0,0,0,.19-.6005,2.7792,2.7792,0,0,0,.084-.419h2.7119v.416a2.9959,2.9959,0,0,0-.4189.0528,2.719,2.719,0,0,0-.3721.0879.4291.4291,0,0,0-.2695.2343.8975.8975,0,0,0-.07.3575v5.9941a.7677.7677,0,0,0,.07.3457.5991.5991,0,0,0,.2695.2461,1.3681,1.3681,0,0,0,.375.1074,3.1787,3.1787,0,0,0,.4278.0567Z"/><path d="M394.2783,791.6543l-1.8857.1289-.0889-.082v-.7324h-.0351c-.0938.0976-.1983.2011-.3155.3124a2.2261,2.2261,0,0,1-.4043.3028,2.58,2.58,0,0,1-.5088.24,2.2942,2.2942,0,0,1-.6962.082,1.4092,1.4092,0,0,1-1.167-.5009,2.285,2.285,0,0,1-.4-1.4541v-2.7637a.7254.7254,0,0,0-.0791-.3535.74.74,0,0,0-.2334-.2481.75.75,0,0,0-.2657-.1035,2.5355,2.5355,0,0,0-.3359-.0429v-.3868l1.9277-.1406.0879.082v4.0137a1.382,1.382,0,0,0,.2813.9434.8717.8717,0,0,0,.6738.3164,1.5519,1.5519,0,0,0,.5742-.1,1.6549,1.6549,0,0,0,.4219-.2344,2.0362,2.0362,0,0,0,.2783-.26,1.4982,1.4982,0,0,0,.1846-.2558v-3.2715a.7.7,0,0,0-.082-.3418.7641.7641,0,0,0-.2286-.2539.6532.6532,0,0,0-.3134-.086c-.1387-.01-.294-.0175-.4659-.0253v-.3868l2.1026-.1406.0889.082v4.5821a.6631.6631,0,0,0,.082.34.7412.7412,0,0,0,.2285.24.6489.6489,0,0,0,.252.084,3.047,3.047,0,0,0,.3222.0274Z"/><path d="M398.8018,788.93a1.4756,1.4756,0,0,1,.3691.4863,1.5833,1.5833,0,0,1,.1289.6738,1.6427,1.6427,0,0,1-.6006,1.3125,2.5677,2.5677,0,0,1-2.4844.3282,2.559,2.559,0,0,1-.6064-.334l-.1172.3808h-.4394l-.0586-2.01h.4043a2.2567,2.2567,0,0,0,.1992.5351,2.598,2.598,0,0,0,.3691.5528,2.06,2.06,0,0,0,.5479.4345,1.4529,1.4529,0,0,0,.7177.1768,1.3107,1.3107,0,0,0,.8672-.2568.9044.9044,0,0,0,.3047-.7334.8837.8837,0,0,0-.0967-.4258.9312.9312,0,0,0-.2841-.3125,2.2359,2.2359,0,0,0-.4746-.2442c-.1875-.0722-.3965-.1425-.627-.2129a5.8243,5.8243,0,0,1-.6123-.2265,2.44,2.44,0,0,1-.5772-.3359,1.6517,1.6517,0,0,1-.4218-.504,1.4384,1.4384,0,0,1-.1641-.7031,1.5809,1.5809,0,0,1,.5274-1.2012,1.9864,1.9864,0,0,1,1.4121-.4921,2.8835,2.8835,0,0,1,.6943.0878,2.4028,2.4028,0,0,1,.5771.211l.1348-.3047h.4219l.0879,1.8574h-.4043a1.8715,1.8715,0,0,0-.53-1.0156,1.38,1.38,0,0,0-.9932-.3906,1.1017,1.1017,0,0,0-.7558.2422.748.748,0,0,0-.2754.5839.9523.9523,0,0,0,.0908.44.809.809,0,0,0,.2725.2988,2.2769,2.2769,0,0,0,.4424.2188c.1777.0683.3974.1465.6591.2324a5.66,5.66,0,0,1,.73.2871A2.3961,2.3961,0,0,1,398.8018,788.93Z"/><path d="M405.3057,790.4a2.96,2.96,0,0,1-.9727,1.1016,2.4489,2.4489,0,0,1-1.4.41,2.8474,2.8474,0,0,1-1.2217-.2461,2.3967,2.3967,0,0,1-.8642-.668,2.837,2.837,0,0,1-.5069-.9843,4.16,4.16,0,0,1-.1669-1.1895,3.5094,3.5094,0,0,1,.1787-1.1054,3.11,3.11,0,0,1,.5244-.9747,2.54,2.54,0,0,1,.8291-.6718,2.3886,2.3886,0,0,1,1.11-.2539,2.6729,2.6729,0,0,1,1.084.1992,1.9284,1.9284,0,0,1,.7324.5449,2.1756,2.1756,0,0,1,.4014.7734,3.3929,3.3929,0,0,1,.1318.9668v.3868h-3.8261a4.5457,4.5457,0,0,0,.1084,1.0332,2.48,2.48,0,0,0,.3427.8164,1.6345,1.6345,0,0,0,.5977.5371,1.8486,1.8486,0,0,0,.8789.1972,1.6186,1.6186,0,0,0,.8994-.2451,2.4166,2.4166,0,0,0,.73-.88Zm-1.295-2.2031a4.7676,4.7676,0,0,0-.0556-.7012,2.1341,2.1341,0,0,0-.1787-.625,1.18,1.18,0,0,0-.3692-.4385,1.01,1.01,0,0,0-.6035-.1689,1.2555,1.2555,0,0,0-1.0225.5107,2.3829,2.3829,0,0,0-.4423,1.4229Zm.2051-4.9922a.6021.6021,0,0,1-.1025.3633,1.62,1.62,0,0,1-.3018.2988q-.293.2343-.7646.5976t-1.0166.7911l-.2227-.1875q.5274-.7794.7354-1.1t.4482-.7051a1.2469,1.2469,0,0,1,.3516-.4082.7132.7132,0,0,1,.3926-.1075.4739.4739,0,0,1,.48.4571Z"/><path d="M411.1064,790.4a2.9593,2.9593,0,0,1-.9726,1.1016,2.4494,2.4494,0,0,1-1.4.41,2.8474,2.8474,0,0,1-1.2217-.2461,2.3967,2.3967,0,0,1-.8642-.668,2.837,2.837,0,0,1-.5069-.9843,4.16,4.16,0,0,1-.167-1.1895,3.5123,3.5123,0,0,1,.1787-1.1054,3.1121,3.1121,0,0,1,.5245-.9747,2.54,2.54,0,0,1,.8291-.6718,2.3883,2.3883,0,0,1,1.11-.2539,2.6729,2.6729,0,0,1,1.084.1992,1.9284,1.9284,0,0,1,.7324.5449,2.1756,2.1756,0,0,1,.4014.7734,3.3929,3.3929,0,0,1,.1318.9668v.3868H407.14a4.5514,4.5514,0,0,0,.1084,1.0332,2.4821,2.4821,0,0,0,.3428.8164,1.6345,1.6345,0,0,0,.5977.5371,1.8483,1.8483,0,0,0,.8789.1972,1.619,1.619,0,0,0,.8994-.2451,2.4166,2.4166,0,0,0,.73-.88Zm-1.2949-2.2031a4.7676,4.7676,0,0,0-.0556-.7012,2.131,2.131,0,0,0-.1788-.625,1.179,1.179,0,0,0-.3691-.4385,1.01,1.01,0,0,0-.6035-.1689,1.2554,1.2554,0,0,0-1.0225.5107,2.3829,2.3829,0,0,0-.4424,1.4229Z"/><path d="M415.5889,788.93a1.4756,1.4756,0,0,1,.3691.4863,1.5833,1.5833,0,0,1,.1289.6738,1.6427,1.6427,0,0,1-.6006,1.3125,2.5675,2.5675,0,0,1-2.4843.3282,2.56,2.56,0,0,1-.6065-.334l-.1172.3808h-.4394l-.0586-2.01h.4043a2.2567,2.2567,0,0,0,.1992.5351,2.6017,2.6017,0,0,0,.3691.5528,2.06,2.06,0,0,0,.5479.4345,1.453,1.453,0,0,0,.7178.1768,1.31,1.31,0,0,0,.8671-.2568.9044.9044,0,0,0,.3047-.7334.8848.8848,0,0,0-.0966-.4258.9326.9326,0,0,0-.2842-.3125,2.2359,2.2359,0,0,0-.4746-.2442c-.1875-.0722-.3965-.1425-.627-.2129a5.8243,5.8243,0,0,1-.6123-.2265,2.4377,2.4377,0,0,1-.5771-.3359,1.652,1.652,0,0,1-.4219-.504,1.4384,1.4384,0,0,1-.1641-.7031,1.5809,1.5809,0,0,1,.5274-1.2012,1.9864,1.9864,0,0,1,1.4121-.4921,2.8835,2.8835,0,0,1,.6943.0878,2.4053,2.4053,0,0,1,.5772.211l.1347-.3047H415.7l.0879,1.8574h-.4043a1.8708,1.8708,0,0,0-.53-1.0156,1.38,1.38,0,0,0-.9931-.3906,1.1018,1.1018,0,0,0-.7559.2422.748.748,0,0,0-.2754.5839.9523.9523,0,0,0,.0908.44.809.809,0,0,0,.2725.2988,2.2769,2.2769,0,0,0,.4424.2188c.1777.0683.3974.1465.6591.2324a5.6546,5.6546,0,0,1,.7295.2871A2.394,2.394,0,0,1,415.5889,788.93Z"/><path d="M426.1826,791.6543l-2.0215.1289-.0879-.082v-.5391l-.0468-.0117a2.4069,2.4069,0,0,1-.752.5566,2.0875,2.0875,0,0,1-.9209.2168,2.1816,2.1816,0,0,1-.9512-.2207,2.3981,2.3981,0,0,1-.7988-.6172,3.051,3.051,0,0,1-.5469-.9726,3.7211,3.7211,0,0,1-.2021-1.2539,3.3,3.3,0,0,1,.2158-1.19,3.1362,3.1362,0,0,1,.5977-.9844,2.63,2.63,0,0,1,.875-.6269,2.5342,2.5342,0,0,1,1.0556-.2344,3.1023,3.1023,0,0,1,.793.1016,2.8482,2.8482,0,0,1,.67.2617v-2.0137a1.1832,1.1832,0,0,0-.082-.4492.6865.6865,0,0,0-.2285-.3086,1.1633,1.1633,0,0,0-.4424-.1621,5.84,5.84,0,0,0-.6006-.0723v-.3632l2.3672-.1289.0879.0878v7.7872a.7133.7133,0,0,0,.0791.3486.6942.6942,0,0,0,.2314.2431.7227.7227,0,0,0,.3223.0879q.2109.0177.3867.0235Zm-2.1211-1.0137V787.26a1.5093,1.5093,0,0,0-.1523-.3282,1.4618,1.4618,0,0,0-.2627-.3222,1.5021,1.5021,0,0,0-.3985-.2442,1.3479,1.3479,0,0,0-.5312-.0957,1.2109,1.2109,0,0,0-.6465.1817,1.7255,1.7255,0,0,0-.5234.5215,2.6793,2.6793,0,0,0-.3418.8339,4.66,4.66,0,0,0-.126,1.1231,3.926,3.926,0,0,0,.0938.8926,2.3412,2.3412,0,0,0,.3154.748,1.6273,1.6273,0,0,0,.5234.5274,1.4011,1.4011,0,0,0,.7578.1992,1.3644,1.3644,0,0,0,.7744-.2051A2.5285,2.5285,0,0,0,424.0615,790.6406Z"/><path d="M431.8779,790.4a2.96,2.96,0,0,1-.9726,1.1016,2.4494,2.4494,0,0,1-1.4.41,2.8471,2.8471,0,0,1-1.2217-.2461,2.3979,2.3979,0,0,1-.8643-.668,2.8368,2.8368,0,0,1-.5068-.9843,4.16,4.16,0,0,1-.167-1.1895,3.5123,3.5123,0,0,1,.1787-1.1054,3.1139,3.1139,0,0,1,.5244-.9747,2.5418,2.5418,0,0,1,.8291-.6718,2.3887,2.3887,0,0,1,1.11-.2539,2.6729,2.6729,0,0,1,1.084.1992,1.9284,1.9284,0,0,1,.7324.5449,2.1756,2.1756,0,0,1,.4014.7734,3.3929,3.3929,0,0,1,.1318.9668v.3868h-3.8262a4.5514,4.5514,0,0,0,.1084,1.0332,2.4821,2.4821,0,0,0,.3428.8164,1.6337,1.6337,0,0,0,.5977.5371,1.8483,1.8483,0,0,0,.8789.1972,1.619,1.619,0,0,0,.8994-.2451,2.4176,2.4176,0,0,0,.73-.88Zm-1.2949-2.2031a4.7547,4.7547,0,0,0-.0557-.7012,2.1311,2.1311,0,0,0-.1787-.625,1.18,1.18,0,0,0-.3691-.4385,1.01,1.01,0,0,0-.6035-.1689,1.2554,1.2554,0,0,0-1.0225.5107,2.3829,2.3829,0,0,0-.4424,1.4229Z"/><path d="M441.9561,785.4961a2.5009,2.5009,0,0,1-.2549,1.15,2.3043,2.3043,0,0,1-.7061.83,3.0474,3.0474,0,0,1-.9785.48,4.0967,4.0967,0,0,1-1.1309.1524h-.9316v2.5195a.8942.8942,0,0,0,.0674.3594.4663.4663,0,0,0,.2783.2383,1.82,1.82,0,0,0,.3721.0761,4.7243,4.7243,0,0,0,.4892.0411v.416h-3.5683v-.416q.1406-.0118.4072-.0411a1.4044,1.4044,0,0,0,.3721-.0761.5054.5054,0,0,0,.2549-.2227.7857.7857,0,0,0,.0791-.375v-6a1.0935,1.0935,0,0,0-.0586-.3691.4277.4277,0,0,0-.2754-.2461,2.48,2.48,0,0,0-.4424-.1094c-.1465-.0215-.2725-.0352-.3779-.043v-.416h3.7968a2.9929,2.9929,0,0,1,1.8838.5586A1.7923,1.7923,0,0,1,441.9561,785.4961Zm-1.7813,1.418a1.58,1.58,0,0,0,.2637-.584,2.6183,2.6183,0,0,0,.0644-.541,3.0364,3.0364,0,0,0-.0791-.68,1.5779,1.5779,0,0,0-.2724-.6035,1.3638,1.3638,0,0,0-.5391-.4278,2.0054,2.0054,0,0,0-.832-.1523h-.8262V787.6h.5977a2.3179,2.3179,0,0,0,1.0283-.1973A1.5047,1.5047,0,0,0,440.1748,786.9141Z"/><path d="M448.9521,791.6543l-1.8867.1289-.0879-.082v-.7324h-.0351c-.0938.0976-.1992.2011-.3154.3124a2.23,2.23,0,0,1-.4043.3028,2.5567,2.5567,0,0,1-.5088.24,2.2994,2.2994,0,0,1-.6963.082,1.4094,1.4094,0,0,1-1.167-.5009,2.285,2.285,0,0,1-.4-1.4541v-2.7637a.7143.7143,0,0,0-.08-.3535.7265.7265,0,0,0-.2324-.2481.75.75,0,0,0-.2656-.1035,2.5392,2.5392,0,0,0-.336-.0429v-.3868l1.9278-.1406.0879.082v4.0137a1.382,1.382,0,0,0,.2812.9434.8717.8717,0,0,0,.6738.3164,1.5528,1.5528,0,0,0,.5743-.1,1.6559,1.6559,0,0,0,.4218-.2344,2.03,2.03,0,0,0,.2783-.26,1.4927,1.4927,0,0,0,.1846-.2558v-3.2715a.6993.6993,0,0,0-.082-.3418.7649.7649,0,0,0-.2285-.2539.6533.6533,0,0,0-.3135-.086c-.1387-.01-.2939-.0175-.4658-.0253v-.3868l2.1035-.1406.0879.082v4.5821a.6631.6631,0,0,0,.082.34.7422.7422,0,0,0,.2285.24.6489.6489,0,0,0,.252.084,3.0493,3.0493,0,0,0,.3222.0274Z"/><path d="M452.3682,791.76H449.55v-.3868c.09-.0078.1856-.0175.2871-.0273a1.388,1.388,0,0,0,.252-.043.4357.4357,0,0,0,.2461-.1855.6417.6417,0,0,0,.082-.3428v-6.6963a.8846.8846,0,0,0-.0908-.3955.7655.7655,0,0,0-.2373-.29,1.2031,1.2031,0,0,0-.3868-.1289,3.5078,3.5078,0,0,0-.4511-.07v-.375l2.1738-.1289.082.0878v7.9278a.6627.6627,0,0,0,.0762.3359.487.487,0,0,0,.2461.2031,1.3557,1.3557,0,0,0,.2549.0879,1.8613,1.8613,0,0,0,.2842.041Z"/><path d="M455.8018,791.76h-2.8184v-.3868c.09-.0078.1855-.0175.2871-.0273a1.388,1.388,0,0,0,.252-.043.4357.4357,0,0,0,.2461-.1855.6417.6417,0,0,0,.082-.3428v-6.6963a.8846.8846,0,0,0-.0908-.3955.7655.7655,0,0,0-.2373-.29,1.2041,1.2041,0,0,0-.3868-.1289,3.5078,3.5078,0,0,0-.4511-.07v-.375l2.1738-.1289.082.0878v7.9278a.6627.6627,0,0,0,.0762.3359.487.487,0,0,0,.2461.2031,1.3557,1.3557,0,0,0,.2549.0879,1.8613,1.8613,0,0,0,.2842.041Z"/><path d="M456.0889,793.6465a.7023.7023,0,0,1,.1611-.4785.51.51,0,0,1,.4014-.1836.7.7,0,0,1,.3222.0693.8824.8824,0,0,1,.24.1807,1.4442,1.4442,0,0,1,.1875.2383c.0664.1.1191.1835.1582.25a2.35,2.35,0,0,0,.7-.8243,6.76,6.76,0,0,0,.5879-1.17q-.5553-1.3887-1.0069-2.4834t-.9433-2.2666a.8432.8432,0,0,0-.375-.42,1.5518,1.5518,0,0,0-.5274-.1895v-.3867h2.6377v.41a1.8689,1.8689,0,0,0-.4219.0722c-.164.045-.2461.0977-.2461.1563a.435.435,0,0,0,.0264.1162q.0264.082.0615.17c.1485.3858.3741.9444.6778,1.6709q.4556,1.0928.707,1.7481.2637-.627.5488-1.2969t.6367-1.584c.0274-.0742.0665-.1758.1172-.3066a.96.96,0,0,0,.0762-.3369c0-.1006-.0889-.1963-.2666-.2842a1.5811,1.5811,0,0,0-.5068-.16v-.375h2.1455v.3633a1.4322,1.4322,0,0,0-.4629.2012,1.0588,1.0588,0,0,0-.4277.49q-.6974,1.6171-1.2393,2.9473t-.8232,1.957a10.78,10.78,0,0,1-.6592,1.2793,3.8542,3.8542,0,0,1-.5655.7246,1.6377,1.6377,0,0,1-.4892.33,1.2507,1.2507,0,0,1-.4541.0859,1.0893,1.0893,0,0,1-.7178-.2168A.6364.6364,0,0,1,456.0889,793.6465Z"/><path class="af1a547d-66ff-4692-9168-970f327e22bc" d="M432.6616,836.2245v92.88a13.8193,13.8193,0,0,1-13.81,13.81h-92.88a13.8123,13.8123,0,0,1-13.81-13.81v-92.88a13.806,13.806,0,0,1,13.81-13.81h92.88a13.8287,13.8287,0,0,1,13.81,13.81Z"/><text class="e76a9917-dce5-4d8b-9ecb-6745f65f3013" transform="translate(351.4907 850.8671)">Retours <tspan x="-22.749" y="14.4004">d&apos;expérience des </tspan><tspan x="-22.2803" y="28.8003">petits et moyens </tspan><tspan x="-20.7275" y="43.2002">musées sur leur </tspan><tspan x="-2.7188" y="57.6001">projet de </tspan><tspan x="-19.333" y="72.0005">transformation</tspan></text><path class="af1a547d-66ff-4692-9168-970f327e22bc" d="M304.9912,812.7545v92.87a13.8147,13.8147,0,0,1-13.82,13.81h-92.87a13.8064,13.8064,0,0,1-13.81-13.81v-92.87a13.8148,13.8148,0,0,1,13.81-13.82h92.87A13.8231,13.8231,0,0,1,304.9912,812.7545Z"/><text class="e76a9917-dce5-4d8b-9ecb-6745f65f3013" transform="translate(212.6226 849.101)">Concept par <tspan x="-2.9199" y="14.3994">computed.By</tspan><tspan x="0" y="33.1992">Concept par </tspan><tspan x="2.9512" y="47.5996">Transverse</tspan></text><text class="e76a9917-dce5-4d8b-9ecb-6745f65f3013" transform="translate(219.627 822.5374)">Module 2</text><text class="b11152fb-176e-4112-b536-6aaccc77cc14" transform="translate(175.5793 703.6628)">Développement</text><line class="e500b430-d091-4113-b837-942b79f01db5" x1="328.4111" y1="811.1727" x2="328.4111" y2="766.7306"/><polygon points="334.546 806.203 333.447 805.179 328.413 810.597 323.376 805.179 322.278 806.203 328.413 812.799 334.546 806.203"/><path class="e500b430-d091-4113-b837-942b79f01db5" d="M300.5835,790.71l5.6548-5.6547a28.0462,28.0462,0,0,0,8.2138-19.8309V749.7511"/><polygon points="308.436 791.534 308.382 790.033 300.992 790.304 301.261 782.912 299.761 782.859 299.434 791.862 308.436 791.534"/><path class="e500b430-d091-4113-b837-942b79f01db5" d="M289.8169,736.3937H294.32a15.1321,15.1321,0,0,0,15.1318-15.1323V691.5673"/><polygon points="294.787 742.528 295.811 741.43 290.393 736.395 295.811 731.359 294.787 730.26 288.19 736.395 294.787 742.528"/><path class="e500b430-d091-4113-b837-942b79f01db5" d="M354.2378,750.883h-4.6944a15.1323,15.1323,0,0,1-15.1323-15.1324V706.0565"/><polygon points="349.268 744.748 348.244 745.847 353.662 750.881 348.244 755.918 349.268 757.016 355.864 750.881 349.268 744.748"/><path class="e500b430-d091-4113-b837-942b79f01db5" d="M347.8716,414.1845l-19.9,32.95-37.77-15.53c-.37-2.01-.81-4.01-1.3-6.01h30.21v-54.72l6.67-9.46a166.2466,166.2466,0,0,1,17.37,36.13A169.0193,169.0193,0,0,1,347.8716,414.1845Z"/><text class="e76a9917-dce5-4d8b-9ecb-6745f65f3013" transform="translate(77.0293 281.2501)">Dépôt de dossier pour le fonds de <tspan x="0" y="14.4004">transformation du SERAC pour </tspan><tspan x="0" y="28.8003">deux modules numériques aux </tspan><tspan x="0" y="43.2002">Musées de Pully</tspan></text><circle cx="84.8472" cy="367.2816" r="6.1127"/><circle cx="84.8472" cy="388.9112" r="6.1127"/><circle class="af1a547d-66ff-4692-9168-970f327e22bc" cx="104.9823" cy="410.5409" r="6.1127"/><path class="e500b430-d091-4113-b837-942b79f01db5" d="M356.8,242.298a34.4774,34.4774,0,0,1-57.7017,36.78"/></g><g id="e3b5b633-3d79-4c01-a5ce-3118c1dacd54" data-name="Layer 2"><text class="b11152fb-176e-4112-b536-6aaccc77cc14" transform="translate(286.4717 57.0463)">Potentiel de l&apos;utilisation <tspan x="-1.2246" y="20.3999">du numérique au musée</tspan></text></g></svg>